G04 #@! TF.GenerationSoftware,KiCad,Pcbnew,(5.1.5)-3*
G04 #@! TF.CreationDate,2020-02-08T14:47:08+01:00*
G04 #@! TF.ProjectId,SenseEHajo,53656e73-6545-4486-916a-6f2e6b696361,rev?*
G04 #@! TF.SameCoordinates,PX55061d0PY277be90*
G04 #@! TF.FileFunction,Profile,NP*
%FSLAX46Y46*%
G04 Gerber Fmt 4.6, Leading zero omitted, Abs format (unit mm)*
G04 Created by KiCad (PCBNEW (5.1.5)-3) date 2020-02-08 14:47:08*
%MOMM*%
%LPD*%
G04 APERTURE LIST*
%ADD10C,0.050000*%
G04 APERTURE END LIST*
D10*
X-51054000Y-28829000D02*
X-42392600Y-28829000D01*
X-40081200Y-21894800D02*
X-40081200Y-28829000D01*
X-42392600Y-21894800D02*
X-40081200Y-21894800D01*
X-42392600Y-28829000D02*
X-42392600Y-21894800D01*
X29514800Y21056600D02*
X29489400Y21082000D01*
X25425400Y21056600D02*
X29514800Y21056600D01*
X23266400Y5207000D02*
X31521400Y5207000D01*
X29489400Y21082000D02*
X64008000Y21082000D01*
X-12446000Y1143000D02*
X31521400Y1143000D01*
X23266400Y5207000D02*
X-12446000Y5207000D01*
X74930000Y-13970000D02*
X59944000Y-28956000D01*
X-16510000Y-35814000D02*
X-16510000Y-28829000D01*
X64008000Y21082000D02*
X64008000Y18034000D01*
X64008000Y18034000D02*
X74930000Y18034000D01*
X25527000Y-35814000D02*
X-16510000Y-35814000D01*
X-66040000Y-13843000D02*
X-66040000Y18288000D01*
X74930000Y10414000D02*
X68072000Y10414000D01*
X74930000Y-7874000D02*
X74930000Y-13970000D01*
X68072000Y-7874000D02*
X74930000Y-7874000D01*
X68072000Y10414000D02*
X68072000Y-7874000D01*
X74930000Y18034000D02*
X74930000Y10414000D01*
X31521400Y5207000D02*
G75*
G02X31521400Y1143000I0J-2032000D01*
G01*
X-12446000Y1143000D02*
X-22479000Y1143000D01*
X-22479000Y5207000D02*
X-12446000Y5207000D01*
X-22479000Y1143000D02*
G75*
G02X-22479000Y5207000I0J2032000D01*
G01*
X-51054000Y-28829000D02*
X-66040000Y-13843000D01*
X-16510000Y-28829000D02*
X-40081200Y-28829000D01*
X25527000Y-28956000D02*
X25527000Y-35814000D01*
X-55118000Y18288000D02*
X-55118000Y21082000D01*
X-66040000Y18288000D02*
X-55118000Y18288000D01*
X25425400Y21056600D02*
X-55118000Y21082000D01*
X59944000Y-28956000D02*
X25527000Y-28956000D01*
M02*
