M48
; DRILL file {KiCad (5.1.5)-3} date 08.02.2020 14:47:12
; FORMAT={-:-/ absolute / inch / decimal}
; #@! TF.CreationDate,2020-02-08T14:47:12+01:00
; #@! TF.GenerationSoftware,Kicad,Pcbnew,(5.1.5)-3
; #@! TF.FileFunction,Plated,1,2,PTH
FMAT,2
INCH
T1C0.0157
T2C0.0217
T3C0.0315
T4C0.0394
T5C0.0433
T6C0.0630
%
G90
G05
T1
X-1.15Y0.264
X-0.9444Y-0.5196
X-0.866Y-1.097
X-0.707Y-0.814
X-0.7051Y-0.903
X-0.648Y-0.91
X-0.6424Y-0.2176
X-0.4876Y-1.064
X0.11Y-0.1895
X0.329Y0.0204
X0.4654Y-1.0084
X0.496Y-0.25
X0.5068Y-0.0932
X0.51Y-0.19
X0.59Y-1.166
X0.7845Y-0.3765
X0.86Y-0.312
X0.932Y-0.421
X0.936Y-0.347
X0.943Y-0.594
X1.0875Y-0.253
X1.0875Y-0.305
X1.108Y-0.027
X1.145Y-0.31
X1.1902Y-0.7012
X1.2066Y0.0204
X1.23Y-0.6864
X1.268Y-0.208
X1.2704Y-0.6711
X1.3098Y-0.6568
X1.3417Y0.1679
X1.342Y-0.209
X1.343Y-0.132
X1.362Y-0.642
X1.385Y0.185
X1.404Y0.744
X1.405Y0.666
X1.414Y-0.057
X1.414Y-0.135
X1.417Y-0.209
X1.484Y0.169
X1.485Y0.094
X1.486Y0.017
X1.486Y-0.06
X1.488Y-0.135
X1.49Y-0.209
X1.519Y0.316
X1.5422Y-0.2418
X1.62Y-0.447
X1.62Y-0.5715
X1.6389Y-0.412
X1.65Y0.201
X1.651Y0.134
X1.653Y0.059
X1.653Y-0.021
X1.654Y-0.103
X1.657Y-0.192
X1.6674Y-0.4589
X1.7022Y-0.4774
X1.723Y0.204
X1.725Y0.135
X1.725Y0.06
X1.726Y-0.021
X1.728Y-0.107
X1.734Y0.472
X1.7453Y-0.1951
X1.7465Y-0.512
X1.7585Y0.411
X1.7655Y-0.4117
X1.787Y-0.1813
X1.8018Y-0.2585
X1.809Y-0.214
X1.8298Y-0.2862
X1.8418Y0.5287
X1.8437Y0.4894
X1.8437Y0.45
X1.86Y-0.3255
X1.878Y-0.405
X1.888Y-0.236
X1.9082Y-0.2768
X1.9225Y0.484
X1.931Y0.528
X1.961Y0.592
X1.967Y0.466
X2.006Y-0.628
X2.006Y-0.672
X2.007Y-0.586
X2.078Y0.155
X2.078Y0.022
X2.079Y0.284
X2.08Y-0.148
X2.08Y-0.82
X2.095Y-0.475
X2.129Y0.599
X2.151Y0.091
X2.154Y0.214
X2.161Y0.477
X2.161Y-0.059
X2.166Y0.287
X2.213Y-0.151
X2.252Y0.59
X2.258Y0.505
X2.273Y0.288
X2.277Y0.172
X2.28Y0.021
X2.286Y-0.695
X2.288Y-0.763
X2.298Y-0.075
X2.355Y0.095
X2.361Y-0.626
X2.361Y-0.763
X2.384Y0.288
X2.384Y-0.147
X2.401Y-0.38
X2.43Y0.021
X2.432Y0.171
X2.45Y-0.38
X2.468Y-0.518
X2.471Y-0.645
X2.475Y-0.804
X2.475Y-0.949
X2.497Y-0.076
X2.498Y0.284
X2.517Y0.095
X2.574Y0.286
X2.58Y0.158
X2.582Y-0.154
X2.587Y0.02
X2.588Y-0.814
X2.589Y-0.513
X2.592Y-0.642
X2.654Y0.59
X2.654Y0.551
X2.655Y0.511
X2.657Y0.462
X2.6646Y0.6538
X2.698Y-0.642
X2.798Y-0.638
T2
X-1.187Y-0.69
X-1.137Y-0.69
X-1.087Y-0.69
X-1.037Y-0.69
X1.345Y-0.71
X1.395Y-0.71
X1.445Y-0.71
X1.495Y-0.71
X0.096Y-1.035
X0.146Y-1.035
X0.196Y-1.035
X0.246Y-1.035
T3
X-2.193Y-0.851
X-1.9809Y-1.0631
X-0.29Y0.784
X-0.29Y0.484
X-1.024Y0.298
X-0.724Y0.298
X-1.775Y-0.967
X-1.775Y-1.067
X-1.475Y-0.967
X-1.475Y-1.067
X-2.53Y-0.529
X-2.3179Y-0.7411
X0.171Y0.269
X0.171Y-0.031
X0.271Y0.269
X0.271Y-0.031
X0.371Y0.269
X0.371Y-0.031
X-0.155Y0.269
X-0.155Y-0.031
X-0.055Y0.269
X-0.055Y-0.031
X0.045Y0.269
X0.045Y-0.031
X-0.175Y0.374
X0.125Y0.374
X-1.751Y0.643
X-1.751Y0.343
T4
X-1.61Y0.61
X-2.465Y0.58
X-2.25Y0.58
X1.726Y0.73
X1.826Y0.73
X1.926Y0.73
X2.026Y0.73
X2.126Y0.73
X-2.3869Y-0.1612
X-2.31Y0.02
X-1.4014Y-0.8019
X-1.1645Y-0.2438
X0.5Y0.75
X1.735Y-0.925
X1.835Y-0.925
X1.935Y-0.925
X2.035Y-0.925
X2.135Y-0.925
X0.504Y-0.025
X0.604Y-0.025
X1.735Y-1.07
X1.835Y-1.07
X1.935Y-1.07
X2.035Y-1.07
X2.135Y-1.07
X2.345Y0.76
X2.445Y0.76
T5
X-1.22Y-0.86
X-1.22Y-1.0372
X-0.9641Y-0.86
X-0.9641Y-1.0372
X0.05Y-1.185
X0.05Y-1.3622
X0.3059Y-1.185
X0.3059Y-1.3622
X1.26Y0.7472
X1.26Y0.57
X1.5159Y0.7472
X1.5159Y0.57
X1.315Y-0.8628
X1.315Y-1.04
X1.5709Y-0.8628
X1.5709Y-1.04
T6
X-0.1Y0.56
X0.5Y0.56
T0
M30
