G04 #@! TF.GenerationSoftware,KiCad,Pcbnew,(5.1.5)-3*
G04 #@! TF.CreationDate,2020-02-08T14:47:08+01:00*
G04 #@! TF.ProjectId,SenseEHajo,53656e73-6545-4486-916a-6f2e6b696361,rev?*
G04 #@! TF.SameCoordinates,PX55061d0PY277be90*
G04 #@! TF.FileFunction,Soldermask,Bot*
G04 #@! TF.FilePolarity,Negative*
%FSLAX46Y46*%
G04 Gerber Fmt 4.6, Leading zero omitted, Abs format (unit mm)*
G04 Created by KiCad (PCBNEW (5.1.5)-3) date 2020-02-08 14:47:08*
%MOMM*%
%LPD*%
G04 APERTURE LIST*
%ADD10C,0.050000*%
%ADD11C,0.150000*%
G04 APERTURE END LIST*
D10*
X-51054000Y-28829000D02*
X-42392600Y-28829000D01*
X-40081200Y-21894800D02*
X-40081200Y-28829000D01*
X-42392600Y-21894800D02*
X-40081200Y-21894800D01*
X-42392600Y-28829000D02*
X-42392600Y-21894800D01*
X29514800Y21056600D02*
X29489400Y21082000D01*
X25425400Y21056600D02*
X29514800Y21056600D01*
X23266400Y5207000D02*
X31521400Y5207000D01*
X29489400Y21082000D02*
X64008000Y21082000D01*
X-12446000Y1143000D02*
X31521400Y1143000D01*
X23266400Y5207000D02*
X-12446000Y5207000D01*
X74930000Y-13970000D02*
X59944000Y-28956000D01*
X-16510000Y-35814000D02*
X-16510000Y-28829000D01*
X64008000Y21082000D02*
X64008000Y18034000D01*
X64008000Y18034000D02*
X74930000Y18034000D01*
X25527000Y-35814000D02*
X-16510000Y-35814000D01*
X-66040000Y-13843000D02*
X-66040000Y18288000D01*
X74930000Y10414000D02*
X68072000Y10414000D01*
X74930000Y-7874000D02*
X74930000Y-13970000D01*
X68072000Y-7874000D02*
X74930000Y-7874000D01*
X68072000Y10414000D02*
X68072000Y-7874000D01*
X74930000Y18034000D02*
X74930000Y10414000D01*
X31521400Y5207000D02*
G75*
G02X31521400Y1143000I0J-2032000D01*
G01*
X-12446000Y1143000D02*
X-22479000Y1143000D01*
X-22479000Y5207000D02*
X-12446000Y5207000D01*
X-22479000Y1143000D02*
G75*
G02X-22479000Y5207000I0J2032000D01*
G01*
X-51054000Y-28829000D02*
X-66040000Y-13843000D01*
X-16510000Y-28829000D02*
X-40081200Y-28829000D01*
X25527000Y-28956000D02*
X25527000Y-35814000D01*
X-55118000Y18288000D02*
X-55118000Y21082000D01*
X-66040000Y18288000D02*
X-55118000Y18288000D01*
X25425400Y21056600D02*
X-55118000Y21082000D01*
X59944000Y-28956000D02*
X25527000Y-28956000D01*
D11*
G36*
X8076564Y-33588389D02*
G01*
X8267833Y-33667615D01*
X8267835Y-33667616D01*
X8439973Y-33782635D01*
X8586365Y-33929027D01*
X8701385Y-34101167D01*
X8780611Y-34292436D01*
X8821000Y-34495484D01*
X8821000Y-34702516D01*
X8780611Y-34905564D01*
X8701385Y-35096833D01*
X8701384Y-35096835D01*
X8586365Y-35268973D01*
X8439973Y-35415365D01*
X8267835Y-35530384D01*
X8267834Y-35530385D01*
X8267833Y-35530385D01*
X8076564Y-35609611D01*
X7873516Y-35650000D01*
X7666484Y-35650000D01*
X7463436Y-35609611D01*
X7272167Y-35530385D01*
X7272166Y-35530385D01*
X7272165Y-35530384D01*
X7100027Y-35415365D01*
X6953635Y-35268973D01*
X6838616Y-35096835D01*
X6838615Y-35096833D01*
X6759389Y-34905564D01*
X6719000Y-34702516D01*
X6719000Y-34495484D01*
X6759389Y-34292436D01*
X6838615Y-34101167D01*
X6953635Y-33929027D01*
X7100027Y-33782635D01*
X7272165Y-33667616D01*
X7272167Y-33667615D01*
X7463436Y-33588389D01*
X7666484Y-33548000D01*
X7873516Y-33548000D01*
X8076564Y-33588389D01*
G37*
G36*
X1576564Y-33588389D02*
G01*
X1767833Y-33667615D01*
X1767835Y-33667616D01*
X1939973Y-33782635D01*
X2086365Y-33929027D01*
X2201385Y-34101167D01*
X2280611Y-34292436D01*
X2321000Y-34495484D01*
X2321000Y-34702516D01*
X2280611Y-34905564D01*
X2201385Y-35096833D01*
X2201384Y-35096835D01*
X2086365Y-35268973D01*
X1939973Y-35415365D01*
X1767835Y-35530384D01*
X1767834Y-35530385D01*
X1767833Y-35530385D01*
X1576564Y-35609611D01*
X1373516Y-35650000D01*
X1166484Y-35650000D01*
X963436Y-35609611D01*
X772167Y-35530385D01*
X772166Y-35530385D01*
X772165Y-35530384D01*
X600027Y-35415365D01*
X453635Y-35268973D01*
X338616Y-35096835D01*
X338615Y-35096833D01*
X259389Y-34905564D01*
X219000Y-34702516D01*
X219000Y-34495484D01*
X259389Y-34292436D01*
X338615Y-34101167D01*
X453635Y-33929027D01*
X600027Y-33782635D01*
X772165Y-33667616D01*
X772167Y-33667615D01*
X963436Y-33588389D01*
X1166484Y-33548000D01*
X1373516Y-33548000D01*
X1576564Y-33588389D01*
G37*
G36*
X1576564Y-29088389D02*
G01*
X1767833Y-29167615D01*
X1767835Y-29167616D01*
X1939973Y-29282635D01*
X2086365Y-29429027D01*
X2201385Y-29601167D01*
X2280611Y-29792436D01*
X2321000Y-29995484D01*
X2321000Y-30202516D01*
X2280611Y-30405564D01*
X2201385Y-30596833D01*
X2201384Y-30596835D01*
X2086365Y-30768973D01*
X1939973Y-30915365D01*
X1767835Y-31030384D01*
X1767834Y-31030385D01*
X1767833Y-31030385D01*
X1576564Y-31109611D01*
X1373516Y-31150000D01*
X1166484Y-31150000D01*
X963436Y-31109611D01*
X772167Y-31030385D01*
X772166Y-31030385D01*
X772165Y-31030384D01*
X600027Y-30915365D01*
X453635Y-30768973D01*
X338616Y-30596835D01*
X338615Y-30596833D01*
X259389Y-30405564D01*
X219000Y-30202516D01*
X219000Y-29995484D01*
X259389Y-29792436D01*
X338615Y-29601167D01*
X453635Y-29429027D01*
X600027Y-29282635D01*
X772165Y-29167616D01*
X772167Y-29167615D01*
X963436Y-29088389D01*
X1166484Y-29048000D01*
X1373516Y-29048000D01*
X1576564Y-29088389D01*
G37*
G36*
X8076564Y-29088389D02*
G01*
X8267833Y-29167615D01*
X8267835Y-29167616D01*
X8439973Y-29282635D01*
X8586365Y-29429027D01*
X8701385Y-29601167D01*
X8780611Y-29792436D01*
X8821000Y-29995484D01*
X8821000Y-30202516D01*
X8780611Y-30405564D01*
X8701385Y-30596833D01*
X8701384Y-30596835D01*
X8586365Y-30768973D01*
X8439973Y-30915365D01*
X8267835Y-31030384D01*
X8267834Y-31030385D01*
X8267833Y-31030385D01*
X8076564Y-31109611D01*
X7873516Y-31150000D01*
X7666484Y-31150000D01*
X7463436Y-31109611D01*
X7272167Y-31030385D01*
X7272166Y-31030385D01*
X7272165Y-31030384D01*
X7100027Y-30915365D01*
X6953635Y-30768973D01*
X6838616Y-30596835D01*
X6838615Y-30596833D01*
X6759389Y-30405564D01*
X6719000Y-30202516D01*
X6719000Y-29995484D01*
X6759389Y-29792436D01*
X6838615Y-29601167D01*
X6953635Y-29429027D01*
X7100027Y-29282635D01*
X7272165Y-29167616D01*
X7272167Y-29167615D01*
X7463436Y-29088389D01*
X7666484Y-29048000D01*
X7873516Y-29048000D01*
X8076564Y-29088389D01*
G37*
G36*
X51802512Y-26281927D02*
G01*
X51951812Y-26311624D01*
X52115784Y-26379544D01*
X52263354Y-26478147D01*
X52388853Y-26603646D01*
X52487456Y-26751216D01*
X52555376Y-26915188D01*
X52575025Y-27013973D01*
X52589347Y-27085973D01*
X52590000Y-27089259D01*
X52590000Y-27266741D01*
X52555376Y-27440812D01*
X52487456Y-27604784D01*
X52388853Y-27752354D01*
X52263354Y-27877853D01*
X52115784Y-27976456D01*
X51951812Y-28044376D01*
X51802512Y-28074073D01*
X51777742Y-28079000D01*
X51600258Y-28079000D01*
X51575488Y-28074073D01*
X51426188Y-28044376D01*
X51262216Y-27976456D01*
X51114646Y-27877853D01*
X50989147Y-27752354D01*
X50890544Y-27604784D01*
X50822624Y-27440812D01*
X50788000Y-27266741D01*
X50788000Y-27089259D01*
X50788654Y-27085973D01*
X50802975Y-27013973D01*
X50822624Y-26915188D01*
X50890544Y-26751216D01*
X50989147Y-26603646D01*
X51114646Y-26478147D01*
X51262216Y-26379544D01*
X51426188Y-26311624D01*
X51575488Y-26281927D01*
X51600258Y-26277000D01*
X51777742Y-26277000D01*
X51802512Y-26281927D01*
G37*
G36*
X44970000Y-28079000D02*
G01*
X43168000Y-28079000D01*
X43168000Y-26277000D01*
X44970000Y-26277000D01*
X44970000Y-28079000D01*
G37*
G36*
X46722512Y-26281927D02*
G01*
X46871812Y-26311624D01*
X47035784Y-26379544D01*
X47183354Y-26478147D01*
X47308853Y-26603646D01*
X47407456Y-26751216D01*
X47475376Y-26915188D01*
X47495025Y-27013973D01*
X47509347Y-27085973D01*
X47510000Y-27089259D01*
X47510000Y-27266741D01*
X47475376Y-27440812D01*
X47407456Y-27604784D01*
X47308853Y-27752354D01*
X47183354Y-27877853D01*
X47035784Y-27976456D01*
X46871812Y-28044376D01*
X46722512Y-28074073D01*
X46697742Y-28079000D01*
X46520258Y-28079000D01*
X46495488Y-28074073D01*
X46346188Y-28044376D01*
X46182216Y-27976456D01*
X46034646Y-27877853D01*
X45909147Y-27752354D01*
X45810544Y-27604784D01*
X45742624Y-27440812D01*
X45708000Y-27266741D01*
X45708000Y-27089259D01*
X45708654Y-27085973D01*
X45722975Y-27013973D01*
X45742624Y-26915188D01*
X45810544Y-26751216D01*
X45909147Y-26603646D01*
X46034646Y-26478147D01*
X46182216Y-26379544D01*
X46346188Y-26311624D01*
X46495488Y-26281927D01*
X46520258Y-26277000D01*
X46697742Y-26277000D01*
X46722512Y-26281927D01*
G37*
G36*
X49262512Y-26281927D02*
G01*
X49411812Y-26311624D01*
X49575784Y-26379544D01*
X49723354Y-26478147D01*
X49848853Y-26603646D01*
X49947456Y-26751216D01*
X50015376Y-26915188D01*
X50035025Y-27013973D01*
X50049347Y-27085973D01*
X50050000Y-27089259D01*
X50050000Y-27266741D01*
X50015376Y-27440812D01*
X49947456Y-27604784D01*
X49848853Y-27752354D01*
X49723354Y-27877853D01*
X49575784Y-27976456D01*
X49411812Y-28044376D01*
X49262512Y-28074073D01*
X49237742Y-28079000D01*
X49060258Y-28079000D01*
X49035488Y-28074073D01*
X48886188Y-28044376D01*
X48722216Y-27976456D01*
X48574646Y-27877853D01*
X48449147Y-27752354D01*
X48350544Y-27604784D01*
X48282624Y-27440812D01*
X48248000Y-27266741D01*
X48248000Y-27089259D01*
X48248654Y-27085973D01*
X48262975Y-27013973D01*
X48282624Y-26915188D01*
X48350544Y-26751216D01*
X48449147Y-26603646D01*
X48574646Y-26478147D01*
X48722216Y-26379544D01*
X48886188Y-26311624D01*
X49035488Y-26281927D01*
X49060258Y-26277000D01*
X49237742Y-26277000D01*
X49262512Y-26281927D01*
G37*
G36*
X54342512Y-26281927D02*
G01*
X54491812Y-26311624D01*
X54655784Y-26379544D01*
X54803354Y-26478147D01*
X54928853Y-26603646D01*
X55027456Y-26751216D01*
X55095376Y-26915188D01*
X55115025Y-27013973D01*
X55129347Y-27085973D01*
X55130000Y-27089259D01*
X55130000Y-27266741D01*
X55095376Y-27440812D01*
X55027456Y-27604784D01*
X54928853Y-27752354D01*
X54803354Y-27877853D01*
X54655784Y-27976456D01*
X54491812Y-28044376D01*
X54342512Y-28074073D01*
X54317742Y-28079000D01*
X54140258Y-28079000D01*
X54115488Y-28074073D01*
X53966188Y-28044376D01*
X53802216Y-27976456D01*
X53654646Y-27877853D01*
X53529147Y-27752354D01*
X53430544Y-27604784D01*
X53362624Y-27440812D01*
X53328000Y-27266741D01*
X53328000Y-27089259D01*
X53328654Y-27085973D01*
X53342975Y-27013973D01*
X53362624Y-26915188D01*
X53430544Y-26751216D01*
X53529147Y-26603646D01*
X53654646Y-26478147D01*
X53802216Y-26379544D01*
X53966188Y-26311624D01*
X54115488Y-26281927D01*
X54140258Y-26277000D01*
X54317742Y-26277000D01*
X54342512Y-26281927D01*
G37*
G36*
X-37216772Y-26283503D02*
G01*
X-37061900Y-26347653D01*
X-36922519Y-26440785D01*
X-36803985Y-26559319D01*
X-36710853Y-26698700D01*
X-36646703Y-26853572D01*
X-36614000Y-27017984D01*
X-36614000Y-27185616D01*
X-36646703Y-27350028D01*
X-36710853Y-27504900D01*
X-36803985Y-27644281D01*
X-36922519Y-27762815D01*
X-37061900Y-27855947D01*
X-37216772Y-27920097D01*
X-37381184Y-27952800D01*
X-37548816Y-27952800D01*
X-37713228Y-27920097D01*
X-37868100Y-27855947D01*
X-38007481Y-27762815D01*
X-38126015Y-27644281D01*
X-38219147Y-27504900D01*
X-38283297Y-27350028D01*
X-38316000Y-27185616D01*
X-38316000Y-27017984D01*
X-38283297Y-26853572D01*
X-38219147Y-26698700D01*
X-38126015Y-26559319D01*
X-38007481Y-26440785D01*
X-37868100Y-26347653D01*
X-37713228Y-26283503D01*
X-37548816Y-26250800D01*
X-37381184Y-26250800D01*
X-37216772Y-26283503D01*
G37*
G36*
X-44836772Y-26283503D02*
G01*
X-44681900Y-26347653D01*
X-44542519Y-26440785D01*
X-44423985Y-26559319D01*
X-44330853Y-26698700D01*
X-44266703Y-26853572D01*
X-44234000Y-27017984D01*
X-44234000Y-27185616D01*
X-44266703Y-27350028D01*
X-44330853Y-27504900D01*
X-44423985Y-27644281D01*
X-44542519Y-27762815D01*
X-44681900Y-27855947D01*
X-44836772Y-27920097D01*
X-45001184Y-27952800D01*
X-45168816Y-27952800D01*
X-45333228Y-27920097D01*
X-45488100Y-27855947D01*
X-45627481Y-27762815D01*
X-45746015Y-27644281D01*
X-45839147Y-27504900D01*
X-45903297Y-27350028D01*
X-45936000Y-27185616D01*
X-45936000Y-27017984D01*
X-45903297Y-26853572D01*
X-45839147Y-26698700D01*
X-45746015Y-26559319D01*
X-45627481Y-26440785D01*
X-45488100Y-26347653D01*
X-45333228Y-26283503D01*
X-45168816Y-26250800D01*
X-45001184Y-26250800D01*
X-44836772Y-26283503D01*
G37*
G36*
X-50065818Y-26185257D02*
G01*
X-49910946Y-26249407D01*
X-49771565Y-26342539D01*
X-49653031Y-26461073D01*
X-49559899Y-26600454D01*
X-49495749Y-26755326D01*
X-49463046Y-26919738D01*
X-49463046Y-27087370D01*
X-49495749Y-27251782D01*
X-49559899Y-27406654D01*
X-49653031Y-27546035D01*
X-49771565Y-27664569D01*
X-49910946Y-27757701D01*
X-50065818Y-27821851D01*
X-50230230Y-27854554D01*
X-50397862Y-27854554D01*
X-50562274Y-27821851D01*
X-50717146Y-27757701D01*
X-50856527Y-27664569D01*
X-50975061Y-27546035D01*
X-51068193Y-27406654D01*
X-51132343Y-27251782D01*
X-51165046Y-27087370D01*
X-51165046Y-26919738D01*
X-51132343Y-26755326D01*
X-51068193Y-26600454D01*
X-50975061Y-26461073D01*
X-50856527Y-26342539D01*
X-50717146Y-26249407D01*
X-50562274Y-26185257D01*
X-50397862Y-26152554D01*
X-50230230Y-26152554D01*
X-50065818Y-26185257D01*
G37*
G36*
X40207564Y-25405389D02*
G01*
X40398833Y-25484615D01*
X40398835Y-25484616D01*
X40570973Y-25599635D01*
X40717365Y-25746027D01*
X40794194Y-25861009D01*
X40832385Y-25918167D01*
X40911611Y-26109436D01*
X40952000Y-26312484D01*
X40952000Y-26519516D01*
X40911611Y-26722564D01*
X40862208Y-26841833D01*
X40832384Y-26913835D01*
X40717365Y-27085973D01*
X40570973Y-27232365D01*
X40398835Y-27347384D01*
X40398834Y-27347385D01*
X40398833Y-27347385D01*
X40207564Y-27426611D01*
X40004516Y-27467000D01*
X39797484Y-27467000D01*
X39594436Y-27426611D01*
X39403167Y-27347385D01*
X39403166Y-27347385D01*
X39403165Y-27347384D01*
X39231027Y-27232365D01*
X39084635Y-27085973D01*
X38969616Y-26913835D01*
X38939792Y-26841833D01*
X38890389Y-26722564D01*
X38850000Y-26519516D01*
X38850000Y-26312484D01*
X38890389Y-26109436D01*
X38969615Y-25918167D01*
X39007807Y-25861009D01*
X39084635Y-25746027D01*
X39231027Y-25599635D01*
X39403165Y-25484616D01*
X39403167Y-25484615D01*
X39594436Y-25405389D01*
X39797484Y-25365000D01*
X40004516Y-25365000D01*
X40207564Y-25405389D01*
G37*
G36*
X33707564Y-25405389D02*
G01*
X33898833Y-25484615D01*
X33898835Y-25484616D01*
X34070973Y-25599635D01*
X34217365Y-25746027D01*
X34294194Y-25861009D01*
X34332385Y-25918167D01*
X34411611Y-26109436D01*
X34452000Y-26312484D01*
X34452000Y-26519516D01*
X34411611Y-26722564D01*
X34362208Y-26841833D01*
X34332384Y-26913835D01*
X34217365Y-27085973D01*
X34070973Y-27232365D01*
X33898835Y-27347384D01*
X33898834Y-27347385D01*
X33898833Y-27347385D01*
X33707564Y-27426611D01*
X33504516Y-27467000D01*
X33297484Y-27467000D01*
X33094436Y-27426611D01*
X32903167Y-27347385D01*
X32903166Y-27347385D01*
X32903165Y-27347384D01*
X32731027Y-27232365D01*
X32584635Y-27085973D01*
X32469616Y-26913835D01*
X32439792Y-26841833D01*
X32390389Y-26722564D01*
X32350000Y-26519516D01*
X32350000Y-26312484D01*
X32390389Y-26109436D01*
X32469615Y-25918167D01*
X32507807Y-25861009D01*
X32584635Y-25746027D01*
X32731027Y-25599635D01*
X32903165Y-25484616D01*
X32903167Y-25484615D01*
X33094436Y-25405389D01*
X33297484Y-25365000D01*
X33504516Y-25365000D01*
X33707564Y-25405389D01*
G37*
G36*
X-30681436Y-25333389D02*
G01*
X-30507610Y-25405390D01*
X-30490165Y-25412616D01*
X-30318027Y-25527635D01*
X-30171635Y-25674027D01*
X-30056615Y-25846167D01*
X-29977389Y-26037436D01*
X-29937000Y-26240484D01*
X-29937000Y-26447516D01*
X-29977389Y-26650564D01*
X-30029881Y-26777291D01*
X-30056616Y-26841835D01*
X-30171635Y-27013973D01*
X-30318027Y-27160365D01*
X-30490165Y-27275384D01*
X-30490166Y-27275385D01*
X-30490167Y-27275385D01*
X-30681436Y-27354611D01*
X-30884484Y-27395000D01*
X-31091516Y-27395000D01*
X-31294564Y-27354611D01*
X-31485833Y-27275385D01*
X-31485834Y-27275385D01*
X-31485835Y-27275384D01*
X-31657973Y-27160365D01*
X-31804365Y-27013973D01*
X-31919384Y-26841835D01*
X-31946119Y-26777291D01*
X-31998611Y-26650564D01*
X-32039000Y-26447516D01*
X-32039000Y-26240484D01*
X-31998611Y-26037436D01*
X-31919385Y-25846167D01*
X-31804365Y-25674027D01*
X-31657973Y-25527635D01*
X-31485835Y-25412616D01*
X-31468390Y-25405390D01*
X-31294564Y-25333389D01*
X-31091516Y-25293000D01*
X-30884484Y-25293000D01*
X-30681436Y-25333389D01*
G37*
G36*
X-24181436Y-25333389D02*
G01*
X-24007610Y-25405390D01*
X-23990165Y-25412616D01*
X-23818027Y-25527635D01*
X-23671635Y-25674027D01*
X-23556615Y-25846167D01*
X-23477389Y-26037436D01*
X-23437000Y-26240484D01*
X-23437000Y-26447516D01*
X-23477389Y-26650564D01*
X-23529881Y-26777291D01*
X-23556616Y-26841835D01*
X-23671635Y-27013973D01*
X-23818027Y-27160365D01*
X-23990165Y-27275384D01*
X-23990166Y-27275385D01*
X-23990167Y-27275385D01*
X-24181436Y-27354611D01*
X-24384484Y-27395000D01*
X-24591516Y-27395000D01*
X-24794564Y-27354611D01*
X-24985833Y-27275385D01*
X-24985834Y-27275385D01*
X-24985835Y-27275384D01*
X-25157973Y-27160365D01*
X-25304365Y-27013973D01*
X-25419384Y-26841835D01*
X-25446119Y-26777291D01*
X-25498611Y-26650564D01*
X-25539000Y-26447516D01*
X-25539000Y-26240484D01*
X-25498611Y-26037436D01*
X-25419385Y-25846167D01*
X-25304365Y-25674027D01*
X-25157973Y-25527635D01*
X-24985835Y-25412616D01*
X-24968390Y-25405390D01*
X-24794564Y-25333389D01*
X-24591516Y-25293000D01*
X-24384484Y-25293000D01*
X-24181436Y-25333389D01*
G37*
G36*
X2599121Y-25759174D02*
G01*
X2699395Y-25800709D01*
X2699396Y-25800710D01*
X2789642Y-25861010D01*
X2866390Y-25937758D01*
X2866391Y-25937760D01*
X2926691Y-26028005D01*
X2957916Y-26103389D01*
X2969467Y-26125000D01*
X2985012Y-26143941D01*
X3003954Y-26159487D01*
X3025565Y-26171038D01*
X3049014Y-26178151D01*
X3073400Y-26180553D01*
X3097786Y-26178151D01*
X3121235Y-26171038D01*
X3142846Y-26159487D01*
X3161787Y-26143942D01*
X3177333Y-26125000D01*
X3188884Y-26103389D01*
X3220109Y-26028005D01*
X3280409Y-25937760D01*
X3280410Y-25937758D01*
X3357158Y-25861010D01*
X3447404Y-25800710D01*
X3447405Y-25800709D01*
X3547679Y-25759174D01*
X3654130Y-25738000D01*
X3762670Y-25738000D01*
X3869121Y-25759174D01*
X3969395Y-25800709D01*
X3969396Y-25800710D01*
X4059642Y-25861010D01*
X4136390Y-25937758D01*
X4136391Y-25937760D01*
X4196691Y-26028005D01*
X4227916Y-26103389D01*
X4239467Y-26125000D01*
X4255012Y-26143941D01*
X4273954Y-26159487D01*
X4295565Y-26171038D01*
X4319014Y-26178151D01*
X4343400Y-26180553D01*
X4367786Y-26178151D01*
X4391235Y-26171038D01*
X4412846Y-26159487D01*
X4431787Y-26143942D01*
X4447333Y-26125000D01*
X4458884Y-26103389D01*
X4490109Y-26028005D01*
X4550409Y-25937760D01*
X4550410Y-25937758D01*
X4627158Y-25861010D01*
X4717404Y-25800710D01*
X4717405Y-25800709D01*
X4817679Y-25759174D01*
X4924130Y-25738000D01*
X5032670Y-25738000D01*
X5139121Y-25759174D01*
X5239395Y-25800709D01*
X5239396Y-25800710D01*
X5329642Y-25861010D01*
X5406390Y-25937758D01*
X5406391Y-25937760D01*
X5466691Y-26028005D01*
X5497916Y-26103389D01*
X5509467Y-26125000D01*
X5525012Y-26143941D01*
X5543954Y-26159487D01*
X5565565Y-26171038D01*
X5589014Y-26178151D01*
X5613400Y-26180553D01*
X5637786Y-26178151D01*
X5661235Y-26171038D01*
X5682846Y-26159487D01*
X5701787Y-26143942D01*
X5717333Y-26125000D01*
X5728884Y-26103389D01*
X5760109Y-26028005D01*
X5820409Y-25937760D01*
X5820410Y-25937758D01*
X5897158Y-25861010D01*
X5987404Y-25800710D01*
X5987405Y-25800709D01*
X6087679Y-25759174D01*
X6194130Y-25738000D01*
X6302670Y-25738000D01*
X6409121Y-25759174D01*
X6509395Y-25800709D01*
X6509396Y-25800710D01*
X6599642Y-25861010D01*
X6676390Y-25937758D01*
X6676391Y-25937760D01*
X6736691Y-26028005D01*
X6778226Y-26128279D01*
X6799400Y-26234730D01*
X6799400Y-26343270D01*
X6778226Y-26449721D01*
X6736691Y-26549995D01*
X6736690Y-26549996D01*
X6676390Y-26640242D01*
X6599642Y-26716990D01*
X6591298Y-26722565D01*
X6509395Y-26777291D01*
X6409121Y-26818826D01*
X6302670Y-26840000D01*
X6194130Y-26840000D01*
X6087679Y-26818826D01*
X5987405Y-26777291D01*
X5905502Y-26722565D01*
X5897158Y-26716990D01*
X5820410Y-26640242D01*
X5760110Y-26549996D01*
X5760109Y-26549995D01*
X5728884Y-26474611D01*
X5717333Y-26453000D01*
X5701788Y-26434059D01*
X5682846Y-26418513D01*
X5661235Y-26406962D01*
X5637786Y-26399849D01*
X5613400Y-26397447D01*
X5589014Y-26399849D01*
X5565565Y-26406962D01*
X5543954Y-26418513D01*
X5525013Y-26434058D01*
X5509467Y-26453000D01*
X5497916Y-26474611D01*
X5466691Y-26549995D01*
X5466690Y-26549996D01*
X5406390Y-26640242D01*
X5329642Y-26716990D01*
X5321298Y-26722565D01*
X5239395Y-26777291D01*
X5139121Y-26818826D01*
X5032670Y-26840000D01*
X4924130Y-26840000D01*
X4817679Y-26818826D01*
X4717405Y-26777291D01*
X4635502Y-26722565D01*
X4627158Y-26716990D01*
X4550410Y-26640242D01*
X4490110Y-26549996D01*
X4490109Y-26549995D01*
X4458884Y-26474611D01*
X4447333Y-26453000D01*
X4431788Y-26434059D01*
X4412846Y-26418513D01*
X4391235Y-26406962D01*
X4367786Y-26399849D01*
X4343400Y-26397447D01*
X4319014Y-26399849D01*
X4295565Y-26406962D01*
X4273954Y-26418513D01*
X4255013Y-26434058D01*
X4239467Y-26453000D01*
X4227916Y-26474611D01*
X4196691Y-26549995D01*
X4196690Y-26549996D01*
X4136390Y-26640242D01*
X4059642Y-26716990D01*
X4051298Y-26722565D01*
X3969395Y-26777291D01*
X3869121Y-26818826D01*
X3762670Y-26840000D01*
X3654130Y-26840000D01*
X3547679Y-26818826D01*
X3447405Y-26777291D01*
X3365502Y-26722565D01*
X3357158Y-26716990D01*
X3280410Y-26640242D01*
X3220110Y-26549996D01*
X3220109Y-26549995D01*
X3188884Y-26474611D01*
X3177333Y-26453000D01*
X3161788Y-26434059D01*
X3142846Y-26418513D01*
X3121235Y-26406962D01*
X3097786Y-26399849D01*
X3073400Y-26397447D01*
X3049014Y-26399849D01*
X3025565Y-26406962D01*
X3003954Y-26418513D01*
X2985013Y-26434058D01*
X2969467Y-26453000D01*
X2957916Y-26474611D01*
X2926691Y-26549995D01*
X2926690Y-26549996D01*
X2866390Y-26640242D01*
X2789642Y-26716990D01*
X2781298Y-26722565D01*
X2699395Y-26777291D01*
X2599121Y-26818826D01*
X2492670Y-26840000D01*
X2384130Y-26840000D01*
X2277679Y-26818826D01*
X2177405Y-26777291D01*
X2095502Y-26722565D01*
X2087158Y-26716990D01*
X2010410Y-26640242D01*
X1950110Y-26549996D01*
X1950109Y-26549995D01*
X1908574Y-26449721D01*
X1887400Y-26343270D01*
X1887400Y-26234730D01*
X1908574Y-26128279D01*
X1950109Y-26028005D01*
X2010409Y-25937760D01*
X2010410Y-25937758D01*
X2087158Y-25861010D01*
X2177404Y-25800710D01*
X2177405Y-25800709D01*
X2277679Y-25759174D01*
X2384130Y-25738000D01*
X2492670Y-25738000D01*
X2599121Y-25759174D01*
G37*
G36*
X-37216772Y-23743503D02*
G01*
X-37061900Y-23807653D01*
X-36922519Y-23900785D01*
X-36803985Y-24019319D01*
X-36710853Y-24158700D01*
X-36646703Y-24313572D01*
X-36614000Y-24477984D01*
X-36614000Y-24645616D01*
X-36646703Y-24810028D01*
X-36710853Y-24964900D01*
X-36803985Y-25104281D01*
X-36922519Y-25222815D01*
X-37061900Y-25315947D01*
X-37216772Y-25380097D01*
X-37381184Y-25412800D01*
X-37548816Y-25412800D01*
X-37713228Y-25380097D01*
X-37868100Y-25315947D01*
X-38007481Y-25222815D01*
X-38126015Y-25104281D01*
X-38219147Y-24964900D01*
X-38283297Y-24810028D01*
X-38316000Y-24645616D01*
X-38316000Y-24477984D01*
X-38283297Y-24313572D01*
X-38219147Y-24158700D01*
X-38126015Y-24019319D01*
X-38007481Y-23900785D01*
X-37868100Y-23807653D01*
X-37713228Y-23743503D01*
X-37548816Y-23710800D01*
X-37381184Y-23710800D01*
X-37216772Y-23743503D01*
G37*
G36*
X-44234000Y-25412800D02*
G01*
X-45936000Y-25412800D01*
X-45936000Y-23710800D01*
X-44234000Y-23710800D01*
X-44234000Y-25412800D01*
G37*
G36*
X44970000Y-24396000D02*
G01*
X43168000Y-24396000D01*
X43168000Y-22594000D01*
X44970000Y-22594000D01*
X44970000Y-24396000D01*
G37*
G36*
X46722512Y-22598927D02*
G01*
X46871812Y-22628624D01*
X47035784Y-22696544D01*
X47183354Y-22795147D01*
X47308853Y-22920646D01*
X47407456Y-23068216D01*
X47475376Y-23232188D01*
X47510000Y-23406259D01*
X47510000Y-23583741D01*
X47475376Y-23757812D01*
X47407456Y-23921784D01*
X47308853Y-24069354D01*
X47183354Y-24194853D01*
X47035784Y-24293456D01*
X46871812Y-24361376D01*
X46722512Y-24391073D01*
X46697742Y-24396000D01*
X46520258Y-24396000D01*
X46495488Y-24391073D01*
X46346188Y-24361376D01*
X46182216Y-24293456D01*
X46034646Y-24194853D01*
X45909147Y-24069354D01*
X45810544Y-23921784D01*
X45742624Y-23757812D01*
X45708000Y-23583741D01*
X45708000Y-23406259D01*
X45742624Y-23232188D01*
X45810544Y-23068216D01*
X45909147Y-22920646D01*
X46034646Y-22795147D01*
X46182216Y-22696544D01*
X46346188Y-22628624D01*
X46495488Y-22598927D01*
X46520258Y-22594000D01*
X46697742Y-22594000D01*
X46722512Y-22598927D01*
G37*
G36*
X54342512Y-22598927D02*
G01*
X54491812Y-22628624D01*
X54655784Y-22696544D01*
X54803354Y-22795147D01*
X54928853Y-22920646D01*
X55027456Y-23068216D01*
X55095376Y-23232188D01*
X55130000Y-23406259D01*
X55130000Y-23583741D01*
X55095376Y-23757812D01*
X55027456Y-23921784D01*
X54928853Y-24069354D01*
X54803354Y-24194853D01*
X54655784Y-24293456D01*
X54491812Y-24361376D01*
X54342512Y-24391073D01*
X54317742Y-24396000D01*
X54140258Y-24396000D01*
X54115488Y-24391073D01*
X53966188Y-24361376D01*
X53802216Y-24293456D01*
X53654646Y-24194853D01*
X53529147Y-24069354D01*
X53430544Y-23921784D01*
X53362624Y-23757812D01*
X53328000Y-23583741D01*
X53328000Y-23406259D01*
X53362624Y-23232188D01*
X53430544Y-23068216D01*
X53529147Y-22920646D01*
X53654646Y-22795147D01*
X53802216Y-22696544D01*
X53966188Y-22628624D01*
X54115488Y-22598927D01*
X54140258Y-22594000D01*
X54317742Y-22594000D01*
X54342512Y-22598927D01*
G37*
G36*
X49262512Y-22598927D02*
G01*
X49411812Y-22628624D01*
X49575784Y-22696544D01*
X49723354Y-22795147D01*
X49848853Y-22920646D01*
X49947456Y-23068216D01*
X50015376Y-23232188D01*
X50050000Y-23406259D01*
X50050000Y-23583741D01*
X50015376Y-23757812D01*
X49947456Y-23921784D01*
X49848853Y-24069354D01*
X49723354Y-24194853D01*
X49575784Y-24293456D01*
X49411812Y-24361376D01*
X49262512Y-24391073D01*
X49237742Y-24396000D01*
X49060258Y-24396000D01*
X49035488Y-24391073D01*
X48886188Y-24361376D01*
X48722216Y-24293456D01*
X48574646Y-24194853D01*
X48449147Y-24069354D01*
X48350544Y-23921784D01*
X48282624Y-23757812D01*
X48248000Y-23583741D01*
X48248000Y-23406259D01*
X48282624Y-23232188D01*
X48350544Y-23068216D01*
X48449147Y-22920646D01*
X48574646Y-22795147D01*
X48722216Y-22696544D01*
X48886188Y-22628624D01*
X49035488Y-22598927D01*
X49060258Y-22594000D01*
X49237742Y-22594000D01*
X49262512Y-22598927D01*
G37*
G36*
X51802512Y-22598927D02*
G01*
X51951812Y-22628624D01*
X52115784Y-22696544D01*
X52263354Y-22795147D01*
X52388853Y-22920646D01*
X52487456Y-23068216D01*
X52555376Y-23232188D01*
X52590000Y-23406259D01*
X52590000Y-23583741D01*
X52555376Y-23757812D01*
X52487456Y-23921784D01*
X52388853Y-24069354D01*
X52263354Y-24194853D01*
X52115784Y-24293456D01*
X51951812Y-24361376D01*
X51802512Y-24391073D01*
X51777742Y-24396000D01*
X51600258Y-24396000D01*
X51575488Y-24391073D01*
X51426188Y-24361376D01*
X51262216Y-24293456D01*
X51114646Y-24194853D01*
X50989147Y-24069354D01*
X50890544Y-23921784D01*
X50822624Y-23757812D01*
X50788000Y-23583741D01*
X50788000Y-23406259D01*
X50822624Y-23232188D01*
X50890544Y-23068216D01*
X50989147Y-22920646D01*
X51114646Y-22795147D01*
X51262216Y-22696544D01*
X51426188Y-22628624D01*
X51575488Y-22598927D01*
X51600258Y-22594000D01*
X51777742Y-22594000D01*
X51802512Y-22598927D01*
G37*
G36*
X40207564Y-20905389D02*
G01*
X40398833Y-20984615D01*
X40398835Y-20984616D01*
X40570973Y-21099635D01*
X40717365Y-21246027D01*
X40798312Y-21367172D01*
X40832385Y-21418167D01*
X40911611Y-21609436D01*
X40952000Y-21812484D01*
X40952000Y-22019516D01*
X40911611Y-22222564D01*
X40889305Y-22276415D01*
X40832384Y-22413835D01*
X40717365Y-22585973D01*
X40570973Y-22732365D01*
X40398835Y-22847384D01*
X40398834Y-22847385D01*
X40398833Y-22847385D01*
X40207564Y-22926611D01*
X40004516Y-22967000D01*
X39797484Y-22967000D01*
X39594436Y-22926611D01*
X39403167Y-22847385D01*
X39403166Y-22847385D01*
X39403165Y-22847384D01*
X39231027Y-22732365D01*
X39084635Y-22585973D01*
X38969616Y-22413835D01*
X38912695Y-22276415D01*
X38890389Y-22222564D01*
X38850000Y-22019516D01*
X38850000Y-21812484D01*
X38890389Y-21609436D01*
X38969615Y-21418167D01*
X39003689Y-21367172D01*
X39084635Y-21246027D01*
X39231027Y-21099635D01*
X39403165Y-20984616D01*
X39403167Y-20984615D01*
X39594436Y-20905389D01*
X39797484Y-20865000D01*
X40004516Y-20865000D01*
X40207564Y-20905389D01*
G37*
G36*
X33707564Y-20905389D02*
G01*
X33898833Y-20984615D01*
X33898835Y-20984616D01*
X34070973Y-21099635D01*
X34217365Y-21246027D01*
X34298312Y-21367172D01*
X34332385Y-21418167D01*
X34411611Y-21609436D01*
X34452000Y-21812484D01*
X34452000Y-22019516D01*
X34411611Y-22222564D01*
X34389305Y-22276415D01*
X34332384Y-22413835D01*
X34217365Y-22585973D01*
X34070973Y-22732365D01*
X33898835Y-22847384D01*
X33898834Y-22847385D01*
X33898833Y-22847385D01*
X33707564Y-22926611D01*
X33504516Y-22967000D01*
X33297484Y-22967000D01*
X33094436Y-22926611D01*
X32903167Y-22847385D01*
X32903166Y-22847385D01*
X32903165Y-22847384D01*
X32731027Y-22732365D01*
X32584635Y-22585973D01*
X32469616Y-22413835D01*
X32412695Y-22276415D01*
X32390389Y-22222564D01*
X32350000Y-22019516D01*
X32350000Y-21812484D01*
X32390389Y-21609436D01*
X32469615Y-21418167D01*
X32503689Y-21367172D01*
X32584635Y-21246027D01*
X32731027Y-21099635D01*
X32903165Y-20984616D01*
X32903167Y-20984615D01*
X33094436Y-20905389D01*
X33297484Y-20865000D01*
X33504516Y-20865000D01*
X33707564Y-20905389D01*
G37*
G36*
X-24181436Y-20833389D02*
G01*
X-24007610Y-20905390D01*
X-23990165Y-20912616D01*
X-23818027Y-21027635D01*
X-23671635Y-21174027D01*
X-23556615Y-21346167D01*
X-23477389Y-21537436D01*
X-23437000Y-21740484D01*
X-23437000Y-21947516D01*
X-23477389Y-22150564D01*
X-23507213Y-22222565D01*
X-23556616Y-22341835D01*
X-23671635Y-22513973D01*
X-23818027Y-22660365D01*
X-23990165Y-22775384D01*
X-23990166Y-22775385D01*
X-23990167Y-22775385D01*
X-24181436Y-22854611D01*
X-24384484Y-22895000D01*
X-24591516Y-22895000D01*
X-24794564Y-22854611D01*
X-24985833Y-22775385D01*
X-24985834Y-22775385D01*
X-24985835Y-22775384D01*
X-25157973Y-22660365D01*
X-25304365Y-22513973D01*
X-25419384Y-22341835D01*
X-25468787Y-22222565D01*
X-25498611Y-22150564D01*
X-25539000Y-21947516D01*
X-25539000Y-21740484D01*
X-25498611Y-21537436D01*
X-25419385Y-21346167D01*
X-25304365Y-21174027D01*
X-25157973Y-21027635D01*
X-24985835Y-20912616D01*
X-24968390Y-20905390D01*
X-24794564Y-20833389D01*
X-24591516Y-20793000D01*
X-24384484Y-20793000D01*
X-24181436Y-20833389D01*
G37*
G36*
X-30681436Y-20833389D02*
G01*
X-30507610Y-20905390D01*
X-30490165Y-20912616D01*
X-30318027Y-21027635D01*
X-30171635Y-21174027D01*
X-30056615Y-21346167D01*
X-29977389Y-21537436D01*
X-29937000Y-21740484D01*
X-29937000Y-21947516D01*
X-29977389Y-22150564D01*
X-30007213Y-22222565D01*
X-30056616Y-22341835D01*
X-30171635Y-22513973D01*
X-30318027Y-22660365D01*
X-30490165Y-22775384D01*
X-30490166Y-22775385D01*
X-30490167Y-22775385D01*
X-30681436Y-22854611D01*
X-30884484Y-22895000D01*
X-31091516Y-22895000D01*
X-31294564Y-22854611D01*
X-31485833Y-22775385D01*
X-31485834Y-22775385D01*
X-31485835Y-22775384D01*
X-31657973Y-22660365D01*
X-31804365Y-22513973D01*
X-31919384Y-22341835D01*
X-31968787Y-22222565D01*
X-31998611Y-22150564D01*
X-32039000Y-21947516D01*
X-32039000Y-21740484D01*
X-31998611Y-21537436D01*
X-31919385Y-21346167D01*
X-31804365Y-21174027D01*
X-31657973Y-21027635D01*
X-31485835Y-20912616D01*
X-31468390Y-20905390D01*
X-31294564Y-20833389D01*
X-31091516Y-20793000D01*
X-30884484Y-20793000D01*
X-30681436Y-20833389D01*
G37*
G36*
X-55453972Y-20797103D02*
G01*
X-55299100Y-20861253D01*
X-55159719Y-20954385D01*
X-55041185Y-21072919D01*
X-54948053Y-21212300D01*
X-54883903Y-21367172D01*
X-54851200Y-21531584D01*
X-54851200Y-21699216D01*
X-54883903Y-21863628D01*
X-54948053Y-22018500D01*
X-55041185Y-22157881D01*
X-55159719Y-22276415D01*
X-55299100Y-22369547D01*
X-55453972Y-22433697D01*
X-55618384Y-22466400D01*
X-55786016Y-22466400D01*
X-55950428Y-22433697D01*
X-56105300Y-22369547D01*
X-56244681Y-22276415D01*
X-56363215Y-22157881D01*
X-56456347Y-22018500D01*
X-56520497Y-21863628D01*
X-56553200Y-21699216D01*
X-56553200Y-21531584D01*
X-56520497Y-21367172D01*
X-56456347Y-21212300D01*
X-56363215Y-21072919D01*
X-56244681Y-20954385D01*
X-56105300Y-20861253D01*
X-55950428Y-20797103D01*
X-55786016Y-20764400D01*
X-55618384Y-20764400D01*
X-55453972Y-20797103D01*
G37*
G36*
X-35246297Y-19213798D02*
G01*
X-35027730Y-19304332D01*
X-35027728Y-19304333D01*
X-34831022Y-19435767D01*
X-34663737Y-19603052D01*
X-34532303Y-19799758D01*
X-34532302Y-19799760D01*
X-34441768Y-20018327D01*
X-34395615Y-20250355D01*
X-34395615Y-20486935D01*
X-34441768Y-20718963D01*
X-34500707Y-20861253D01*
X-34532303Y-20937532D01*
X-34663737Y-21134238D01*
X-34831022Y-21301523D01*
X-35027728Y-21432957D01*
X-35027729Y-21432958D01*
X-35027730Y-21432958D01*
X-35246297Y-21523492D01*
X-35478325Y-21569645D01*
X-35714905Y-21569645D01*
X-35946933Y-21523492D01*
X-36165500Y-21432958D01*
X-36165501Y-21432958D01*
X-36165502Y-21432957D01*
X-36362208Y-21301523D01*
X-36529493Y-21134238D01*
X-36660927Y-20937532D01*
X-36692523Y-20861253D01*
X-36751462Y-20718963D01*
X-36797615Y-20486935D01*
X-36797615Y-20250355D01*
X-36751462Y-20018327D01*
X-36660928Y-19799760D01*
X-36660927Y-19799758D01*
X-36529493Y-19603052D01*
X-36362208Y-19435767D01*
X-36165502Y-19304333D01*
X-36165500Y-19304332D01*
X-35946933Y-19213798D01*
X-35714905Y-19167645D01*
X-35478325Y-19167645D01*
X-35246297Y-19213798D01*
G37*
G36*
X-58625618Y-18006457D02*
G01*
X-58470746Y-18070607D01*
X-58331365Y-18163739D01*
X-58212831Y-18282273D01*
X-58119699Y-18421654D01*
X-58055549Y-18576526D01*
X-58022846Y-18740938D01*
X-58022846Y-18908570D01*
X-58055549Y-19072982D01*
X-58119699Y-19227854D01*
X-58212831Y-19367235D01*
X-58331365Y-19485769D01*
X-58470746Y-19578901D01*
X-58625618Y-19643051D01*
X-58790030Y-19675754D01*
X-58957662Y-19675754D01*
X-59122074Y-19643051D01*
X-59276946Y-19578901D01*
X-59416327Y-19485769D01*
X-59534861Y-19367235D01*
X-59627993Y-19227854D01*
X-59692143Y-19072982D01*
X-59724846Y-18908570D01*
X-59724846Y-18740938D01*
X-59692143Y-18576526D01*
X-59627993Y-18421654D01*
X-59534861Y-18282273D01*
X-59416327Y-18163739D01*
X-59276946Y-18070607D01*
X-59122074Y-18006457D01*
X-58957662Y-17973754D01*
X-58790030Y-17973754D01*
X-58625618Y-18006457D01*
G37*
G36*
X34323721Y-17504174D02*
G01*
X34423995Y-17545709D01*
X34423996Y-17545710D01*
X34514242Y-17606010D01*
X34590990Y-17682758D01*
X34590991Y-17682760D01*
X34651291Y-17773005D01*
X34682516Y-17848389D01*
X34694067Y-17870000D01*
X34709612Y-17888941D01*
X34728554Y-17904487D01*
X34750165Y-17916038D01*
X34773614Y-17923151D01*
X34798000Y-17925553D01*
X34822386Y-17923151D01*
X34845835Y-17916038D01*
X34867446Y-17904487D01*
X34886387Y-17888942D01*
X34901933Y-17870000D01*
X34913484Y-17848389D01*
X34944709Y-17773005D01*
X35005009Y-17682760D01*
X35005010Y-17682758D01*
X35081758Y-17606010D01*
X35172004Y-17545710D01*
X35172005Y-17545709D01*
X35272279Y-17504174D01*
X35378730Y-17483000D01*
X35487270Y-17483000D01*
X35593721Y-17504174D01*
X35693995Y-17545709D01*
X35693996Y-17545710D01*
X35784242Y-17606010D01*
X35860990Y-17682758D01*
X35860991Y-17682760D01*
X35921291Y-17773005D01*
X35952516Y-17848389D01*
X35964067Y-17870000D01*
X35979612Y-17888941D01*
X35998554Y-17904487D01*
X36020165Y-17916038D01*
X36043614Y-17923151D01*
X36068000Y-17925553D01*
X36092386Y-17923151D01*
X36115835Y-17916038D01*
X36137446Y-17904487D01*
X36156387Y-17888942D01*
X36171933Y-17870000D01*
X36183484Y-17848389D01*
X36214709Y-17773005D01*
X36275009Y-17682760D01*
X36275010Y-17682758D01*
X36351758Y-17606010D01*
X36442004Y-17545710D01*
X36442005Y-17545709D01*
X36542279Y-17504174D01*
X36648730Y-17483000D01*
X36757270Y-17483000D01*
X36863721Y-17504174D01*
X36963995Y-17545709D01*
X36963996Y-17545710D01*
X37054242Y-17606010D01*
X37130990Y-17682758D01*
X37130991Y-17682760D01*
X37191291Y-17773005D01*
X37222516Y-17848389D01*
X37234067Y-17870000D01*
X37249612Y-17888941D01*
X37268554Y-17904487D01*
X37290165Y-17916038D01*
X37313614Y-17923151D01*
X37338000Y-17925553D01*
X37362386Y-17923151D01*
X37385835Y-17916038D01*
X37407446Y-17904487D01*
X37426387Y-17888942D01*
X37441933Y-17870000D01*
X37453484Y-17848389D01*
X37484709Y-17773005D01*
X37545009Y-17682760D01*
X37545010Y-17682758D01*
X37621758Y-17606010D01*
X37712004Y-17545710D01*
X37712005Y-17545709D01*
X37812279Y-17504174D01*
X37918730Y-17483000D01*
X38027270Y-17483000D01*
X38133721Y-17504174D01*
X38233995Y-17545709D01*
X38233996Y-17545710D01*
X38324242Y-17606010D01*
X38400990Y-17682758D01*
X38400991Y-17682760D01*
X38461291Y-17773005D01*
X38502826Y-17873279D01*
X38524000Y-17979730D01*
X38524000Y-18088270D01*
X38502826Y-18194721D01*
X38461291Y-18294995D01*
X38461290Y-18294996D01*
X38400990Y-18385242D01*
X38324242Y-18461990D01*
X38278812Y-18492345D01*
X38233995Y-18522291D01*
X38133721Y-18563826D01*
X38027270Y-18585000D01*
X37918730Y-18585000D01*
X37812279Y-18563826D01*
X37712005Y-18522291D01*
X37667188Y-18492345D01*
X37621758Y-18461990D01*
X37545010Y-18385242D01*
X37484710Y-18294996D01*
X37484709Y-18294995D01*
X37453484Y-18219611D01*
X37441933Y-18198000D01*
X37426388Y-18179059D01*
X37407446Y-18163513D01*
X37385835Y-18151962D01*
X37362386Y-18144849D01*
X37338000Y-18142447D01*
X37313614Y-18144849D01*
X37290165Y-18151962D01*
X37268554Y-18163513D01*
X37249613Y-18179058D01*
X37234067Y-18198000D01*
X37222516Y-18219611D01*
X37191291Y-18294995D01*
X37191290Y-18294996D01*
X37130990Y-18385242D01*
X37054242Y-18461990D01*
X37008812Y-18492345D01*
X36963995Y-18522291D01*
X36863721Y-18563826D01*
X36757270Y-18585000D01*
X36648730Y-18585000D01*
X36542279Y-18563826D01*
X36442005Y-18522291D01*
X36397188Y-18492345D01*
X36351758Y-18461990D01*
X36275010Y-18385242D01*
X36214710Y-18294996D01*
X36214709Y-18294995D01*
X36183484Y-18219611D01*
X36171933Y-18198000D01*
X36156388Y-18179059D01*
X36137446Y-18163513D01*
X36115835Y-18151962D01*
X36092386Y-18144849D01*
X36068000Y-18142447D01*
X36043614Y-18144849D01*
X36020165Y-18151962D01*
X35998554Y-18163513D01*
X35979613Y-18179058D01*
X35964067Y-18198000D01*
X35952516Y-18219611D01*
X35921291Y-18294995D01*
X35921290Y-18294996D01*
X35860990Y-18385242D01*
X35784242Y-18461990D01*
X35738812Y-18492345D01*
X35693995Y-18522291D01*
X35593721Y-18563826D01*
X35487270Y-18585000D01*
X35378730Y-18585000D01*
X35272279Y-18563826D01*
X35172005Y-18522291D01*
X35127188Y-18492345D01*
X35081758Y-18461990D01*
X35005010Y-18385242D01*
X34944710Y-18294996D01*
X34944709Y-18294995D01*
X34913484Y-18219611D01*
X34901933Y-18198000D01*
X34886388Y-18179059D01*
X34867446Y-18163513D01*
X34845835Y-18151962D01*
X34822386Y-18144849D01*
X34798000Y-18142447D01*
X34773614Y-18144849D01*
X34750165Y-18151962D01*
X34728554Y-18163513D01*
X34709613Y-18179058D01*
X34694067Y-18198000D01*
X34682516Y-18219611D01*
X34651291Y-18294995D01*
X34651290Y-18294996D01*
X34590990Y-18385242D01*
X34514242Y-18461990D01*
X34468812Y-18492345D01*
X34423995Y-18522291D01*
X34323721Y-18563826D01*
X34217270Y-18585000D01*
X34108730Y-18585000D01*
X34002279Y-18563826D01*
X33902005Y-18522291D01*
X33857188Y-18492345D01*
X33811758Y-18461990D01*
X33735010Y-18385242D01*
X33674710Y-18294996D01*
X33674709Y-18294995D01*
X33633174Y-18194721D01*
X33612000Y-18088270D01*
X33612000Y-17979730D01*
X33633174Y-17873279D01*
X33674709Y-17773005D01*
X33735009Y-17682760D01*
X33735010Y-17682758D01*
X33811758Y-17606010D01*
X33902004Y-17545710D01*
X33902005Y-17545709D01*
X34002279Y-17504174D01*
X34108730Y-17483000D01*
X34217270Y-17483000D01*
X34323721Y-17504174D01*
G37*
G36*
X-29989079Y-16996174D02*
G01*
X-29888805Y-17037709D01*
X-29888804Y-17037710D01*
X-29798558Y-17098010D01*
X-29721810Y-17174758D01*
X-29721809Y-17174760D01*
X-29661509Y-17265005D01*
X-29630284Y-17340389D01*
X-29618733Y-17362000D01*
X-29603188Y-17380941D01*
X-29584246Y-17396487D01*
X-29562635Y-17408038D01*
X-29539186Y-17415151D01*
X-29514800Y-17417553D01*
X-29490414Y-17415151D01*
X-29466965Y-17408038D01*
X-29445354Y-17396487D01*
X-29426413Y-17380942D01*
X-29410867Y-17362000D01*
X-29399316Y-17340389D01*
X-29368091Y-17265005D01*
X-29307791Y-17174760D01*
X-29307790Y-17174758D01*
X-29231042Y-17098010D01*
X-29140796Y-17037710D01*
X-29140795Y-17037709D01*
X-29040521Y-16996174D01*
X-28934070Y-16975000D01*
X-28825530Y-16975000D01*
X-28719079Y-16996174D01*
X-28618805Y-17037709D01*
X-28618804Y-17037710D01*
X-28528558Y-17098010D01*
X-28451810Y-17174758D01*
X-28451809Y-17174760D01*
X-28391509Y-17265005D01*
X-28360284Y-17340389D01*
X-28348733Y-17362000D01*
X-28333188Y-17380941D01*
X-28314246Y-17396487D01*
X-28292635Y-17408038D01*
X-28269186Y-17415151D01*
X-28244800Y-17417553D01*
X-28220414Y-17415151D01*
X-28196965Y-17408038D01*
X-28175354Y-17396487D01*
X-28156413Y-17380942D01*
X-28140867Y-17362000D01*
X-28129316Y-17340389D01*
X-28098091Y-17265005D01*
X-28037791Y-17174760D01*
X-28037790Y-17174758D01*
X-27961042Y-17098010D01*
X-27870796Y-17037710D01*
X-27870795Y-17037709D01*
X-27770521Y-16996174D01*
X-27664070Y-16975000D01*
X-27555530Y-16975000D01*
X-27449079Y-16996174D01*
X-27348805Y-17037709D01*
X-27348804Y-17037710D01*
X-27258558Y-17098010D01*
X-27181810Y-17174758D01*
X-27181809Y-17174760D01*
X-27121509Y-17265005D01*
X-27090284Y-17340389D01*
X-27078733Y-17362000D01*
X-27063188Y-17380941D01*
X-27044246Y-17396487D01*
X-27022635Y-17408038D01*
X-26999186Y-17415151D01*
X-26974800Y-17417553D01*
X-26950414Y-17415151D01*
X-26926965Y-17408038D01*
X-26905354Y-17396487D01*
X-26886413Y-17380942D01*
X-26870867Y-17362000D01*
X-26859316Y-17340389D01*
X-26828091Y-17265005D01*
X-26767791Y-17174760D01*
X-26767790Y-17174758D01*
X-26691042Y-17098010D01*
X-26600796Y-17037710D01*
X-26600795Y-17037709D01*
X-26500521Y-16996174D01*
X-26394070Y-16975000D01*
X-26285530Y-16975000D01*
X-26179079Y-16996174D01*
X-26078805Y-17037709D01*
X-26078804Y-17037710D01*
X-25988558Y-17098010D01*
X-25911810Y-17174758D01*
X-25911809Y-17174760D01*
X-25851509Y-17265005D01*
X-25809974Y-17365279D01*
X-25788800Y-17471730D01*
X-25788800Y-17580270D01*
X-25809974Y-17686721D01*
X-25851509Y-17786995D01*
X-25851510Y-17786996D01*
X-25911810Y-17877242D01*
X-25988558Y-17953990D01*
X-26018137Y-17973754D01*
X-26078805Y-18014291D01*
X-26179079Y-18055826D01*
X-26285530Y-18077000D01*
X-26394070Y-18077000D01*
X-26500521Y-18055826D01*
X-26600795Y-18014291D01*
X-26661463Y-17973754D01*
X-26691042Y-17953990D01*
X-26767790Y-17877242D01*
X-26828090Y-17786996D01*
X-26828091Y-17786995D01*
X-26859316Y-17711611D01*
X-26870867Y-17690000D01*
X-26886412Y-17671059D01*
X-26905354Y-17655513D01*
X-26926965Y-17643962D01*
X-26950414Y-17636849D01*
X-26974800Y-17634447D01*
X-26999186Y-17636849D01*
X-27022635Y-17643962D01*
X-27044246Y-17655513D01*
X-27063187Y-17671058D01*
X-27078733Y-17690000D01*
X-27090284Y-17711611D01*
X-27121509Y-17786995D01*
X-27121510Y-17786996D01*
X-27181810Y-17877242D01*
X-27258558Y-17953990D01*
X-27288137Y-17973754D01*
X-27348805Y-18014291D01*
X-27449079Y-18055826D01*
X-27555530Y-18077000D01*
X-27664070Y-18077000D01*
X-27770521Y-18055826D01*
X-27870795Y-18014291D01*
X-27931463Y-17973754D01*
X-27961042Y-17953990D01*
X-28037790Y-17877242D01*
X-28098090Y-17786996D01*
X-28098091Y-17786995D01*
X-28129316Y-17711611D01*
X-28140867Y-17690000D01*
X-28156412Y-17671059D01*
X-28175354Y-17655513D01*
X-28196965Y-17643962D01*
X-28220414Y-17636849D01*
X-28244800Y-17634447D01*
X-28269186Y-17636849D01*
X-28292635Y-17643962D01*
X-28314246Y-17655513D01*
X-28333187Y-17671058D01*
X-28348733Y-17690000D01*
X-28360284Y-17711611D01*
X-28391509Y-17786995D01*
X-28391510Y-17786996D01*
X-28451810Y-17877242D01*
X-28528558Y-17953990D01*
X-28558137Y-17973754D01*
X-28618805Y-18014291D01*
X-28719079Y-18055826D01*
X-28825530Y-18077000D01*
X-28934070Y-18077000D01*
X-29040521Y-18055826D01*
X-29140795Y-18014291D01*
X-29201463Y-17973754D01*
X-29231042Y-17953990D01*
X-29307790Y-17877242D01*
X-29368090Y-17786996D01*
X-29368091Y-17786995D01*
X-29399316Y-17711611D01*
X-29410867Y-17690000D01*
X-29426412Y-17671059D01*
X-29445354Y-17655513D01*
X-29466965Y-17643962D01*
X-29490414Y-17636849D01*
X-29514800Y-17634447D01*
X-29539186Y-17636849D01*
X-29562635Y-17643962D01*
X-29584246Y-17655513D01*
X-29603187Y-17671058D01*
X-29618733Y-17690000D01*
X-29630284Y-17711611D01*
X-29661509Y-17786995D01*
X-29661510Y-17786996D01*
X-29721810Y-17877242D01*
X-29798558Y-17953990D01*
X-29828137Y-17973754D01*
X-29888805Y-18014291D01*
X-29989079Y-18055826D01*
X-30095530Y-18077000D01*
X-30204070Y-18077000D01*
X-30310521Y-18055826D01*
X-30410795Y-18014291D01*
X-30471463Y-17973754D01*
X-30501042Y-17953990D01*
X-30577790Y-17877242D01*
X-30638090Y-17786996D01*
X-30638091Y-17786995D01*
X-30679626Y-17686721D01*
X-30700800Y-17580270D01*
X-30700800Y-17471730D01*
X-30679626Y-17365279D01*
X-30638091Y-17265005D01*
X-30577791Y-17174760D01*
X-30577790Y-17174758D01*
X-30501042Y-17098010D01*
X-30410796Y-17037710D01*
X-30410795Y-17037709D01*
X-30310521Y-16996174D01*
X-30204070Y-16975000D01*
X-30095530Y-16975000D01*
X-29989079Y-16996174D01*
G37*
G36*
X-64013772Y-12618303D02*
G01*
X-63858900Y-12682453D01*
X-63719519Y-12775585D01*
X-63600985Y-12894119D01*
X-63507853Y-13033500D01*
X-63443703Y-13188372D01*
X-63411000Y-13352784D01*
X-63411000Y-13520416D01*
X-63443703Y-13684828D01*
X-63507853Y-13839700D01*
X-63600985Y-13979081D01*
X-63719519Y-14097615D01*
X-63858900Y-14190747D01*
X-64013772Y-14254897D01*
X-64178184Y-14287600D01*
X-64345816Y-14287600D01*
X-64510228Y-14254897D01*
X-64665100Y-14190747D01*
X-64804481Y-14097615D01*
X-64923015Y-13979081D01*
X-65016147Y-13839700D01*
X-65080297Y-13684828D01*
X-65113000Y-13520416D01*
X-65113000Y-13352784D01*
X-65080297Y-13188372D01*
X-65016147Y-13033500D01*
X-64923015Y-12894119D01*
X-64804481Y-12775585D01*
X-64665100Y-12682453D01*
X-64510228Y-12618303D01*
X-64345816Y-12585600D01*
X-64178184Y-12585600D01*
X-64013772Y-12618303D01*
G37*
G36*
X-29229037Y-5038023D02*
G01*
X-29010470Y-5128557D01*
X-29010468Y-5128558D01*
X-28813762Y-5259992D01*
X-28646477Y-5427277D01*
X-28515043Y-5623983D01*
X-28515042Y-5623985D01*
X-28424508Y-5842552D01*
X-28378355Y-6074580D01*
X-28378355Y-6311160D01*
X-28424508Y-6543188D01*
X-28515042Y-6761755D01*
X-28515043Y-6761757D01*
X-28646477Y-6958463D01*
X-28813762Y-7125748D01*
X-29010468Y-7257182D01*
X-29010469Y-7257183D01*
X-29010470Y-7257183D01*
X-29229037Y-7347717D01*
X-29461065Y-7393870D01*
X-29697645Y-7393870D01*
X-29929673Y-7347717D01*
X-30148240Y-7257183D01*
X-30148241Y-7257183D01*
X-30148242Y-7257182D01*
X-30344948Y-7125748D01*
X-30512233Y-6958463D01*
X-30643667Y-6761757D01*
X-30643668Y-6761755D01*
X-30734202Y-6543188D01*
X-30780355Y-6311160D01*
X-30780355Y-6074580D01*
X-30734202Y-5842552D01*
X-30643668Y-5623985D01*
X-30643667Y-5623983D01*
X-30512233Y-5427277D01*
X-30344948Y-5259992D01*
X-30148242Y-5128558D01*
X-30148240Y-5128557D01*
X-29929673Y-5038023D01*
X-29697645Y-4991870D01*
X-29461065Y-4991870D01*
X-29229037Y-5038023D01*
G37*
G36*
X-60277338Y-2939677D02*
G01*
X-60058771Y-3030211D01*
X-60058769Y-3030212D01*
X-59862063Y-3161646D01*
X-59694778Y-3328931D01*
X-59563344Y-3525637D01*
X-59563343Y-3525639D01*
X-59472809Y-3744206D01*
X-59426656Y-3976234D01*
X-59426656Y-4212814D01*
X-59472809Y-4444842D01*
X-59563343Y-4663409D01*
X-59563344Y-4663411D01*
X-59694778Y-4860117D01*
X-59862063Y-5027402D01*
X-60058769Y-5158836D01*
X-60058770Y-5158837D01*
X-60058771Y-5158837D01*
X-60277338Y-5249371D01*
X-60509366Y-5295524D01*
X-60745946Y-5295524D01*
X-60977974Y-5249371D01*
X-61196541Y-5158837D01*
X-61196542Y-5158837D01*
X-61196543Y-5158836D01*
X-61393249Y-5027402D01*
X-61560534Y-4860117D01*
X-61691968Y-4663411D01*
X-61691969Y-4663409D01*
X-61782503Y-4444842D01*
X-61828656Y-4212814D01*
X-61828656Y-3976234D01*
X-61782503Y-3744206D01*
X-61691969Y-3525639D01*
X-61691968Y-3525637D01*
X-61560534Y-3328931D01*
X-61393249Y-3161646D01*
X-61196543Y-3030212D01*
X-61196541Y-3030211D01*
X-60977974Y-2939677D01*
X-60745946Y-2893524D01*
X-60509366Y-2893524D01*
X-60277338Y-2939677D01*
G37*
G36*
X-3086000Y-1638400D02*
G01*
X-4788000Y-1638400D01*
X-4788000Y63600D01*
X-3086000Y63600D01*
X-3086000Y-1638400D01*
G37*
G36*
X-1148772Y30897D02*
G01*
X-993900Y-33253D01*
X-854519Y-126385D01*
X-735985Y-244919D01*
X-642853Y-384300D01*
X-578703Y-539172D01*
X-546000Y-703584D01*
X-546000Y-871216D01*
X-578703Y-1035628D01*
X-642853Y-1190500D01*
X-735985Y-1329881D01*
X-854519Y-1448415D01*
X-993900Y-1541547D01*
X-1148772Y-1605697D01*
X-1313184Y-1638400D01*
X-1480816Y-1638400D01*
X-1645228Y-1605697D01*
X-1800100Y-1541547D01*
X-1939481Y-1448415D01*
X-2058015Y-1329881D01*
X-2151147Y-1190500D01*
X-2215297Y-1035628D01*
X-2248000Y-871216D01*
X-2248000Y-703584D01*
X-2215297Y-539172D01*
X-2151147Y-384300D01*
X-2058015Y-244919D01*
X-1939481Y-126385D01*
X-1800100Y-33253D01*
X-1645228Y30897D01*
X-1480816Y63600D01*
X-1313184Y63600D01*
X-1148772Y30897D01*
G37*
G36*
X1391228Y30897D02*
G01*
X1546100Y-33253D01*
X1685481Y-126385D01*
X1804015Y-244919D01*
X1897147Y-384300D01*
X1961297Y-539172D01*
X1994000Y-703584D01*
X1994000Y-871216D01*
X1961297Y-1035628D01*
X1897147Y-1190500D01*
X1804015Y-1329881D01*
X1685481Y-1448415D01*
X1546100Y-1541547D01*
X1391228Y-1605697D01*
X1226816Y-1638400D01*
X1059184Y-1638400D01*
X894772Y-1605697D01*
X739900Y-1541547D01*
X600519Y-1448415D01*
X481985Y-1329881D01*
X388853Y-1190500D01*
X324703Y-1035628D01*
X292000Y-871216D01*
X292000Y-703584D01*
X324703Y-539172D01*
X388853Y-384300D01*
X481985Y-244919D01*
X600519Y-126385D01*
X739900Y-33253D01*
X894772Y30897D01*
X1059184Y63600D01*
X1226816Y63600D01*
X1391228Y30897D01*
G37*
G36*
X5194400Y-1638400D02*
G01*
X3492400Y-1638400D01*
X3492400Y63600D01*
X5194400Y63600D01*
X5194400Y-1638400D01*
G37*
G36*
X7131628Y30897D02*
G01*
X7286500Y-33253D01*
X7425881Y-126385D01*
X7544415Y-244919D01*
X7637547Y-384300D01*
X7701697Y-539172D01*
X7734400Y-703584D01*
X7734400Y-871216D01*
X7701697Y-1035628D01*
X7637547Y-1190500D01*
X7544415Y-1329881D01*
X7425881Y-1448415D01*
X7286500Y-1541547D01*
X7131628Y-1605697D01*
X6967216Y-1638400D01*
X6799584Y-1638400D01*
X6635172Y-1605697D01*
X6480300Y-1541547D01*
X6340919Y-1448415D01*
X6222385Y-1329881D01*
X6129253Y-1190500D01*
X6065103Y-1035628D01*
X6032400Y-871216D01*
X6032400Y-703584D01*
X6065103Y-539172D01*
X6129253Y-384300D01*
X6222385Y-244919D01*
X6340919Y-126385D01*
X6480300Y-33253D01*
X6635172Y30897D01*
X6799584Y63600D01*
X6967216Y63600D01*
X7131628Y30897D01*
G37*
G36*
X9671628Y30897D02*
G01*
X9826500Y-33253D01*
X9965881Y-126385D01*
X10084415Y-244919D01*
X10177547Y-384300D01*
X10241697Y-539172D01*
X10274400Y-703584D01*
X10274400Y-871216D01*
X10241697Y-1035628D01*
X10177547Y-1190500D01*
X10084415Y-1329881D01*
X9965881Y-1448415D01*
X9826500Y-1541547D01*
X9671628Y-1605697D01*
X9507216Y-1638400D01*
X9339584Y-1638400D01*
X9175172Y-1605697D01*
X9020300Y-1541547D01*
X8880919Y-1448415D01*
X8762385Y-1329881D01*
X8669253Y-1190500D01*
X8605103Y-1035628D01*
X8572400Y-871216D01*
X8572400Y-703584D01*
X8605103Y-539172D01*
X8669253Y-384300D01*
X8762385Y-244919D01*
X8880919Y-126385D01*
X9020300Y-33253D01*
X9175172Y30897D01*
X9339584Y63600D01*
X9507216Y63600D01*
X9671628Y30897D01*
G37*
G36*
X16242600Y-1536000D02*
G01*
X14440600Y-1536000D01*
X14440600Y266000D01*
X16242600Y266000D01*
X16242600Y-1536000D01*
G37*
G36*
X12915112Y261073D02*
G01*
X13064412Y231376D01*
X13228384Y163456D01*
X13375954Y64853D01*
X13501453Y-60646D01*
X13600056Y-208216D01*
X13667976Y-372188D01*
X13702600Y-546259D01*
X13702600Y-723741D01*
X13667976Y-897812D01*
X13600056Y-1061784D01*
X13501453Y-1209354D01*
X13375954Y-1334853D01*
X13228384Y-1433456D01*
X13064412Y-1501376D01*
X12915112Y-1531073D01*
X12890342Y-1536000D01*
X12712858Y-1536000D01*
X12688088Y-1531073D01*
X12538788Y-1501376D01*
X12374816Y-1433456D01*
X12227246Y-1334853D01*
X12101747Y-1209354D01*
X12003144Y-1061784D01*
X11935224Y-897812D01*
X11900600Y-723741D01*
X11900600Y-546259D01*
X11935224Y-372188D01*
X12003144Y-208216D01*
X12101747Y-60646D01*
X12227246Y64853D01*
X12374816Y163456D01*
X12538788Y231376D01*
X12688088Y261073D01*
X12712858Y266000D01*
X12890342Y266000D01*
X12915112Y261073D01*
G37*
G36*
X-57157815Y1006183D02*
G01*
X-57979132Y-928719D01*
X-60190185Y9817D01*
X-59368868Y1944719D01*
X-57157815Y1006183D01*
G37*
G36*
X1391228Y7650897D02*
G01*
X1546100Y7586747D01*
X1685481Y7493615D01*
X1804015Y7375081D01*
X1897147Y7235700D01*
X1961297Y7080828D01*
X1994000Y6916416D01*
X1994000Y6748784D01*
X1961297Y6584372D01*
X1897147Y6429500D01*
X1804015Y6290119D01*
X1685481Y6171585D01*
X1546100Y6078453D01*
X1391228Y6014303D01*
X1226816Y5981600D01*
X1059184Y5981600D01*
X894772Y6014303D01*
X739900Y6078453D01*
X600519Y6171585D01*
X481985Y6290119D01*
X388853Y6429500D01*
X324703Y6584372D01*
X292000Y6748784D01*
X292000Y6916416D01*
X324703Y7080828D01*
X388853Y7235700D01*
X481985Y7375081D01*
X600519Y7493615D01*
X739900Y7586747D01*
X894772Y7650897D01*
X1059184Y7683600D01*
X1226816Y7683600D01*
X1391228Y7650897D01*
G37*
G36*
X4591628Y7650897D02*
G01*
X4746500Y7586747D01*
X4885881Y7493615D01*
X5004415Y7375081D01*
X5097547Y7235700D01*
X5161697Y7080828D01*
X5194400Y6916416D01*
X5194400Y6748784D01*
X5161697Y6584372D01*
X5097547Y6429500D01*
X5004415Y6290119D01*
X4885881Y6171585D01*
X4746500Y6078453D01*
X4591628Y6014303D01*
X4427216Y5981600D01*
X4259584Y5981600D01*
X4095172Y6014303D01*
X3940300Y6078453D01*
X3800919Y6171585D01*
X3682385Y6290119D01*
X3589253Y6429500D01*
X3525103Y6584372D01*
X3492400Y6748784D01*
X3492400Y6916416D01*
X3525103Y7080828D01*
X3589253Y7235700D01*
X3682385Y7375081D01*
X3800919Y7493615D01*
X3940300Y7586747D01*
X4095172Y7650897D01*
X4259584Y7683600D01*
X4427216Y7683600D01*
X4591628Y7650897D01*
G37*
G36*
X7131628Y7650897D02*
G01*
X7286500Y7586747D01*
X7425881Y7493615D01*
X7544415Y7375081D01*
X7637547Y7235700D01*
X7701697Y7080828D01*
X7734400Y6916416D01*
X7734400Y6748784D01*
X7701697Y6584372D01*
X7637547Y6429500D01*
X7544415Y6290119D01*
X7425881Y6171585D01*
X7286500Y6078453D01*
X7131628Y6014303D01*
X6967216Y5981600D01*
X6799584Y5981600D01*
X6635172Y6014303D01*
X6480300Y6078453D01*
X6340919Y6171585D01*
X6222385Y6290119D01*
X6129253Y6429500D01*
X6065103Y6584372D01*
X6032400Y6748784D01*
X6032400Y6916416D01*
X6065103Y7080828D01*
X6129253Y7235700D01*
X6222385Y7375081D01*
X6340919Y7493615D01*
X6480300Y7586747D01*
X6635172Y7650897D01*
X6799584Y7683600D01*
X6967216Y7683600D01*
X7131628Y7650897D01*
G37*
G36*
X9671628Y7650897D02*
G01*
X9826500Y7586747D01*
X9965881Y7493615D01*
X10084415Y7375081D01*
X10177547Y7235700D01*
X10241697Y7080828D01*
X10274400Y6916416D01*
X10274400Y6748784D01*
X10241697Y6584372D01*
X10177547Y6429500D01*
X10084415Y6290119D01*
X9965881Y6171585D01*
X9826500Y6078453D01*
X9671628Y6014303D01*
X9507216Y5981600D01*
X9339584Y5981600D01*
X9175172Y6014303D01*
X9020300Y6078453D01*
X8880919Y6171585D01*
X8762385Y6290119D01*
X8669253Y6429500D01*
X8605103Y6584372D01*
X8572400Y6748784D01*
X8572400Y6916416D01*
X8605103Y7080828D01*
X8669253Y7235700D01*
X8762385Y7375081D01*
X8880919Y7493615D01*
X9020300Y7586747D01*
X9175172Y7650897D01*
X9339584Y7683600D01*
X9507216Y7683600D01*
X9671628Y7650897D01*
G37*
G36*
X-1148772Y7650897D02*
G01*
X-993900Y7586747D01*
X-854519Y7493615D01*
X-735985Y7375081D01*
X-642853Y7235700D01*
X-578703Y7080828D01*
X-546000Y6916416D01*
X-546000Y6748784D01*
X-578703Y6584372D01*
X-642853Y6429500D01*
X-735985Y6290119D01*
X-854519Y6171585D01*
X-993900Y6078453D01*
X-1148772Y6014303D01*
X-1313184Y5981600D01*
X-1480816Y5981600D01*
X-1645228Y6014303D01*
X-1800100Y6078453D01*
X-1939481Y6171585D01*
X-2058015Y6290119D01*
X-2151147Y6429500D01*
X-2215297Y6584372D01*
X-2248000Y6748784D01*
X-2248000Y6916416D01*
X-2215297Y7080828D01*
X-2151147Y7235700D01*
X-2058015Y7375081D01*
X-1939481Y7493615D01*
X-1800100Y7586747D01*
X-1645228Y7650897D01*
X-1480816Y7683600D01*
X-1313184Y7683600D01*
X-1148772Y7650897D01*
G37*
G36*
X-3688772Y7650897D02*
G01*
X-3533900Y7586747D01*
X-3394519Y7493615D01*
X-3275985Y7375081D01*
X-3182853Y7235700D01*
X-3118703Y7080828D01*
X-3086000Y6916416D01*
X-3086000Y6748784D01*
X-3118703Y6584372D01*
X-3182853Y6429500D01*
X-3275985Y6290119D01*
X-3394519Y6171585D01*
X-3533900Y6078453D01*
X-3688772Y6014303D01*
X-3853184Y5981600D01*
X-4020816Y5981600D01*
X-4185228Y6014303D01*
X-4340100Y6078453D01*
X-4479481Y6171585D01*
X-4598015Y6290119D01*
X-4691147Y6429500D01*
X-4755297Y6584372D01*
X-4788000Y6748784D01*
X-4788000Y6916416D01*
X-4755297Y7080828D01*
X-4691147Y7235700D01*
X-4598015Y7375081D01*
X-4479481Y7493615D01*
X-4340100Y7586747D01*
X-4185228Y7650897D01*
X-4020816Y7683600D01*
X-3853184Y7683600D01*
X-3688772Y7650897D01*
G37*
G36*
X-18141372Y8387497D02*
G01*
X-17986500Y8323347D01*
X-17847119Y8230215D01*
X-17728585Y8111681D01*
X-17635453Y7972300D01*
X-17571303Y7817428D01*
X-17538600Y7653016D01*
X-17538600Y7485384D01*
X-17571303Y7320972D01*
X-17635453Y7166100D01*
X-17728585Y7026719D01*
X-17847119Y6908185D01*
X-17986500Y6815053D01*
X-18141372Y6750903D01*
X-18305784Y6718200D01*
X-18473416Y6718200D01*
X-18637828Y6750903D01*
X-18792700Y6815053D01*
X-18932081Y6908185D01*
X-19050615Y7026719D01*
X-19143747Y7166100D01*
X-19207897Y7320972D01*
X-19240600Y7485384D01*
X-19240600Y7653016D01*
X-19207897Y7817428D01*
X-19143747Y7972300D01*
X-19050615Y8111681D01*
X-18932081Y8230215D01*
X-18792700Y8323347D01*
X-18637828Y8387497D01*
X-18473416Y8420200D01*
X-18305784Y8420200D01*
X-18141372Y8387497D01*
G37*
G36*
X-25761372Y8387497D02*
G01*
X-25606500Y8323347D01*
X-25467119Y8230215D01*
X-25348585Y8111681D01*
X-25255453Y7972300D01*
X-25191303Y7817428D01*
X-25158600Y7653016D01*
X-25158600Y7485384D01*
X-25191303Y7320972D01*
X-25255453Y7166100D01*
X-25348585Y7026719D01*
X-25467119Y6908185D01*
X-25606500Y6815053D01*
X-25761372Y6750903D01*
X-25925784Y6718200D01*
X-26093416Y6718200D01*
X-26257828Y6750903D01*
X-26412700Y6815053D01*
X-26552081Y6908185D01*
X-26670615Y7026719D01*
X-26763747Y7166100D01*
X-26827897Y7320972D01*
X-26860600Y7485384D01*
X-26860600Y7653016D01*
X-26827897Y7817428D01*
X-26763747Y7972300D01*
X-26670615Y8111681D01*
X-26552081Y8230215D01*
X-26412700Y8323347D01*
X-26257828Y8387497D01*
X-26093416Y8420200D01*
X-25925784Y8420200D01*
X-25761372Y8387497D01*
G37*
G36*
X-44227172Y9530497D02*
G01*
X-44072300Y9466347D01*
X-43932919Y9373215D01*
X-43814385Y9254681D01*
X-43721253Y9115300D01*
X-43657103Y8960428D01*
X-43624400Y8796016D01*
X-43624400Y8628384D01*
X-43657103Y8463972D01*
X-43721253Y8309100D01*
X-43814385Y8169719D01*
X-43932919Y8051185D01*
X-44072300Y7958053D01*
X-44227172Y7893903D01*
X-44391584Y7861200D01*
X-44559216Y7861200D01*
X-44723628Y7893903D01*
X-44878500Y7958053D01*
X-45017881Y8051185D01*
X-45136415Y8169719D01*
X-45229547Y8309100D01*
X-45293697Y8463972D01*
X-45326400Y8628384D01*
X-45326400Y8796016D01*
X-45293697Y8960428D01*
X-45229547Y9115300D01*
X-45136415Y9254681D01*
X-45017881Y9373215D01*
X-44878500Y9466347D01*
X-44723628Y9530497D01*
X-44559216Y9563200D01*
X-44391584Y9563200D01*
X-44227172Y9530497D01*
G37*
G36*
X3423228Y10317897D02*
G01*
X3578100Y10253747D01*
X3717481Y10160615D01*
X3836015Y10042081D01*
X3929147Y9902700D01*
X3993297Y9747828D01*
X4026000Y9583416D01*
X4026000Y9415784D01*
X3993297Y9251372D01*
X3929147Y9096500D01*
X3836015Y8957119D01*
X3717481Y8838585D01*
X3578100Y8745453D01*
X3423228Y8681303D01*
X3258816Y8648600D01*
X3091184Y8648600D01*
X2926772Y8681303D01*
X2771900Y8745453D01*
X2632519Y8838585D01*
X2513985Y8957119D01*
X2420853Y9096500D01*
X2356703Y9251372D01*
X2324000Y9415784D01*
X2324000Y9583416D01*
X2356703Y9747828D01*
X2420853Y9902700D01*
X2513985Y10042081D01*
X2632519Y10160615D01*
X2771900Y10253747D01*
X2926772Y10317897D01*
X3091184Y10350600D01*
X3258816Y10350600D01*
X3423228Y10317897D01*
G37*
G36*
X-4196772Y10317897D02*
G01*
X-4041900Y10253747D01*
X-3902519Y10160615D01*
X-3783985Y10042081D01*
X-3690853Y9902700D01*
X-3626703Y9747828D01*
X-3594000Y9583416D01*
X-3594000Y9415784D01*
X-3626703Y9251372D01*
X-3690853Y9096500D01*
X-3783985Y8957119D01*
X-3902519Y8838585D01*
X-4041900Y8745453D01*
X-4196772Y8681303D01*
X-4361184Y8648600D01*
X-4528816Y8648600D01*
X-4693228Y8681303D01*
X-4848100Y8745453D01*
X-4987481Y8838585D01*
X-5106015Y8957119D01*
X-5199147Y9096500D01*
X-5263297Y9251372D01*
X-5296000Y9415784D01*
X-5296000Y9583416D01*
X-5263297Y9747828D01*
X-5199147Y9902700D01*
X-5106015Y10042081D01*
X-4987481Y10160615D01*
X-4848100Y10253747D01*
X-4693228Y10317897D01*
X-4528816Y10350600D01*
X-4361184Y10350600D01*
X-4196772Y10317897D01*
G37*
G36*
X-7117772Y13111897D02*
G01*
X-6962900Y13047747D01*
X-6823519Y12954615D01*
X-6704985Y12836081D01*
X-6611853Y12696700D01*
X-6547703Y12541828D01*
X-6515000Y12377416D01*
X-6515000Y12209784D01*
X-6547703Y12045372D01*
X-6611853Y11890500D01*
X-6704985Y11751119D01*
X-6823519Y11632585D01*
X-6962900Y11539453D01*
X-7117772Y11475303D01*
X-7282184Y11442600D01*
X-7449816Y11442600D01*
X-7614228Y11475303D01*
X-7769100Y11539453D01*
X-7908481Y11632585D01*
X-8027015Y11751119D01*
X-8120147Y11890500D01*
X-8184297Y12045372D01*
X-8217000Y12209784D01*
X-8217000Y12377416D01*
X-8184297Y12541828D01*
X-8120147Y12696700D01*
X-8027015Y12836081D01*
X-7908481Y12954615D01*
X-7769100Y13047747D01*
X-7614228Y13111897D01*
X-7449816Y13144600D01*
X-7282184Y13144600D01*
X-7117772Y13111897D01*
G37*
G36*
X-2164744Y15832702D02*
G01*
X-2058421Y15811553D01*
X-1757958Y15687097D01*
X-1487549Y15506415D01*
X-1257585Y15276451D01*
X-1076903Y15006042D01*
X-952447Y14705579D01*
X-889000Y14386609D01*
X-889000Y14061391D01*
X-952447Y13742421D01*
X-1076903Y13441958D01*
X-1257585Y13171549D01*
X-1487549Y12941585D01*
X-1757958Y12760903D01*
X-2058421Y12636447D01*
X-2164744Y12615298D01*
X-2377389Y12573000D01*
X-2702611Y12573000D01*
X-2915256Y12615298D01*
X-3021579Y12636447D01*
X-3322042Y12760903D01*
X-3592451Y12941585D01*
X-3822415Y13171549D01*
X-4003097Y13441958D01*
X-4127553Y13742421D01*
X-4191000Y14061391D01*
X-4191000Y14386609D01*
X-4127553Y14705579D01*
X-4003097Y15006042D01*
X-3822415Y15276451D01*
X-3592451Y15506415D01*
X-3322042Y15687097D01*
X-3021579Y15811553D01*
X-2915256Y15832702D01*
X-2702611Y15875000D01*
X-2377389Y15875000D01*
X-2164744Y15832702D01*
G37*
G36*
X14351000Y12573000D02*
G01*
X11049000Y12573000D01*
X11049000Y15875000D01*
X14351000Y15875000D01*
X14351000Y12573000D01*
G37*
G36*
X32310564Y15488611D02*
G01*
X32501833Y15409385D01*
X32501835Y15409384D01*
X32673973Y15294365D01*
X32820365Y15147973D01*
X32915202Y15006040D01*
X32935385Y14975833D01*
X33014611Y14784564D01*
X33055000Y14581516D01*
X33055000Y14374484D01*
X33014611Y14171436D01*
X32969029Y14061391D01*
X32935384Y13980165D01*
X32820365Y13808027D01*
X32673973Y13661635D01*
X32501835Y13546616D01*
X32501834Y13546615D01*
X32501833Y13546615D01*
X32310564Y13467389D01*
X32107516Y13427000D01*
X31900484Y13427000D01*
X31697436Y13467389D01*
X31506167Y13546615D01*
X31506166Y13546615D01*
X31506165Y13546616D01*
X31334027Y13661635D01*
X31187635Y13808027D01*
X31072616Y13980165D01*
X31038971Y14061391D01*
X30993389Y14171436D01*
X30953000Y14374484D01*
X30953000Y14581516D01*
X30993389Y14784564D01*
X31072615Y14975833D01*
X31092799Y15006040D01*
X31187635Y15147973D01*
X31334027Y15294365D01*
X31506165Y15409384D01*
X31506167Y15409385D01*
X31697436Y15488611D01*
X31900484Y15529000D01*
X32107516Y15529000D01*
X32310564Y15488611D01*
G37*
G36*
X38810564Y15488611D02*
G01*
X39001833Y15409385D01*
X39001835Y15409384D01*
X39173973Y15294365D01*
X39320365Y15147973D01*
X39415202Y15006040D01*
X39435385Y14975833D01*
X39514611Y14784564D01*
X39555000Y14581516D01*
X39555000Y14374484D01*
X39514611Y14171436D01*
X39469029Y14061391D01*
X39435384Y13980165D01*
X39320365Y13808027D01*
X39173973Y13661635D01*
X39001835Y13546616D01*
X39001834Y13546615D01*
X39001833Y13546615D01*
X38810564Y13467389D01*
X38607516Y13427000D01*
X38400484Y13427000D01*
X38197436Y13467389D01*
X38006167Y13546615D01*
X38006166Y13546615D01*
X38006165Y13546616D01*
X37834027Y13661635D01*
X37687635Y13808027D01*
X37572616Y13980165D01*
X37538971Y14061391D01*
X37493389Y14171436D01*
X37453000Y14374484D01*
X37453000Y14581516D01*
X37493389Y14784564D01*
X37572615Y14975833D01*
X37592799Y15006040D01*
X37687635Y15147973D01*
X37834027Y15294365D01*
X38006165Y15409384D01*
X38006167Y15409385D01*
X38197436Y15488611D01*
X38400484Y15529000D01*
X38607516Y15529000D01*
X38810564Y15488611D01*
G37*
G36*
X-61710000Y13831000D02*
G01*
X-63512000Y13831000D01*
X-63512000Y15633000D01*
X-61710000Y15633000D01*
X-61710000Y13831000D01*
G37*
G36*
X-56249000Y13831000D02*
G01*
X-58051000Y13831000D01*
X-58051000Y15633000D01*
X-56249000Y15633000D01*
X-56249000Y13831000D01*
G37*
G36*
X-39993000Y14593000D02*
G01*
X-41795000Y14593000D01*
X-41795000Y16395000D01*
X-39993000Y16395000D01*
X-39993000Y14593000D01*
G37*
G36*
X-44227172Y17150497D02*
G01*
X-44072300Y17086347D01*
X-43932919Y16993215D01*
X-43814385Y16874681D01*
X-43721253Y16735300D01*
X-43657103Y16580428D01*
X-43624400Y16416016D01*
X-43624400Y16248384D01*
X-43657103Y16083972D01*
X-43721253Y15929100D01*
X-43814385Y15789719D01*
X-43932919Y15671185D01*
X-44072300Y15578053D01*
X-44227172Y15513903D01*
X-44391584Y15481200D01*
X-44559216Y15481200D01*
X-44723628Y15513903D01*
X-44878500Y15578053D01*
X-45017881Y15671185D01*
X-45136415Y15789719D01*
X-45229547Y15929100D01*
X-45293697Y16083972D01*
X-45326400Y16248384D01*
X-45326400Y16416016D01*
X-45293697Y16580428D01*
X-45229547Y16735300D01*
X-45136415Y16874681D01*
X-45017881Y16993215D01*
X-44878500Y17086347D01*
X-44723628Y17150497D01*
X-44559216Y17183200D01*
X-44391584Y17183200D01*
X-44227172Y17150497D01*
G37*
G36*
X54113912Y19438073D02*
G01*
X54263212Y19408376D01*
X54427184Y19340456D01*
X54574754Y19241853D01*
X54700253Y19116354D01*
X54798856Y18968784D01*
X54866776Y18804812D01*
X54901400Y18630741D01*
X54901400Y18453259D01*
X54866776Y18279188D01*
X54798856Y18115216D01*
X54700253Y17967646D01*
X54574754Y17842147D01*
X54427184Y17743544D01*
X54263212Y17675624D01*
X54113912Y17645927D01*
X54089142Y17641000D01*
X53911658Y17641000D01*
X53886888Y17645927D01*
X53737588Y17675624D01*
X53573616Y17743544D01*
X53426046Y17842147D01*
X53300547Y17967646D01*
X53201944Y18115216D01*
X53134024Y18279188D01*
X53099400Y18453259D01*
X53099400Y18630741D01*
X53134024Y18804812D01*
X53201944Y18968784D01*
X53300547Y19116354D01*
X53426046Y19241853D01*
X53573616Y19340456D01*
X53737588Y19408376D01*
X53886888Y19438073D01*
X53911658Y19443000D01*
X54089142Y19443000D01*
X54113912Y19438073D01*
G37*
G36*
X44741400Y17641000D02*
G01*
X42939400Y17641000D01*
X42939400Y19443000D01*
X44741400Y19443000D01*
X44741400Y17641000D01*
G37*
G36*
X46493912Y19438073D02*
G01*
X46643212Y19408376D01*
X46807184Y19340456D01*
X46954754Y19241853D01*
X47080253Y19116354D01*
X47178856Y18968784D01*
X47246776Y18804812D01*
X47281400Y18630741D01*
X47281400Y18453259D01*
X47246776Y18279188D01*
X47178856Y18115216D01*
X47080253Y17967646D01*
X46954754Y17842147D01*
X46807184Y17743544D01*
X46643212Y17675624D01*
X46493912Y17645927D01*
X46469142Y17641000D01*
X46291658Y17641000D01*
X46266888Y17645927D01*
X46117588Y17675624D01*
X45953616Y17743544D01*
X45806046Y17842147D01*
X45680547Y17967646D01*
X45581944Y18115216D01*
X45514024Y18279188D01*
X45479400Y18453259D01*
X45479400Y18630741D01*
X45514024Y18804812D01*
X45581944Y18968784D01*
X45680547Y19116354D01*
X45806046Y19241853D01*
X45953616Y19340456D01*
X46117588Y19408376D01*
X46266888Y19438073D01*
X46291658Y19443000D01*
X46469142Y19443000D01*
X46493912Y19438073D01*
G37*
G36*
X49033912Y19438073D02*
G01*
X49183212Y19408376D01*
X49347184Y19340456D01*
X49494754Y19241853D01*
X49620253Y19116354D01*
X49718856Y18968784D01*
X49786776Y18804812D01*
X49821400Y18630741D01*
X49821400Y18453259D01*
X49786776Y18279188D01*
X49718856Y18115216D01*
X49620253Y17967646D01*
X49494754Y17842147D01*
X49347184Y17743544D01*
X49183212Y17675624D01*
X49033912Y17645927D01*
X49009142Y17641000D01*
X48831658Y17641000D01*
X48806888Y17645927D01*
X48657588Y17675624D01*
X48493616Y17743544D01*
X48346046Y17842147D01*
X48220547Y17967646D01*
X48121944Y18115216D01*
X48054024Y18279188D01*
X48019400Y18453259D01*
X48019400Y18630741D01*
X48054024Y18804812D01*
X48121944Y18968784D01*
X48220547Y19116354D01*
X48346046Y19241853D01*
X48493616Y19340456D01*
X48657588Y19408376D01*
X48806888Y19438073D01*
X48831658Y19443000D01*
X49009142Y19443000D01*
X49033912Y19438073D01*
G37*
G36*
X51573912Y19438073D02*
G01*
X51723212Y19408376D01*
X51887184Y19340456D01*
X52034754Y19241853D01*
X52160253Y19116354D01*
X52258856Y18968784D01*
X52326776Y18804812D01*
X52361400Y18630741D01*
X52361400Y18453259D01*
X52326776Y18279188D01*
X52258856Y18115216D01*
X52160253Y17967646D01*
X52034754Y17842147D01*
X51887184Y17743544D01*
X51723212Y17675624D01*
X51573912Y17645927D01*
X51549142Y17641000D01*
X51371658Y17641000D01*
X51346888Y17645927D01*
X51197588Y17675624D01*
X51033616Y17743544D01*
X50886046Y17842147D01*
X50760547Y17967646D01*
X50661944Y18115216D01*
X50594024Y18279188D01*
X50559400Y18453259D01*
X50559400Y18630741D01*
X50594024Y18804812D01*
X50661944Y18968784D01*
X50760547Y19116354D01*
X50886046Y19241853D01*
X51033616Y19340456D01*
X51197588Y19408376D01*
X51346888Y19438073D01*
X51371658Y19443000D01*
X51549142Y19443000D01*
X51573912Y19438073D01*
G37*
G36*
X32310564Y19988611D02*
G01*
X32501833Y19909385D01*
X32501835Y19909384D01*
X32673973Y19794365D01*
X32820365Y19647973D01*
X32912222Y19510500D01*
X32935385Y19475833D01*
X33014611Y19284564D01*
X33055000Y19081516D01*
X33055000Y18874484D01*
X33014611Y18671436D01*
X32986739Y18604148D01*
X32935384Y18480165D01*
X32820365Y18308027D01*
X32673973Y18161635D01*
X32501835Y18046616D01*
X32501834Y18046615D01*
X32501833Y18046615D01*
X32310564Y17967389D01*
X32107516Y17927000D01*
X31900484Y17927000D01*
X31697436Y17967389D01*
X31506167Y18046615D01*
X31506166Y18046615D01*
X31506165Y18046616D01*
X31334027Y18161635D01*
X31187635Y18308027D01*
X31072616Y18480165D01*
X31021261Y18604148D01*
X30993389Y18671436D01*
X30953000Y18874484D01*
X30953000Y19081516D01*
X30993389Y19284564D01*
X31072615Y19475833D01*
X31095779Y19510500D01*
X31187635Y19647973D01*
X31334027Y19794365D01*
X31506165Y19909384D01*
X31506167Y19909385D01*
X31697436Y19988611D01*
X31900484Y20029000D01*
X32107516Y20029000D01*
X32310564Y19988611D01*
G37*
G36*
X38810564Y19988611D02*
G01*
X39001833Y19909385D01*
X39001835Y19909384D01*
X39173973Y19794365D01*
X39320365Y19647973D01*
X39412222Y19510500D01*
X39435385Y19475833D01*
X39514611Y19284564D01*
X39555000Y19081516D01*
X39555000Y18874484D01*
X39514611Y18671436D01*
X39486739Y18604148D01*
X39435384Y18480165D01*
X39320365Y18308027D01*
X39173973Y18161635D01*
X39001835Y18046616D01*
X39001834Y18046615D01*
X39001833Y18046615D01*
X38810564Y17967389D01*
X38607516Y17927000D01*
X38400484Y17927000D01*
X38197436Y17967389D01*
X38006167Y18046615D01*
X38006166Y18046615D01*
X38006165Y18046616D01*
X37834027Y18161635D01*
X37687635Y18308027D01*
X37572616Y18480165D01*
X37521261Y18604148D01*
X37493389Y18671436D01*
X37453000Y18874484D01*
X37453000Y19081516D01*
X37493389Y19284564D01*
X37572615Y19475833D01*
X37595779Y19510500D01*
X37687635Y19647973D01*
X37834027Y19794365D01*
X38006165Y19909384D01*
X38006167Y19909385D01*
X38197436Y19988611D01*
X38400484Y20029000D01*
X38607516Y20029000D01*
X38810564Y19988611D01*
G37*
G36*
X13601000Y18149000D02*
G01*
X11799000Y18149000D01*
X11799000Y19951000D01*
X13601000Y19951000D01*
X13601000Y18149000D01*
G37*
G36*
X63004000Y18403000D02*
G01*
X61202000Y18403000D01*
X61202000Y20205000D01*
X63004000Y20205000D01*
X63004000Y18403000D01*
G37*
G36*
X59676512Y20200073D02*
G01*
X59825812Y20170376D01*
X59989784Y20102456D01*
X60137354Y20003853D01*
X60262853Y19878354D01*
X60361456Y19730784D01*
X60429376Y19566812D01*
X60464000Y19392741D01*
X60464000Y19215259D01*
X60429376Y19041188D01*
X60361456Y18877216D01*
X60262853Y18729646D01*
X60137354Y18604147D01*
X59989784Y18505544D01*
X59825812Y18437624D01*
X59676512Y18407927D01*
X59651742Y18403000D01*
X59474258Y18403000D01*
X59449488Y18407927D01*
X59300188Y18437624D01*
X59136216Y18505544D01*
X58988646Y18604147D01*
X58863147Y18729646D01*
X58764544Y18877216D01*
X58696624Y19041188D01*
X58662000Y19215259D01*
X58662000Y19392741D01*
X58696624Y19566812D01*
X58764544Y19730784D01*
X58863147Y19878354D01*
X58988646Y20003853D01*
X59136216Y20102456D01*
X59300188Y20170376D01*
X59449488Y20200073D01*
X59474258Y20205000D01*
X59651742Y20205000D01*
X59676512Y20200073D01*
G37*
G36*
X-7117772Y20731897D02*
G01*
X-6962900Y20667747D01*
X-6823519Y20574615D01*
X-6704985Y20456081D01*
X-6611853Y20316700D01*
X-6547703Y20161828D01*
X-6515000Y19997416D01*
X-6515000Y19829784D01*
X-6547703Y19665372D01*
X-6611853Y19510500D01*
X-6704985Y19371119D01*
X-6823519Y19252585D01*
X-6962900Y19159453D01*
X-7117772Y19095303D01*
X-7282184Y19062600D01*
X-7449816Y19062600D01*
X-7614228Y19095303D01*
X-7769100Y19159453D01*
X-7908481Y19252585D01*
X-8027015Y19371119D01*
X-8120147Y19510500D01*
X-8184297Y19665372D01*
X-8217000Y19829784D01*
X-8217000Y19997416D01*
X-8184297Y20161828D01*
X-8120147Y20316700D01*
X-8027015Y20456081D01*
X-7908481Y20574615D01*
X-7769100Y20667747D01*
X-7614228Y20731897D01*
X-7449816Y20764600D01*
X-7282184Y20764600D01*
X-7117772Y20731897D01*
G37*
M02*
