G04 #@! TF.GenerationSoftware,KiCad,Pcbnew,(5.1.5)-3*
G04 #@! TF.CreationDate,2020-02-08T14:47:08+01:00*
G04 #@! TF.ProjectId,SenseEHajo,53656e73-6545-4486-916a-6f2e6b696361,rev?*
G04 #@! TF.SameCoordinates,PX55061d0PY277be90*
G04 #@! TF.FileFunction,Copper,L2,Bot*
G04 #@! TF.FilePolarity,Positive*
%FSLAX46Y46*%
G04 Gerber Fmt 4.6, Leading zero omitted, Abs format (unit mm)*
G04 Created by KiCad (PCBNEW (5.1.5)-3) date 2020-02-08 14:47:08*
%MOMM*%
%LPD*%
G04 APERTURE LIST*
%ADD10C,0.050000*%
%ADD11C,1.600000*%
%ADD12C,1.600000*%
%ADD13O,1.600000X1.600000*%
%ADD14R,1.600000X1.600000*%
%ADD15R,1.700000X1.700000*%
%ADD16C,2.300000*%
%ADD17C,0.150000*%
%ADD18O,1.700000X1.700000*%
%ADD19C,2.000000*%
%ADD20R,3.200000X3.200000*%
%ADD21O,3.200000X3.200000*%
%ADD22C,1.000000*%
%ADD23C,0.800000*%
%ADD24C,0.250000*%
%ADD25C,1.000000*%
%ADD26C,1.500000*%
%ADD27C,0.254000*%
G04 APERTURE END LIST*
D10*
X-51054000Y-28829000D02*
X-42392600Y-28829000D01*
X-40081200Y-21894800D02*
X-40081200Y-28829000D01*
X-42392600Y-21894800D02*
X-40081200Y-21894800D01*
X-42392600Y-28829000D02*
X-42392600Y-21894800D01*
X29514800Y21056600D02*
X29489400Y21082000D01*
X25425400Y21056600D02*
X29514800Y21056600D01*
X23266400Y5207000D02*
X31521400Y5207000D01*
X29489400Y21082000D02*
X64008000Y21082000D01*
X-12446000Y1143000D02*
X31521400Y1143000D01*
X23266400Y5207000D02*
X-12446000Y5207000D01*
X74930000Y-13970000D02*
X59944000Y-28956000D01*
X-16510000Y-35814000D02*
X-16510000Y-28829000D01*
X64008000Y21082000D02*
X64008000Y18034000D01*
X64008000Y18034000D02*
X74930000Y18034000D01*
X25527000Y-35814000D02*
X-16510000Y-35814000D01*
X-66040000Y-13843000D02*
X-66040000Y18288000D01*
X74930000Y10414000D02*
X68072000Y10414000D01*
X74930000Y-7874000D02*
X74930000Y-13970000D01*
X68072000Y-7874000D02*
X74930000Y-7874000D01*
X68072000Y10414000D02*
X68072000Y-7874000D01*
X74930000Y18034000D02*
X74930000Y10414000D01*
X31521400Y5207000D02*
G75*
G02X31521400Y1143000I0J-2032000D01*
G01*
X-12446000Y1143000D02*
X-22479000Y1143000D01*
X-22479000Y5207000D02*
X-12446000Y5207000D01*
X-22479000Y1143000D02*
G75*
G02X-22479000Y5207000I0J2032000D01*
G01*
X-51054000Y-28829000D02*
X-66040000Y-13843000D01*
X-16510000Y-28829000D02*
X-40081200Y-28829000D01*
X25527000Y-28956000D02*
X25527000Y-35814000D01*
X-55118000Y18288000D02*
X-55118000Y21082000D01*
X-66040000Y18288000D02*
X-55118000Y18288000D01*
X25425400Y21056600D02*
X-55118000Y21082000D01*
X59944000Y-28956000D02*
X25527000Y-28956000D01*
D11*
X-58873846Y-18824754D02*
X-58873846Y-18824754D01*
D12*
X-64262000Y-13436600D03*
D11*
X-50314046Y-27003554D02*
X-50314046Y-27003554D01*
D12*
X-55702200Y-21615400D03*
D13*
X-37465000Y-24561800D03*
X-45085000Y-27101800D03*
X-37465000Y-27101800D03*
D14*
X-45085000Y-24561800D03*
D13*
X-44475400Y8712200D03*
D12*
X-44475400Y16332200D03*
D13*
X-4445000Y9499600D03*
D12*
X3175000Y9499600D03*
D13*
X-7366000Y12293600D03*
D12*
X-7366000Y19913600D03*
D13*
X-26009600Y7569200D03*
D12*
X-18389600Y7569200D03*
D13*
X4343400Y6832600D03*
X9423400Y-787400D03*
X6883400Y6832600D03*
X6883400Y-787400D03*
X9423400Y6832600D03*
D14*
X4343400Y-787400D03*
D13*
X-3937000Y6832600D03*
X1143000Y-787400D03*
X-1397000Y6832600D03*
X-1397000Y-787400D03*
X1143000Y6832600D03*
D14*
X-3937000Y-787400D03*
D15*
X-40894000Y15494000D03*
X12700000Y19050000D03*
D16*
X-29579355Y-6192870D03*
G04 #@! TA.AperFunction,ComponentPad*
D17*
G36*
X-60123312Y36836D02*
G01*
X-59341849Y1877846D01*
X-57224688Y979164D01*
X-58006151Y-861846D01*
X-60123312Y36836D01*
G37*
G04 #@! TD.AperFunction*
D16*
X-60627656Y-4094524D03*
X-35596615Y-20368645D03*
D15*
X15341600Y-635000D03*
D18*
X12801600Y-635000D03*
X59563000Y19304000D03*
D15*
X62103000Y19304000D03*
D18*
X54229000Y-23495000D03*
X51689000Y-23495000D03*
X49149000Y-23495000D03*
X46609000Y-23495000D03*
D15*
X44069000Y-23495000D03*
X44069000Y-27178000D03*
D18*
X46609000Y-27178000D03*
X49149000Y-27178000D03*
X51689000Y-27178000D03*
X54229000Y-27178000D03*
D15*
X-57150000Y14732000D03*
X-62611000Y14732000D03*
D19*
X32004000Y14478000D03*
X32004000Y18978000D03*
X38504000Y14478000D03*
X38504000Y18978000D03*
X39901000Y-21916000D03*
X39901000Y-26416000D03*
X33401000Y-21916000D03*
X33401000Y-26416000D03*
X7770000Y-30099000D03*
X7770000Y-34599000D03*
X1270000Y-30099000D03*
X1270000Y-34599000D03*
X-30988000Y-26344000D03*
X-30988000Y-21844000D03*
X-24488000Y-26344000D03*
X-24488000Y-21844000D03*
D20*
X12700000Y14224000D03*
D21*
X-2540000Y14224000D03*
D15*
X43840400Y18542000D03*
D18*
X46380400Y18542000D03*
X48920400Y18542000D03*
X51460400Y18542000D03*
X54000400Y18542000D03*
D22*
X-26339800Y-17526000D03*
X-27609800Y-17526000D03*
X-28879800Y-17526000D03*
X-30149800Y-17526000D03*
X2438400Y-26289000D03*
X3708400Y-26289000D03*
X4978400Y-26289000D03*
X6248400Y-26289000D03*
X37973000Y-18034000D03*
X36703000Y-18034000D03*
X35433000Y-18034000D03*
X34163000Y-18034000D03*
D23*
X57912000Y533400D03*
X61722000Y533400D03*
X61772800Y4343400D03*
X57835800Y4368800D03*
X53213000Y-12065000D03*
X52832000Y-20828000D03*
X67411600Y14986000D03*
X67411600Y13995400D03*
X67437000Y12979400D03*
X67487800Y11734800D03*
X65379600Y7264400D03*
X63449200Y7213600D03*
X52806600Y7213600D03*
X55016400Y7289800D03*
X57734200Y7315200D03*
X60553600Y7315200D03*
X52781200Y3937000D03*
X52781200Y558800D03*
X52832000Y-3759200D03*
X56210200Y-3835400D03*
X60553600Y-3733800D03*
X58369200Y-1905000D03*
X54889400Y-1498600D03*
X54635400Y2311400D03*
X54711600Y5435600D03*
X59817000Y2413000D03*
X65582800Y-3911600D03*
X63423800Y-1930400D03*
X65532000Y4013200D03*
X65709800Y508000D03*
X63931800Y2413000D03*
X57353200Y12827000D03*
X57200800Y14986000D03*
X49809400Y15036800D03*
X54076600Y15214600D03*
X35687000Y16916400D03*
X35661600Y18897600D03*
X41910000Y5105400D03*
X41935400Y3403600D03*
X41986200Y1498600D03*
X41986200Y-533400D03*
X42011600Y-2616200D03*
X42087800Y-4876800D03*
X43764200Y5181600D03*
X43815000Y3429000D03*
X43815000Y1524000D03*
X43840400Y-533400D03*
X43891200Y-2717800D03*
X37693600Y4292600D03*
X37719000Y2387600D03*
X37744400Y431800D03*
X37744400Y-1524000D03*
X37795200Y-3429000D03*
X37846000Y-5308600D03*
X35991800Y-5308600D03*
X35915600Y-3429000D03*
X35915600Y-1447800D03*
X34086800Y-5308600D03*
X34112200Y-3352800D03*
X32207200Y-5283200D03*
X58115200Y-19380200D03*
X58064400Y-17653000D03*
X59969400Y-19380200D03*
X59969400Y-15900400D03*
X62865000Y-24104600D03*
X62865000Y-20421600D03*
X62763400Y-16383000D03*
X62687200Y-13157200D03*
X65760600Y-13030200D03*
X65836800Y-16306800D03*
X65735200Y-20675600D03*
X68529200Y-16306800D03*
X71069200Y-16205200D03*
X50952400Y-15951200D03*
X50952400Y-17068800D03*
X50977800Y-14884400D03*
X28143200Y-685800D03*
X12598400Y-6350000D03*
X38582600Y8026400D03*
X39173001Y-6140599D03*
X-16460389Y-23114000D03*
X31242409Y-17435463D03*
X41148000Y-11354380D03*
X41148000Y-14517200D03*
X2794000Y-4814400D03*
X12954000Y-4826000D03*
X12873147Y-2366853D03*
X34079000Y4265689D03*
X67681184Y16607099D03*
X44842600Y-10457025D03*
X46477423Y-7268977D03*
X43235001Y-12126400D03*
X45948600Y-5435600D03*
X46830201Y12430003D03*
X48832600Y12293600D03*
X11821220Y-25613418D03*
X33268446Y-16682246D03*
X35179000Y4699000D03*
X14986000Y-29616400D03*
X23952200Y-15087600D03*
X23672800Y-10693400D03*
X44043600Y11988800D03*
X-23988253Y-13197347D03*
X-16317453Y-5526547D03*
X47701200Y-10287000D03*
X30646807Y518000D03*
X47244000Y-8266600D03*
X8356600Y518000D03*
X23774400Y-8813800D03*
X29083000Y-7874000D03*
X21844000Y-7924800D03*
X27623600Y-7747000D03*
X27623600Y-6426200D03*
X19927154Y-9563004D03*
X42352585Y-11655926D03*
X45390025Y-4606144D03*
X46780919Y13428789D03*
X49047400Y13411200D03*
X-17957800Y-20675600D03*
X32267722Y-17046560D03*
X-29210000Y6705600D03*
X62230000Y-9652000D03*
X47955200Y-5994400D03*
X60985400Y-9652000D03*
X48467853Y-7031147D03*
X44360000Y-13004800D03*
X45765930Y-6566282D03*
X46830201Y11430000D03*
X49961800Y11836400D03*
X-17910390Y-22936200D03*
X34594800Y-16306800D03*
X-21996400Y-27863800D03*
X-12384950Y-27025600D03*
X30229947Y-17811516D03*
X41627585Y-10464800D03*
X44331070Y-4954822D03*
X44665025Y10439400D03*
X54889400Y12115800D03*
D24*
X37089787Y18897600D02*
X35661600Y18897600D01*
X38504000Y18897600D02*
X37089787Y18897600D01*
X2684213Y-34599000D02*
X7770000Y-34599000D01*
X1270000Y-34599000D02*
X2684213Y-34599000D01*
X53213000Y-12065000D02*
X53213000Y-12630685D01*
X53213000Y-12630685D02*
X53213000Y-20066000D01*
X53213000Y-20066000D02*
X53213000Y-20447000D01*
X53213000Y-20447000D02*
X52832000Y-20828000D01*
X51721001Y-26002999D02*
X53379001Y-24344999D01*
X50374801Y-26002999D02*
X51721001Y-26002999D01*
X53379001Y-24344999D02*
X54229000Y-23495000D01*
X49199800Y-27178000D02*
X50374801Y-26002999D01*
X52832000Y-22098000D02*
X52832000Y-20828000D01*
X54229000Y-23495000D02*
X52832000Y-22098000D01*
X35661600Y18897600D02*
X32004000Y18897600D01*
D25*
X43840400Y16692000D02*
X43840400Y18542000D01*
X43895400Y16637000D02*
X43840400Y16692000D01*
X44069000Y-21645000D02*
X44069000Y-23495000D01*
X39173001Y-16749001D02*
X44069000Y-21645000D01*
X39173001Y-6140599D02*
X39173001Y-16749001D01*
D24*
X-16460389Y-23114000D02*
X-13109950Y-26464439D01*
X-13109950Y-32356050D02*
X-13052050Y-32413950D01*
X-13109950Y-26464439D02*
X-13109950Y-32356050D01*
X-13052050Y-32413950D02*
X-6558160Y-32413950D01*
X-6531627Y-28349704D02*
X-3835923Y-25654000D01*
X-6558160Y-32413950D02*
X-6531629Y-32387419D01*
X-6531629Y-32387419D02*
X-6531627Y-28349704D01*
X700181Y-25654000D02*
X700182Y-25533397D01*
X-3835923Y-25654000D02*
X700181Y-25654000D01*
X1669600Y-24563980D02*
X7017203Y-24563981D01*
X700182Y-25533397D02*
X700182Y-25533396D01*
X700182Y-25533396D02*
X1669600Y-24563980D01*
X7017203Y-24563981D02*
X8177181Y-25723959D01*
X8177181Y-25723959D02*
X10342631Y-25723959D01*
X10342631Y-25723959D02*
X10646209Y-25420381D01*
X10646210Y-25079016D02*
X11286819Y-24438407D01*
X10646209Y-25420381D02*
X10646210Y-25079016D01*
X12112306Y-24438407D02*
X14452713Y-22098000D01*
X11286819Y-24438407D02*
X12112306Y-24438407D01*
X26162000Y-22098000D02*
X26190760Y-22126760D01*
X14452713Y-22098000D02*
X26162000Y-22098000D01*
X26204329Y-22126760D02*
X27240139Y-21090949D01*
X26190760Y-22126760D02*
X26204329Y-22126760D01*
X27240139Y-21090949D02*
X27975819Y-21090949D01*
X27975819Y-21090949D02*
X31242409Y-17824359D01*
X31242409Y-17824359D02*
X31242409Y-17435463D01*
X41148000Y-11354380D02*
X41148000Y-14517200D01*
X3359685Y-4814400D02*
X3371285Y-4826000D01*
X2794000Y-4814400D02*
X3359685Y-4814400D01*
X3371285Y-4826000D02*
X12954000Y-4826000D01*
X13438832Y-2366853D02*
X13519685Y-2286000D01*
X12873147Y-2366853D02*
X13438832Y-2366853D01*
X13519685Y-2286000D02*
X29972000Y-2286000D01*
X29972000Y-2286000D02*
X34353990Y2095990D01*
X34353990Y2095990D02*
X34353990Y4127990D01*
X34353990Y4127990D02*
X34216699Y4127990D01*
X34216699Y4127990D02*
X34079000Y4265689D01*
D25*
X43895400Y16637000D02*
X67651283Y16637000D01*
X67651283Y16637000D02*
X67681184Y16607099D01*
D24*
X44842600Y-10457025D02*
X46477423Y-8822202D01*
X46477423Y-8822202D02*
X46477423Y-7268977D01*
X2684213Y-30099000D02*
X7770000Y-30099000D01*
X1270000Y-30099000D02*
X2684213Y-30099000D01*
X45823610Y-5435600D02*
X45948600Y-5435600D01*
X43235001Y-12126400D02*
X43235001Y-8024209D01*
X43235001Y-8024209D02*
X45823610Y-5435600D01*
X46830201Y12430003D02*
X46830201Y12173999D01*
X46830201Y12430003D02*
X48696197Y12430003D01*
X48696197Y12430003D02*
X48832600Y12293600D01*
X12372733Y-25450800D02*
X14796753Y-23026780D01*
X11821220Y-25613418D02*
X11983838Y-25450800D01*
X11983838Y-25450800D02*
X12372733Y-25450800D01*
X14796753Y-23026780D02*
X26339800Y-23026780D01*
X26577129Y-23026780D02*
X27612939Y-21990969D01*
X26339800Y-23026780D02*
X26577129Y-23026780D01*
X27612939Y-21990969D02*
X28348619Y-21990969D01*
X28348619Y-21990969D02*
X28669602Y-21669986D01*
X28669602Y-21669986D02*
X33268446Y-17071142D01*
X33268446Y-17071142D02*
X33268446Y-16682246D01*
D25*
X-27609800Y-18233106D02*
X-27609800Y-17526000D01*
X-28102695Y-18726001D02*
X-27609800Y-18233106D01*
X-30386003Y-18726001D02*
X-28102695Y-18726001D01*
X-32028647Y-20368645D02*
X-30386003Y-18726001D01*
X-35596615Y-20368645D02*
X-32028647Y-20368645D01*
X35179000Y1138196D02*
X35179000Y4699000D01*
X30355402Y-3685402D02*
X35179000Y1138196D01*
D26*
X-35596615Y-20368645D02*
X-33477355Y-20368645D01*
X-33002709Y-19893999D02*
X-21584201Y-19893999D01*
X-33477355Y-20368645D02*
X-33002709Y-19893999D01*
X-21584201Y-19893999D02*
X-19710400Y-21767800D01*
X-19710400Y-21767800D02*
X-19710400Y-26670000D01*
X-15534990Y-28425138D02*
X-15534990Y-34838990D01*
X-15534990Y-34838990D02*
X-4013200Y-34838990D01*
X-19710400Y-26670000D02*
X-18526410Y-27853990D01*
X-16106138Y-27853990D02*
X-15534990Y-28425138D01*
X-18526410Y-27853990D02*
X-16106138Y-27853990D01*
D25*
X44119800Y-27178000D02*
X42269800Y-27178000D01*
X18827153Y-10091005D02*
X18827153Y-3829647D01*
X19429548Y-10693400D02*
X18827153Y-10091005D01*
X23672800Y-10693400D02*
X19429548Y-10693400D01*
X18827153Y-3829647D02*
X18999200Y-3657600D01*
X30355402Y-3685402D02*
X18999200Y-3657600D01*
X39828999Y-28116001D02*
X39084999Y-28116001D01*
X25046199Y-28116001D02*
X24460200Y-28702000D01*
X24460200Y-28702000D02*
X24460200Y-34518600D01*
X36728400Y-18715706D02*
X36728400Y-28117800D01*
X35179000Y6250802D02*
X35204400Y6276202D01*
X35179000Y4699000D02*
X35179000Y6250802D01*
X35204400Y6276202D02*
X35204400Y8331200D01*
X35204400Y8331200D02*
X37465000Y10591800D01*
X37465000Y10591800D02*
X42240200Y10591800D01*
X42240200Y10591800D02*
X42646600Y10591800D01*
X42646600Y10591800D02*
X44043600Y11988800D01*
D26*
X11953401Y-32648999D02*
X14586001Y-30016399D01*
X14586001Y-30016399D02*
X14986000Y-29616400D01*
X-4013200Y-34838990D02*
X-1823209Y-32648999D01*
D25*
X8372001Y-32648999D02*
X11795599Y-32648999D01*
D26*
X8372001Y-32648999D02*
X11953401Y-32648999D01*
X-1823209Y-32648999D02*
X8372001Y-32648999D01*
D25*
X13563600Y-34518600D02*
X12700000Y-33655000D01*
X24460200Y-34518600D02*
X13563600Y-34518600D01*
X11795599Y-32648999D02*
X12700000Y-33655000D01*
D24*
X5506293Y-27523999D02*
X13141401Y-27523999D01*
X4978400Y-26289000D02*
X4978400Y-26996106D01*
X4978400Y-26996106D02*
X5506293Y-27523999D01*
X13141401Y-27523999D02*
X13151002Y-27533600D01*
X13151002Y-27533600D02*
X14706600Y-27533600D01*
X14986000Y-27813000D02*
X14986000Y-29616400D01*
X14706600Y-27533600D02*
X14986000Y-27813000D01*
D25*
X-27609800Y-16818894D02*
X-23988253Y-13197347D01*
X-27609800Y-17526000D02*
X-27609800Y-16818894D01*
X18999200Y-3657600D02*
X-11506200Y-3657600D01*
X-14448506Y-3657600D02*
X-11506200Y-3657600D01*
X-16317453Y-5526547D02*
X-14448506Y-3657600D01*
X25046199Y-28116001D02*
X34313601Y-28116001D01*
X41331799Y-28116001D02*
X41402000Y-28117800D01*
X34315400Y-28117800D02*
X41402000Y-28117800D01*
X34313601Y-28116001D02*
X34315400Y-28117800D01*
X41402000Y-28117800D02*
X39828999Y-28116001D01*
X41402000Y-28045800D02*
X42269800Y-27178000D01*
X41402000Y-28117800D02*
X41402000Y-28045800D01*
X36728400Y-18110200D02*
X36728400Y-18715706D01*
X36703000Y-18084800D02*
X36728400Y-18110200D01*
X36703000Y-18034000D02*
X36703000Y-18084800D01*
X-58674000Y-578360D02*
X-56413400Y-2838960D01*
X-56413400Y-2838960D02*
X-56413400Y-5816600D01*
X-58674000Y508000D02*
X-58674000Y-578360D01*
X-56413400Y-5816600D02*
X-64262000Y-13436600D01*
D24*
X47244000Y-9829800D02*
X47701200Y-10287000D01*
X47244000Y-8266600D02*
X47244000Y-9829800D01*
X30624806Y540001D02*
X30646807Y518000D01*
X8944286Y540001D02*
X30624806Y540001D01*
X8922285Y518000D02*
X8944286Y540001D01*
X8356600Y518000D02*
X8922285Y518000D01*
D26*
X4343400Y8331200D02*
X3175000Y9499600D01*
X4343400Y6832600D02*
X4343400Y8331200D01*
D24*
X23774400Y-8813800D02*
X28143200Y-8813800D01*
X28143200Y-8813800D02*
X29083000Y-7874000D01*
X21844000Y-7924800D02*
X27445800Y-7924800D01*
X27445800Y-7924800D02*
X27623600Y-7747000D01*
X27057915Y-6426200D02*
X26321315Y-7162800D01*
X27623600Y-6426200D02*
X27057915Y-6426200D01*
X19927154Y-8768644D02*
X19927154Y-9563004D01*
X26321315Y-7162800D02*
X21532998Y-7162800D01*
X21532998Y-7162800D02*
X19927154Y-8768644D01*
X1653411Y-27073989D02*
X2438400Y-26289000D01*
X-3346682Y-27073989D02*
X1653411Y-27073989D01*
X-5181600Y-28908907D02*
X-3346682Y-27073989D01*
X-18635390Y-21322517D02*
X-18635390Y-26094010D01*
X-5181600Y-33763980D02*
X-5181600Y-28908907D01*
X-21138918Y-18818989D02*
X-18635390Y-21322517D01*
X-25753917Y-18818989D02*
X-21138918Y-18818989D01*
X-26339800Y-18233106D02*
X-25753917Y-18818989D01*
X-26339800Y-17526000D02*
X-26339800Y-18233106D01*
X-18635390Y-26094010D02*
X-17950420Y-26778980D01*
X-15660855Y-26778980D02*
X-14459980Y-27979855D01*
X-17950420Y-26778980D02*
X-15660855Y-26778980D01*
X-14459980Y-27979855D02*
X-14459980Y-33596820D01*
X-14459980Y-33596820D02*
X-14292820Y-33763980D01*
X-14292820Y-33763980D02*
X-5181600Y-33763980D01*
X6248400Y-26996106D02*
X6326283Y-27073989D01*
X6248400Y-26289000D02*
X6248400Y-26996106D01*
X12022364Y-27073989D02*
X15169553Y-23926800D01*
X6326283Y-27073989D02*
X12022364Y-27073989D01*
X26949929Y-23926800D02*
X27985739Y-22890989D01*
X15169553Y-23926800D02*
X26949929Y-23926800D01*
X29306011Y-22890989D02*
X34163000Y-18034000D01*
X27985739Y-22890989D02*
X29306011Y-22890989D01*
X42352585Y-7958613D02*
X45516800Y-4794398D01*
X42352585Y-11655926D02*
X42352585Y-7958613D01*
X45516800Y-4794398D02*
X45516800Y-4732919D01*
X45516800Y-4732919D02*
X45390025Y-4606144D01*
X47346604Y13428789D02*
X47364193Y13411200D01*
X46780919Y13428789D02*
X47346604Y13428789D01*
X47364193Y13411200D02*
X49047400Y13411200D01*
X-17185389Y-22588199D02*
X-17185389Y-25084789D01*
X-17957800Y-20675600D02*
X-17957800Y-21815788D01*
X-17957800Y-21815788D02*
X-17185389Y-22588199D01*
X-17185389Y-25084789D02*
X-17185389Y-25537411D01*
X-17185389Y-25537411D02*
X-16843839Y-25878961D01*
X-16843839Y-25878961D02*
X-15288053Y-25878962D01*
X-15288053Y-25878962D02*
X-13559960Y-27607055D01*
X-13559960Y-27607055D02*
X-13559960Y-32742830D01*
X-13559960Y-32742830D02*
X-13438830Y-32863960D01*
X-6371760Y-32863960D02*
X-6081620Y-32573820D01*
X-13438830Y-32863960D02*
X-6371760Y-32863960D01*
X-6081620Y-32573820D02*
X-6081619Y-31588999D01*
X-6081618Y-28536105D02*
X-3719482Y-26173969D01*
X-6081619Y-31588999D02*
X-6081618Y-28536105D01*
X-3719482Y-26173969D02*
X990600Y-26173969D01*
X1080231Y-26173969D02*
X1150190Y-26104010D01*
X990600Y-26173969D02*
X1080231Y-26173969D01*
X6830802Y-25013990D02*
X7536609Y-25719797D01*
X1150190Y-26104010D02*
X1150191Y-25719797D01*
X1855999Y-25013989D02*
X6830802Y-25013990D01*
X1150191Y-25719797D02*
X1855999Y-25013989D01*
X7536609Y-26154809D02*
X7555769Y-26173969D01*
X7536609Y-25719797D02*
X7536609Y-26154809D01*
X7555769Y-26173969D02*
X10529031Y-26173969D01*
X11473219Y-24888417D02*
X12169221Y-24888417D01*
X11096219Y-25265417D02*
X11473219Y-24888417D01*
X10529031Y-26173969D02*
X11096219Y-25606781D01*
X11096219Y-25606781D02*
X11096219Y-25265417D01*
X12269723Y-24917400D02*
X14610353Y-22576770D01*
X12169221Y-24888417D02*
X12198204Y-24917400D01*
X12198204Y-24917400D02*
X12269723Y-24917400D01*
X26390729Y-22576770D02*
X27426539Y-21540959D01*
X14610353Y-22576770D02*
X26390729Y-22576770D01*
X28162219Y-21540959D02*
X28219593Y-21483585D01*
X27426539Y-21540959D02*
X28162219Y-21540959D01*
X28219593Y-21483585D02*
X32267722Y-17435456D01*
X32267722Y-17435456D02*
X32267722Y-17046560D01*
D25*
X-44475400Y16332200D02*
X-43344030Y16332200D01*
X-42150230Y17526000D02*
X-27025600Y17526000D01*
X-43344030Y16332200D02*
X-42150230Y17526000D01*
D26*
X-27025600Y17526000D02*
X-28448000Y17526000D01*
D25*
X-28810001Y17163999D02*
X-28448000Y17526000D01*
X-28810001Y7105599D02*
X-28810001Y17163999D01*
X-29210000Y6705600D02*
X-28810001Y7105599D01*
X-1574800Y17526000D02*
X-1270000Y17526000D01*
D26*
X-1574800Y17526000D02*
X-27025600Y17526000D01*
X9423400Y14909800D02*
X9423400Y6832600D01*
X-1574800Y17526000D02*
X6807200Y17526000D01*
X6807200Y17526000D02*
X9423400Y14909800D01*
D24*
X61504999Y-8926999D02*
X62230000Y-9652000D01*
X47955200Y-5994400D02*
X49276000Y-5994400D01*
X50292000Y-8890000D02*
X50723800Y-8890000D01*
X49276000Y-5994400D02*
X49657000Y-6375400D01*
X50723800Y-8890000D02*
X61504999Y-8926999D01*
X49657000Y-8255000D02*
X50292000Y-8890000D01*
X49657000Y-6375400D02*
X49657000Y-8255000D01*
X48690390Y-9652000D02*
X47969001Y-8930611D01*
X60985400Y-9652000D02*
X48690390Y-9652000D01*
X47969001Y-8930611D02*
X47969001Y-8614601D01*
X47969001Y-8614601D02*
X47969001Y-8323963D01*
X47969001Y-8614601D02*
X47969001Y-7529999D01*
X47969001Y-7529999D02*
X48467853Y-7031147D01*
X-30988000Y-21844000D02*
X-24488000Y-21844000D01*
X43960001Y-12604801D02*
X43960001Y-10268999D01*
X44360000Y-13004800D02*
X43960001Y-12604801D01*
X43960001Y-10268999D02*
X43960001Y-8372211D01*
X43960001Y-8372211D02*
X45765930Y-6566282D01*
X46830201Y11430000D02*
X49707800Y11430000D01*
X49707800Y11430000D02*
X49961800Y11684000D01*
X49961800Y11684000D02*
X49961800Y11836400D01*
X-17910390Y-22936200D02*
X-17910390Y-25955410D01*
X-17910390Y-25955410D02*
X-17536830Y-26328970D01*
X-15474454Y-26328971D02*
X-14009970Y-27793455D01*
X-17536830Y-26328970D02*
X-15474454Y-26328971D01*
X-14009970Y-32929230D02*
X-13625230Y-33313970D01*
X-14009970Y-27793455D02*
X-14009970Y-32929230D01*
X-13625230Y-33313970D02*
X-5631610Y-33313970D01*
X-5631610Y-33313970D02*
X-5631610Y-31775400D01*
X-5631610Y-31775400D02*
X-5631609Y-28722506D01*
X-5631609Y-28722506D02*
X-3533082Y-26623979D01*
X1341421Y-26623979D02*
X1600200Y-26365200D01*
X-3533082Y-26623979D02*
X1341421Y-26623979D01*
X1600200Y-26365200D02*
X1600200Y-26035000D01*
X6644401Y-25463999D02*
X7086600Y-25906198D01*
X2042399Y-25463999D02*
X6644401Y-25463999D01*
X1600200Y-26035000D02*
X1600200Y-25906198D01*
X1600200Y-25906198D02*
X2042399Y-25463999D01*
X7086600Y-26619200D02*
X7091379Y-26623979D01*
X7086600Y-25906198D02*
X7086600Y-26619200D01*
X7091379Y-26623979D02*
X11835964Y-26623979D01*
X11835964Y-26623979D02*
X14983153Y-23476790D01*
X26763529Y-23476790D02*
X27799339Y-22440979D01*
X14983153Y-23476790D02*
X26763529Y-23476790D01*
X27799339Y-22440979D02*
X29119611Y-22440979D01*
X34594800Y-16381198D02*
X34594800Y-16306800D01*
X29119611Y-22440979D02*
X29119611Y-21856387D01*
X29119611Y-21856387D02*
X34594800Y-16381198D01*
X-37465000Y-27101800D02*
X-36665001Y-27901799D01*
X-22034399Y-27901799D02*
X-21996400Y-27863800D01*
X-36665001Y-27901799D02*
X-22034399Y-27901799D01*
X-12384950Y-27591285D02*
X-12659940Y-27866275D01*
X-12384950Y-27025600D02*
X-12384950Y-27591285D01*
X-12659940Y-27866275D02*
X-12659940Y-31963940D01*
X-12659940Y-31963940D02*
X-6981638Y-31963940D01*
X-6981638Y-31963940D02*
X-6981637Y-28575000D01*
X-6981637Y-28575000D02*
X-6981636Y-28163303D01*
X-6981636Y-28163303D02*
X-4992067Y-26173734D01*
X-4992067Y-26173734D02*
X-4022323Y-25203990D01*
X-4022323Y-25203990D02*
X127000Y-25203990D01*
X393178Y-25203990D02*
X1483201Y-24113971D01*
X127000Y-25203990D02*
X393178Y-25203990D01*
X1483201Y-24113971D02*
X7203604Y-24113972D01*
X7203604Y-24113972D02*
X8363581Y-25273949D01*
X10133651Y-25273949D02*
X10196200Y-25211400D01*
X8363581Y-25273949D02*
X10133651Y-25273949D01*
X10196200Y-25211400D02*
X10196201Y-24892615D01*
X10196201Y-24892615D02*
X11100419Y-23988397D01*
X11100419Y-23988397D02*
X11925906Y-23988397D01*
X11925906Y-23988397D02*
X14266313Y-21647990D01*
X14266313Y-21647990D02*
X26046689Y-21647990D01*
X26046689Y-21647990D02*
X26781039Y-20913640D01*
X26781039Y-20913640D02*
X27053739Y-20640939D01*
X27053739Y-20640939D02*
X27789419Y-20640939D01*
X27789419Y-20640939D02*
X29358679Y-19071679D01*
X29358679Y-19071679D02*
X30229947Y-18200411D01*
X30229947Y-18200411D02*
X30229947Y-17811516D01*
X41627585Y-10464800D02*
X41627585Y-7658307D01*
X41627585Y-7658307D02*
X44331070Y-4954822D01*
X44665025Y10439400D02*
X53213000Y10439400D01*
X53213000Y10439400D02*
X54889400Y12115800D01*
D25*
X-50139600Y-27101800D02*
X-50441046Y-26800354D01*
D27*
G36*
X1463748Y-34584858D02*
G01*
X1449605Y-34599000D01*
X1463748Y-34613143D01*
X1284143Y-34792748D01*
X1270000Y-34778605D01*
X1255858Y-34792748D01*
X1076253Y-34613143D01*
X1090395Y-34599000D01*
X1076253Y-34584858D01*
X1255858Y-34405253D01*
X1270000Y-34419395D01*
X1284143Y-34405253D01*
X1463748Y-34584858D01*
G37*
X1463748Y-34584858D02*
X1449605Y-34599000D01*
X1463748Y-34613143D01*
X1284143Y-34792748D01*
X1270000Y-34778605D01*
X1255858Y-34792748D01*
X1076253Y-34613143D01*
X1090395Y-34599000D01*
X1076253Y-34584858D01*
X1255858Y-34405253D01*
X1270000Y-34419395D01*
X1284143Y-34405253D01*
X1463748Y-34584858D01*
G36*
X7963748Y-34584858D02*
G01*
X7949605Y-34599000D01*
X7963748Y-34613143D01*
X7784143Y-34792748D01*
X7770000Y-34778605D01*
X7755858Y-34792748D01*
X7576253Y-34613143D01*
X7590395Y-34599000D01*
X7576253Y-34584858D01*
X7755858Y-34405253D01*
X7770000Y-34419395D01*
X7784143Y-34405253D01*
X7963748Y-34584858D01*
G37*
X7963748Y-34584858D02*
X7949605Y-34599000D01*
X7963748Y-34613143D01*
X7784143Y-34792748D01*
X7770000Y-34778605D01*
X7755858Y-34792748D01*
X7576253Y-34613143D01*
X7590395Y-34599000D01*
X7576253Y-34584858D01*
X7755858Y-34405253D01*
X7770000Y-34419395D01*
X7784143Y-34405253D01*
X7963748Y-34584858D01*
G36*
X34869550Y-19025588D02*
G01*
X35073826Y-19116458D01*
X35291905Y-19165731D01*
X35515406Y-19171511D01*
X35593400Y-19158083D01*
X35593401Y-26982800D01*
X34942655Y-26982800D01*
X35023384Y-26674892D01*
X35042718Y-26353405D01*
X34998961Y-26034325D01*
X34893795Y-25729912D01*
X34800814Y-25555956D01*
X34536413Y-25460192D01*
X33580605Y-26416000D01*
X33594748Y-26430143D01*
X33415143Y-26609748D01*
X33401000Y-26595605D01*
X33386858Y-26609748D01*
X33207253Y-26430143D01*
X33221395Y-26416000D01*
X32265587Y-25460192D01*
X32001186Y-25555956D01*
X31860296Y-25845571D01*
X31778616Y-26157108D01*
X31759282Y-26478595D01*
X31803039Y-26797675D01*
X31866373Y-26981001D01*
X25101951Y-26981001D01*
X25046199Y-26975510D01*
X24990447Y-26981001D01*
X24823700Y-26997424D01*
X24609752Y-27062325D01*
X24412576Y-27167717D01*
X24239750Y-27309552D01*
X24204207Y-27352861D01*
X23697064Y-27860005D01*
X23653751Y-27895551D01*
X23511916Y-28068377D01*
X23425772Y-28229544D01*
X23406524Y-28265554D01*
X23341623Y-28479502D01*
X23319709Y-28702000D01*
X23325200Y-28757752D01*
X23325201Y-33383600D01*
X14033732Y-33383600D01*
X13605608Y-32955477D01*
X15613453Y-30947633D01*
X15613458Y-30947627D01*
X16013452Y-30547633D01*
X16143156Y-30389588D01*
X16271764Y-30148980D01*
X16350960Y-29887908D01*
X16377700Y-29616401D01*
X16350960Y-29344893D01*
X16271764Y-29083820D01*
X16143156Y-28843212D01*
X15970081Y-28632319D01*
X15759188Y-28459244D01*
X15746000Y-28452195D01*
X15746000Y-27850322D01*
X15749676Y-27812999D01*
X15746000Y-27775676D01*
X15746000Y-27775667D01*
X15735003Y-27664014D01*
X15691546Y-27520753D01*
X15620974Y-27388724D01*
X15526001Y-27272999D01*
X15496998Y-27249197D01*
X15270404Y-27022603D01*
X15246601Y-26993599D01*
X15130876Y-26898626D01*
X14998847Y-26828054D01*
X14855586Y-26784597D01*
X14743933Y-26773600D01*
X14743922Y-26773600D01*
X14706600Y-26769924D01*
X14669278Y-26773600D01*
X13397554Y-26773600D01*
X14890567Y-25280587D01*
X32445192Y-25280587D01*
X33401000Y-26236395D01*
X34356808Y-25280587D01*
X34261044Y-25016186D01*
X33971429Y-24875296D01*
X33659892Y-24793616D01*
X33338405Y-24774282D01*
X33019325Y-24818039D01*
X32714912Y-24923205D01*
X32540956Y-25016186D01*
X32445192Y-25280587D01*
X14890567Y-25280587D01*
X15484355Y-24686800D01*
X26912607Y-24686800D01*
X26949929Y-24690476D01*
X26987252Y-24686800D01*
X26987262Y-24686800D01*
X27098915Y-24675803D01*
X27242176Y-24632346D01*
X27374205Y-24561774D01*
X27489930Y-24466801D01*
X27513728Y-24437803D01*
X28300541Y-23650989D01*
X29268689Y-23650989D01*
X29306011Y-23654665D01*
X29343333Y-23650989D01*
X29343344Y-23650989D01*
X29454997Y-23639992D01*
X29598258Y-23596535D01*
X29730287Y-23525963D01*
X29846012Y-23430990D01*
X29869815Y-23401986D01*
X31827868Y-21443933D01*
X31766000Y-21754967D01*
X31766000Y-22077033D01*
X31828832Y-22392912D01*
X31952082Y-22690463D01*
X32131013Y-22958252D01*
X32358748Y-23185987D01*
X32626537Y-23364918D01*
X32924088Y-23488168D01*
X33239967Y-23551000D01*
X33562033Y-23551000D01*
X33877912Y-23488168D01*
X34175463Y-23364918D01*
X34443252Y-23185987D01*
X34670987Y-22958252D01*
X34849918Y-22690463D01*
X34973168Y-22392912D01*
X35036000Y-22077033D01*
X35036000Y-21754967D01*
X34973168Y-21439088D01*
X34849918Y-21141537D01*
X34670987Y-20873748D01*
X34443252Y-20646013D01*
X34175463Y-20467082D01*
X33877912Y-20343832D01*
X33562033Y-20281000D01*
X33239967Y-20281000D01*
X32928933Y-20342868D01*
X34102802Y-19169000D01*
X34274788Y-19169000D01*
X34494067Y-19125383D01*
X34700624Y-19039824D01*
X34854930Y-18936720D01*
X34869550Y-19025588D01*
G37*
X34869550Y-19025588D02*
X35073826Y-19116458D01*
X35291905Y-19165731D01*
X35515406Y-19171511D01*
X35593400Y-19158083D01*
X35593401Y-26982800D01*
X34942655Y-26982800D01*
X35023384Y-26674892D01*
X35042718Y-26353405D01*
X34998961Y-26034325D01*
X34893795Y-25729912D01*
X34800814Y-25555956D01*
X34536413Y-25460192D01*
X33580605Y-26416000D01*
X33594748Y-26430143D01*
X33415143Y-26609748D01*
X33401000Y-26595605D01*
X33386858Y-26609748D01*
X33207253Y-26430143D01*
X33221395Y-26416000D01*
X32265587Y-25460192D01*
X32001186Y-25555956D01*
X31860296Y-25845571D01*
X31778616Y-26157108D01*
X31759282Y-26478595D01*
X31803039Y-26797675D01*
X31866373Y-26981001D01*
X25101951Y-26981001D01*
X25046199Y-26975510D01*
X24990447Y-26981001D01*
X24823700Y-26997424D01*
X24609752Y-27062325D01*
X24412576Y-27167717D01*
X24239750Y-27309552D01*
X24204207Y-27352861D01*
X23697064Y-27860005D01*
X23653751Y-27895551D01*
X23511916Y-28068377D01*
X23425772Y-28229544D01*
X23406524Y-28265554D01*
X23341623Y-28479502D01*
X23319709Y-28702000D01*
X23325200Y-28757752D01*
X23325201Y-33383600D01*
X14033732Y-33383600D01*
X13605608Y-32955477D01*
X15613453Y-30947633D01*
X15613458Y-30947627D01*
X16013452Y-30547633D01*
X16143156Y-30389588D01*
X16271764Y-30148980D01*
X16350960Y-29887908D01*
X16377700Y-29616401D01*
X16350960Y-29344893D01*
X16271764Y-29083820D01*
X16143156Y-28843212D01*
X15970081Y-28632319D01*
X15759188Y-28459244D01*
X15746000Y-28452195D01*
X15746000Y-27850322D01*
X15749676Y-27812999D01*
X15746000Y-27775676D01*
X15746000Y-27775667D01*
X15735003Y-27664014D01*
X15691546Y-27520753D01*
X15620974Y-27388724D01*
X15526001Y-27272999D01*
X15496998Y-27249197D01*
X15270404Y-27022603D01*
X15246601Y-26993599D01*
X15130876Y-26898626D01*
X14998847Y-26828054D01*
X14855586Y-26784597D01*
X14743933Y-26773600D01*
X14743922Y-26773600D01*
X14706600Y-26769924D01*
X14669278Y-26773600D01*
X13397554Y-26773600D01*
X14890567Y-25280587D01*
X32445192Y-25280587D01*
X33401000Y-26236395D01*
X34356808Y-25280587D01*
X34261044Y-25016186D01*
X33971429Y-24875296D01*
X33659892Y-24793616D01*
X33338405Y-24774282D01*
X33019325Y-24818039D01*
X32714912Y-24923205D01*
X32540956Y-25016186D01*
X32445192Y-25280587D01*
X14890567Y-25280587D01*
X15484355Y-24686800D01*
X26912607Y-24686800D01*
X26949929Y-24690476D01*
X26987252Y-24686800D01*
X26987262Y-24686800D01*
X27098915Y-24675803D01*
X27242176Y-24632346D01*
X27374205Y-24561774D01*
X27489930Y-24466801D01*
X27513728Y-24437803D01*
X28300541Y-23650989D01*
X29268689Y-23650989D01*
X29306011Y-23654665D01*
X29343333Y-23650989D01*
X29343344Y-23650989D01*
X29454997Y-23639992D01*
X29598258Y-23596535D01*
X29730287Y-23525963D01*
X29846012Y-23430990D01*
X29869815Y-23401986D01*
X31827868Y-21443933D01*
X31766000Y-21754967D01*
X31766000Y-22077033D01*
X31828832Y-22392912D01*
X31952082Y-22690463D01*
X32131013Y-22958252D01*
X32358748Y-23185987D01*
X32626537Y-23364918D01*
X32924088Y-23488168D01*
X33239967Y-23551000D01*
X33562033Y-23551000D01*
X33877912Y-23488168D01*
X34175463Y-23364918D01*
X34443252Y-23185987D01*
X34670987Y-22958252D01*
X34849918Y-22690463D01*
X34973168Y-22392912D01*
X35036000Y-22077033D01*
X35036000Y-21754967D01*
X34973168Y-21439088D01*
X34849918Y-21141537D01*
X34670987Y-20873748D01*
X34443252Y-20646013D01*
X34175463Y-20467082D01*
X33877912Y-20343832D01*
X33562033Y-20281000D01*
X33239967Y-20281000D01*
X32928933Y-20342868D01*
X34102802Y-19169000D01*
X34274788Y-19169000D01*
X34494067Y-19125383D01*
X34700624Y-19039824D01*
X34854930Y-18936720D01*
X34869550Y-19025588D01*
G36*
X31143956Y20377814D02*
G01*
X31048192Y20113413D01*
X32004000Y19157605D01*
X32959808Y20113413D01*
X32864044Y20377814D01*
X32773215Y20422000D01*
X37726623Y20422000D01*
X37643956Y20377814D01*
X37548192Y20113413D01*
X38504000Y19157605D01*
X39459808Y20113413D01*
X39364044Y20377814D01*
X39273215Y20422000D01*
X58580893Y20422000D01*
X58409525Y20250632D01*
X58247010Y20007411D01*
X58135068Y19737158D01*
X58078000Y19450260D01*
X58078000Y19157740D01*
X58135068Y18870842D01*
X58247010Y18600589D01*
X58409525Y18357368D01*
X58616368Y18150525D01*
X58859589Y17988010D01*
X59129842Y17876068D01*
X59416740Y17819000D01*
X59709260Y17819000D01*
X59996158Y17876068D01*
X60266411Y17988010D01*
X60509632Y18150525D01*
X60641487Y18282380D01*
X60663498Y18209820D01*
X60722463Y18099506D01*
X60801815Y18002815D01*
X60898506Y17923463D01*
X61008820Y17864498D01*
X61128518Y17828188D01*
X61253000Y17815928D01*
X61817250Y17819000D01*
X61976000Y17977750D01*
X61976000Y19177000D01*
X61956000Y19177000D01*
X61956000Y19431000D01*
X61976000Y19431000D01*
X61976000Y19451000D01*
X62230000Y19451000D01*
X62230000Y19431000D01*
X62250000Y19431000D01*
X62250000Y19177000D01*
X62230000Y19177000D01*
X62230000Y17977750D01*
X62388750Y17819000D01*
X62953000Y17815928D01*
X63077482Y17828188D01*
X63197180Y17864498D01*
X63307494Y17923463D01*
X63352089Y17960061D01*
X63357550Y17904617D01*
X63395290Y17780207D01*
X63399677Y17772000D01*
X55261909Y17772000D01*
X55344557Y17910748D01*
X55441881Y18185109D01*
X55321214Y18415000D01*
X54127400Y18415000D01*
X54127400Y18395000D01*
X53873400Y18395000D01*
X53873400Y18415000D01*
X53853400Y18415000D01*
X53853400Y18669000D01*
X53873400Y18669000D01*
X53873400Y19862155D01*
X54127400Y19862155D01*
X54127400Y18669000D01*
X55321214Y18669000D01*
X55441881Y18898891D01*
X55344557Y19173252D01*
X55195578Y19423355D01*
X55000669Y19639588D01*
X54767320Y19813641D01*
X54504499Y19938825D01*
X54357290Y19983476D01*
X54127400Y19862155D01*
X53873400Y19862155D01*
X53643510Y19983476D01*
X53496301Y19938825D01*
X53233480Y19813641D01*
X53000131Y19639588D01*
X52805222Y19423355D01*
X52735595Y19306466D01*
X52613875Y19488632D01*
X52407032Y19695475D01*
X52163811Y19857990D01*
X51893558Y19969932D01*
X51606660Y20027000D01*
X51314140Y20027000D01*
X51027242Y19969932D01*
X50756989Y19857990D01*
X50513768Y19695475D01*
X50306925Y19488632D01*
X50190400Y19314240D01*
X50073875Y19488632D01*
X49867032Y19695475D01*
X49623811Y19857990D01*
X49353558Y19969932D01*
X49066660Y20027000D01*
X48774140Y20027000D01*
X48487242Y19969932D01*
X48216989Y19857990D01*
X47973768Y19695475D01*
X47766925Y19488632D01*
X47650400Y19314240D01*
X47533875Y19488632D01*
X47327032Y19695475D01*
X47083811Y19857990D01*
X46813558Y19969932D01*
X46526660Y20027000D01*
X46234140Y20027000D01*
X45947242Y19969932D01*
X45676989Y19857990D01*
X45433768Y19695475D01*
X45301913Y19563620D01*
X45279902Y19636180D01*
X45220937Y19746494D01*
X45141585Y19843185D01*
X45044894Y19922537D01*
X44934580Y19981502D01*
X44814882Y20017812D01*
X44690400Y20030072D01*
X42990400Y20030072D01*
X42865918Y20017812D01*
X42746220Y19981502D01*
X42635906Y19922537D01*
X42539215Y19843185D01*
X42459863Y19746494D01*
X42400898Y19636180D01*
X42364588Y19516482D01*
X42352328Y19392000D01*
X42352328Y17692000D01*
X42364588Y17567518D01*
X42400898Y17447820D01*
X42459863Y17337506D01*
X42539215Y17240815D01*
X42635906Y17161463D01*
X42705400Y17124317D01*
X42705400Y16747752D01*
X42699909Y16692000D01*
X42705400Y16636249D01*
X42721823Y16469502D01*
X42786724Y16255554D01*
X42892116Y16058377D01*
X43033951Y15885551D01*
X43064159Y15860759D01*
X43088951Y15830551D01*
X43261777Y15688716D01*
X43458953Y15583324D01*
X43672901Y15518423D01*
X43839648Y15502000D01*
X43839649Y15502000D01*
X43895400Y15496509D01*
X43951152Y15502000D01*
X67414258Y15502000D01*
X67458685Y15488523D01*
X67681183Y15466609D01*
X67903682Y15488523D01*
X67943919Y15500729D01*
X67924522Y11058961D01*
X67818207Y11026710D01*
X67703550Y10965425D01*
X67603052Y10882948D01*
X67520575Y10782450D01*
X67459290Y10667793D01*
X67421550Y10543383D01*
X67408807Y10414000D01*
X67412000Y10381581D01*
X67412001Y-7841571D01*
X67408807Y-7874000D01*
X67421550Y-8003383D01*
X67459290Y-8127793D01*
X67520575Y-8242450D01*
X67603052Y-8342948D01*
X67703550Y-8425425D01*
X67818207Y-8486710D01*
X67839142Y-8493061D01*
X67818001Y-13334445D01*
X67820333Y-13359232D01*
X67827456Y-13383088D01*
X67839096Y-13405096D01*
X67854806Y-13424410D01*
X67873982Y-13440288D01*
X67895887Y-13452119D01*
X67919680Y-13459450D01*
X67945000Y-13462000D01*
X74270001Y-13462000D01*
X74270001Y-13696618D01*
X59670620Y-28296000D01*
X55211107Y-28296000D01*
X55382475Y-28124632D01*
X55544990Y-27881411D01*
X55656932Y-27611158D01*
X55714000Y-27324260D01*
X55714000Y-27031740D01*
X55656932Y-26744842D01*
X55544990Y-26474589D01*
X55382475Y-26231368D01*
X55175632Y-26024525D01*
X54932411Y-25862010D01*
X54662158Y-25750068D01*
X54375260Y-25693000D01*
X54082740Y-25693000D01*
X53795842Y-25750068D01*
X53525589Y-25862010D01*
X53282368Y-26024525D01*
X53075525Y-26231368D01*
X52959000Y-26405760D01*
X52842475Y-26231368D01*
X52635632Y-26024525D01*
X52392411Y-25862010D01*
X52122158Y-25750068D01*
X51835260Y-25693000D01*
X51542740Y-25693000D01*
X51255842Y-25750068D01*
X50985589Y-25862010D01*
X50742368Y-26024525D01*
X50535525Y-26231368D01*
X50413805Y-26413534D01*
X50344178Y-26296645D01*
X50149269Y-26080412D01*
X49915920Y-25906359D01*
X49653099Y-25781175D01*
X49505890Y-25736524D01*
X49276000Y-25857845D01*
X49276000Y-27051000D01*
X49296000Y-27051000D01*
X49296000Y-27305000D01*
X49276000Y-27305000D01*
X49276000Y-27325000D01*
X49022000Y-27325000D01*
X49022000Y-27305000D01*
X49002000Y-27305000D01*
X49002000Y-27051000D01*
X49022000Y-27051000D01*
X49022000Y-25857845D01*
X48792110Y-25736524D01*
X48644901Y-25781175D01*
X48382080Y-25906359D01*
X48148731Y-26080412D01*
X47953822Y-26296645D01*
X47884195Y-26413534D01*
X47762475Y-26231368D01*
X47555632Y-26024525D01*
X47312411Y-25862010D01*
X47042158Y-25750068D01*
X46755260Y-25693000D01*
X46462740Y-25693000D01*
X46175842Y-25750068D01*
X45905589Y-25862010D01*
X45662368Y-26024525D01*
X45530513Y-26156380D01*
X45508502Y-26083820D01*
X45449537Y-25973506D01*
X45370185Y-25876815D01*
X45273494Y-25797463D01*
X45163180Y-25738498D01*
X45043482Y-25702188D01*
X44919000Y-25689928D01*
X43219000Y-25689928D01*
X43094518Y-25702188D01*
X42974820Y-25738498D01*
X42864506Y-25797463D01*
X42767815Y-25876815D01*
X42688463Y-25973506D01*
X42651317Y-26043000D01*
X42325552Y-26043000D01*
X42269800Y-26037509D01*
X42214048Y-26043000D01*
X42090351Y-26055183D01*
X42047301Y-26059423D01*
X41833353Y-26124324D01*
X41636177Y-26229716D01*
X41536926Y-26311169D01*
X41498961Y-26034325D01*
X41393795Y-25729912D01*
X41300814Y-25555956D01*
X41036413Y-25460192D01*
X40080605Y-26416000D01*
X40094748Y-26430143D01*
X39915143Y-26609748D01*
X39901000Y-26595605D01*
X39886858Y-26609748D01*
X39707253Y-26430143D01*
X39721395Y-26416000D01*
X38765587Y-25460192D01*
X38501186Y-25555956D01*
X38360296Y-25845571D01*
X38278616Y-26157108D01*
X38259282Y-26478595D01*
X38303039Y-26797675D01*
X38366994Y-26982800D01*
X37863400Y-26982800D01*
X37863400Y-25280587D01*
X38945192Y-25280587D01*
X39901000Y-26236395D01*
X40856808Y-25280587D01*
X40761044Y-25016186D01*
X40471429Y-24875296D01*
X40159892Y-24793616D01*
X39838405Y-24774282D01*
X39519325Y-24818039D01*
X39214912Y-24923205D01*
X39040956Y-25016186D01*
X38945192Y-25280587D01*
X37863400Y-25280587D01*
X37863400Y-21754967D01*
X38266000Y-21754967D01*
X38266000Y-22077033D01*
X38328832Y-22392912D01*
X38452082Y-22690463D01*
X38631013Y-22958252D01*
X38858748Y-23185987D01*
X39126537Y-23364918D01*
X39424088Y-23488168D01*
X39739967Y-23551000D01*
X40062033Y-23551000D01*
X40377912Y-23488168D01*
X40675463Y-23364918D01*
X40943252Y-23185987D01*
X41170987Y-22958252D01*
X41349918Y-22690463D01*
X41473168Y-22392912D01*
X41536000Y-22077033D01*
X41536000Y-21754967D01*
X41473168Y-21439088D01*
X41349918Y-21141537D01*
X41170987Y-20873748D01*
X40943252Y-20646013D01*
X40675463Y-20467082D01*
X40377912Y-20343832D01*
X40062033Y-20281000D01*
X39739967Y-20281000D01*
X39424088Y-20343832D01*
X39126537Y-20467082D01*
X38858748Y-20646013D01*
X38631013Y-20873748D01*
X38452082Y-21141537D01*
X38328832Y-21439088D01*
X38266000Y-21754967D01*
X37863400Y-21754967D01*
X37863400Y-19169000D01*
X38084788Y-19169000D01*
X38304067Y-19125383D01*
X38510624Y-19039824D01*
X38696520Y-18915612D01*
X38854612Y-18757520D01*
X38978824Y-18571624D01*
X39064383Y-18365067D01*
X39084218Y-18265349D01*
X42909357Y-22090489D01*
X42864506Y-22114463D01*
X42767815Y-22193815D01*
X42688463Y-22290506D01*
X42629498Y-22400820D01*
X42593188Y-22520518D01*
X42580928Y-22645000D01*
X42580928Y-24345000D01*
X42593188Y-24469482D01*
X42629498Y-24589180D01*
X42688463Y-24699494D01*
X42767815Y-24796185D01*
X42864506Y-24875537D01*
X42974820Y-24934502D01*
X43094518Y-24970812D01*
X43219000Y-24983072D01*
X44919000Y-24983072D01*
X45043482Y-24970812D01*
X45163180Y-24934502D01*
X45273494Y-24875537D01*
X45370185Y-24796185D01*
X45449537Y-24699494D01*
X45508502Y-24589180D01*
X45530513Y-24516620D01*
X45662368Y-24648475D01*
X45905589Y-24810990D01*
X46175842Y-24922932D01*
X46462740Y-24980000D01*
X46755260Y-24980000D01*
X47042158Y-24922932D01*
X47312411Y-24810990D01*
X47555632Y-24648475D01*
X47762475Y-24441632D01*
X47879000Y-24267240D01*
X47995525Y-24441632D01*
X48202368Y-24648475D01*
X48445589Y-24810990D01*
X48715842Y-24922932D01*
X49002740Y-24980000D01*
X49295260Y-24980000D01*
X49582158Y-24922932D01*
X49852411Y-24810990D01*
X50095632Y-24648475D01*
X50302475Y-24441632D01*
X50419000Y-24267240D01*
X50535525Y-24441632D01*
X50742368Y-24648475D01*
X50985589Y-24810990D01*
X51255842Y-24922932D01*
X51542740Y-24980000D01*
X51835260Y-24980000D01*
X52122158Y-24922932D01*
X52392411Y-24810990D01*
X52635632Y-24648475D01*
X52842475Y-24441632D01*
X52964195Y-24259466D01*
X53033822Y-24376355D01*
X53228731Y-24592588D01*
X53462080Y-24766641D01*
X53724901Y-24891825D01*
X53872110Y-24936476D01*
X54102000Y-24815155D01*
X54102000Y-23622000D01*
X54356000Y-23622000D01*
X54356000Y-24815155D01*
X54585890Y-24936476D01*
X54733099Y-24891825D01*
X54995920Y-24766641D01*
X55229269Y-24592588D01*
X55424178Y-24376355D01*
X55573157Y-24126252D01*
X55670481Y-23851891D01*
X55549814Y-23622000D01*
X54356000Y-23622000D01*
X54102000Y-23622000D01*
X54082000Y-23622000D01*
X54082000Y-23368000D01*
X54102000Y-23368000D01*
X54102000Y-22174845D01*
X54356000Y-22174845D01*
X54356000Y-23368000D01*
X55549814Y-23368000D01*
X55670481Y-23138109D01*
X55573157Y-22863748D01*
X55424178Y-22613645D01*
X55229269Y-22397412D01*
X54995920Y-22223359D01*
X54733099Y-22098175D01*
X54585890Y-22053524D01*
X54356000Y-22174845D01*
X54102000Y-22174845D01*
X53872110Y-22053524D01*
X53724901Y-22098175D01*
X53462080Y-22223359D01*
X53228731Y-22397412D01*
X53033822Y-22613645D01*
X52964195Y-22730534D01*
X52842475Y-22548368D01*
X52635632Y-22341525D01*
X52392411Y-22179010D01*
X52122158Y-22067068D01*
X51835260Y-22010000D01*
X51542740Y-22010000D01*
X51255842Y-22067068D01*
X50985589Y-22179010D01*
X50742368Y-22341525D01*
X50535525Y-22548368D01*
X50419000Y-22722760D01*
X50302475Y-22548368D01*
X50095632Y-22341525D01*
X49852411Y-22179010D01*
X49582158Y-22067068D01*
X49295260Y-22010000D01*
X49002740Y-22010000D01*
X48715842Y-22067068D01*
X48445589Y-22179010D01*
X48202368Y-22341525D01*
X47995525Y-22548368D01*
X47879000Y-22722760D01*
X47762475Y-22548368D01*
X47555632Y-22341525D01*
X47312411Y-22179010D01*
X47042158Y-22067068D01*
X46755260Y-22010000D01*
X46462740Y-22010000D01*
X46175842Y-22067068D01*
X45905589Y-22179010D01*
X45662368Y-22341525D01*
X45530513Y-22473380D01*
X45508502Y-22400820D01*
X45449537Y-22290506D01*
X45370185Y-22193815D01*
X45273494Y-22114463D01*
X45204000Y-22077317D01*
X45204000Y-21700743D01*
X45209490Y-21644999D01*
X45204000Y-21589255D01*
X45204000Y-21589248D01*
X45189211Y-21439088D01*
X45187577Y-21422500D01*
X45165280Y-21348998D01*
X45122676Y-21208553D01*
X45017284Y-21011377D01*
X44875449Y-20838551D01*
X44832141Y-20803009D01*
X40308001Y-16278870D01*
X40308001Y-15123003D01*
X40344063Y-15176974D01*
X40488226Y-15321137D01*
X40657744Y-15434405D01*
X40846102Y-15512426D01*
X41046061Y-15552200D01*
X41249939Y-15552200D01*
X41449898Y-15512426D01*
X41638256Y-15434405D01*
X41807774Y-15321137D01*
X41951937Y-15176974D01*
X42065205Y-15007456D01*
X42143226Y-14819098D01*
X42183000Y-14619139D01*
X42183000Y-14415261D01*
X42143226Y-14215302D01*
X42065205Y-14026944D01*
X41951937Y-13857426D01*
X41908000Y-13813489D01*
X41908000Y-12592049D01*
X42050687Y-12651152D01*
X42250646Y-12690926D01*
X42367421Y-12690926D01*
X42431064Y-12786174D01*
X42575227Y-12930337D01*
X42744745Y-13043605D01*
X42933103Y-13121626D01*
X43133062Y-13161400D01*
X43335873Y-13161400D01*
X43364774Y-13306698D01*
X43442795Y-13495056D01*
X43556063Y-13664574D01*
X43700226Y-13808737D01*
X43869744Y-13922005D01*
X44058102Y-14000026D01*
X44258061Y-14039800D01*
X44461939Y-14039800D01*
X44661898Y-14000026D01*
X44850256Y-13922005D01*
X45019774Y-13808737D01*
X45163937Y-13664574D01*
X45277205Y-13495056D01*
X45355226Y-13306698D01*
X45395000Y-13106739D01*
X45395000Y-12902861D01*
X45355226Y-12702902D01*
X45277205Y-12514544D01*
X45163937Y-12345026D01*
X45019774Y-12200863D01*
X44850256Y-12087595D01*
X44720001Y-12033641D01*
X44720001Y-11487916D01*
X44740661Y-11492025D01*
X44944539Y-11492025D01*
X45144498Y-11452251D01*
X45332856Y-11374230D01*
X45502374Y-11260962D01*
X45646537Y-11116799D01*
X45759805Y-10947281D01*
X45837826Y-10758923D01*
X45877600Y-10558964D01*
X45877600Y-10496826D01*
X46486089Y-9888337D01*
X46494998Y-9978786D01*
X46508180Y-10022242D01*
X46538454Y-10122046D01*
X46609026Y-10254076D01*
X46666200Y-10323742D01*
X46666200Y-10388939D01*
X46705974Y-10588898D01*
X46783995Y-10777256D01*
X46897263Y-10946774D01*
X47041426Y-11090937D01*
X47210944Y-11204205D01*
X47399302Y-11282226D01*
X47599261Y-11322000D01*
X47803139Y-11322000D01*
X48003098Y-11282226D01*
X48191456Y-11204205D01*
X48360974Y-11090937D01*
X48505137Y-10946774D01*
X48618405Y-10777256D01*
X48696426Y-10588898D01*
X48731613Y-10412000D01*
X60281689Y-10412000D01*
X60325626Y-10455937D01*
X60495144Y-10569205D01*
X60683502Y-10647226D01*
X60883461Y-10687000D01*
X61087339Y-10687000D01*
X61287298Y-10647226D01*
X61475656Y-10569205D01*
X61607700Y-10480976D01*
X61739744Y-10569205D01*
X61928102Y-10647226D01*
X62128061Y-10687000D01*
X62331939Y-10687000D01*
X62531898Y-10647226D01*
X62720256Y-10569205D01*
X62889774Y-10455937D01*
X63033937Y-10311774D01*
X63147205Y-10142256D01*
X63225226Y-9953898D01*
X63265000Y-9753939D01*
X63265000Y-9550061D01*
X63225226Y-9350102D01*
X63147205Y-9161744D01*
X63033937Y-8992226D01*
X62889774Y-8848063D01*
X62720256Y-8734795D01*
X62531898Y-8656774D01*
X62331939Y-8617000D01*
X62269801Y-8617000D01*
X62069718Y-8416917D01*
X62046849Y-8388855D01*
X62016928Y-8364127D01*
X62016001Y-8363200D01*
X61988056Y-8340266D01*
X61931451Y-8293485D01*
X61930295Y-8292862D01*
X61929275Y-8292025D01*
X61864272Y-8257280D01*
X61799665Y-8222461D01*
X61798409Y-8222075D01*
X61797245Y-8221453D01*
X61726866Y-8200105D01*
X61656554Y-8178512D01*
X61655240Y-8178378D01*
X61653984Y-8177997D01*
X61580966Y-8170805D01*
X61544939Y-8167132D01*
X61543626Y-8167127D01*
X61504999Y-8163323D01*
X61468973Y-8166871D01*
X50762440Y-8130129D01*
X50761133Y-8130000D01*
X50724917Y-8130000D01*
X50689076Y-8129877D01*
X50687782Y-8130000D01*
X50606802Y-8130000D01*
X50417000Y-7940199D01*
X50417000Y-6412722D01*
X50420676Y-6375399D01*
X50417000Y-6338076D01*
X50417000Y-6338067D01*
X50406003Y-6226414D01*
X50362546Y-6083153D01*
X50291974Y-5951124D01*
X50197001Y-5835399D01*
X50167998Y-5811597D01*
X49839804Y-5483403D01*
X49816001Y-5454399D01*
X49700276Y-5359426D01*
X49568247Y-5288854D01*
X49424986Y-5245397D01*
X49313333Y-5234400D01*
X49313322Y-5234400D01*
X49276000Y-5230724D01*
X49238678Y-5234400D01*
X48658911Y-5234400D01*
X48614974Y-5190463D01*
X48445456Y-5077195D01*
X48257098Y-4999174D01*
X48057139Y-4959400D01*
X47853261Y-4959400D01*
X47653302Y-4999174D01*
X47464944Y-5077195D01*
X47295426Y-5190463D01*
X47151263Y-5334626D01*
X47037995Y-5504144D01*
X46959974Y-5692502D01*
X46920200Y-5892461D01*
X46920200Y-6096339D01*
X46959974Y-6296298D01*
X46988797Y-6365883D01*
X46967679Y-6351772D01*
X46779321Y-6273751D01*
X46762348Y-6270375D01*
X46761156Y-6264384D01*
X46709129Y-6138782D01*
X46752537Y-6095374D01*
X46865805Y-5925856D01*
X46943826Y-5737498D01*
X46983600Y-5537539D01*
X46983600Y-5333661D01*
X46943826Y-5133702D01*
X46865805Y-4945344D01*
X46752537Y-4775826D01*
X46608374Y-4631663D01*
X46438856Y-4518395D01*
X46425025Y-4512666D01*
X46425025Y-4504205D01*
X46385251Y-4304246D01*
X46307230Y-4115888D01*
X46193962Y-3946370D01*
X46049799Y-3802207D01*
X45880281Y-3688939D01*
X45691923Y-3610918D01*
X45491964Y-3571144D01*
X45288086Y-3571144D01*
X45088127Y-3610918D01*
X44899769Y-3688939D01*
X44730251Y-3802207D01*
X44586088Y-3946370D01*
X44583787Y-3949813D01*
X44433009Y-3919822D01*
X44229131Y-3919822D01*
X44029172Y-3959596D01*
X43840814Y-4037617D01*
X43671296Y-4150885D01*
X43527133Y-4295048D01*
X43413865Y-4464566D01*
X43335844Y-4652924D01*
X43296070Y-4852883D01*
X43296070Y-4915020D01*
X41116583Y-7094508D01*
X41087585Y-7118306D01*
X41063787Y-7147304D01*
X41063786Y-7147305D01*
X40992611Y-7234031D01*
X40922039Y-7366061D01*
X40894932Y-7455424D01*
X40878583Y-7509321D01*
X40868811Y-7608534D01*
X40863909Y-7658307D01*
X40867586Y-7695639D01*
X40867585Y-9761089D01*
X40823648Y-9805026D01*
X40710380Y-9974544D01*
X40632359Y-10162902D01*
X40592585Y-10362861D01*
X40592585Y-10480713D01*
X40488226Y-10550443D01*
X40344063Y-10694606D01*
X40308001Y-10748577D01*
X40308001Y-6084847D01*
X40291578Y-5918100D01*
X40226677Y-5704152D01*
X40121285Y-5506976D01*
X39979450Y-5334150D01*
X39806624Y-5192315D01*
X39609447Y-5086923D01*
X39395499Y-5022022D01*
X39173001Y-5000108D01*
X38950502Y-5022022D01*
X38736554Y-5086923D01*
X38539378Y-5192315D01*
X38366552Y-5334150D01*
X38224717Y-5506976D01*
X38119325Y-5704153D01*
X38054424Y-5918101D01*
X38038001Y-6084848D01*
X38038002Y-16693240D01*
X38032510Y-16749001D01*
X38047284Y-16899000D01*
X37861212Y-16899000D01*
X37641933Y-16942617D01*
X37435376Y-17028176D01*
X37342295Y-17090371D01*
X37336623Y-17085716D01*
X37287215Y-17059307D01*
X37240624Y-17028176D01*
X37188848Y-17006730D01*
X37139446Y-16980324D01*
X37085845Y-16964064D01*
X37034067Y-16942617D01*
X36979103Y-16931684D01*
X36925498Y-16915423D01*
X36869748Y-16909932D01*
X36814788Y-16899000D01*
X36758751Y-16899000D01*
X36703000Y-16893509D01*
X36647248Y-16899000D01*
X36591212Y-16899000D01*
X36536253Y-16909932D01*
X36480501Y-16915423D01*
X36426894Y-16931685D01*
X36371933Y-16942617D01*
X36320158Y-16964063D01*
X36266553Y-16980324D01*
X36217149Y-17006731D01*
X36165376Y-17028176D01*
X36118786Y-17059307D01*
X36069377Y-17085716D01*
X36026068Y-17121259D01*
X36011070Y-17131280D01*
X35996450Y-17042412D01*
X35792174Y-16951542D01*
X35574095Y-16902269D01*
X35443953Y-16898903D01*
X35512005Y-16797056D01*
X35590026Y-16608698D01*
X35629800Y-16408739D01*
X35629800Y-16204861D01*
X35590026Y-16004902D01*
X35512005Y-15816544D01*
X35398737Y-15647026D01*
X35254574Y-15502863D01*
X35085056Y-15389595D01*
X34896698Y-15311574D01*
X34696739Y-15271800D01*
X34492861Y-15271800D01*
X34292902Y-15311574D01*
X34104544Y-15389595D01*
X33935026Y-15502863D01*
X33790863Y-15647026D01*
X33722130Y-15749892D01*
X33570344Y-15687020D01*
X33370385Y-15647246D01*
X33166507Y-15647246D01*
X32966548Y-15687020D01*
X32778190Y-15765041D01*
X32608672Y-15878309D01*
X32464509Y-16022472D01*
X32459818Y-16029493D01*
X32369661Y-16011560D01*
X32165783Y-16011560D01*
X31965824Y-16051334D01*
X31777466Y-16129355D01*
X31607948Y-16242623D01*
X31463785Y-16386786D01*
X31441707Y-16419829D01*
X31344348Y-16400463D01*
X31140470Y-16400463D01*
X30940511Y-16440237D01*
X30752153Y-16518258D01*
X30582635Y-16631526D01*
X30438472Y-16775689D01*
X30425480Y-16795133D01*
X30331886Y-16776516D01*
X30128008Y-16776516D01*
X29928049Y-16816290D01*
X29739691Y-16894311D01*
X29570173Y-17007579D01*
X29426010Y-17151742D01*
X29312742Y-17321260D01*
X29234721Y-17509618D01*
X29194947Y-17709577D01*
X29194947Y-17913455D01*
X29234721Y-18113414D01*
X29236895Y-18118662D01*
X28847681Y-18507876D01*
X28847676Y-18507880D01*
X27474618Y-19880939D01*
X27091062Y-19880939D01*
X27053737Y-19877263D01*
X27016414Y-19880939D01*
X27016406Y-19880939D01*
X26904753Y-19891936D01*
X26761492Y-19935393D01*
X26629463Y-20005965D01*
X26513738Y-20100938D01*
X26489935Y-20129943D01*
X26270041Y-20349837D01*
X26270036Y-20349841D01*
X25731888Y-20887990D01*
X14303635Y-20887990D01*
X14266312Y-20884314D01*
X14228989Y-20887990D01*
X14228980Y-20887990D01*
X14117327Y-20898987D01*
X13974066Y-20942444D01*
X13842037Y-21013016D01*
X13726312Y-21107989D01*
X13702514Y-21136987D01*
X11611105Y-23228397D01*
X11137741Y-23228397D01*
X11100418Y-23224721D01*
X11063095Y-23228397D01*
X11063086Y-23228397D01*
X10951433Y-23239394D01*
X10808172Y-23282851D01*
X10676143Y-23353423D01*
X10560418Y-23448396D01*
X10536620Y-23477394D01*
X9685200Y-24328815D01*
X9656202Y-24352613D01*
X9632404Y-24381611D01*
X9632402Y-24381613D01*
X9561227Y-24468339D01*
X9536848Y-24513949D01*
X8678383Y-24513949D01*
X7767403Y-23602970D01*
X7743605Y-23573972D01*
X7714606Y-23550173D01*
X7627880Y-23478998D01*
X7495850Y-23408426D01*
X7396046Y-23378152D01*
X7352590Y-23364970D01*
X7240937Y-23353973D01*
X7203604Y-23350296D01*
X7166272Y-23353973D01*
X1520525Y-23353971D01*
X1483202Y-23350295D01*
X1445879Y-23353971D01*
X1445869Y-23353971D01*
X1334216Y-23364968D01*
X1198138Y-23406246D01*
X1190955Y-23408425D01*
X1058925Y-23478997D01*
X972198Y-23550171D01*
X972188Y-23550181D01*
X943201Y-23573970D01*
X919412Y-23602957D01*
X78377Y-24443990D01*
X-3985001Y-24443990D01*
X-4022324Y-24440314D01*
X-4059647Y-24443990D01*
X-4059656Y-24443990D01*
X-4171309Y-24454987D01*
X-4288708Y-24490599D01*
X-4314570Y-24498444D01*
X-4446600Y-24569016D01*
X-4521448Y-24630443D01*
X-4562324Y-24663989D01*
X-4586122Y-24692987D01*
X-5503060Y-25609926D01*
X-5503071Y-25609935D01*
X-7492637Y-27599503D01*
X-7521635Y-27623301D01*
X-7545433Y-27652299D01*
X-7545435Y-27652301D01*
X-7616610Y-27739027D01*
X-7687182Y-27871057D01*
X-7694536Y-27895301D01*
X-7730638Y-28014316D01*
X-7741635Y-28125969D01*
X-7745312Y-28163303D01*
X-7741635Y-28200632D01*
X-7741637Y-28612331D01*
X-7741636Y-28612341D01*
X-7741638Y-31203940D01*
X-11899940Y-31203940D01*
X-11899940Y-28181076D01*
X-11873953Y-28155089D01*
X-11844949Y-28131286D01*
X-11749976Y-28015561D01*
X-11679404Y-27883532D01*
X-11635963Y-27740324D01*
X-11581013Y-27685374D01*
X-11467745Y-27515856D01*
X-11389724Y-27327498D01*
X-11349950Y-27127539D01*
X-11349950Y-26923661D01*
X-11389724Y-26723702D01*
X-11467745Y-26535344D01*
X-11581013Y-26365826D01*
X-11725176Y-26221663D01*
X-11894694Y-26108395D01*
X-12083052Y-26030374D01*
X-12283011Y-25990600D01*
X-12486889Y-25990600D01*
X-12511615Y-25995518D01*
X-12569949Y-25924438D01*
X-12598946Y-25900641D01*
X-15425389Y-23074199D01*
X-15425389Y-23012061D01*
X-15465163Y-22812102D01*
X-15543184Y-22623744D01*
X-15656452Y-22454226D01*
X-15800615Y-22310063D01*
X-15970133Y-22196795D01*
X-16158491Y-22118774D01*
X-16358450Y-22079000D01*
X-16562328Y-22079000D01*
X-16612001Y-22088880D01*
X-16621590Y-22077196D01*
X-16645388Y-22048198D01*
X-16674385Y-22024401D01*
X-17197800Y-21500987D01*
X-17197800Y-21379311D01*
X-17153863Y-21335374D01*
X-17040595Y-21165856D01*
X-16962574Y-20977498D01*
X-16922800Y-20777539D01*
X-16922800Y-20573661D01*
X-16962574Y-20373702D01*
X-17040595Y-20185344D01*
X-17153863Y-20015826D01*
X-17298026Y-19871663D01*
X-17467544Y-19758395D01*
X-17655902Y-19680374D01*
X-17855861Y-19640600D01*
X-18059739Y-19640600D01*
X-18259698Y-19680374D01*
X-18448056Y-19758395D01*
X-18617574Y-19871663D01*
X-18761737Y-20015826D01*
X-18804011Y-20079094D01*
X-20575114Y-18307992D01*
X-20598917Y-18278988D01*
X-20714642Y-18184015D01*
X-20846671Y-18113443D01*
X-20989932Y-18069986D01*
X-21101585Y-18058989D01*
X-21101596Y-18058989D01*
X-21138918Y-18055313D01*
X-21176240Y-18058989D01*
X-25332056Y-18058989D01*
X-25248417Y-17857067D01*
X-25204800Y-17637788D01*
X-25204800Y-17414212D01*
X-25248417Y-17194933D01*
X-25333976Y-16988376D01*
X-25458188Y-16802480D01*
X-25616280Y-16644388D01*
X-25744493Y-16558718D01*
X-24171436Y-14985661D01*
X22917200Y-14985661D01*
X22917200Y-15189539D01*
X22956974Y-15389498D01*
X23034995Y-15577856D01*
X23148263Y-15747374D01*
X23292426Y-15891537D01*
X23461944Y-16004805D01*
X23650302Y-16082826D01*
X23850261Y-16122600D01*
X24054139Y-16122600D01*
X24254098Y-16082826D01*
X24442456Y-16004805D01*
X24611974Y-15891537D01*
X24756137Y-15747374D01*
X24869405Y-15577856D01*
X24947426Y-15389498D01*
X24987200Y-15189539D01*
X24987200Y-14985661D01*
X24947426Y-14785702D01*
X24869405Y-14597344D01*
X24756137Y-14427826D01*
X24611974Y-14283663D01*
X24442456Y-14170395D01*
X24254098Y-14092374D01*
X24054139Y-14052600D01*
X23850261Y-14052600D01*
X23650302Y-14092374D01*
X23461944Y-14170395D01*
X23292426Y-14283663D01*
X23148263Y-14427826D01*
X23034995Y-14597344D01*
X22956974Y-14785702D01*
X22917200Y-14985661D01*
X-24171436Y-14985661D01*
X-23146265Y-13960491D01*
X-23039969Y-13830970D01*
X-22934577Y-13633794D01*
X-22869676Y-13419846D01*
X-22847762Y-13197347D01*
X-22869676Y-12974848D01*
X-22934577Y-12760901D01*
X-23039969Y-12563725D01*
X-23181804Y-12390898D01*
X-23354631Y-12249063D01*
X-23551807Y-12143671D01*
X-23765754Y-12078770D01*
X-23988253Y-12056856D01*
X-24210752Y-12078770D01*
X-24424700Y-12143671D01*
X-24621876Y-12249063D01*
X-24751397Y-12355359D01*
X-28372940Y-15976903D01*
X-28416248Y-16012445D01*
X-28558083Y-16185271D01*
X-28663476Y-16382447D01*
X-28671658Y-16409418D01*
X-28738705Y-16394269D01*
X-28962206Y-16388489D01*
X-29182540Y-16426423D01*
X-29391240Y-16506613D01*
X-29443250Y-16534412D01*
X-29457870Y-16623280D01*
X-29612176Y-16520176D01*
X-29818733Y-16434617D01*
X-30038012Y-16391000D01*
X-30261588Y-16391000D01*
X-30480867Y-16434617D01*
X-30687424Y-16520176D01*
X-30873320Y-16644388D01*
X-31031412Y-16802480D01*
X-31155624Y-16988376D01*
X-31241183Y-17194933D01*
X-31284800Y-17414212D01*
X-31284800Y-17637788D01*
X-31241183Y-17857067D01*
X-31207637Y-17938055D01*
X-31227992Y-17962858D01*
X-31774133Y-18508999D01*
X-32934680Y-18508999D01*
X-33002709Y-18502299D01*
X-33070738Y-18508999D01*
X-33070746Y-18508999D01*
X-33274216Y-18529039D01*
X-33535290Y-18608235D01*
X-33713146Y-18703301D01*
X-31162014Y-7223203D01*
X-31047533Y-7223203D01*
X-30818314Y-7489833D01*
X-30541483Y-7706621D01*
X-30227678Y-7865236D01*
X-29888958Y-7959584D01*
X-29538341Y-7986037D01*
X-29300632Y-7964719D01*
X-29086518Y-7751706D01*
X-29649532Y-6358197D01*
X-31043041Y-6921211D01*
X-31047533Y-7223203D01*
X-31162014Y-7223203D01*
X-31033138Y-6643263D01*
X-30092070Y-6263047D01*
X-29414028Y-6263047D01*
X-28851014Y-7656556D01*
X-28549022Y-7661048D01*
X-28282392Y-7431829D01*
X-28065604Y-7154998D01*
X-27906989Y-6841193D01*
X-27812641Y-6502473D01*
X-27786188Y-6151856D01*
X-27807506Y-5914147D01*
X-28020519Y-5700033D01*
X-29414028Y-6263047D01*
X-30092070Y-6263047D01*
X-29804836Y-6146997D01*
X-29773104Y-6178729D01*
X-29593496Y-5999121D01*
X-29930948Y-5661669D01*
X-30307696Y-4729184D01*
X-30606798Y-4724735D01*
X-30586643Y-4634034D01*
X-30072192Y-4634034D01*
X-29509178Y-6027543D01*
X-28115669Y-5464529D01*
X-28111177Y-5162537D01*
X-28340396Y-4895907D01*
X-28617227Y-4679119D01*
X-28931032Y-4520504D01*
X-29269752Y-4426156D01*
X-29620369Y-4399703D01*
X-29858078Y-4421021D01*
X-30072192Y-4634034D01*
X-30586643Y-4634034D01*
X-30311127Y-3394215D01*
X-26713075Y-4691472D01*
X-26710161Y-4692483D01*
X-23662161Y-5708483D01*
X-23637884Y-5714003D01*
X-23612997Y-5714680D01*
X-23588456Y-5710490D01*
X-23555079Y-5695938D01*
X-17205079Y-1758938D01*
X-17185307Y-1743808D01*
X-17168867Y-1725112D01*
X-17156390Y-1703567D01*
X-17148356Y-1680003D01*
X-17145000Y-1651000D01*
X-17145000Y483000D01*
X-5164771Y483000D01*
X-5188185Y463785D01*
X-5267537Y367094D01*
X-5326502Y256780D01*
X-5362812Y137082D01*
X-5375072Y12600D01*
X-5375072Y-1587400D01*
X-5362812Y-1711882D01*
X-5326502Y-1831580D01*
X-5267537Y-1941894D01*
X-5188185Y-2038585D01*
X-5091494Y-2117937D01*
X-4981180Y-2176902D01*
X-4861482Y-2213212D01*
X-4737000Y-2225472D01*
X-3137000Y-2225472D01*
X-3012518Y-2213212D01*
X-2892820Y-2176902D01*
X-2782506Y-2117937D01*
X-2685815Y-2038585D01*
X-2606463Y-1941894D01*
X-2547498Y-1831580D01*
X-2511188Y-1711882D01*
X-2508769Y-1687320D01*
X-2360414Y-1850919D01*
X-2134420Y-2018437D01*
X-1880087Y-2138646D01*
X-1746039Y-2179304D01*
X-1524000Y-2057315D01*
X-1524000Y-914400D01*
X-1544000Y-914400D01*
X-1544000Y-660400D01*
X-1524000Y-660400D01*
X-1524000Y-640400D01*
X-1270000Y-640400D01*
X-1270000Y-660400D01*
X-1250000Y-660400D01*
X-1250000Y-914400D01*
X-1270000Y-914400D01*
X-1270000Y-2057315D01*
X-1047961Y-2179304D01*
X-913913Y-2138646D01*
X-659580Y-2018437D01*
X-433586Y-1850919D01*
X-244615Y-1642531D01*
X-133067Y-1456535D01*
X-128680Y-1467127D01*
X28363Y-1702159D01*
X228241Y-1902037D01*
X463273Y-2059080D01*
X724426Y-2167253D01*
X1001665Y-2222400D01*
X1284335Y-2222400D01*
X1561574Y-2167253D01*
X1822727Y-2059080D01*
X2057759Y-1902037D01*
X2257637Y-1702159D01*
X2414680Y-1467127D01*
X2522853Y-1205974D01*
X2578000Y-928735D01*
X2578000Y-646065D01*
X2522853Y-368826D01*
X2414680Y-107673D01*
X2257637Y127359D01*
X2057759Y327237D01*
X1824643Y483000D01*
X3115629Y483000D01*
X3092215Y463785D01*
X3012863Y367094D01*
X2953898Y256780D01*
X2917588Y137082D01*
X2905328Y12600D01*
X2905328Y-1587400D01*
X2917588Y-1711882D01*
X2953898Y-1831580D01*
X3012863Y-1941894D01*
X3092215Y-2038585D01*
X3188906Y-2117937D01*
X3299220Y-2176902D01*
X3418918Y-2213212D01*
X3543400Y-2225472D01*
X5143400Y-2225472D01*
X5267882Y-2213212D01*
X5387580Y-2176902D01*
X5497894Y-2117937D01*
X5594585Y-2038585D01*
X5673937Y-1941894D01*
X5732902Y-1831580D01*
X5769212Y-1711882D01*
X5771631Y-1687320D01*
X5919986Y-1850919D01*
X6145980Y-2018437D01*
X6400313Y-2138646D01*
X6534361Y-2179304D01*
X6756400Y-2057315D01*
X6756400Y-914400D01*
X6736400Y-914400D01*
X6736400Y-660400D01*
X6756400Y-660400D01*
X6756400Y-640400D01*
X7010400Y-640400D01*
X7010400Y-660400D01*
X7030400Y-660400D01*
X7030400Y-914400D01*
X7010400Y-914400D01*
X7010400Y-2057315D01*
X7232439Y-2179304D01*
X7366487Y-2138646D01*
X7620820Y-2018437D01*
X7846814Y-1850919D01*
X8035785Y-1642531D01*
X8147333Y-1456535D01*
X8151720Y-1467127D01*
X8308763Y-1702159D01*
X8508641Y-1902037D01*
X8743673Y-2059080D01*
X9004826Y-2167253D01*
X9282065Y-2222400D01*
X9564735Y-2222400D01*
X9841974Y-2167253D01*
X10103127Y-2059080D01*
X10338159Y-1902037D01*
X10538037Y-1702159D01*
X10695080Y-1467127D01*
X10803253Y-1205974D01*
X10858400Y-928735D01*
X10858400Y-646065D01*
X10803253Y-368826D01*
X10741607Y-219999D01*
X11370056Y-219999D01*
X11316600Y-488740D01*
X11316600Y-781260D01*
X11373668Y-1068158D01*
X11485610Y-1338411D01*
X11648125Y-1581632D01*
X11854968Y-1788475D01*
X11965483Y-1862318D01*
X11955942Y-1876597D01*
X11877921Y-2064955D01*
X11838147Y-2264914D01*
X11838147Y-2468792D01*
X11848850Y-2522600D01*
X-14392763Y-2522600D01*
X-14448507Y-2517110D01*
X-14504251Y-2522600D01*
X-14504258Y-2522600D01*
X-14650013Y-2536956D01*
X-14671006Y-2539023D01*
X-14708978Y-2550542D01*
X-14884953Y-2603924D01*
X-15082129Y-2709316D01*
X-15254955Y-2851151D01*
X-15290497Y-2894459D01*
X-17159441Y-4763404D01*
X-17265736Y-4892925D01*
X-17371129Y-5090101D01*
X-17436030Y-5304049D01*
X-17457944Y-5526547D01*
X-17436030Y-5749045D01*
X-17371129Y-5962993D01*
X-17265736Y-6160169D01*
X-17123901Y-6332995D01*
X-16951075Y-6474830D01*
X-16753899Y-6580223D01*
X-16539951Y-6645124D01*
X-16317453Y-6667038D01*
X-16094955Y-6645124D01*
X-15881007Y-6580223D01*
X-15683831Y-6474830D01*
X-15554310Y-6368535D01*
X-13978374Y-4792600D01*
X1759000Y-4792600D01*
X1759000Y-4916339D01*
X1798774Y-5116298D01*
X1876795Y-5304656D01*
X1990063Y-5474174D01*
X2134226Y-5618337D01*
X2303744Y-5731605D01*
X2492102Y-5809626D01*
X2692061Y-5849400D01*
X2895939Y-5849400D01*
X3095898Y-5809626D01*
X3284256Y-5731605D01*
X3453774Y-5618337D01*
X3486111Y-5586000D01*
X12250289Y-5586000D01*
X12294226Y-5629937D01*
X12463744Y-5743205D01*
X12652102Y-5821226D01*
X12852061Y-5861000D01*
X13055939Y-5861000D01*
X13255898Y-5821226D01*
X13444256Y-5743205D01*
X13613774Y-5629937D01*
X13757937Y-5485774D01*
X13871205Y-5316256D01*
X13949226Y-5127898D01*
X13989000Y-4927939D01*
X13989000Y-4792600D01*
X17692154Y-4792600D01*
X17692153Y-10035253D01*
X17686662Y-10091005D01*
X17692153Y-10146756D01*
X17708576Y-10313503D01*
X17773477Y-10527451D01*
X17878869Y-10724628D01*
X18020704Y-10897454D01*
X18064018Y-10933001D01*
X18587552Y-11456535D01*
X18623099Y-11499849D01*
X18795925Y-11641684D01*
X18993101Y-11747076D01*
X19157253Y-11796871D01*
X19207048Y-11811977D01*
X19228041Y-11814044D01*
X19373796Y-11828400D01*
X19373803Y-11828400D01*
X19429547Y-11833890D01*
X19485291Y-11828400D01*
X23728552Y-11828400D01*
X23895299Y-11811977D01*
X24109247Y-11747076D01*
X24306423Y-11641684D01*
X24479249Y-11499849D01*
X24621084Y-11327023D01*
X24726476Y-11129847D01*
X24791377Y-10915899D01*
X24813291Y-10693400D01*
X24791377Y-10470901D01*
X24726476Y-10256953D01*
X24621084Y-10059777D01*
X24479249Y-9886951D01*
X24306423Y-9745116D01*
X24271486Y-9726442D01*
X24434174Y-9617737D01*
X24478111Y-9573800D01*
X28105878Y-9573800D01*
X28143200Y-9577476D01*
X28180522Y-9573800D01*
X28180533Y-9573800D01*
X28292186Y-9562803D01*
X28435447Y-9519346D01*
X28567476Y-9448774D01*
X28683201Y-9353801D01*
X28707004Y-9324798D01*
X29122801Y-8909000D01*
X29184939Y-8909000D01*
X29384898Y-8869226D01*
X29573256Y-8791205D01*
X29742774Y-8677937D01*
X29886937Y-8533774D01*
X30000205Y-8364256D01*
X30078226Y-8175898D01*
X30118000Y-7975939D01*
X30118000Y-7772061D01*
X30078226Y-7572102D01*
X30000205Y-7383744D01*
X29886937Y-7214226D01*
X29742774Y-7070063D01*
X29573256Y-6956795D01*
X29384898Y-6878774D01*
X29184939Y-6839000D01*
X28981061Y-6839000D01*
X28781102Y-6878774D01*
X28592744Y-6956795D01*
X28450220Y-7052026D01*
X28540805Y-6916456D01*
X28618826Y-6728098D01*
X28658600Y-6528139D01*
X28658600Y-6324261D01*
X28618826Y-6124302D01*
X28540805Y-5935944D01*
X28427537Y-5766426D01*
X28283374Y-5622263D01*
X28113856Y-5508995D01*
X27925498Y-5430974D01*
X27725539Y-5391200D01*
X27521661Y-5391200D01*
X27321702Y-5430974D01*
X27133344Y-5508995D01*
X26963826Y-5622263D01*
X26908876Y-5677213D01*
X26765668Y-5720654D01*
X26633639Y-5791226D01*
X26517914Y-5886199D01*
X26494116Y-5915198D01*
X26006514Y-6402800D01*
X21570320Y-6402800D01*
X21532997Y-6399124D01*
X21495674Y-6402800D01*
X21495665Y-6402800D01*
X21384012Y-6413797D01*
X21240751Y-6457254D01*
X21108722Y-6527826D01*
X20992997Y-6622799D01*
X20969199Y-6651797D01*
X19962153Y-7658844D01*
X19962153Y-4794961D01*
X30298264Y-4820265D01*
X30355402Y-4825893D01*
X30465329Y-4815066D01*
X30575161Y-4804520D01*
X30576503Y-4804117D01*
X30577900Y-4803979D01*
X30683621Y-4771909D01*
X30789268Y-4740143D01*
X30790506Y-4739485D01*
X30791848Y-4739078D01*
X30889051Y-4687122D01*
X30986701Y-4635234D01*
X30987791Y-4634344D01*
X30989024Y-4633685D01*
X31074223Y-4563764D01*
X31159874Y-4493822D01*
X31196407Y-4449528D01*
X35942146Y296209D01*
X35985449Y331747D01*
X36109580Y483000D01*
X36127284Y504573D01*
X36232676Y701749D01*
X36297577Y915697D01*
X36319491Y1138196D01*
X36314000Y1193948D01*
X36314000Y6024110D01*
X36322977Y6053703D01*
X36339400Y6220450D01*
X36339400Y6220451D01*
X36344891Y6276201D01*
X36339400Y6331953D01*
X36339400Y7861069D01*
X36606670Y8128339D01*
X37547600Y8128339D01*
X37547600Y7924461D01*
X37587374Y7724502D01*
X37665395Y7536144D01*
X37778663Y7366626D01*
X37922826Y7222463D01*
X38092344Y7109195D01*
X38280702Y7031174D01*
X38480661Y6991400D01*
X38684539Y6991400D01*
X38884498Y7031174D01*
X39072856Y7109195D01*
X39242374Y7222463D01*
X39386537Y7366626D01*
X39499805Y7536144D01*
X39577826Y7724502D01*
X39617600Y7924461D01*
X39617600Y8128339D01*
X39577826Y8328298D01*
X39499805Y8516656D01*
X39386537Y8686174D01*
X39242374Y8830337D01*
X39072856Y8943605D01*
X38884498Y9021626D01*
X38684539Y9061400D01*
X38480661Y9061400D01*
X38280702Y9021626D01*
X38092344Y8943605D01*
X37922826Y8830337D01*
X37778663Y8686174D01*
X37665395Y8516656D01*
X37587374Y8328298D01*
X37547600Y8128339D01*
X36606670Y8128339D01*
X37935132Y9456800D01*
X42590849Y9456800D01*
X42646600Y9451309D01*
X42702351Y9456800D01*
X42702352Y9456800D01*
X42869099Y9473223D01*
X43083047Y9538124D01*
X43280223Y9643516D01*
X43453049Y9785351D01*
X43488596Y9828665D01*
X43707182Y10047251D01*
X43747820Y9949144D01*
X43861088Y9779626D01*
X44005251Y9635463D01*
X44174769Y9522195D01*
X44363127Y9444174D01*
X44563086Y9404400D01*
X44766964Y9404400D01*
X44966923Y9444174D01*
X45155281Y9522195D01*
X45324799Y9635463D01*
X45368736Y9679400D01*
X53175678Y9679400D01*
X53213000Y9675724D01*
X53250322Y9679400D01*
X53250333Y9679400D01*
X53361986Y9690397D01*
X53505247Y9733854D01*
X53637276Y9804426D01*
X53753001Y9899399D01*
X53776804Y9928403D01*
X54929202Y11080800D01*
X54991339Y11080800D01*
X55191298Y11120574D01*
X55379656Y11198595D01*
X55549174Y11311863D01*
X55693337Y11456026D01*
X55806605Y11625544D01*
X55884626Y11813902D01*
X55924400Y12013861D01*
X55924400Y12217739D01*
X55884626Y12417698D01*
X55806605Y12606056D01*
X55693337Y12775574D01*
X55549174Y12919737D01*
X55379656Y13033005D01*
X55191298Y13111026D01*
X54991339Y13150800D01*
X54787461Y13150800D01*
X54587502Y13111026D01*
X54399144Y13033005D01*
X54229626Y12919737D01*
X54085463Y12775574D01*
X53972195Y12606056D01*
X53894174Y12417698D01*
X53854400Y12217739D01*
X53854400Y12155602D01*
X52898199Y11199400D01*
X50780954Y11199400D01*
X50879005Y11346144D01*
X50957026Y11534502D01*
X50996800Y11734461D01*
X50996800Y11938339D01*
X50957026Y12138298D01*
X50879005Y12326656D01*
X50765737Y12496174D01*
X50621574Y12640337D01*
X50452056Y12753605D01*
X50263698Y12831626D01*
X50063739Y12871400D01*
X49931501Y12871400D01*
X49964605Y12920944D01*
X50042626Y13109302D01*
X50082400Y13309261D01*
X50082400Y13513139D01*
X50042626Y13713098D01*
X49964605Y13901456D01*
X49851337Y14070974D01*
X49707174Y14215137D01*
X49537656Y14328405D01*
X49349298Y14406426D01*
X49149339Y14446200D01*
X48945461Y14446200D01*
X48745502Y14406426D01*
X48557144Y14328405D01*
X48387626Y14215137D01*
X48343689Y14171200D01*
X47517321Y14171200D01*
X47495643Y14177776D01*
X47440693Y14232726D01*
X47271175Y14345994D01*
X47082817Y14424015D01*
X46882858Y14463789D01*
X46678980Y14463789D01*
X46479021Y14424015D01*
X46290663Y14345994D01*
X46121145Y14232726D01*
X45976982Y14088563D01*
X45863714Y13919045D01*
X45785693Y13730687D01*
X45745919Y13530728D01*
X45745919Y13326850D01*
X45785693Y13126891D01*
X45863714Y12938533D01*
X45898809Y12886009D01*
X45834975Y12731901D01*
X45795201Y12531942D01*
X45795201Y12328064D01*
X45834975Y12128105D01*
X45912996Y11939747D01*
X45919508Y11930001D01*
X45912996Y11920256D01*
X45834975Y11731898D01*
X45795201Y11531939D01*
X45795201Y11328061D01*
X45820793Y11199400D01*
X45368736Y11199400D01*
X45324799Y11243337D01*
X45155281Y11356605D01*
X45022127Y11411759D01*
X45097275Y11552352D01*
X45162176Y11766300D01*
X45184090Y11988799D01*
X45162176Y12211298D01*
X45097275Y12425246D01*
X44991883Y12622422D01*
X44850048Y12795248D01*
X44677222Y12937083D01*
X44480046Y13042475D01*
X44266098Y13107376D01*
X44043599Y13129290D01*
X43821100Y13107376D01*
X43607152Y13042475D01*
X43409976Y12937083D01*
X43280456Y12830788D01*
X42176469Y11726800D01*
X37520743Y11726800D01*
X37464999Y11732290D01*
X37409255Y11726800D01*
X37409248Y11726800D01*
X37263493Y11712444D01*
X37242500Y11710377D01*
X37192705Y11695271D01*
X37028553Y11645476D01*
X36831377Y11540084D01*
X36658551Y11398249D01*
X36623011Y11354943D01*
X34441260Y9173191D01*
X34397952Y9137649D01*
X34256117Y8964823D01*
X34247688Y8949053D01*
X34150724Y8767646D01*
X34085823Y8553698D01*
X34063909Y8331200D01*
X34069401Y8275439D01*
X34069400Y6502894D01*
X34060423Y6473301D01*
X34054585Y6414026D01*
X34038509Y6250802D01*
X34044000Y6195051D01*
X34044000Y5300689D01*
X33977061Y5300689D01*
X33777102Y5260915D01*
X33588744Y5182894D01*
X33425339Y5073711D01*
X33419323Y5079685D01*
X33377457Y5122438D01*
X33370362Y5128306D01*
X33370357Y5128311D01*
X33370352Y5128315D01*
X33063031Y5378959D01*
X33013238Y5412041D01*
X32963849Y5445859D01*
X32955743Y5450241D01*
X32605587Y5636423D01*
X32550267Y5659224D01*
X32495299Y5682784D01*
X32486499Y5685508D01*
X32486493Y5685510D01*
X32106844Y5800132D01*
X32048164Y5811751D01*
X31989654Y5824188D01*
X31980489Y5825151D01*
X31585805Y5863850D01*
X31585802Y5863850D01*
X31553819Y5867000D01*
X29800252Y5867000D01*
X29591000Y7122511D01*
X29591000Y14639033D01*
X30369000Y14639033D01*
X30369000Y14316967D01*
X30431832Y14001088D01*
X30555082Y13703537D01*
X30734013Y13435748D01*
X30961748Y13208013D01*
X31229537Y13029082D01*
X31527088Y12905832D01*
X31842967Y12843000D01*
X32165033Y12843000D01*
X32480912Y12905832D01*
X32778463Y13029082D01*
X33046252Y13208013D01*
X33273987Y13435748D01*
X33452918Y13703537D01*
X33576168Y14001088D01*
X33639000Y14316967D01*
X33639000Y14639033D01*
X36869000Y14639033D01*
X36869000Y14316967D01*
X36931832Y14001088D01*
X37055082Y13703537D01*
X37234013Y13435748D01*
X37461748Y13208013D01*
X37729537Y13029082D01*
X38027088Y12905832D01*
X38342967Y12843000D01*
X38665033Y12843000D01*
X38980912Y12905832D01*
X39278463Y13029082D01*
X39546252Y13208013D01*
X39773987Y13435748D01*
X39952918Y13703537D01*
X40076168Y14001088D01*
X40139000Y14316967D01*
X40139000Y14639033D01*
X40076168Y14954912D01*
X39952918Y15252463D01*
X39773987Y15520252D01*
X39546252Y15747987D01*
X39278463Y15926918D01*
X38980912Y16050168D01*
X38665033Y16113000D01*
X38342967Y16113000D01*
X38027088Y16050168D01*
X37729537Y15926918D01*
X37461748Y15747987D01*
X37234013Y15520252D01*
X37055082Y15252463D01*
X36931832Y14954912D01*
X36869000Y14639033D01*
X33639000Y14639033D01*
X33576168Y14954912D01*
X33452918Y15252463D01*
X33273987Y15520252D01*
X33046252Y15747987D01*
X32778463Y15926918D01*
X32480912Y16050168D01*
X32165033Y16113000D01*
X31842967Y16113000D01*
X31527088Y16050168D01*
X31229537Y15926918D01*
X30961748Y15747987D01*
X30734013Y15520252D01*
X30555082Y15252463D01*
X30431832Y14954912D01*
X30369000Y14639033D01*
X29591000Y14639033D01*
X29591000Y17842587D01*
X31048192Y17842587D01*
X31143956Y17578186D01*
X31433571Y17437296D01*
X31745108Y17355616D01*
X32066595Y17336282D01*
X32385675Y17380039D01*
X32690088Y17485205D01*
X32864044Y17578186D01*
X32959808Y17842587D01*
X37548192Y17842587D01*
X37643956Y17578186D01*
X37933571Y17437296D01*
X38245108Y17355616D01*
X38566595Y17336282D01*
X38885675Y17380039D01*
X39190088Y17485205D01*
X39364044Y17578186D01*
X39459808Y17842587D01*
X38504000Y18798395D01*
X37548192Y17842587D01*
X32959808Y17842587D01*
X32004000Y18798395D01*
X31048192Y17842587D01*
X29591000Y17842587D01*
X29591000Y18915405D01*
X30362282Y18915405D01*
X30406039Y18596325D01*
X30511205Y18291912D01*
X30604186Y18117956D01*
X30868587Y18022192D01*
X31824395Y18978000D01*
X32183605Y18978000D01*
X33139413Y18022192D01*
X33403814Y18117956D01*
X33544704Y18407571D01*
X33626384Y18719108D01*
X33638189Y18915405D01*
X36862282Y18915405D01*
X36906039Y18596325D01*
X37011205Y18291912D01*
X37104186Y18117956D01*
X37368587Y18022192D01*
X38324395Y18978000D01*
X38683605Y18978000D01*
X39639413Y18022192D01*
X39903814Y18117956D01*
X40044704Y18407571D01*
X40126384Y18719108D01*
X40145718Y19040595D01*
X40101961Y19359675D01*
X39996795Y19664088D01*
X39903814Y19838044D01*
X39639413Y19933808D01*
X38683605Y18978000D01*
X38324395Y18978000D01*
X37368587Y19933808D01*
X37104186Y19838044D01*
X36963296Y19548429D01*
X36881616Y19236892D01*
X36862282Y18915405D01*
X33638189Y18915405D01*
X33645718Y19040595D01*
X33601961Y19359675D01*
X33496795Y19664088D01*
X33403814Y19838044D01*
X33139413Y19933808D01*
X32183605Y18978000D01*
X31824395Y18978000D01*
X30868587Y19933808D01*
X30604186Y19838044D01*
X30463296Y19548429D01*
X30381616Y19236892D01*
X30362282Y18915405D01*
X29591000Y18915405D01*
X29591000Y20400912D01*
X29644183Y20406150D01*
X29696433Y20422000D01*
X31226623Y20422000D01*
X31143956Y20377814D01*
G37*
X31143956Y20377814D02*
X31048192Y20113413D01*
X32004000Y19157605D01*
X32959808Y20113413D01*
X32864044Y20377814D01*
X32773215Y20422000D01*
X37726623Y20422000D01*
X37643956Y20377814D01*
X37548192Y20113413D01*
X38504000Y19157605D01*
X39459808Y20113413D01*
X39364044Y20377814D01*
X39273215Y20422000D01*
X58580893Y20422000D01*
X58409525Y20250632D01*
X58247010Y20007411D01*
X58135068Y19737158D01*
X58078000Y19450260D01*
X58078000Y19157740D01*
X58135068Y18870842D01*
X58247010Y18600589D01*
X58409525Y18357368D01*
X58616368Y18150525D01*
X58859589Y17988010D01*
X59129842Y17876068D01*
X59416740Y17819000D01*
X59709260Y17819000D01*
X59996158Y17876068D01*
X60266411Y17988010D01*
X60509632Y18150525D01*
X60641487Y18282380D01*
X60663498Y18209820D01*
X60722463Y18099506D01*
X60801815Y18002815D01*
X60898506Y17923463D01*
X61008820Y17864498D01*
X61128518Y17828188D01*
X61253000Y17815928D01*
X61817250Y17819000D01*
X61976000Y17977750D01*
X61976000Y19177000D01*
X61956000Y19177000D01*
X61956000Y19431000D01*
X61976000Y19431000D01*
X61976000Y19451000D01*
X62230000Y19451000D01*
X62230000Y19431000D01*
X62250000Y19431000D01*
X62250000Y19177000D01*
X62230000Y19177000D01*
X62230000Y17977750D01*
X62388750Y17819000D01*
X62953000Y17815928D01*
X63077482Y17828188D01*
X63197180Y17864498D01*
X63307494Y17923463D01*
X63352089Y17960061D01*
X63357550Y17904617D01*
X63395290Y17780207D01*
X63399677Y17772000D01*
X55261909Y17772000D01*
X55344557Y17910748D01*
X55441881Y18185109D01*
X55321214Y18415000D01*
X54127400Y18415000D01*
X54127400Y18395000D01*
X53873400Y18395000D01*
X53873400Y18415000D01*
X53853400Y18415000D01*
X53853400Y18669000D01*
X53873400Y18669000D01*
X53873400Y19862155D01*
X54127400Y19862155D01*
X54127400Y18669000D01*
X55321214Y18669000D01*
X55441881Y18898891D01*
X55344557Y19173252D01*
X55195578Y19423355D01*
X55000669Y19639588D01*
X54767320Y19813641D01*
X54504499Y19938825D01*
X54357290Y19983476D01*
X54127400Y19862155D01*
X53873400Y19862155D01*
X53643510Y19983476D01*
X53496301Y19938825D01*
X53233480Y19813641D01*
X53000131Y19639588D01*
X52805222Y19423355D01*
X52735595Y19306466D01*
X52613875Y19488632D01*
X52407032Y19695475D01*
X52163811Y19857990D01*
X51893558Y19969932D01*
X51606660Y20027000D01*
X51314140Y20027000D01*
X51027242Y19969932D01*
X50756989Y19857990D01*
X50513768Y19695475D01*
X50306925Y19488632D01*
X50190400Y19314240D01*
X50073875Y19488632D01*
X49867032Y19695475D01*
X49623811Y19857990D01*
X49353558Y19969932D01*
X49066660Y20027000D01*
X48774140Y20027000D01*
X48487242Y19969932D01*
X48216989Y19857990D01*
X47973768Y19695475D01*
X47766925Y19488632D01*
X47650400Y19314240D01*
X47533875Y19488632D01*
X47327032Y19695475D01*
X47083811Y19857990D01*
X46813558Y19969932D01*
X46526660Y20027000D01*
X46234140Y20027000D01*
X45947242Y19969932D01*
X45676989Y19857990D01*
X45433768Y19695475D01*
X45301913Y19563620D01*
X45279902Y19636180D01*
X45220937Y19746494D01*
X45141585Y19843185D01*
X45044894Y19922537D01*
X44934580Y19981502D01*
X44814882Y20017812D01*
X44690400Y20030072D01*
X42990400Y20030072D01*
X42865918Y20017812D01*
X42746220Y19981502D01*
X42635906Y19922537D01*
X42539215Y19843185D01*
X42459863Y19746494D01*
X42400898Y19636180D01*
X42364588Y19516482D01*
X42352328Y19392000D01*
X42352328Y17692000D01*
X42364588Y17567518D01*
X42400898Y17447820D01*
X42459863Y17337506D01*
X42539215Y17240815D01*
X42635906Y17161463D01*
X42705400Y17124317D01*
X42705400Y16747752D01*
X42699909Y16692000D01*
X42705400Y16636249D01*
X42721823Y16469502D01*
X42786724Y16255554D01*
X42892116Y16058377D01*
X43033951Y15885551D01*
X43064159Y15860759D01*
X43088951Y15830551D01*
X43261777Y15688716D01*
X43458953Y15583324D01*
X43672901Y15518423D01*
X43839648Y15502000D01*
X43839649Y15502000D01*
X43895400Y15496509D01*
X43951152Y15502000D01*
X67414258Y15502000D01*
X67458685Y15488523D01*
X67681183Y15466609D01*
X67903682Y15488523D01*
X67943919Y15500729D01*
X67924522Y11058961D01*
X67818207Y11026710D01*
X67703550Y10965425D01*
X67603052Y10882948D01*
X67520575Y10782450D01*
X67459290Y10667793D01*
X67421550Y10543383D01*
X67408807Y10414000D01*
X67412000Y10381581D01*
X67412001Y-7841571D01*
X67408807Y-7874000D01*
X67421550Y-8003383D01*
X67459290Y-8127793D01*
X67520575Y-8242450D01*
X67603052Y-8342948D01*
X67703550Y-8425425D01*
X67818207Y-8486710D01*
X67839142Y-8493061D01*
X67818001Y-13334445D01*
X67820333Y-13359232D01*
X67827456Y-13383088D01*
X67839096Y-13405096D01*
X67854806Y-13424410D01*
X67873982Y-13440288D01*
X67895887Y-13452119D01*
X67919680Y-13459450D01*
X67945000Y-13462000D01*
X74270001Y-13462000D01*
X74270001Y-13696618D01*
X59670620Y-28296000D01*
X55211107Y-28296000D01*
X55382475Y-28124632D01*
X55544990Y-27881411D01*
X55656932Y-27611158D01*
X55714000Y-27324260D01*
X55714000Y-27031740D01*
X55656932Y-26744842D01*
X55544990Y-26474589D01*
X55382475Y-26231368D01*
X55175632Y-26024525D01*
X54932411Y-25862010D01*
X54662158Y-25750068D01*
X54375260Y-25693000D01*
X54082740Y-25693000D01*
X53795842Y-25750068D01*
X53525589Y-25862010D01*
X53282368Y-26024525D01*
X53075525Y-26231368D01*
X52959000Y-26405760D01*
X52842475Y-26231368D01*
X52635632Y-26024525D01*
X52392411Y-25862010D01*
X52122158Y-25750068D01*
X51835260Y-25693000D01*
X51542740Y-25693000D01*
X51255842Y-25750068D01*
X50985589Y-25862010D01*
X50742368Y-26024525D01*
X50535525Y-26231368D01*
X50413805Y-26413534D01*
X50344178Y-26296645D01*
X50149269Y-26080412D01*
X49915920Y-25906359D01*
X49653099Y-25781175D01*
X49505890Y-25736524D01*
X49276000Y-25857845D01*
X49276000Y-27051000D01*
X49296000Y-27051000D01*
X49296000Y-27305000D01*
X49276000Y-27305000D01*
X49276000Y-27325000D01*
X49022000Y-27325000D01*
X49022000Y-27305000D01*
X49002000Y-27305000D01*
X49002000Y-27051000D01*
X49022000Y-27051000D01*
X49022000Y-25857845D01*
X48792110Y-25736524D01*
X48644901Y-25781175D01*
X48382080Y-25906359D01*
X48148731Y-26080412D01*
X47953822Y-26296645D01*
X47884195Y-26413534D01*
X47762475Y-26231368D01*
X47555632Y-26024525D01*
X47312411Y-25862010D01*
X47042158Y-25750068D01*
X46755260Y-25693000D01*
X46462740Y-25693000D01*
X46175842Y-25750068D01*
X45905589Y-25862010D01*
X45662368Y-26024525D01*
X45530513Y-26156380D01*
X45508502Y-26083820D01*
X45449537Y-25973506D01*
X45370185Y-25876815D01*
X45273494Y-25797463D01*
X45163180Y-25738498D01*
X45043482Y-25702188D01*
X44919000Y-25689928D01*
X43219000Y-25689928D01*
X43094518Y-25702188D01*
X42974820Y-25738498D01*
X42864506Y-25797463D01*
X42767815Y-25876815D01*
X42688463Y-25973506D01*
X42651317Y-26043000D01*
X42325552Y-26043000D01*
X42269800Y-26037509D01*
X42214048Y-26043000D01*
X42090351Y-26055183D01*
X42047301Y-26059423D01*
X41833353Y-26124324D01*
X41636177Y-26229716D01*
X41536926Y-26311169D01*
X41498961Y-26034325D01*
X41393795Y-25729912D01*
X41300814Y-25555956D01*
X41036413Y-25460192D01*
X40080605Y-26416000D01*
X40094748Y-26430143D01*
X39915143Y-26609748D01*
X39901000Y-26595605D01*
X39886858Y-26609748D01*
X39707253Y-26430143D01*
X39721395Y-26416000D01*
X38765587Y-25460192D01*
X38501186Y-25555956D01*
X38360296Y-25845571D01*
X38278616Y-26157108D01*
X38259282Y-26478595D01*
X38303039Y-26797675D01*
X38366994Y-26982800D01*
X37863400Y-26982800D01*
X37863400Y-25280587D01*
X38945192Y-25280587D01*
X39901000Y-26236395D01*
X40856808Y-25280587D01*
X40761044Y-25016186D01*
X40471429Y-24875296D01*
X40159892Y-24793616D01*
X39838405Y-24774282D01*
X39519325Y-24818039D01*
X39214912Y-24923205D01*
X39040956Y-25016186D01*
X38945192Y-25280587D01*
X37863400Y-25280587D01*
X37863400Y-21754967D01*
X38266000Y-21754967D01*
X38266000Y-22077033D01*
X38328832Y-22392912D01*
X38452082Y-22690463D01*
X38631013Y-22958252D01*
X38858748Y-23185987D01*
X39126537Y-23364918D01*
X39424088Y-23488168D01*
X39739967Y-23551000D01*
X40062033Y-23551000D01*
X40377912Y-23488168D01*
X40675463Y-23364918D01*
X40943252Y-23185987D01*
X41170987Y-22958252D01*
X41349918Y-22690463D01*
X41473168Y-22392912D01*
X41536000Y-22077033D01*
X41536000Y-21754967D01*
X41473168Y-21439088D01*
X41349918Y-21141537D01*
X41170987Y-20873748D01*
X40943252Y-20646013D01*
X40675463Y-20467082D01*
X40377912Y-20343832D01*
X40062033Y-20281000D01*
X39739967Y-20281000D01*
X39424088Y-20343832D01*
X39126537Y-20467082D01*
X38858748Y-20646013D01*
X38631013Y-20873748D01*
X38452082Y-21141537D01*
X38328832Y-21439088D01*
X38266000Y-21754967D01*
X37863400Y-21754967D01*
X37863400Y-19169000D01*
X38084788Y-19169000D01*
X38304067Y-19125383D01*
X38510624Y-19039824D01*
X38696520Y-18915612D01*
X38854612Y-18757520D01*
X38978824Y-18571624D01*
X39064383Y-18365067D01*
X39084218Y-18265349D01*
X42909357Y-22090489D01*
X42864506Y-22114463D01*
X42767815Y-22193815D01*
X42688463Y-22290506D01*
X42629498Y-22400820D01*
X42593188Y-22520518D01*
X42580928Y-22645000D01*
X42580928Y-24345000D01*
X42593188Y-24469482D01*
X42629498Y-24589180D01*
X42688463Y-24699494D01*
X42767815Y-24796185D01*
X42864506Y-24875537D01*
X42974820Y-24934502D01*
X43094518Y-24970812D01*
X43219000Y-24983072D01*
X44919000Y-24983072D01*
X45043482Y-24970812D01*
X45163180Y-24934502D01*
X45273494Y-24875537D01*
X45370185Y-24796185D01*
X45449537Y-24699494D01*
X45508502Y-24589180D01*
X45530513Y-24516620D01*
X45662368Y-24648475D01*
X45905589Y-24810990D01*
X46175842Y-24922932D01*
X46462740Y-24980000D01*
X46755260Y-24980000D01*
X47042158Y-24922932D01*
X47312411Y-24810990D01*
X47555632Y-24648475D01*
X47762475Y-24441632D01*
X47879000Y-24267240D01*
X47995525Y-24441632D01*
X48202368Y-24648475D01*
X48445589Y-24810990D01*
X48715842Y-24922932D01*
X49002740Y-24980000D01*
X49295260Y-24980000D01*
X49582158Y-24922932D01*
X49852411Y-24810990D01*
X50095632Y-24648475D01*
X50302475Y-24441632D01*
X50419000Y-24267240D01*
X50535525Y-24441632D01*
X50742368Y-24648475D01*
X50985589Y-24810990D01*
X51255842Y-24922932D01*
X51542740Y-24980000D01*
X51835260Y-24980000D01*
X52122158Y-24922932D01*
X52392411Y-24810990D01*
X52635632Y-24648475D01*
X52842475Y-24441632D01*
X52964195Y-24259466D01*
X53033822Y-24376355D01*
X53228731Y-24592588D01*
X53462080Y-24766641D01*
X53724901Y-24891825D01*
X53872110Y-24936476D01*
X54102000Y-24815155D01*
X54102000Y-23622000D01*
X54356000Y-23622000D01*
X54356000Y-24815155D01*
X54585890Y-24936476D01*
X54733099Y-24891825D01*
X54995920Y-24766641D01*
X55229269Y-24592588D01*
X55424178Y-24376355D01*
X55573157Y-24126252D01*
X55670481Y-23851891D01*
X55549814Y-23622000D01*
X54356000Y-23622000D01*
X54102000Y-23622000D01*
X54082000Y-23622000D01*
X54082000Y-23368000D01*
X54102000Y-23368000D01*
X54102000Y-22174845D01*
X54356000Y-22174845D01*
X54356000Y-23368000D01*
X55549814Y-23368000D01*
X55670481Y-23138109D01*
X55573157Y-22863748D01*
X55424178Y-22613645D01*
X55229269Y-22397412D01*
X54995920Y-22223359D01*
X54733099Y-22098175D01*
X54585890Y-22053524D01*
X54356000Y-22174845D01*
X54102000Y-22174845D01*
X53872110Y-22053524D01*
X53724901Y-22098175D01*
X53462080Y-22223359D01*
X53228731Y-22397412D01*
X53033822Y-22613645D01*
X52964195Y-22730534D01*
X52842475Y-22548368D01*
X52635632Y-22341525D01*
X52392411Y-22179010D01*
X52122158Y-22067068D01*
X51835260Y-22010000D01*
X51542740Y-22010000D01*
X51255842Y-22067068D01*
X50985589Y-22179010D01*
X50742368Y-22341525D01*
X50535525Y-22548368D01*
X50419000Y-22722760D01*
X50302475Y-22548368D01*
X50095632Y-22341525D01*
X49852411Y-22179010D01*
X49582158Y-22067068D01*
X49295260Y-22010000D01*
X49002740Y-22010000D01*
X48715842Y-22067068D01*
X48445589Y-22179010D01*
X48202368Y-22341525D01*
X47995525Y-22548368D01*
X47879000Y-22722760D01*
X47762475Y-22548368D01*
X47555632Y-22341525D01*
X47312411Y-22179010D01*
X47042158Y-22067068D01*
X46755260Y-22010000D01*
X46462740Y-22010000D01*
X46175842Y-22067068D01*
X45905589Y-22179010D01*
X45662368Y-22341525D01*
X45530513Y-22473380D01*
X45508502Y-22400820D01*
X45449537Y-22290506D01*
X45370185Y-22193815D01*
X45273494Y-22114463D01*
X45204000Y-22077317D01*
X45204000Y-21700743D01*
X45209490Y-21644999D01*
X45204000Y-21589255D01*
X45204000Y-21589248D01*
X45189211Y-21439088D01*
X45187577Y-21422500D01*
X45165280Y-21348998D01*
X45122676Y-21208553D01*
X45017284Y-21011377D01*
X44875449Y-20838551D01*
X44832141Y-20803009D01*
X40308001Y-16278870D01*
X40308001Y-15123003D01*
X40344063Y-15176974D01*
X40488226Y-15321137D01*
X40657744Y-15434405D01*
X40846102Y-15512426D01*
X41046061Y-15552200D01*
X41249939Y-15552200D01*
X41449898Y-15512426D01*
X41638256Y-15434405D01*
X41807774Y-15321137D01*
X41951937Y-15176974D01*
X42065205Y-15007456D01*
X42143226Y-14819098D01*
X42183000Y-14619139D01*
X42183000Y-14415261D01*
X42143226Y-14215302D01*
X42065205Y-14026944D01*
X41951937Y-13857426D01*
X41908000Y-13813489D01*
X41908000Y-12592049D01*
X42050687Y-12651152D01*
X42250646Y-12690926D01*
X42367421Y-12690926D01*
X42431064Y-12786174D01*
X42575227Y-12930337D01*
X42744745Y-13043605D01*
X42933103Y-13121626D01*
X43133062Y-13161400D01*
X43335873Y-13161400D01*
X43364774Y-13306698D01*
X43442795Y-13495056D01*
X43556063Y-13664574D01*
X43700226Y-13808737D01*
X43869744Y-13922005D01*
X44058102Y-14000026D01*
X44258061Y-14039800D01*
X44461939Y-14039800D01*
X44661898Y-14000026D01*
X44850256Y-13922005D01*
X45019774Y-13808737D01*
X45163937Y-13664574D01*
X45277205Y-13495056D01*
X45355226Y-13306698D01*
X45395000Y-13106739D01*
X45395000Y-12902861D01*
X45355226Y-12702902D01*
X45277205Y-12514544D01*
X45163937Y-12345026D01*
X45019774Y-12200863D01*
X44850256Y-12087595D01*
X44720001Y-12033641D01*
X44720001Y-11487916D01*
X44740661Y-11492025D01*
X44944539Y-11492025D01*
X45144498Y-11452251D01*
X45332856Y-11374230D01*
X45502374Y-11260962D01*
X45646537Y-11116799D01*
X45759805Y-10947281D01*
X45837826Y-10758923D01*
X45877600Y-10558964D01*
X45877600Y-10496826D01*
X46486089Y-9888337D01*
X46494998Y-9978786D01*
X46508180Y-10022242D01*
X46538454Y-10122046D01*
X46609026Y-10254076D01*
X46666200Y-10323742D01*
X46666200Y-10388939D01*
X46705974Y-10588898D01*
X46783995Y-10777256D01*
X46897263Y-10946774D01*
X47041426Y-11090937D01*
X47210944Y-11204205D01*
X47399302Y-11282226D01*
X47599261Y-11322000D01*
X47803139Y-11322000D01*
X48003098Y-11282226D01*
X48191456Y-11204205D01*
X48360974Y-11090937D01*
X48505137Y-10946774D01*
X48618405Y-10777256D01*
X48696426Y-10588898D01*
X48731613Y-10412000D01*
X60281689Y-10412000D01*
X60325626Y-10455937D01*
X60495144Y-10569205D01*
X60683502Y-10647226D01*
X60883461Y-10687000D01*
X61087339Y-10687000D01*
X61287298Y-10647226D01*
X61475656Y-10569205D01*
X61607700Y-10480976D01*
X61739744Y-10569205D01*
X61928102Y-10647226D01*
X62128061Y-10687000D01*
X62331939Y-10687000D01*
X62531898Y-10647226D01*
X62720256Y-10569205D01*
X62889774Y-10455937D01*
X63033937Y-10311774D01*
X63147205Y-10142256D01*
X63225226Y-9953898D01*
X63265000Y-9753939D01*
X63265000Y-9550061D01*
X63225226Y-9350102D01*
X63147205Y-9161744D01*
X63033937Y-8992226D01*
X62889774Y-8848063D01*
X62720256Y-8734795D01*
X62531898Y-8656774D01*
X62331939Y-8617000D01*
X62269801Y-8617000D01*
X62069718Y-8416917D01*
X62046849Y-8388855D01*
X62016928Y-8364127D01*
X62016001Y-8363200D01*
X61988056Y-8340266D01*
X61931451Y-8293485D01*
X61930295Y-8292862D01*
X61929275Y-8292025D01*
X61864272Y-8257280D01*
X61799665Y-8222461D01*
X61798409Y-8222075D01*
X61797245Y-8221453D01*
X61726866Y-8200105D01*
X61656554Y-8178512D01*
X61655240Y-8178378D01*
X61653984Y-8177997D01*
X61580966Y-8170805D01*
X61544939Y-8167132D01*
X61543626Y-8167127D01*
X61504999Y-8163323D01*
X61468973Y-8166871D01*
X50762440Y-8130129D01*
X50761133Y-8130000D01*
X50724917Y-8130000D01*
X50689076Y-8129877D01*
X50687782Y-8130000D01*
X50606802Y-8130000D01*
X50417000Y-7940199D01*
X50417000Y-6412722D01*
X50420676Y-6375399D01*
X50417000Y-6338076D01*
X50417000Y-6338067D01*
X50406003Y-6226414D01*
X50362546Y-6083153D01*
X50291974Y-5951124D01*
X50197001Y-5835399D01*
X50167998Y-5811597D01*
X49839804Y-5483403D01*
X49816001Y-5454399D01*
X49700276Y-5359426D01*
X49568247Y-5288854D01*
X49424986Y-5245397D01*
X49313333Y-5234400D01*
X49313322Y-5234400D01*
X49276000Y-5230724D01*
X49238678Y-5234400D01*
X48658911Y-5234400D01*
X48614974Y-5190463D01*
X48445456Y-5077195D01*
X48257098Y-4999174D01*
X48057139Y-4959400D01*
X47853261Y-4959400D01*
X47653302Y-4999174D01*
X47464944Y-5077195D01*
X47295426Y-5190463D01*
X47151263Y-5334626D01*
X47037995Y-5504144D01*
X46959974Y-5692502D01*
X46920200Y-5892461D01*
X46920200Y-6096339D01*
X46959974Y-6296298D01*
X46988797Y-6365883D01*
X46967679Y-6351772D01*
X46779321Y-6273751D01*
X46762348Y-6270375D01*
X46761156Y-6264384D01*
X46709129Y-6138782D01*
X46752537Y-6095374D01*
X46865805Y-5925856D01*
X46943826Y-5737498D01*
X46983600Y-5537539D01*
X46983600Y-5333661D01*
X46943826Y-5133702D01*
X46865805Y-4945344D01*
X46752537Y-4775826D01*
X46608374Y-4631663D01*
X46438856Y-4518395D01*
X46425025Y-4512666D01*
X46425025Y-4504205D01*
X46385251Y-4304246D01*
X46307230Y-4115888D01*
X46193962Y-3946370D01*
X46049799Y-3802207D01*
X45880281Y-3688939D01*
X45691923Y-3610918D01*
X45491964Y-3571144D01*
X45288086Y-3571144D01*
X45088127Y-3610918D01*
X44899769Y-3688939D01*
X44730251Y-3802207D01*
X44586088Y-3946370D01*
X44583787Y-3949813D01*
X44433009Y-3919822D01*
X44229131Y-3919822D01*
X44029172Y-3959596D01*
X43840814Y-4037617D01*
X43671296Y-4150885D01*
X43527133Y-4295048D01*
X43413865Y-4464566D01*
X43335844Y-4652924D01*
X43296070Y-4852883D01*
X43296070Y-4915020D01*
X41116583Y-7094508D01*
X41087585Y-7118306D01*
X41063787Y-7147304D01*
X41063786Y-7147305D01*
X40992611Y-7234031D01*
X40922039Y-7366061D01*
X40894932Y-7455424D01*
X40878583Y-7509321D01*
X40868811Y-7608534D01*
X40863909Y-7658307D01*
X40867586Y-7695639D01*
X40867585Y-9761089D01*
X40823648Y-9805026D01*
X40710380Y-9974544D01*
X40632359Y-10162902D01*
X40592585Y-10362861D01*
X40592585Y-10480713D01*
X40488226Y-10550443D01*
X40344063Y-10694606D01*
X40308001Y-10748577D01*
X40308001Y-6084847D01*
X40291578Y-5918100D01*
X40226677Y-5704152D01*
X40121285Y-5506976D01*
X39979450Y-5334150D01*
X39806624Y-5192315D01*
X39609447Y-5086923D01*
X39395499Y-5022022D01*
X39173001Y-5000108D01*
X38950502Y-5022022D01*
X38736554Y-5086923D01*
X38539378Y-5192315D01*
X38366552Y-5334150D01*
X38224717Y-5506976D01*
X38119325Y-5704153D01*
X38054424Y-5918101D01*
X38038001Y-6084848D01*
X38038002Y-16693240D01*
X38032510Y-16749001D01*
X38047284Y-16899000D01*
X37861212Y-16899000D01*
X37641933Y-16942617D01*
X37435376Y-17028176D01*
X37342295Y-17090371D01*
X37336623Y-17085716D01*
X37287215Y-17059307D01*
X37240624Y-17028176D01*
X37188848Y-17006730D01*
X37139446Y-16980324D01*
X37085845Y-16964064D01*
X37034067Y-16942617D01*
X36979103Y-16931684D01*
X36925498Y-16915423D01*
X36869748Y-16909932D01*
X36814788Y-16899000D01*
X36758751Y-16899000D01*
X36703000Y-16893509D01*
X36647248Y-16899000D01*
X36591212Y-16899000D01*
X36536253Y-16909932D01*
X36480501Y-16915423D01*
X36426894Y-16931685D01*
X36371933Y-16942617D01*
X36320158Y-16964063D01*
X36266553Y-16980324D01*
X36217149Y-17006731D01*
X36165376Y-17028176D01*
X36118786Y-17059307D01*
X36069377Y-17085716D01*
X36026068Y-17121259D01*
X36011070Y-17131280D01*
X35996450Y-17042412D01*
X35792174Y-16951542D01*
X35574095Y-16902269D01*
X35443953Y-16898903D01*
X35512005Y-16797056D01*
X35590026Y-16608698D01*
X35629800Y-16408739D01*
X35629800Y-16204861D01*
X35590026Y-16004902D01*
X35512005Y-15816544D01*
X35398737Y-15647026D01*
X35254574Y-15502863D01*
X35085056Y-15389595D01*
X34896698Y-15311574D01*
X34696739Y-15271800D01*
X34492861Y-15271800D01*
X34292902Y-15311574D01*
X34104544Y-15389595D01*
X33935026Y-15502863D01*
X33790863Y-15647026D01*
X33722130Y-15749892D01*
X33570344Y-15687020D01*
X33370385Y-15647246D01*
X33166507Y-15647246D01*
X32966548Y-15687020D01*
X32778190Y-15765041D01*
X32608672Y-15878309D01*
X32464509Y-16022472D01*
X32459818Y-16029493D01*
X32369661Y-16011560D01*
X32165783Y-16011560D01*
X31965824Y-16051334D01*
X31777466Y-16129355D01*
X31607948Y-16242623D01*
X31463785Y-16386786D01*
X31441707Y-16419829D01*
X31344348Y-16400463D01*
X31140470Y-16400463D01*
X30940511Y-16440237D01*
X30752153Y-16518258D01*
X30582635Y-16631526D01*
X30438472Y-16775689D01*
X30425480Y-16795133D01*
X30331886Y-16776516D01*
X30128008Y-16776516D01*
X29928049Y-16816290D01*
X29739691Y-16894311D01*
X29570173Y-17007579D01*
X29426010Y-17151742D01*
X29312742Y-17321260D01*
X29234721Y-17509618D01*
X29194947Y-17709577D01*
X29194947Y-17913455D01*
X29234721Y-18113414D01*
X29236895Y-18118662D01*
X28847681Y-18507876D01*
X28847676Y-18507880D01*
X27474618Y-19880939D01*
X27091062Y-19880939D01*
X27053737Y-19877263D01*
X27016414Y-19880939D01*
X27016406Y-19880939D01*
X26904753Y-19891936D01*
X26761492Y-19935393D01*
X26629463Y-20005965D01*
X26513738Y-20100938D01*
X26489935Y-20129943D01*
X26270041Y-20349837D01*
X26270036Y-20349841D01*
X25731888Y-20887990D01*
X14303635Y-20887990D01*
X14266312Y-20884314D01*
X14228989Y-20887990D01*
X14228980Y-20887990D01*
X14117327Y-20898987D01*
X13974066Y-20942444D01*
X13842037Y-21013016D01*
X13726312Y-21107989D01*
X13702514Y-21136987D01*
X11611105Y-23228397D01*
X11137741Y-23228397D01*
X11100418Y-23224721D01*
X11063095Y-23228397D01*
X11063086Y-23228397D01*
X10951433Y-23239394D01*
X10808172Y-23282851D01*
X10676143Y-23353423D01*
X10560418Y-23448396D01*
X10536620Y-23477394D01*
X9685200Y-24328815D01*
X9656202Y-24352613D01*
X9632404Y-24381611D01*
X9632402Y-24381613D01*
X9561227Y-24468339D01*
X9536848Y-24513949D01*
X8678383Y-24513949D01*
X7767403Y-23602970D01*
X7743605Y-23573972D01*
X7714606Y-23550173D01*
X7627880Y-23478998D01*
X7495850Y-23408426D01*
X7396046Y-23378152D01*
X7352590Y-23364970D01*
X7240937Y-23353973D01*
X7203604Y-23350296D01*
X7166272Y-23353973D01*
X1520525Y-23353971D01*
X1483202Y-23350295D01*
X1445879Y-23353971D01*
X1445869Y-23353971D01*
X1334216Y-23364968D01*
X1198138Y-23406246D01*
X1190955Y-23408425D01*
X1058925Y-23478997D01*
X972198Y-23550171D01*
X972188Y-23550181D01*
X943201Y-23573970D01*
X919412Y-23602957D01*
X78377Y-24443990D01*
X-3985001Y-24443990D01*
X-4022324Y-24440314D01*
X-4059647Y-24443990D01*
X-4059656Y-24443990D01*
X-4171309Y-24454987D01*
X-4288708Y-24490599D01*
X-4314570Y-24498444D01*
X-4446600Y-24569016D01*
X-4521448Y-24630443D01*
X-4562324Y-24663989D01*
X-4586122Y-24692987D01*
X-5503060Y-25609926D01*
X-5503071Y-25609935D01*
X-7492637Y-27599503D01*
X-7521635Y-27623301D01*
X-7545433Y-27652299D01*
X-7545435Y-27652301D01*
X-7616610Y-27739027D01*
X-7687182Y-27871057D01*
X-7694536Y-27895301D01*
X-7730638Y-28014316D01*
X-7741635Y-28125969D01*
X-7745312Y-28163303D01*
X-7741635Y-28200632D01*
X-7741637Y-28612331D01*
X-7741636Y-28612341D01*
X-7741638Y-31203940D01*
X-11899940Y-31203940D01*
X-11899940Y-28181076D01*
X-11873953Y-28155089D01*
X-11844949Y-28131286D01*
X-11749976Y-28015561D01*
X-11679404Y-27883532D01*
X-11635963Y-27740324D01*
X-11581013Y-27685374D01*
X-11467745Y-27515856D01*
X-11389724Y-27327498D01*
X-11349950Y-27127539D01*
X-11349950Y-26923661D01*
X-11389724Y-26723702D01*
X-11467745Y-26535344D01*
X-11581013Y-26365826D01*
X-11725176Y-26221663D01*
X-11894694Y-26108395D01*
X-12083052Y-26030374D01*
X-12283011Y-25990600D01*
X-12486889Y-25990600D01*
X-12511615Y-25995518D01*
X-12569949Y-25924438D01*
X-12598946Y-25900641D01*
X-15425389Y-23074199D01*
X-15425389Y-23012061D01*
X-15465163Y-22812102D01*
X-15543184Y-22623744D01*
X-15656452Y-22454226D01*
X-15800615Y-22310063D01*
X-15970133Y-22196795D01*
X-16158491Y-22118774D01*
X-16358450Y-22079000D01*
X-16562328Y-22079000D01*
X-16612001Y-22088880D01*
X-16621590Y-22077196D01*
X-16645388Y-22048198D01*
X-16674385Y-22024401D01*
X-17197800Y-21500987D01*
X-17197800Y-21379311D01*
X-17153863Y-21335374D01*
X-17040595Y-21165856D01*
X-16962574Y-20977498D01*
X-16922800Y-20777539D01*
X-16922800Y-20573661D01*
X-16962574Y-20373702D01*
X-17040595Y-20185344D01*
X-17153863Y-20015826D01*
X-17298026Y-19871663D01*
X-17467544Y-19758395D01*
X-17655902Y-19680374D01*
X-17855861Y-19640600D01*
X-18059739Y-19640600D01*
X-18259698Y-19680374D01*
X-18448056Y-19758395D01*
X-18617574Y-19871663D01*
X-18761737Y-20015826D01*
X-18804011Y-20079094D01*
X-20575114Y-18307992D01*
X-20598917Y-18278988D01*
X-20714642Y-18184015D01*
X-20846671Y-18113443D01*
X-20989932Y-18069986D01*
X-21101585Y-18058989D01*
X-21101596Y-18058989D01*
X-21138918Y-18055313D01*
X-21176240Y-18058989D01*
X-25332056Y-18058989D01*
X-25248417Y-17857067D01*
X-25204800Y-17637788D01*
X-25204800Y-17414212D01*
X-25248417Y-17194933D01*
X-25333976Y-16988376D01*
X-25458188Y-16802480D01*
X-25616280Y-16644388D01*
X-25744493Y-16558718D01*
X-24171436Y-14985661D01*
X22917200Y-14985661D01*
X22917200Y-15189539D01*
X22956974Y-15389498D01*
X23034995Y-15577856D01*
X23148263Y-15747374D01*
X23292426Y-15891537D01*
X23461944Y-16004805D01*
X23650302Y-16082826D01*
X23850261Y-16122600D01*
X24054139Y-16122600D01*
X24254098Y-16082826D01*
X24442456Y-16004805D01*
X24611974Y-15891537D01*
X24756137Y-15747374D01*
X24869405Y-15577856D01*
X24947426Y-15389498D01*
X24987200Y-15189539D01*
X24987200Y-14985661D01*
X24947426Y-14785702D01*
X24869405Y-14597344D01*
X24756137Y-14427826D01*
X24611974Y-14283663D01*
X24442456Y-14170395D01*
X24254098Y-14092374D01*
X24054139Y-14052600D01*
X23850261Y-14052600D01*
X23650302Y-14092374D01*
X23461944Y-14170395D01*
X23292426Y-14283663D01*
X23148263Y-14427826D01*
X23034995Y-14597344D01*
X22956974Y-14785702D01*
X22917200Y-14985661D01*
X-24171436Y-14985661D01*
X-23146265Y-13960491D01*
X-23039969Y-13830970D01*
X-22934577Y-13633794D01*
X-22869676Y-13419846D01*
X-22847762Y-13197347D01*
X-22869676Y-12974848D01*
X-22934577Y-12760901D01*
X-23039969Y-12563725D01*
X-23181804Y-12390898D01*
X-23354631Y-12249063D01*
X-23551807Y-12143671D01*
X-23765754Y-12078770D01*
X-23988253Y-12056856D01*
X-24210752Y-12078770D01*
X-24424700Y-12143671D01*
X-24621876Y-12249063D01*
X-24751397Y-12355359D01*
X-28372940Y-15976903D01*
X-28416248Y-16012445D01*
X-28558083Y-16185271D01*
X-28663476Y-16382447D01*
X-28671658Y-16409418D01*
X-28738705Y-16394269D01*
X-28962206Y-16388489D01*
X-29182540Y-16426423D01*
X-29391240Y-16506613D01*
X-29443250Y-16534412D01*
X-29457870Y-16623280D01*
X-29612176Y-16520176D01*
X-29818733Y-16434617D01*
X-30038012Y-16391000D01*
X-30261588Y-16391000D01*
X-30480867Y-16434617D01*
X-30687424Y-16520176D01*
X-30873320Y-16644388D01*
X-31031412Y-16802480D01*
X-31155624Y-16988376D01*
X-31241183Y-17194933D01*
X-31284800Y-17414212D01*
X-31284800Y-17637788D01*
X-31241183Y-17857067D01*
X-31207637Y-17938055D01*
X-31227992Y-17962858D01*
X-31774133Y-18508999D01*
X-32934680Y-18508999D01*
X-33002709Y-18502299D01*
X-33070738Y-18508999D01*
X-33070746Y-18508999D01*
X-33274216Y-18529039D01*
X-33535290Y-18608235D01*
X-33713146Y-18703301D01*
X-31162014Y-7223203D01*
X-31047533Y-7223203D01*
X-30818314Y-7489833D01*
X-30541483Y-7706621D01*
X-30227678Y-7865236D01*
X-29888958Y-7959584D01*
X-29538341Y-7986037D01*
X-29300632Y-7964719D01*
X-29086518Y-7751706D01*
X-29649532Y-6358197D01*
X-31043041Y-6921211D01*
X-31047533Y-7223203D01*
X-31162014Y-7223203D01*
X-31033138Y-6643263D01*
X-30092070Y-6263047D01*
X-29414028Y-6263047D01*
X-28851014Y-7656556D01*
X-28549022Y-7661048D01*
X-28282392Y-7431829D01*
X-28065604Y-7154998D01*
X-27906989Y-6841193D01*
X-27812641Y-6502473D01*
X-27786188Y-6151856D01*
X-27807506Y-5914147D01*
X-28020519Y-5700033D01*
X-29414028Y-6263047D01*
X-30092070Y-6263047D01*
X-29804836Y-6146997D01*
X-29773104Y-6178729D01*
X-29593496Y-5999121D01*
X-29930948Y-5661669D01*
X-30307696Y-4729184D01*
X-30606798Y-4724735D01*
X-30586643Y-4634034D01*
X-30072192Y-4634034D01*
X-29509178Y-6027543D01*
X-28115669Y-5464529D01*
X-28111177Y-5162537D01*
X-28340396Y-4895907D01*
X-28617227Y-4679119D01*
X-28931032Y-4520504D01*
X-29269752Y-4426156D01*
X-29620369Y-4399703D01*
X-29858078Y-4421021D01*
X-30072192Y-4634034D01*
X-30586643Y-4634034D01*
X-30311127Y-3394215D01*
X-26713075Y-4691472D01*
X-26710161Y-4692483D01*
X-23662161Y-5708483D01*
X-23637884Y-5714003D01*
X-23612997Y-5714680D01*
X-23588456Y-5710490D01*
X-23555079Y-5695938D01*
X-17205079Y-1758938D01*
X-17185307Y-1743808D01*
X-17168867Y-1725112D01*
X-17156390Y-1703567D01*
X-17148356Y-1680003D01*
X-17145000Y-1651000D01*
X-17145000Y483000D01*
X-5164771Y483000D01*
X-5188185Y463785D01*
X-5267537Y367094D01*
X-5326502Y256780D01*
X-5362812Y137082D01*
X-5375072Y12600D01*
X-5375072Y-1587400D01*
X-5362812Y-1711882D01*
X-5326502Y-1831580D01*
X-5267537Y-1941894D01*
X-5188185Y-2038585D01*
X-5091494Y-2117937D01*
X-4981180Y-2176902D01*
X-4861482Y-2213212D01*
X-4737000Y-2225472D01*
X-3137000Y-2225472D01*
X-3012518Y-2213212D01*
X-2892820Y-2176902D01*
X-2782506Y-2117937D01*
X-2685815Y-2038585D01*
X-2606463Y-1941894D01*
X-2547498Y-1831580D01*
X-2511188Y-1711882D01*
X-2508769Y-1687320D01*
X-2360414Y-1850919D01*
X-2134420Y-2018437D01*
X-1880087Y-2138646D01*
X-1746039Y-2179304D01*
X-1524000Y-2057315D01*
X-1524000Y-914400D01*
X-1544000Y-914400D01*
X-1544000Y-660400D01*
X-1524000Y-660400D01*
X-1524000Y-640400D01*
X-1270000Y-640400D01*
X-1270000Y-660400D01*
X-1250000Y-660400D01*
X-1250000Y-914400D01*
X-1270000Y-914400D01*
X-1270000Y-2057315D01*
X-1047961Y-2179304D01*
X-913913Y-2138646D01*
X-659580Y-2018437D01*
X-433586Y-1850919D01*
X-244615Y-1642531D01*
X-133067Y-1456535D01*
X-128680Y-1467127D01*
X28363Y-1702159D01*
X228241Y-1902037D01*
X463273Y-2059080D01*
X724426Y-2167253D01*
X1001665Y-2222400D01*
X1284335Y-2222400D01*
X1561574Y-2167253D01*
X1822727Y-2059080D01*
X2057759Y-1902037D01*
X2257637Y-1702159D01*
X2414680Y-1467127D01*
X2522853Y-1205974D01*
X2578000Y-928735D01*
X2578000Y-646065D01*
X2522853Y-368826D01*
X2414680Y-107673D01*
X2257637Y127359D01*
X2057759Y327237D01*
X1824643Y483000D01*
X3115629Y483000D01*
X3092215Y463785D01*
X3012863Y367094D01*
X2953898Y256780D01*
X2917588Y137082D01*
X2905328Y12600D01*
X2905328Y-1587400D01*
X2917588Y-1711882D01*
X2953898Y-1831580D01*
X3012863Y-1941894D01*
X3092215Y-2038585D01*
X3188906Y-2117937D01*
X3299220Y-2176902D01*
X3418918Y-2213212D01*
X3543400Y-2225472D01*
X5143400Y-2225472D01*
X5267882Y-2213212D01*
X5387580Y-2176902D01*
X5497894Y-2117937D01*
X5594585Y-2038585D01*
X5673937Y-1941894D01*
X5732902Y-1831580D01*
X5769212Y-1711882D01*
X5771631Y-1687320D01*
X5919986Y-1850919D01*
X6145980Y-2018437D01*
X6400313Y-2138646D01*
X6534361Y-2179304D01*
X6756400Y-2057315D01*
X6756400Y-914400D01*
X6736400Y-914400D01*
X6736400Y-660400D01*
X6756400Y-660400D01*
X6756400Y-640400D01*
X7010400Y-640400D01*
X7010400Y-660400D01*
X7030400Y-660400D01*
X7030400Y-914400D01*
X7010400Y-914400D01*
X7010400Y-2057315D01*
X7232439Y-2179304D01*
X7366487Y-2138646D01*
X7620820Y-2018437D01*
X7846814Y-1850919D01*
X8035785Y-1642531D01*
X8147333Y-1456535D01*
X8151720Y-1467127D01*
X8308763Y-1702159D01*
X8508641Y-1902037D01*
X8743673Y-2059080D01*
X9004826Y-2167253D01*
X9282065Y-2222400D01*
X9564735Y-2222400D01*
X9841974Y-2167253D01*
X10103127Y-2059080D01*
X10338159Y-1902037D01*
X10538037Y-1702159D01*
X10695080Y-1467127D01*
X10803253Y-1205974D01*
X10858400Y-928735D01*
X10858400Y-646065D01*
X10803253Y-368826D01*
X10741607Y-219999D01*
X11370056Y-219999D01*
X11316600Y-488740D01*
X11316600Y-781260D01*
X11373668Y-1068158D01*
X11485610Y-1338411D01*
X11648125Y-1581632D01*
X11854968Y-1788475D01*
X11965483Y-1862318D01*
X11955942Y-1876597D01*
X11877921Y-2064955D01*
X11838147Y-2264914D01*
X11838147Y-2468792D01*
X11848850Y-2522600D01*
X-14392763Y-2522600D01*
X-14448507Y-2517110D01*
X-14504251Y-2522600D01*
X-14504258Y-2522600D01*
X-14650013Y-2536956D01*
X-14671006Y-2539023D01*
X-14708978Y-2550542D01*
X-14884953Y-2603924D01*
X-15082129Y-2709316D01*
X-15254955Y-2851151D01*
X-15290497Y-2894459D01*
X-17159441Y-4763404D01*
X-17265736Y-4892925D01*
X-17371129Y-5090101D01*
X-17436030Y-5304049D01*
X-17457944Y-5526547D01*
X-17436030Y-5749045D01*
X-17371129Y-5962993D01*
X-17265736Y-6160169D01*
X-17123901Y-6332995D01*
X-16951075Y-6474830D01*
X-16753899Y-6580223D01*
X-16539951Y-6645124D01*
X-16317453Y-6667038D01*
X-16094955Y-6645124D01*
X-15881007Y-6580223D01*
X-15683831Y-6474830D01*
X-15554310Y-6368535D01*
X-13978374Y-4792600D01*
X1759000Y-4792600D01*
X1759000Y-4916339D01*
X1798774Y-5116298D01*
X1876795Y-5304656D01*
X1990063Y-5474174D01*
X2134226Y-5618337D01*
X2303744Y-5731605D01*
X2492102Y-5809626D01*
X2692061Y-5849400D01*
X2895939Y-5849400D01*
X3095898Y-5809626D01*
X3284256Y-5731605D01*
X3453774Y-5618337D01*
X3486111Y-5586000D01*
X12250289Y-5586000D01*
X12294226Y-5629937D01*
X12463744Y-5743205D01*
X12652102Y-5821226D01*
X12852061Y-5861000D01*
X13055939Y-5861000D01*
X13255898Y-5821226D01*
X13444256Y-5743205D01*
X13613774Y-5629937D01*
X13757937Y-5485774D01*
X13871205Y-5316256D01*
X13949226Y-5127898D01*
X13989000Y-4927939D01*
X13989000Y-4792600D01*
X17692154Y-4792600D01*
X17692153Y-10035253D01*
X17686662Y-10091005D01*
X17692153Y-10146756D01*
X17708576Y-10313503D01*
X17773477Y-10527451D01*
X17878869Y-10724628D01*
X18020704Y-10897454D01*
X18064018Y-10933001D01*
X18587552Y-11456535D01*
X18623099Y-11499849D01*
X18795925Y-11641684D01*
X18993101Y-11747076D01*
X19157253Y-11796871D01*
X19207048Y-11811977D01*
X19228041Y-11814044D01*
X19373796Y-11828400D01*
X19373803Y-11828400D01*
X19429547Y-11833890D01*
X19485291Y-11828400D01*
X23728552Y-11828400D01*
X23895299Y-11811977D01*
X24109247Y-11747076D01*
X24306423Y-11641684D01*
X24479249Y-11499849D01*
X24621084Y-11327023D01*
X24726476Y-11129847D01*
X24791377Y-10915899D01*
X24813291Y-10693400D01*
X24791377Y-10470901D01*
X24726476Y-10256953D01*
X24621084Y-10059777D01*
X24479249Y-9886951D01*
X24306423Y-9745116D01*
X24271486Y-9726442D01*
X24434174Y-9617737D01*
X24478111Y-9573800D01*
X28105878Y-9573800D01*
X28143200Y-9577476D01*
X28180522Y-9573800D01*
X28180533Y-9573800D01*
X28292186Y-9562803D01*
X28435447Y-9519346D01*
X28567476Y-9448774D01*
X28683201Y-9353801D01*
X28707004Y-9324798D01*
X29122801Y-8909000D01*
X29184939Y-8909000D01*
X29384898Y-8869226D01*
X29573256Y-8791205D01*
X29742774Y-8677937D01*
X29886937Y-8533774D01*
X30000205Y-8364256D01*
X30078226Y-8175898D01*
X30118000Y-7975939D01*
X30118000Y-7772061D01*
X30078226Y-7572102D01*
X30000205Y-7383744D01*
X29886937Y-7214226D01*
X29742774Y-7070063D01*
X29573256Y-6956795D01*
X29384898Y-6878774D01*
X29184939Y-6839000D01*
X28981061Y-6839000D01*
X28781102Y-6878774D01*
X28592744Y-6956795D01*
X28450220Y-7052026D01*
X28540805Y-6916456D01*
X28618826Y-6728098D01*
X28658600Y-6528139D01*
X28658600Y-6324261D01*
X28618826Y-6124302D01*
X28540805Y-5935944D01*
X28427537Y-5766426D01*
X28283374Y-5622263D01*
X28113856Y-5508995D01*
X27925498Y-5430974D01*
X27725539Y-5391200D01*
X27521661Y-5391200D01*
X27321702Y-5430974D01*
X27133344Y-5508995D01*
X26963826Y-5622263D01*
X26908876Y-5677213D01*
X26765668Y-5720654D01*
X26633639Y-5791226D01*
X26517914Y-5886199D01*
X26494116Y-5915198D01*
X26006514Y-6402800D01*
X21570320Y-6402800D01*
X21532997Y-6399124D01*
X21495674Y-6402800D01*
X21495665Y-6402800D01*
X21384012Y-6413797D01*
X21240751Y-6457254D01*
X21108722Y-6527826D01*
X20992997Y-6622799D01*
X20969199Y-6651797D01*
X19962153Y-7658844D01*
X19962153Y-4794961D01*
X30298264Y-4820265D01*
X30355402Y-4825893D01*
X30465329Y-4815066D01*
X30575161Y-4804520D01*
X30576503Y-4804117D01*
X30577900Y-4803979D01*
X30683621Y-4771909D01*
X30789268Y-4740143D01*
X30790506Y-4739485D01*
X30791848Y-4739078D01*
X30889051Y-4687122D01*
X30986701Y-4635234D01*
X30987791Y-4634344D01*
X30989024Y-4633685D01*
X31074223Y-4563764D01*
X31159874Y-4493822D01*
X31196407Y-4449528D01*
X35942146Y296209D01*
X35985449Y331747D01*
X36109580Y483000D01*
X36127284Y504573D01*
X36232676Y701749D01*
X36297577Y915697D01*
X36319491Y1138196D01*
X36314000Y1193948D01*
X36314000Y6024110D01*
X36322977Y6053703D01*
X36339400Y6220450D01*
X36339400Y6220451D01*
X36344891Y6276201D01*
X36339400Y6331953D01*
X36339400Y7861069D01*
X36606670Y8128339D01*
X37547600Y8128339D01*
X37547600Y7924461D01*
X37587374Y7724502D01*
X37665395Y7536144D01*
X37778663Y7366626D01*
X37922826Y7222463D01*
X38092344Y7109195D01*
X38280702Y7031174D01*
X38480661Y6991400D01*
X38684539Y6991400D01*
X38884498Y7031174D01*
X39072856Y7109195D01*
X39242374Y7222463D01*
X39386537Y7366626D01*
X39499805Y7536144D01*
X39577826Y7724502D01*
X39617600Y7924461D01*
X39617600Y8128339D01*
X39577826Y8328298D01*
X39499805Y8516656D01*
X39386537Y8686174D01*
X39242374Y8830337D01*
X39072856Y8943605D01*
X38884498Y9021626D01*
X38684539Y9061400D01*
X38480661Y9061400D01*
X38280702Y9021626D01*
X38092344Y8943605D01*
X37922826Y8830337D01*
X37778663Y8686174D01*
X37665395Y8516656D01*
X37587374Y8328298D01*
X37547600Y8128339D01*
X36606670Y8128339D01*
X37935132Y9456800D01*
X42590849Y9456800D01*
X42646600Y9451309D01*
X42702351Y9456800D01*
X42702352Y9456800D01*
X42869099Y9473223D01*
X43083047Y9538124D01*
X43280223Y9643516D01*
X43453049Y9785351D01*
X43488596Y9828665D01*
X43707182Y10047251D01*
X43747820Y9949144D01*
X43861088Y9779626D01*
X44005251Y9635463D01*
X44174769Y9522195D01*
X44363127Y9444174D01*
X44563086Y9404400D01*
X44766964Y9404400D01*
X44966923Y9444174D01*
X45155281Y9522195D01*
X45324799Y9635463D01*
X45368736Y9679400D01*
X53175678Y9679400D01*
X53213000Y9675724D01*
X53250322Y9679400D01*
X53250333Y9679400D01*
X53361986Y9690397D01*
X53505247Y9733854D01*
X53637276Y9804426D01*
X53753001Y9899399D01*
X53776804Y9928403D01*
X54929202Y11080800D01*
X54991339Y11080800D01*
X55191298Y11120574D01*
X55379656Y11198595D01*
X55549174Y11311863D01*
X55693337Y11456026D01*
X55806605Y11625544D01*
X55884626Y11813902D01*
X55924400Y12013861D01*
X55924400Y12217739D01*
X55884626Y12417698D01*
X55806605Y12606056D01*
X55693337Y12775574D01*
X55549174Y12919737D01*
X55379656Y13033005D01*
X55191298Y13111026D01*
X54991339Y13150800D01*
X54787461Y13150800D01*
X54587502Y13111026D01*
X54399144Y13033005D01*
X54229626Y12919737D01*
X54085463Y12775574D01*
X53972195Y12606056D01*
X53894174Y12417698D01*
X53854400Y12217739D01*
X53854400Y12155602D01*
X52898199Y11199400D01*
X50780954Y11199400D01*
X50879005Y11346144D01*
X50957026Y11534502D01*
X50996800Y11734461D01*
X50996800Y11938339D01*
X50957026Y12138298D01*
X50879005Y12326656D01*
X50765737Y12496174D01*
X50621574Y12640337D01*
X50452056Y12753605D01*
X50263698Y12831626D01*
X50063739Y12871400D01*
X49931501Y12871400D01*
X49964605Y12920944D01*
X50042626Y13109302D01*
X50082400Y13309261D01*
X50082400Y13513139D01*
X50042626Y13713098D01*
X49964605Y13901456D01*
X49851337Y14070974D01*
X49707174Y14215137D01*
X49537656Y14328405D01*
X49349298Y14406426D01*
X49149339Y14446200D01*
X48945461Y14446200D01*
X48745502Y14406426D01*
X48557144Y14328405D01*
X48387626Y14215137D01*
X48343689Y14171200D01*
X47517321Y14171200D01*
X47495643Y14177776D01*
X47440693Y14232726D01*
X47271175Y14345994D01*
X47082817Y14424015D01*
X46882858Y14463789D01*
X46678980Y14463789D01*
X46479021Y14424015D01*
X46290663Y14345994D01*
X46121145Y14232726D01*
X45976982Y14088563D01*
X45863714Y13919045D01*
X45785693Y13730687D01*
X45745919Y13530728D01*
X45745919Y13326850D01*
X45785693Y13126891D01*
X45863714Y12938533D01*
X45898809Y12886009D01*
X45834975Y12731901D01*
X45795201Y12531942D01*
X45795201Y12328064D01*
X45834975Y12128105D01*
X45912996Y11939747D01*
X45919508Y11930001D01*
X45912996Y11920256D01*
X45834975Y11731898D01*
X45795201Y11531939D01*
X45795201Y11328061D01*
X45820793Y11199400D01*
X45368736Y11199400D01*
X45324799Y11243337D01*
X45155281Y11356605D01*
X45022127Y11411759D01*
X45097275Y11552352D01*
X45162176Y11766300D01*
X45184090Y11988799D01*
X45162176Y12211298D01*
X45097275Y12425246D01*
X44991883Y12622422D01*
X44850048Y12795248D01*
X44677222Y12937083D01*
X44480046Y13042475D01*
X44266098Y13107376D01*
X44043599Y13129290D01*
X43821100Y13107376D01*
X43607152Y13042475D01*
X43409976Y12937083D01*
X43280456Y12830788D01*
X42176469Y11726800D01*
X37520743Y11726800D01*
X37464999Y11732290D01*
X37409255Y11726800D01*
X37409248Y11726800D01*
X37263493Y11712444D01*
X37242500Y11710377D01*
X37192705Y11695271D01*
X37028553Y11645476D01*
X36831377Y11540084D01*
X36658551Y11398249D01*
X36623011Y11354943D01*
X34441260Y9173191D01*
X34397952Y9137649D01*
X34256117Y8964823D01*
X34247688Y8949053D01*
X34150724Y8767646D01*
X34085823Y8553698D01*
X34063909Y8331200D01*
X34069401Y8275439D01*
X34069400Y6502894D01*
X34060423Y6473301D01*
X34054585Y6414026D01*
X34038509Y6250802D01*
X34044000Y6195051D01*
X34044000Y5300689D01*
X33977061Y5300689D01*
X33777102Y5260915D01*
X33588744Y5182894D01*
X33425339Y5073711D01*
X33419323Y5079685D01*
X33377457Y5122438D01*
X33370362Y5128306D01*
X33370357Y5128311D01*
X33370352Y5128315D01*
X33063031Y5378959D01*
X33013238Y5412041D01*
X32963849Y5445859D01*
X32955743Y5450241D01*
X32605587Y5636423D01*
X32550267Y5659224D01*
X32495299Y5682784D01*
X32486499Y5685508D01*
X32486493Y5685510D01*
X32106844Y5800132D01*
X32048164Y5811751D01*
X31989654Y5824188D01*
X31980489Y5825151D01*
X31585805Y5863850D01*
X31585802Y5863850D01*
X31553819Y5867000D01*
X29800252Y5867000D01*
X29591000Y7122511D01*
X29591000Y14639033D01*
X30369000Y14639033D01*
X30369000Y14316967D01*
X30431832Y14001088D01*
X30555082Y13703537D01*
X30734013Y13435748D01*
X30961748Y13208013D01*
X31229537Y13029082D01*
X31527088Y12905832D01*
X31842967Y12843000D01*
X32165033Y12843000D01*
X32480912Y12905832D01*
X32778463Y13029082D01*
X33046252Y13208013D01*
X33273987Y13435748D01*
X33452918Y13703537D01*
X33576168Y14001088D01*
X33639000Y14316967D01*
X33639000Y14639033D01*
X36869000Y14639033D01*
X36869000Y14316967D01*
X36931832Y14001088D01*
X37055082Y13703537D01*
X37234013Y13435748D01*
X37461748Y13208013D01*
X37729537Y13029082D01*
X38027088Y12905832D01*
X38342967Y12843000D01*
X38665033Y12843000D01*
X38980912Y12905832D01*
X39278463Y13029082D01*
X39546252Y13208013D01*
X39773987Y13435748D01*
X39952918Y13703537D01*
X40076168Y14001088D01*
X40139000Y14316967D01*
X40139000Y14639033D01*
X40076168Y14954912D01*
X39952918Y15252463D01*
X39773987Y15520252D01*
X39546252Y15747987D01*
X39278463Y15926918D01*
X38980912Y16050168D01*
X38665033Y16113000D01*
X38342967Y16113000D01*
X38027088Y16050168D01*
X37729537Y15926918D01*
X37461748Y15747987D01*
X37234013Y15520252D01*
X37055082Y15252463D01*
X36931832Y14954912D01*
X36869000Y14639033D01*
X33639000Y14639033D01*
X33576168Y14954912D01*
X33452918Y15252463D01*
X33273987Y15520252D01*
X33046252Y15747987D01*
X32778463Y15926918D01*
X32480912Y16050168D01*
X32165033Y16113000D01*
X31842967Y16113000D01*
X31527088Y16050168D01*
X31229537Y15926918D01*
X30961748Y15747987D01*
X30734013Y15520252D01*
X30555082Y15252463D01*
X30431832Y14954912D01*
X30369000Y14639033D01*
X29591000Y14639033D01*
X29591000Y17842587D01*
X31048192Y17842587D01*
X31143956Y17578186D01*
X31433571Y17437296D01*
X31745108Y17355616D01*
X32066595Y17336282D01*
X32385675Y17380039D01*
X32690088Y17485205D01*
X32864044Y17578186D01*
X32959808Y17842587D01*
X37548192Y17842587D01*
X37643956Y17578186D01*
X37933571Y17437296D01*
X38245108Y17355616D01*
X38566595Y17336282D01*
X38885675Y17380039D01*
X39190088Y17485205D01*
X39364044Y17578186D01*
X39459808Y17842587D01*
X38504000Y18798395D01*
X37548192Y17842587D01*
X32959808Y17842587D01*
X32004000Y18798395D01*
X31048192Y17842587D01*
X29591000Y17842587D01*
X29591000Y18915405D01*
X30362282Y18915405D01*
X30406039Y18596325D01*
X30511205Y18291912D01*
X30604186Y18117956D01*
X30868587Y18022192D01*
X31824395Y18978000D01*
X32183605Y18978000D01*
X33139413Y18022192D01*
X33403814Y18117956D01*
X33544704Y18407571D01*
X33626384Y18719108D01*
X33638189Y18915405D01*
X36862282Y18915405D01*
X36906039Y18596325D01*
X37011205Y18291912D01*
X37104186Y18117956D01*
X37368587Y18022192D01*
X38324395Y18978000D01*
X38683605Y18978000D01*
X39639413Y18022192D01*
X39903814Y18117956D01*
X40044704Y18407571D01*
X40126384Y18719108D01*
X40145718Y19040595D01*
X40101961Y19359675D01*
X39996795Y19664088D01*
X39903814Y19838044D01*
X39639413Y19933808D01*
X38683605Y18978000D01*
X38324395Y18978000D01*
X37368587Y19933808D01*
X37104186Y19838044D01*
X36963296Y19548429D01*
X36881616Y19236892D01*
X36862282Y18915405D01*
X33638189Y18915405D01*
X33645718Y19040595D01*
X33601961Y19359675D01*
X33496795Y19664088D01*
X33403814Y19838044D01*
X33139413Y19933808D01*
X32183605Y18978000D01*
X31824395Y18978000D01*
X30868587Y19933808D01*
X30604186Y19838044D01*
X30463296Y19548429D01*
X30381616Y19236892D01*
X30362282Y18915405D01*
X29591000Y18915405D01*
X29591000Y20400912D01*
X29644183Y20406150D01*
X29696433Y20422000D01*
X31226623Y20422000D01*
X31143956Y20377814D01*
G36*
X-21095400Y-22341486D02*
G01*
X-21095399Y-26601961D01*
X-21102100Y-26670000D01*
X-21075360Y-26941507D01*
X-20996164Y-27202580D01*
X-20867556Y-27443188D01*
X-20737852Y-27601233D01*
X-20737849Y-27601236D01*
X-20694480Y-27654081D01*
X-20641636Y-27697449D01*
X-20170085Y-28169000D01*
X-21002542Y-28169000D01*
X-21001174Y-28165698D01*
X-20961400Y-27965739D01*
X-20961400Y-27761861D01*
X-21001174Y-27561902D01*
X-21079195Y-27373544D01*
X-21192463Y-27204026D01*
X-21336626Y-27059863D01*
X-21506144Y-26946595D01*
X-21694502Y-26868574D01*
X-21894461Y-26828800D01*
X-22098339Y-26828800D01*
X-22298298Y-26868574D01*
X-22486656Y-26946595D01*
X-22656174Y-27059863D01*
X-22738110Y-27141799D01*
X-23057905Y-27141799D01*
X-22947296Y-26914429D01*
X-22865616Y-26602892D01*
X-22846282Y-26281405D01*
X-22890039Y-25962325D01*
X-22995205Y-25657912D01*
X-23088186Y-25483956D01*
X-23352587Y-25388192D01*
X-24308395Y-26344000D01*
X-24294252Y-26358143D01*
X-24473857Y-26537748D01*
X-24488000Y-26523605D01*
X-24502142Y-26537748D01*
X-24681747Y-26358143D01*
X-24667605Y-26344000D01*
X-25623413Y-25388192D01*
X-25887814Y-25483956D01*
X-26028704Y-25773571D01*
X-26110384Y-26085108D01*
X-26129718Y-26406595D01*
X-26085961Y-26725675D01*
X-25980795Y-27030088D01*
X-25921084Y-27141799D01*
X-29557905Y-27141799D01*
X-29447296Y-26914429D01*
X-29365616Y-26602892D01*
X-29346282Y-26281405D01*
X-29390039Y-25962325D01*
X-29495205Y-25657912D01*
X-29588186Y-25483956D01*
X-29852587Y-25388192D01*
X-30808395Y-26344000D01*
X-30794252Y-26358143D01*
X-30973857Y-26537748D01*
X-30988000Y-26523605D01*
X-31002142Y-26537748D01*
X-31181747Y-26358143D01*
X-31167605Y-26344000D01*
X-32123413Y-25388192D01*
X-32387814Y-25483956D01*
X-32528704Y-25773571D01*
X-32610384Y-26085108D01*
X-32629718Y-26406595D01*
X-32585961Y-26725675D01*
X-32480795Y-27030088D01*
X-32421084Y-27141799D01*
X-36030000Y-27141799D01*
X-36030000Y-26960465D01*
X-36085147Y-26683226D01*
X-36193320Y-26422073D01*
X-36350363Y-26187041D01*
X-36550241Y-25987163D01*
X-36785273Y-25830120D01*
X-36795865Y-25825733D01*
X-36609869Y-25714185D01*
X-36401481Y-25525214D01*
X-36233963Y-25299220D01*
X-36191126Y-25208587D01*
X-31943808Y-25208587D01*
X-30988000Y-26164395D01*
X-30032192Y-25208587D01*
X-25443808Y-25208587D01*
X-24488000Y-26164395D01*
X-23532192Y-25208587D01*
X-23627956Y-24944186D01*
X-23917571Y-24803296D01*
X-24229108Y-24721616D01*
X-24550595Y-24702282D01*
X-24869675Y-24746039D01*
X-25174088Y-24851205D01*
X-25348044Y-24944186D01*
X-25443808Y-25208587D01*
X-30032192Y-25208587D01*
X-30127956Y-24944186D01*
X-30417571Y-24803296D01*
X-30729108Y-24721616D01*
X-31050595Y-24702282D01*
X-31369675Y-24746039D01*
X-31674088Y-24851205D01*
X-31848044Y-24944186D01*
X-31943808Y-25208587D01*
X-36191126Y-25208587D01*
X-36113754Y-25044887D01*
X-36073096Y-24910839D01*
X-36195085Y-24688800D01*
X-37253877Y-24688800D01*
X-37258093Y-24434800D01*
X-36195085Y-24434800D01*
X-36073096Y-24212761D01*
X-36113754Y-24078713D01*
X-36233963Y-23824380D01*
X-36401481Y-23598386D01*
X-36609869Y-23409415D01*
X-36851119Y-23264730D01*
X-37115960Y-23169891D01*
X-37277621Y-23258195D01*
X-37285090Y-22808218D01*
X-34720591Y-22783794D01*
X-34695838Y-22781118D01*
X-34672084Y-22773665D01*
X-34650240Y-22761720D01*
X-34631146Y-22745743D01*
X-34615536Y-22726349D01*
X-34604010Y-22704281D01*
X-34597824Y-22684350D01*
X-34391001Y-21753645D01*
X-33545384Y-21753645D01*
X-33477355Y-21760345D01*
X-33409326Y-21753645D01*
X-33409318Y-21753645D01*
X-33205848Y-21733605D01*
X-32944774Y-21654409D01*
X-32704167Y-21525802D01*
X-32677169Y-21503645D01*
X-32587331Y-21503645D01*
X-32623000Y-21682967D01*
X-32623000Y-22005033D01*
X-32560168Y-22320912D01*
X-32436918Y-22618463D01*
X-32257987Y-22886252D01*
X-32030252Y-23113987D01*
X-31762463Y-23292918D01*
X-31464912Y-23416168D01*
X-31149033Y-23479000D01*
X-30826967Y-23479000D01*
X-30511088Y-23416168D01*
X-30213537Y-23292918D01*
X-29945748Y-23113987D01*
X-29718013Y-22886252D01*
X-29539082Y-22618463D01*
X-29533091Y-22604000D01*
X-25942909Y-22604000D01*
X-25936918Y-22618463D01*
X-25757987Y-22886252D01*
X-25530252Y-23113987D01*
X-25262463Y-23292918D01*
X-24964912Y-23416168D01*
X-24649033Y-23479000D01*
X-24326967Y-23479000D01*
X-24011088Y-23416168D01*
X-23713537Y-23292918D01*
X-23445748Y-23113987D01*
X-23218013Y-22886252D01*
X-23039082Y-22618463D01*
X-22915832Y-22320912D01*
X-22853000Y-22005033D01*
X-22853000Y-21682967D01*
X-22915832Y-21367088D01*
X-22952320Y-21278999D01*
X-22157886Y-21278999D01*
X-21095400Y-22341486D01*
G37*
X-21095400Y-22341486D02*
X-21095399Y-26601961D01*
X-21102100Y-26670000D01*
X-21075360Y-26941507D01*
X-20996164Y-27202580D01*
X-20867556Y-27443188D01*
X-20737852Y-27601233D01*
X-20737849Y-27601236D01*
X-20694480Y-27654081D01*
X-20641636Y-27697449D01*
X-20170085Y-28169000D01*
X-21002542Y-28169000D01*
X-21001174Y-28165698D01*
X-20961400Y-27965739D01*
X-20961400Y-27761861D01*
X-21001174Y-27561902D01*
X-21079195Y-27373544D01*
X-21192463Y-27204026D01*
X-21336626Y-27059863D01*
X-21506144Y-26946595D01*
X-21694502Y-26868574D01*
X-21894461Y-26828800D01*
X-22098339Y-26828800D01*
X-22298298Y-26868574D01*
X-22486656Y-26946595D01*
X-22656174Y-27059863D01*
X-22738110Y-27141799D01*
X-23057905Y-27141799D01*
X-22947296Y-26914429D01*
X-22865616Y-26602892D01*
X-22846282Y-26281405D01*
X-22890039Y-25962325D01*
X-22995205Y-25657912D01*
X-23088186Y-25483956D01*
X-23352587Y-25388192D01*
X-24308395Y-26344000D01*
X-24294252Y-26358143D01*
X-24473857Y-26537748D01*
X-24488000Y-26523605D01*
X-24502142Y-26537748D01*
X-24681747Y-26358143D01*
X-24667605Y-26344000D01*
X-25623413Y-25388192D01*
X-25887814Y-25483956D01*
X-26028704Y-25773571D01*
X-26110384Y-26085108D01*
X-26129718Y-26406595D01*
X-26085961Y-26725675D01*
X-25980795Y-27030088D01*
X-25921084Y-27141799D01*
X-29557905Y-27141799D01*
X-29447296Y-26914429D01*
X-29365616Y-26602892D01*
X-29346282Y-26281405D01*
X-29390039Y-25962325D01*
X-29495205Y-25657912D01*
X-29588186Y-25483956D01*
X-29852587Y-25388192D01*
X-30808395Y-26344000D01*
X-30794252Y-26358143D01*
X-30973857Y-26537748D01*
X-30988000Y-26523605D01*
X-31002142Y-26537748D01*
X-31181747Y-26358143D01*
X-31167605Y-26344000D01*
X-32123413Y-25388192D01*
X-32387814Y-25483956D01*
X-32528704Y-25773571D01*
X-32610384Y-26085108D01*
X-32629718Y-26406595D01*
X-32585961Y-26725675D01*
X-32480795Y-27030088D01*
X-32421084Y-27141799D01*
X-36030000Y-27141799D01*
X-36030000Y-26960465D01*
X-36085147Y-26683226D01*
X-36193320Y-26422073D01*
X-36350363Y-26187041D01*
X-36550241Y-25987163D01*
X-36785273Y-25830120D01*
X-36795865Y-25825733D01*
X-36609869Y-25714185D01*
X-36401481Y-25525214D01*
X-36233963Y-25299220D01*
X-36191126Y-25208587D01*
X-31943808Y-25208587D01*
X-30988000Y-26164395D01*
X-30032192Y-25208587D01*
X-25443808Y-25208587D01*
X-24488000Y-26164395D01*
X-23532192Y-25208587D01*
X-23627956Y-24944186D01*
X-23917571Y-24803296D01*
X-24229108Y-24721616D01*
X-24550595Y-24702282D01*
X-24869675Y-24746039D01*
X-25174088Y-24851205D01*
X-25348044Y-24944186D01*
X-25443808Y-25208587D01*
X-30032192Y-25208587D01*
X-30127956Y-24944186D01*
X-30417571Y-24803296D01*
X-30729108Y-24721616D01*
X-31050595Y-24702282D01*
X-31369675Y-24746039D01*
X-31674088Y-24851205D01*
X-31848044Y-24944186D01*
X-31943808Y-25208587D01*
X-36191126Y-25208587D01*
X-36113754Y-25044887D01*
X-36073096Y-24910839D01*
X-36195085Y-24688800D01*
X-37253877Y-24688800D01*
X-37258093Y-24434800D01*
X-36195085Y-24434800D01*
X-36073096Y-24212761D01*
X-36113754Y-24078713D01*
X-36233963Y-23824380D01*
X-36401481Y-23598386D01*
X-36609869Y-23409415D01*
X-36851119Y-23264730D01*
X-37115960Y-23169891D01*
X-37277621Y-23258195D01*
X-37285090Y-22808218D01*
X-34720591Y-22783794D01*
X-34695838Y-22781118D01*
X-34672084Y-22773665D01*
X-34650240Y-22761720D01*
X-34631146Y-22745743D01*
X-34615536Y-22726349D01*
X-34604010Y-22704281D01*
X-34597824Y-22684350D01*
X-34391001Y-21753645D01*
X-33545384Y-21753645D01*
X-33477355Y-21760345D01*
X-33409326Y-21753645D01*
X-33409318Y-21753645D01*
X-33205848Y-21733605D01*
X-32944774Y-21654409D01*
X-32704167Y-21525802D01*
X-32677169Y-21503645D01*
X-32587331Y-21503645D01*
X-32623000Y-21682967D01*
X-32623000Y-22005033D01*
X-32560168Y-22320912D01*
X-32436918Y-22618463D01*
X-32257987Y-22886252D01*
X-32030252Y-23113987D01*
X-31762463Y-23292918D01*
X-31464912Y-23416168D01*
X-31149033Y-23479000D01*
X-30826967Y-23479000D01*
X-30511088Y-23416168D01*
X-30213537Y-23292918D01*
X-29945748Y-23113987D01*
X-29718013Y-22886252D01*
X-29539082Y-22618463D01*
X-29533091Y-22604000D01*
X-25942909Y-22604000D01*
X-25936918Y-22618463D01*
X-25757987Y-22886252D01*
X-25530252Y-23113987D01*
X-25262463Y-23292918D01*
X-24964912Y-23416168D01*
X-24649033Y-23479000D01*
X-24326967Y-23479000D01*
X-24011088Y-23416168D01*
X-23713537Y-23292918D01*
X-23445748Y-23113987D01*
X-23218013Y-22886252D01*
X-23039082Y-22618463D01*
X-22915832Y-22320912D01*
X-22853000Y-22005033D01*
X-22853000Y-21682967D01*
X-22915832Y-21367088D01*
X-22952320Y-21278999D01*
X-22157886Y-21278999D01*
X-21095400Y-22341486D01*
G36*
X3843400Y-26361890D02*
G01*
X3722543Y-26482748D01*
X3708400Y-26468605D01*
X3694258Y-26482748D01*
X3573400Y-26361890D01*
X3573400Y-26223999D01*
X3843400Y-26223999D01*
X3843400Y-26361890D01*
G37*
X3843400Y-26361890D02*
X3722543Y-26482748D01*
X3708400Y-26468605D01*
X3694258Y-26482748D01*
X3573400Y-26361890D01*
X3573400Y-26223999D01*
X3843400Y-26223999D01*
X3843400Y-26361890D01*
G36*
X35568000Y-17961110D02*
G01*
X35568000Y-18029049D01*
X35562509Y-18084800D01*
X35564982Y-18109908D01*
X35447143Y-18227748D01*
X35433000Y-18213605D01*
X35418858Y-18227748D01*
X35298000Y-18106890D01*
X35298000Y-17961110D01*
X35418858Y-17840253D01*
X35433000Y-17854395D01*
X35447143Y-17840253D01*
X35568000Y-17961110D01*
G37*
X35568000Y-17961110D02*
X35568000Y-18029049D01*
X35562509Y-18084800D01*
X35564982Y-18109908D01*
X35447143Y-18227748D01*
X35433000Y-18213605D01*
X35418858Y-18227748D01*
X35298000Y-18106890D01*
X35298000Y-17961110D01*
X35418858Y-17840253D01*
X35433000Y-17854395D01*
X35447143Y-17840253D01*
X35568000Y-17961110D01*
G36*
X-28744800Y-17453110D02*
G01*
X-28744800Y-17591001D01*
X-29014800Y-17591001D01*
X-29014800Y-17453110D01*
X-28893942Y-17332253D01*
X-28879800Y-17346395D01*
X-28865657Y-17332253D01*
X-28744800Y-17453110D01*
G37*
X-28744800Y-17453110D02*
X-28744800Y-17591001D01*
X-29014800Y-17591001D01*
X-29014800Y-17453110D01*
X-28893942Y-17332253D01*
X-28879800Y-17346395D01*
X-28865657Y-17332253D01*
X-28744800Y-17453110D01*
G36*
X29987033Y-285937D02*
G01*
X30156551Y-399205D01*
X30344909Y-477226D01*
X30544868Y-517000D01*
X30666199Y-517000D01*
X29657199Y-1526000D01*
X16825634Y-1526000D01*
X16829672Y-1485000D01*
X16829672Y-219999D01*
X29921095Y-219999D01*
X29987033Y-285937D01*
G37*
X29987033Y-285937D02*
X30156551Y-399205D01*
X30344909Y-477226D01*
X30544868Y-517000D01*
X30666199Y-517000D01*
X29657199Y-1526000D01*
X16825634Y-1526000D01*
X16829672Y-1485000D01*
X16829672Y-219999D01*
X29921095Y-219999D01*
X29987033Y-285937D01*
M02*
