G04 #@! TF.GenerationSoftware,KiCad,Pcbnew,(5.1.5)-3*
G04 #@! TF.CreationDate,2020-02-08T14:47:08+01:00*
G04 #@! TF.ProjectId,SenseEHajo,53656e73-6545-4486-916a-6f2e6b696361,rev?*
G04 #@! TF.SameCoordinates,PX55061d0PY277be90*
G04 #@! TF.FileFunction,Paste,Top*
G04 #@! TF.FilePolarity,Positive*
%FSLAX46Y46*%
G04 Gerber Fmt 4.6, Leading zero omitted, Abs format (unit mm)*
G04 Created by KiCad (PCBNEW (5.1.5)-3) date 2020-02-08 14:47:08*
%MOMM*%
%LPD*%
G04 APERTURE LIST*
%ADD10C,0.050000*%
%ADD11C,0.150000*%
%ADD12R,1.560000X0.650000*%
%ADD13R,0.900000X1.200000*%
%ADD14R,1.300000X3.400000*%
%ADD15R,2.000000X1.500000*%
%ADD16R,2.000000X3.800000*%
%ADD17R,1.450000X0.450000*%
%ADD18R,5.000000X5.000000*%
%ADD19R,0.900000X2.000000*%
%ADD20R,2.000000X0.900000*%
%ADD21R,0.650000X1.560000*%
%ADD22R,0.900000X0.800000*%
%ADD23R,4.600000X1.100000*%
%ADD24R,4.550000X5.250000*%
%ADD25R,5.250000X4.550000*%
%ADD26R,1.100000X4.600000*%
%ADD27R,0.650000X1.060000*%
G04 APERTURE END LIST*
D10*
X-51054000Y-28829000D02*
X-42392600Y-28829000D01*
X-40081200Y-21894800D02*
X-40081200Y-28829000D01*
X-42392600Y-21894800D02*
X-40081200Y-21894800D01*
X-42392600Y-28829000D02*
X-42392600Y-21894800D01*
X29514800Y21056600D02*
X29489400Y21082000D01*
X25425400Y21056600D02*
X29514800Y21056600D01*
X23266400Y5207000D02*
X31521400Y5207000D01*
X29489400Y21082000D02*
X64008000Y21082000D01*
X-12446000Y1143000D02*
X31521400Y1143000D01*
X23266400Y5207000D02*
X-12446000Y5207000D01*
X74930000Y-13970000D02*
X59944000Y-28956000D01*
X-16510000Y-35814000D02*
X-16510000Y-28829000D01*
X64008000Y21082000D02*
X64008000Y18034000D01*
X64008000Y18034000D02*
X74930000Y18034000D01*
X25527000Y-35814000D02*
X-16510000Y-35814000D01*
X-66040000Y-13843000D02*
X-66040000Y18288000D01*
X74930000Y10414000D02*
X68072000Y10414000D01*
X74930000Y-7874000D02*
X74930000Y-13970000D01*
X68072000Y-7874000D02*
X74930000Y-7874000D01*
X68072000Y10414000D02*
X68072000Y-7874000D01*
X74930000Y18034000D02*
X74930000Y10414000D01*
X31521400Y5207000D02*
G75*
G02X31521400Y1143000I0J-2032000D01*
G01*
X-12446000Y1143000D02*
X-22479000Y1143000D01*
X-22479000Y5207000D02*
X-12446000Y5207000D01*
X-22479000Y1143000D02*
G75*
G02X-22479000Y5207000I0J2032000D01*
G01*
X-51054000Y-28829000D02*
X-66040000Y-13843000D01*
X-16510000Y-28829000D02*
X-40081200Y-28829000D01*
X25527000Y-28956000D02*
X25527000Y-35814000D01*
X-55118000Y18288000D02*
X-55118000Y21082000D01*
X-66040000Y18288000D02*
X-55118000Y18288000D01*
X25425400Y21056600D02*
X-55118000Y21082000D01*
X59944000Y-28956000D02*
X25527000Y-28956000D01*
D11*
G36*
X-11639295Y-22415204D02*
G01*
X-11615027Y-22418804D01*
X-11591228Y-22424765D01*
X-11568129Y-22433030D01*
X-11545950Y-22443520D01*
X-11524907Y-22456132D01*
X-11505201Y-22470747D01*
X-11487023Y-22487223D01*
X-11470547Y-22505401D01*
X-11455932Y-22525107D01*
X-11443320Y-22546150D01*
X-11432830Y-22568329D01*
X-11424565Y-22591428D01*
X-11418604Y-22615227D01*
X-11415004Y-22639495D01*
X-11413800Y-22663999D01*
X-11413800Y-23564001D01*
X-11415004Y-23588505D01*
X-11418604Y-23612773D01*
X-11424565Y-23636572D01*
X-11432830Y-23659671D01*
X-11443320Y-23681850D01*
X-11455932Y-23702893D01*
X-11470547Y-23722599D01*
X-11487023Y-23740777D01*
X-11505201Y-23757253D01*
X-11524907Y-23771868D01*
X-11545950Y-23784480D01*
X-11568129Y-23794970D01*
X-11591228Y-23803235D01*
X-11615027Y-23809196D01*
X-11639295Y-23812796D01*
X-11663799Y-23814000D01*
X-12313801Y-23814000D01*
X-12338305Y-23812796D01*
X-12362573Y-23809196D01*
X-12386372Y-23803235D01*
X-12409471Y-23794970D01*
X-12431650Y-23784480D01*
X-12452693Y-23771868D01*
X-12472399Y-23757253D01*
X-12490577Y-23740777D01*
X-12507053Y-23722599D01*
X-12521668Y-23702893D01*
X-12534280Y-23681850D01*
X-12544770Y-23659671D01*
X-12553035Y-23636572D01*
X-12558996Y-23612773D01*
X-12562596Y-23588505D01*
X-12563800Y-23564001D01*
X-12563800Y-22663999D01*
X-12562596Y-22639495D01*
X-12558996Y-22615227D01*
X-12553035Y-22591428D01*
X-12544770Y-22568329D01*
X-12534280Y-22546150D01*
X-12521668Y-22525107D01*
X-12507053Y-22505401D01*
X-12490577Y-22487223D01*
X-12472399Y-22470747D01*
X-12452693Y-22456132D01*
X-12431650Y-22443520D01*
X-12409471Y-22433030D01*
X-12386372Y-22424765D01*
X-12362573Y-22418804D01*
X-12338305Y-22415204D01*
X-12313801Y-22414000D01*
X-11663799Y-22414000D01*
X-11639295Y-22415204D01*
G37*
G36*
X-13689295Y-22415204D02*
G01*
X-13665027Y-22418804D01*
X-13641228Y-22424765D01*
X-13618129Y-22433030D01*
X-13595950Y-22443520D01*
X-13574907Y-22456132D01*
X-13555201Y-22470747D01*
X-13537023Y-22487223D01*
X-13520547Y-22505401D01*
X-13505932Y-22525107D01*
X-13493320Y-22546150D01*
X-13482830Y-22568329D01*
X-13474565Y-22591428D01*
X-13468604Y-22615227D01*
X-13465004Y-22639495D01*
X-13463800Y-22663999D01*
X-13463800Y-23564001D01*
X-13465004Y-23588505D01*
X-13468604Y-23612773D01*
X-13474565Y-23636572D01*
X-13482830Y-23659671D01*
X-13493320Y-23681850D01*
X-13505932Y-23702893D01*
X-13520547Y-23722599D01*
X-13537023Y-23740777D01*
X-13555201Y-23757253D01*
X-13574907Y-23771868D01*
X-13595950Y-23784480D01*
X-13618129Y-23794970D01*
X-13641228Y-23803235D01*
X-13665027Y-23809196D01*
X-13689295Y-23812796D01*
X-13713799Y-23814000D01*
X-14363801Y-23814000D01*
X-14388305Y-23812796D01*
X-14412573Y-23809196D01*
X-14436372Y-23803235D01*
X-14459471Y-23794970D01*
X-14481650Y-23784480D01*
X-14502693Y-23771868D01*
X-14522399Y-23757253D01*
X-14540577Y-23740777D01*
X-14557053Y-23722599D01*
X-14571668Y-23702893D01*
X-14584280Y-23681850D01*
X-14594770Y-23659671D01*
X-14603035Y-23636572D01*
X-14608996Y-23612773D01*
X-14612596Y-23588505D01*
X-14613800Y-23564001D01*
X-14613800Y-22663999D01*
X-14612596Y-22639495D01*
X-14608996Y-22615227D01*
X-14603035Y-22591428D01*
X-14594770Y-22568329D01*
X-14584280Y-22546150D01*
X-14571668Y-22525107D01*
X-14557053Y-22505401D01*
X-14540577Y-22487223D01*
X-14522399Y-22470747D01*
X-14502693Y-22456132D01*
X-14481650Y-22443520D01*
X-14459471Y-22433030D01*
X-14436372Y-22424765D01*
X-14412573Y-22418804D01*
X-14388305Y-22415204D01*
X-14363801Y-22414000D01*
X-13713799Y-22414000D01*
X-13689295Y-22415204D01*
G37*
G36*
X66305905Y15151396D02*
G01*
X66330173Y15147796D01*
X66353972Y15141835D01*
X66377071Y15133570D01*
X66399250Y15123080D01*
X66420293Y15110468D01*
X66439999Y15095853D01*
X66458177Y15079377D01*
X66474653Y15061199D01*
X66489268Y15041493D01*
X66501880Y15020450D01*
X66512370Y14998271D01*
X66520635Y14975172D01*
X66526596Y14951373D01*
X66530196Y14927105D01*
X66531400Y14902601D01*
X66531400Y14002599D01*
X66530196Y13978095D01*
X66526596Y13953827D01*
X66520635Y13930028D01*
X66512370Y13906929D01*
X66501880Y13884750D01*
X66489268Y13863707D01*
X66474653Y13844001D01*
X66458177Y13825823D01*
X66439999Y13809347D01*
X66420293Y13794732D01*
X66399250Y13782120D01*
X66377071Y13771630D01*
X66353972Y13763365D01*
X66330173Y13757404D01*
X66305905Y13753804D01*
X66281401Y13752600D01*
X65631399Y13752600D01*
X65606895Y13753804D01*
X65582627Y13757404D01*
X65558828Y13763365D01*
X65535729Y13771630D01*
X65513550Y13782120D01*
X65492507Y13794732D01*
X65472801Y13809347D01*
X65454623Y13825823D01*
X65438147Y13844001D01*
X65423532Y13863707D01*
X65410920Y13884750D01*
X65400430Y13906929D01*
X65392165Y13930028D01*
X65386204Y13953827D01*
X65382604Y13978095D01*
X65381400Y14002599D01*
X65381400Y14902601D01*
X65382604Y14927105D01*
X65386204Y14951373D01*
X65392165Y14975172D01*
X65400430Y14998271D01*
X65410920Y15020450D01*
X65423532Y15041493D01*
X65438147Y15061199D01*
X65454623Y15079377D01*
X65472801Y15095853D01*
X65492507Y15110468D01*
X65513550Y15123080D01*
X65535729Y15133570D01*
X65558828Y15141835D01*
X65582627Y15147796D01*
X65606895Y15151396D01*
X65631399Y15152600D01*
X66281401Y15152600D01*
X66305905Y15151396D01*
G37*
G36*
X64255905Y15151396D02*
G01*
X64280173Y15147796D01*
X64303972Y15141835D01*
X64327071Y15133570D01*
X64349250Y15123080D01*
X64370293Y15110468D01*
X64389999Y15095853D01*
X64408177Y15079377D01*
X64424653Y15061199D01*
X64439268Y15041493D01*
X64451880Y15020450D01*
X64462370Y14998271D01*
X64470635Y14975172D01*
X64476596Y14951373D01*
X64480196Y14927105D01*
X64481400Y14902601D01*
X64481400Y14002599D01*
X64480196Y13978095D01*
X64476596Y13953827D01*
X64470635Y13930028D01*
X64462370Y13906929D01*
X64451880Y13884750D01*
X64439268Y13863707D01*
X64424653Y13844001D01*
X64408177Y13825823D01*
X64389999Y13809347D01*
X64370293Y13794732D01*
X64349250Y13782120D01*
X64327071Y13771630D01*
X64303972Y13763365D01*
X64280173Y13757404D01*
X64255905Y13753804D01*
X64231401Y13752600D01*
X63581399Y13752600D01*
X63556895Y13753804D01*
X63532627Y13757404D01*
X63508828Y13763365D01*
X63485729Y13771630D01*
X63463550Y13782120D01*
X63442507Y13794732D01*
X63422801Y13809347D01*
X63404623Y13825823D01*
X63388147Y13844001D01*
X63373532Y13863707D01*
X63360920Y13884750D01*
X63350430Y13906929D01*
X63342165Y13930028D01*
X63336204Y13953827D01*
X63332604Y13978095D01*
X63331400Y14002599D01*
X63331400Y14902601D01*
X63332604Y14927105D01*
X63336204Y14951373D01*
X63342165Y14975172D01*
X63350430Y14998271D01*
X63360920Y15020450D01*
X63373532Y15041493D01*
X63388147Y15061199D01*
X63404623Y15079377D01*
X63422801Y15095853D01*
X63442507Y15110468D01*
X63463550Y15123080D01*
X63485729Y15133570D01*
X63508828Y15141835D01*
X63532627Y15147796D01*
X63556895Y15151396D01*
X63581399Y15152600D01*
X64231401Y15152600D01*
X64255905Y15151396D01*
G37*
G36*
X66296905Y17132596D02*
G01*
X66321173Y17128996D01*
X66344972Y17123035D01*
X66368071Y17114770D01*
X66390250Y17104280D01*
X66411293Y17091668D01*
X66430999Y17077053D01*
X66449177Y17060577D01*
X66465653Y17042399D01*
X66480268Y17022693D01*
X66492880Y17001650D01*
X66503370Y16979471D01*
X66511635Y16956372D01*
X66517596Y16932573D01*
X66521196Y16908305D01*
X66522400Y16883801D01*
X66522400Y15983799D01*
X66521196Y15959295D01*
X66517596Y15935027D01*
X66511635Y15911228D01*
X66503370Y15888129D01*
X66492880Y15865950D01*
X66480268Y15844907D01*
X66465653Y15825201D01*
X66449177Y15807023D01*
X66430999Y15790547D01*
X66411293Y15775932D01*
X66390250Y15763320D01*
X66368071Y15752830D01*
X66344972Y15744565D01*
X66321173Y15738604D01*
X66296905Y15735004D01*
X66272401Y15733800D01*
X65622399Y15733800D01*
X65597895Y15735004D01*
X65573627Y15738604D01*
X65549828Y15744565D01*
X65526729Y15752830D01*
X65504550Y15763320D01*
X65483507Y15775932D01*
X65463801Y15790547D01*
X65445623Y15807023D01*
X65429147Y15825201D01*
X65414532Y15844907D01*
X65401920Y15865950D01*
X65391430Y15888129D01*
X65383165Y15911228D01*
X65377204Y15935027D01*
X65373604Y15959295D01*
X65372400Y15983799D01*
X65372400Y16883801D01*
X65373604Y16908305D01*
X65377204Y16932573D01*
X65383165Y16956372D01*
X65391430Y16979471D01*
X65401920Y17001650D01*
X65414532Y17022693D01*
X65429147Y17042399D01*
X65445623Y17060577D01*
X65463801Y17077053D01*
X65483507Y17091668D01*
X65504550Y17104280D01*
X65526729Y17114770D01*
X65549828Y17123035D01*
X65573627Y17128996D01*
X65597895Y17132596D01*
X65622399Y17133800D01*
X66272401Y17133800D01*
X66296905Y17132596D01*
G37*
G36*
X64246905Y17132596D02*
G01*
X64271173Y17128996D01*
X64294972Y17123035D01*
X64318071Y17114770D01*
X64340250Y17104280D01*
X64361293Y17091668D01*
X64380999Y17077053D01*
X64399177Y17060577D01*
X64415653Y17042399D01*
X64430268Y17022693D01*
X64442880Y17001650D01*
X64453370Y16979471D01*
X64461635Y16956372D01*
X64467596Y16932573D01*
X64471196Y16908305D01*
X64472400Y16883801D01*
X64472400Y15983799D01*
X64471196Y15959295D01*
X64467596Y15935027D01*
X64461635Y15911228D01*
X64453370Y15888129D01*
X64442880Y15865950D01*
X64430268Y15844907D01*
X64415653Y15825201D01*
X64399177Y15807023D01*
X64380999Y15790547D01*
X64361293Y15775932D01*
X64340250Y15763320D01*
X64318071Y15752830D01*
X64294972Y15744565D01*
X64271173Y15738604D01*
X64246905Y15735004D01*
X64222401Y15733800D01*
X63572399Y15733800D01*
X63547895Y15735004D01*
X63523627Y15738604D01*
X63499828Y15744565D01*
X63476729Y15752830D01*
X63454550Y15763320D01*
X63433507Y15775932D01*
X63413801Y15790547D01*
X63395623Y15807023D01*
X63379147Y15825201D01*
X63364532Y15844907D01*
X63351920Y15865950D01*
X63341430Y15888129D01*
X63333165Y15911228D01*
X63327204Y15935027D01*
X63323604Y15959295D01*
X63322400Y15983799D01*
X63322400Y16883801D01*
X63323604Y16908305D01*
X63327204Y16932573D01*
X63333165Y16956372D01*
X63341430Y16979471D01*
X63351920Y17001650D01*
X63364532Y17022693D01*
X63379147Y17042399D01*
X63395623Y17060577D01*
X63413801Y17077053D01*
X63433507Y17091668D01*
X63454550Y17104280D01*
X63476729Y17114770D01*
X63499828Y17123035D01*
X63523627Y17128996D01*
X63547895Y17132596D01*
X63572399Y17133800D01*
X64222401Y17133800D01*
X64246905Y17132596D01*
G37*
G36*
X49625505Y-20002204D02*
G01*
X49649773Y-20005804D01*
X49673572Y-20011765D01*
X49696671Y-20020030D01*
X49718850Y-20030520D01*
X49739893Y-20043132D01*
X49759599Y-20057747D01*
X49777777Y-20074223D01*
X49794253Y-20092401D01*
X49808868Y-20112107D01*
X49821480Y-20133150D01*
X49831970Y-20155329D01*
X49840235Y-20178428D01*
X49846196Y-20202227D01*
X49849796Y-20226495D01*
X49851000Y-20250999D01*
X49851000Y-21151001D01*
X49849796Y-21175505D01*
X49846196Y-21199773D01*
X49840235Y-21223572D01*
X49831970Y-21246671D01*
X49821480Y-21268850D01*
X49808868Y-21289893D01*
X49794253Y-21309599D01*
X49777777Y-21327777D01*
X49759599Y-21344253D01*
X49739893Y-21358868D01*
X49718850Y-21371480D01*
X49696671Y-21381970D01*
X49673572Y-21390235D01*
X49649773Y-21396196D01*
X49625505Y-21399796D01*
X49601001Y-21401000D01*
X48950999Y-21401000D01*
X48926495Y-21399796D01*
X48902227Y-21396196D01*
X48878428Y-21390235D01*
X48855329Y-21381970D01*
X48833150Y-21371480D01*
X48812107Y-21358868D01*
X48792401Y-21344253D01*
X48774223Y-21327777D01*
X48757747Y-21309599D01*
X48743132Y-21289893D01*
X48730520Y-21268850D01*
X48720030Y-21246671D01*
X48711765Y-21223572D01*
X48705804Y-21199773D01*
X48702204Y-21175505D01*
X48701000Y-21151001D01*
X48701000Y-20250999D01*
X48702204Y-20226495D01*
X48705804Y-20202227D01*
X48711765Y-20178428D01*
X48720030Y-20155329D01*
X48730520Y-20133150D01*
X48743132Y-20112107D01*
X48757747Y-20092401D01*
X48774223Y-20074223D01*
X48792401Y-20057747D01*
X48812107Y-20043132D01*
X48833150Y-20030520D01*
X48855329Y-20020030D01*
X48878428Y-20011765D01*
X48902227Y-20005804D01*
X48926495Y-20002204D01*
X48950999Y-20001000D01*
X49601001Y-20001000D01*
X49625505Y-20002204D01*
G37*
G36*
X51675505Y-20002204D02*
G01*
X51699773Y-20005804D01*
X51723572Y-20011765D01*
X51746671Y-20020030D01*
X51768850Y-20030520D01*
X51789893Y-20043132D01*
X51809599Y-20057747D01*
X51827777Y-20074223D01*
X51844253Y-20092401D01*
X51858868Y-20112107D01*
X51871480Y-20133150D01*
X51881970Y-20155329D01*
X51890235Y-20178428D01*
X51896196Y-20202227D01*
X51899796Y-20226495D01*
X51901000Y-20250999D01*
X51901000Y-21151001D01*
X51899796Y-21175505D01*
X51896196Y-21199773D01*
X51890235Y-21223572D01*
X51881970Y-21246671D01*
X51871480Y-21268850D01*
X51858868Y-21289893D01*
X51844253Y-21309599D01*
X51827777Y-21327777D01*
X51809599Y-21344253D01*
X51789893Y-21358868D01*
X51768850Y-21371480D01*
X51746671Y-21381970D01*
X51723572Y-21390235D01*
X51699773Y-21396196D01*
X51675505Y-21399796D01*
X51651001Y-21401000D01*
X51000999Y-21401000D01*
X50976495Y-21399796D01*
X50952227Y-21396196D01*
X50928428Y-21390235D01*
X50905329Y-21381970D01*
X50883150Y-21371480D01*
X50862107Y-21358868D01*
X50842401Y-21344253D01*
X50824223Y-21327777D01*
X50807747Y-21309599D01*
X50793132Y-21289893D01*
X50780520Y-21268850D01*
X50770030Y-21246671D01*
X50761765Y-21223572D01*
X50755804Y-21199773D01*
X50752204Y-21175505D01*
X50751000Y-21151001D01*
X50751000Y-20250999D01*
X50752204Y-20226495D01*
X50755804Y-20202227D01*
X50761765Y-20178428D01*
X50770030Y-20155329D01*
X50780520Y-20133150D01*
X50793132Y-20112107D01*
X50807747Y-20092401D01*
X50824223Y-20074223D01*
X50842401Y-20057747D01*
X50862107Y-20043132D01*
X50883150Y-20030520D01*
X50905329Y-20020030D01*
X50928428Y-20011765D01*
X50952227Y-20005804D01*
X50976495Y-20002204D01*
X51000999Y-20001000D01*
X51651001Y-20001000D01*
X51675505Y-20002204D01*
G37*
D12*
X17035800Y-28178800D03*
X17035800Y-26278800D03*
X19735800Y-26278800D03*
X19735800Y-27228800D03*
X19735800Y-28178800D03*
D13*
X21158200Y-31089600D03*
X24458200Y-31089600D03*
D14*
X19448200Y-31115000D03*
X17348200Y-31115000D03*
D15*
X35305600Y11621800D03*
X35305600Y7021800D03*
X35305600Y9321800D03*
D16*
X41605600Y9321800D03*
D11*
G36*
X-18802095Y-16624004D02*
G01*
X-18777827Y-16627604D01*
X-18754028Y-16633565D01*
X-18730929Y-16641830D01*
X-18708750Y-16652320D01*
X-18687707Y-16664932D01*
X-18668001Y-16679547D01*
X-18649823Y-16696023D01*
X-18633347Y-16714201D01*
X-18618732Y-16733907D01*
X-18606120Y-16754950D01*
X-18595630Y-16777129D01*
X-18587365Y-16800228D01*
X-18581404Y-16824027D01*
X-18577804Y-16848295D01*
X-18576600Y-16872799D01*
X-18576600Y-17772801D01*
X-18577804Y-17797305D01*
X-18581404Y-17821573D01*
X-18587365Y-17845372D01*
X-18595630Y-17868471D01*
X-18606120Y-17890650D01*
X-18618732Y-17911693D01*
X-18633347Y-17931399D01*
X-18649823Y-17949577D01*
X-18668001Y-17966053D01*
X-18687707Y-17980668D01*
X-18708750Y-17993280D01*
X-18730929Y-18003770D01*
X-18754028Y-18012035D01*
X-18777827Y-18017996D01*
X-18802095Y-18021596D01*
X-18826599Y-18022800D01*
X-19476601Y-18022800D01*
X-19501105Y-18021596D01*
X-19525373Y-18017996D01*
X-19549172Y-18012035D01*
X-19572271Y-18003770D01*
X-19594450Y-17993280D01*
X-19615493Y-17980668D01*
X-19635199Y-17966053D01*
X-19653377Y-17949577D01*
X-19669853Y-17931399D01*
X-19684468Y-17911693D01*
X-19697080Y-17890650D01*
X-19707570Y-17868471D01*
X-19715835Y-17845372D01*
X-19721796Y-17821573D01*
X-19725396Y-17797305D01*
X-19726600Y-17772801D01*
X-19726600Y-16872799D01*
X-19725396Y-16848295D01*
X-19721796Y-16824027D01*
X-19715835Y-16800228D01*
X-19707570Y-16777129D01*
X-19697080Y-16754950D01*
X-19684468Y-16733907D01*
X-19669853Y-16714201D01*
X-19653377Y-16696023D01*
X-19635199Y-16679547D01*
X-19615493Y-16664932D01*
X-19594450Y-16652320D01*
X-19572271Y-16641830D01*
X-19549172Y-16633565D01*
X-19525373Y-16627604D01*
X-19501105Y-16624004D01*
X-19476601Y-16622800D01*
X-18826599Y-16622800D01*
X-18802095Y-16624004D01*
G37*
G36*
X-20852095Y-16624004D02*
G01*
X-20827827Y-16627604D01*
X-20804028Y-16633565D01*
X-20780929Y-16641830D01*
X-20758750Y-16652320D01*
X-20737707Y-16664932D01*
X-20718001Y-16679547D01*
X-20699823Y-16696023D01*
X-20683347Y-16714201D01*
X-20668732Y-16733907D01*
X-20656120Y-16754950D01*
X-20645630Y-16777129D01*
X-20637365Y-16800228D01*
X-20631404Y-16824027D01*
X-20627804Y-16848295D01*
X-20626600Y-16872799D01*
X-20626600Y-17772801D01*
X-20627804Y-17797305D01*
X-20631404Y-17821573D01*
X-20637365Y-17845372D01*
X-20645630Y-17868471D01*
X-20656120Y-17890650D01*
X-20668732Y-17911693D01*
X-20683347Y-17931399D01*
X-20699823Y-17949577D01*
X-20718001Y-17966053D01*
X-20737707Y-17980668D01*
X-20758750Y-17993280D01*
X-20780929Y-18003770D01*
X-20804028Y-18012035D01*
X-20827827Y-18017996D01*
X-20852095Y-18021596D01*
X-20876599Y-18022800D01*
X-21526601Y-18022800D01*
X-21551105Y-18021596D01*
X-21575373Y-18017996D01*
X-21599172Y-18012035D01*
X-21622271Y-18003770D01*
X-21644450Y-17993280D01*
X-21665493Y-17980668D01*
X-21685199Y-17966053D01*
X-21703377Y-17949577D01*
X-21719853Y-17931399D01*
X-21734468Y-17911693D01*
X-21747080Y-17890650D01*
X-21757570Y-17868471D01*
X-21765835Y-17845372D01*
X-21771796Y-17821573D01*
X-21775396Y-17797305D01*
X-21776600Y-17772801D01*
X-21776600Y-16872799D01*
X-21775396Y-16848295D01*
X-21771796Y-16824027D01*
X-21765835Y-16800228D01*
X-21757570Y-16777129D01*
X-21747080Y-16754950D01*
X-21734468Y-16733907D01*
X-21719853Y-16714201D01*
X-21703377Y-16696023D01*
X-21685199Y-16679547D01*
X-21665493Y-16664932D01*
X-21644450Y-16652320D01*
X-21622271Y-16641830D01*
X-21599172Y-16633565D01*
X-21575373Y-16627604D01*
X-21551105Y-16624004D01*
X-21526601Y-16622800D01*
X-20876599Y-16622800D01*
X-20852095Y-16624004D01*
G37*
D17*
X53194800Y-19074200D03*
X53194800Y-18424200D03*
X53194800Y-17774200D03*
X53194800Y-17124200D03*
X53194800Y-16474200D03*
X53194800Y-15824200D03*
X53194800Y-15174200D03*
X53194800Y-14524200D03*
X53194800Y-13874200D03*
X53194800Y-13224200D03*
X47294800Y-13224200D03*
X47294800Y-13874200D03*
X47294800Y-14524200D03*
X47294800Y-15174200D03*
X47294800Y-15824200D03*
X47294800Y-16474200D03*
X47294800Y-17124200D03*
X47294800Y-17774200D03*
X47294800Y-18424200D03*
X47294800Y-19074200D03*
D18*
X59817000Y2413000D03*
D19*
X67317000Y9913000D03*
X66047000Y9913000D03*
X64777000Y9913000D03*
X63507000Y9913000D03*
X62237000Y9913000D03*
X60967000Y9913000D03*
X59697000Y9913000D03*
X58427000Y9913000D03*
X57157000Y9913000D03*
X55887000Y9913000D03*
X54617000Y9913000D03*
X53347000Y9913000D03*
X52077000Y9913000D03*
X50807000Y9913000D03*
D20*
X49807000Y7128000D03*
X49807000Y5858000D03*
X49807000Y4588000D03*
X49807000Y3318000D03*
X49807000Y2048000D03*
X49807000Y778000D03*
X49807000Y-492000D03*
X49807000Y-1762000D03*
X49807000Y-3032000D03*
X49807000Y-4302000D03*
D19*
X50807000Y-7087000D03*
X52077000Y-7087000D03*
X53347000Y-7087000D03*
X54617000Y-7087000D03*
X55887000Y-7087000D03*
X57157000Y-7087000D03*
X58427000Y-7087000D03*
X59697000Y-7087000D03*
X60967000Y-7087000D03*
X62237000Y-7087000D03*
X63507000Y-7087000D03*
X64777000Y-7087000D03*
X66047000Y-7087000D03*
X67317000Y-7087000D03*
D11*
G36*
X41495505Y20775796D02*
G01*
X41519773Y20772196D01*
X41543572Y20766235D01*
X41566671Y20757970D01*
X41588850Y20747480D01*
X41609893Y20734868D01*
X41629599Y20720253D01*
X41647777Y20703777D01*
X41664253Y20685599D01*
X41678868Y20665893D01*
X41691480Y20644850D01*
X41701970Y20622671D01*
X41710235Y20599572D01*
X41716196Y20575773D01*
X41719796Y20551505D01*
X41721000Y20527001D01*
X41721000Y19876999D01*
X41719796Y19852495D01*
X41716196Y19828227D01*
X41710235Y19804428D01*
X41701970Y19781329D01*
X41691480Y19759150D01*
X41678868Y19738107D01*
X41664253Y19718401D01*
X41647777Y19700223D01*
X41629599Y19683747D01*
X41609893Y19669132D01*
X41588850Y19656520D01*
X41566671Y19646030D01*
X41543572Y19637765D01*
X41519773Y19631804D01*
X41495505Y19628204D01*
X41471001Y19627000D01*
X40570999Y19627000D01*
X40546495Y19628204D01*
X40522227Y19631804D01*
X40498428Y19637765D01*
X40475329Y19646030D01*
X40453150Y19656520D01*
X40432107Y19669132D01*
X40412401Y19683747D01*
X40394223Y19700223D01*
X40377747Y19718401D01*
X40363132Y19738107D01*
X40350520Y19759150D01*
X40340030Y19781329D01*
X40331765Y19804428D01*
X40325804Y19828227D01*
X40322204Y19852495D01*
X40321000Y19876999D01*
X40321000Y20527001D01*
X40322204Y20551505D01*
X40325804Y20575773D01*
X40331765Y20599572D01*
X40340030Y20622671D01*
X40350520Y20644850D01*
X40363132Y20665893D01*
X40377747Y20685599D01*
X40394223Y20703777D01*
X40412401Y20720253D01*
X40432107Y20734868D01*
X40453150Y20747480D01*
X40475329Y20757970D01*
X40498428Y20766235D01*
X40522227Y20772196D01*
X40546495Y20775796D01*
X40570999Y20777000D01*
X41471001Y20777000D01*
X41495505Y20775796D01*
G37*
G36*
X41495505Y18725796D02*
G01*
X41519773Y18722196D01*
X41543572Y18716235D01*
X41566671Y18707970D01*
X41588850Y18697480D01*
X41609893Y18684868D01*
X41629599Y18670253D01*
X41647777Y18653777D01*
X41664253Y18635599D01*
X41678868Y18615893D01*
X41691480Y18594850D01*
X41701970Y18572671D01*
X41710235Y18549572D01*
X41716196Y18525773D01*
X41719796Y18501505D01*
X41721000Y18477001D01*
X41721000Y17826999D01*
X41719796Y17802495D01*
X41716196Y17778227D01*
X41710235Y17754428D01*
X41701970Y17731329D01*
X41691480Y17709150D01*
X41678868Y17688107D01*
X41664253Y17668401D01*
X41647777Y17650223D01*
X41629599Y17633747D01*
X41609893Y17619132D01*
X41588850Y17606520D01*
X41566671Y17596030D01*
X41543572Y17587765D01*
X41519773Y17581804D01*
X41495505Y17578204D01*
X41471001Y17577000D01*
X40570999Y17577000D01*
X40546495Y17578204D01*
X40522227Y17581804D01*
X40498428Y17587765D01*
X40475329Y17596030D01*
X40453150Y17606520D01*
X40432107Y17619132D01*
X40412401Y17633747D01*
X40394223Y17650223D01*
X40377747Y17668401D01*
X40363132Y17688107D01*
X40350520Y17709150D01*
X40340030Y17731329D01*
X40331765Y17754428D01*
X40325804Y17778227D01*
X40322204Y17802495D01*
X40321000Y17826999D01*
X40321000Y18477001D01*
X40322204Y18501505D01*
X40325804Y18525773D01*
X40331765Y18549572D01*
X40340030Y18572671D01*
X40350520Y18594850D01*
X40363132Y18615893D01*
X40377747Y18635599D01*
X40394223Y18653777D01*
X40412401Y18670253D01*
X40432107Y18684868D01*
X40453150Y18697480D01*
X40475329Y18707970D01*
X40498428Y18716235D01*
X40522227Y18722196D01*
X40546495Y18725796D01*
X40570999Y18727000D01*
X41471001Y18727000D01*
X41495505Y18725796D01*
G37*
G36*
X26128505Y-2965804D02*
G01*
X26152773Y-2969404D01*
X26176572Y-2975365D01*
X26199671Y-2983630D01*
X26221850Y-2994120D01*
X26242893Y-3006732D01*
X26262599Y-3021347D01*
X26280777Y-3037823D01*
X26297253Y-3056001D01*
X26311868Y-3075707D01*
X26324480Y-3096750D01*
X26334970Y-3118929D01*
X26343235Y-3142028D01*
X26349196Y-3165827D01*
X26352796Y-3190095D01*
X26354000Y-3214599D01*
X26354000Y-3864601D01*
X26352796Y-3889105D01*
X26349196Y-3913373D01*
X26343235Y-3937172D01*
X26334970Y-3960271D01*
X26324480Y-3982450D01*
X26311868Y-4003493D01*
X26297253Y-4023199D01*
X26280777Y-4041377D01*
X26262599Y-4057853D01*
X26242893Y-4072468D01*
X26221850Y-4085080D01*
X26199671Y-4095570D01*
X26176572Y-4103835D01*
X26152773Y-4109796D01*
X26128505Y-4113396D01*
X26104001Y-4114600D01*
X25203999Y-4114600D01*
X25179495Y-4113396D01*
X25155227Y-4109796D01*
X25131428Y-4103835D01*
X25108329Y-4095570D01*
X25086150Y-4085080D01*
X25065107Y-4072468D01*
X25045401Y-4057853D01*
X25027223Y-4041377D01*
X25010747Y-4023199D01*
X24996132Y-4003493D01*
X24983520Y-3982450D01*
X24973030Y-3960271D01*
X24964765Y-3937172D01*
X24958804Y-3913373D01*
X24955204Y-3889105D01*
X24954000Y-3864601D01*
X24954000Y-3214599D01*
X24955204Y-3190095D01*
X24958804Y-3165827D01*
X24964765Y-3142028D01*
X24973030Y-3118929D01*
X24983520Y-3096750D01*
X24996132Y-3075707D01*
X25010747Y-3056001D01*
X25027223Y-3037823D01*
X25045401Y-3021347D01*
X25065107Y-3006732D01*
X25086150Y-2994120D01*
X25108329Y-2983630D01*
X25131428Y-2975365D01*
X25155227Y-2969404D01*
X25179495Y-2965804D01*
X25203999Y-2964600D01*
X26104001Y-2964600D01*
X26128505Y-2965804D01*
G37*
G36*
X26128505Y-915804D02*
G01*
X26152773Y-919404D01*
X26176572Y-925365D01*
X26199671Y-933630D01*
X26221850Y-944120D01*
X26242893Y-956732D01*
X26262599Y-971347D01*
X26280777Y-987823D01*
X26297253Y-1006001D01*
X26311868Y-1025707D01*
X26324480Y-1046750D01*
X26334970Y-1068929D01*
X26343235Y-1092028D01*
X26349196Y-1115827D01*
X26352796Y-1140095D01*
X26354000Y-1164599D01*
X26354000Y-1814601D01*
X26352796Y-1839105D01*
X26349196Y-1863373D01*
X26343235Y-1887172D01*
X26334970Y-1910271D01*
X26324480Y-1932450D01*
X26311868Y-1953493D01*
X26297253Y-1973199D01*
X26280777Y-1991377D01*
X26262599Y-2007853D01*
X26242893Y-2022468D01*
X26221850Y-2035080D01*
X26199671Y-2045570D01*
X26176572Y-2053835D01*
X26152773Y-2059796D01*
X26128505Y-2063396D01*
X26104001Y-2064600D01*
X25203999Y-2064600D01*
X25179495Y-2063396D01*
X25155227Y-2059796D01*
X25131428Y-2053835D01*
X25108329Y-2045570D01*
X25086150Y-2035080D01*
X25065107Y-2022468D01*
X25045401Y-2007853D01*
X25027223Y-1991377D01*
X25010747Y-1973199D01*
X24996132Y-1953493D01*
X24983520Y-1932450D01*
X24973030Y-1910271D01*
X24964765Y-1887172D01*
X24958804Y-1863373D01*
X24955204Y-1839105D01*
X24954000Y-1814601D01*
X24954000Y-1164599D01*
X24955204Y-1140095D01*
X24958804Y-1115827D01*
X24964765Y-1092028D01*
X24973030Y-1068929D01*
X24983520Y-1046750D01*
X24996132Y-1025707D01*
X25010747Y-1006001D01*
X25027223Y-987823D01*
X25045401Y-971347D01*
X25065107Y-956732D01*
X25086150Y-944120D01*
X25108329Y-933630D01*
X25131428Y-925365D01*
X25155227Y-919404D01*
X25179495Y-915804D01*
X25203999Y-914600D01*
X26104001Y-914600D01*
X26128505Y-915804D01*
G37*
G36*
X26128505Y-6683204D02*
G01*
X26152773Y-6686804D01*
X26176572Y-6692765D01*
X26199671Y-6701030D01*
X26221850Y-6711520D01*
X26242893Y-6724132D01*
X26262599Y-6738747D01*
X26280777Y-6755223D01*
X26297253Y-6773401D01*
X26311868Y-6793107D01*
X26324480Y-6814150D01*
X26334970Y-6836329D01*
X26343235Y-6859428D01*
X26349196Y-6883227D01*
X26352796Y-6907495D01*
X26354000Y-6931999D01*
X26354000Y-7582001D01*
X26352796Y-7606505D01*
X26349196Y-7630773D01*
X26343235Y-7654572D01*
X26334970Y-7677671D01*
X26324480Y-7699850D01*
X26311868Y-7720893D01*
X26297253Y-7740599D01*
X26280777Y-7758777D01*
X26262599Y-7775253D01*
X26242893Y-7789868D01*
X26221850Y-7802480D01*
X26199671Y-7812970D01*
X26176572Y-7821235D01*
X26152773Y-7827196D01*
X26128505Y-7830796D01*
X26104001Y-7832000D01*
X25203999Y-7832000D01*
X25179495Y-7830796D01*
X25155227Y-7827196D01*
X25131428Y-7821235D01*
X25108329Y-7812970D01*
X25086150Y-7802480D01*
X25065107Y-7789868D01*
X25045401Y-7775253D01*
X25027223Y-7758777D01*
X25010747Y-7740599D01*
X24996132Y-7720893D01*
X24983520Y-7699850D01*
X24973030Y-7677671D01*
X24964765Y-7654572D01*
X24958804Y-7630773D01*
X24955204Y-7606505D01*
X24954000Y-7582001D01*
X24954000Y-6931999D01*
X24955204Y-6907495D01*
X24958804Y-6883227D01*
X24964765Y-6859428D01*
X24973030Y-6836329D01*
X24983520Y-6814150D01*
X24996132Y-6793107D01*
X25010747Y-6773401D01*
X25027223Y-6755223D01*
X25045401Y-6738747D01*
X25065107Y-6724132D01*
X25086150Y-6711520D01*
X25108329Y-6701030D01*
X25131428Y-6692765D01*
X25155227Y-6686804D01*
X25179495Y-6683204D01*
X25203999Y-6682000D01*
X26104001Y-6682000D01*
X26128505Y-6683204D01*
G37*
G36*
X26128505Y-4633204D02*
G01*
X26152773Y-4636804D01*
X26176572Y-4642765D01*
X26199671Y-4651030D01*
X26221850Y-4661520D01*
X26242893Y-4674132D01*
X26262599Y-4688747D01*
X26280777Y-4705223D01*
X26297253Y-4723401D01*
X26311868Y-4743107D01*
X26324480Y-4764150D01*
X26334970Y-4786329D01*
X26343235Y-4809428D01*
X26349196Y-4833227D01*
X26352796Y-4857495D01*
X26354000Y-4881999D01*
X26354000Y-5532001D01*
X26352796Y-5556505D01*
X26349196Y-5580773D01*
X26343235Y-5604572D01*
X26334970Y-5627671D01*
X26324480Y-5649850D01*
X26311868Y-5670893D01*
X26297253Y-5690599D01*
X26280777Y-5708777D01*
X26262599Y-5725253D01*
X26242893Y-5739868D01*
X26221850Y-5752480D01*
X26199671Y-5762970D01*
X26176572Y-5771235D01*
X26152773Y-5777196D01*
X26128505Y-5780796D01*
X26104001Y-5782000D01*
X25203999Y-5782000D01*
X25179495Y-5780796D01*
X25155227Y-5777196D01*
X25131428Y-5771235D01*
X25108329Y-5762970D01*
X25086150Y-5752480D01*
X25065107Y-5739868D01*
X25045401Y-5725253D01*
X25027223Y-5708777D01*
X25010747Y-5690599D01*
X24996132Y-5670893D01*
X24983520Y-5649850D01*
X24973030Y-5627671D01*
X24964765Y-5604572D01*
X24958804Y-5580773D01*
X24955204Y-5556505D01*
X24954000Y-5532001D01*
X24954000Y-4881999D01*
X24955204Y-4857495D01*
X24958804Y-4833227D01*
X24964765Y-4809428D01*
X24973030Y-4786329D01*
X24983520Y-4764150D01*
X24996132Y-4743107D01*
X25010747Y-4723401D01*
X25027223Y-4705223D01*
X25045401Y-4688747D01*
X25065107Y-4674132D01*
X25086150Y-4661520D01*
X25108329Y-4651030D01*
X25131428Y-4642765D01*
X25155227Y-4636804D01*
X25179495Y-4633204D01*
X25203999Y-4632000D01*
X26104001Y-4632000D01*
X26128505Y-4633204D01*
G37*
G36*
X64908905Y13170196D02*
G01*
X64933173Y13166596D01*
X64956972Y13160635D01*
X64980071Y13152370D01*
X65002250Y13141880D01*
X65023293Y13129268D01*
X65042999Y13114653D01*
X65061177Y13098177D01*
X65077653Y13079999D01*
X65092268Y13060293D01*
X65104880Y13039250D01*
X65115370Y13017071D01*
X65123635Y12993972D01*
X65129596Y12970173D01*
X65133196Y12945905D01*
X65134400Y12921401D01*
X65134400Y12021399D01*
X65133196Y11996895D01*
X65129596Y11972627D01*
X65123635Y11948828D01*
X65115370Y11925729D01*
X65104880Y11903550D01*
X65092268Y11882507D01*
X65077653Y11862801D01*
X65061177Y11844623D01*
X65042999Y11828147D01*
X65023293Y11813532D01*
X65002250Y11800920D01*
X64980071Y11790430D01*
X64956972Y11782165D01*
X64933173Y11776204D01*
X64908905Y11772604D01*
X64884401Y11771400D01*
X64234399Y11771400D01*
X64209895Y11772604D01*
X64185627Y11776204D01*
X64161828Y11782165D01*
X64138729Y11790430D01*
X64116550Y11800920D01*
X64095507Y11813532D01*
X64075801Y11828147D01*
X64057623Y11844623D01*
X64041147Y11862801D01*
X64026532Y11882507D01*
X64013920Y11903550D01*
X64003430Y11925729D01*
X63995165Y11948828D01*
X63989204Y11972627D01*
X63985604Y11996895D01*
X63984400Y12021399D01*
X63984400Y12921401D01*
X63985604Y12945905D01*
X63989204Y12970173D01*
X63995165Y12993972D01*
X64003430Y13017071D01*
X64013920Y13039250D01*
X64026532Y13060293D01*
X64041147Y13079999D01*
X64057623Y13098177D01*
X64075801Y13114653D01*
X64095507Y13129268D01*
X64116550Y13141880D01*
X64138729Y13152370D01*
X64161828Y13160635D01*
X64185627Y13166596D01*
X64209895Y13170196D01*
X64234399Y13171400D01*
X64884401Y13171400D01*
X64908905Y13170196D01*
G37*
G36*
X62858905Y13170196D02*
G01*
X62883173Y13166596D01*
X62906972Y13160635D01*
X62930071Y13152370D01*
X62952250Y13141880D01*
X62973293Y13129268D01*
X62992999Y13114653D01*
X63011177Y13098177D01*
X63027653Y13079999D01*
X63042268Y13060293D01*
X63054880Y13039250D01*
X63065370Y13017071D01*
X63073635Y12993972D01*
X63079596Y12970173D01*
X63083196Y12945905D01*
X63084400Y12921401D01*
X63084400Y12021399D01*
X63083196Y11996895D01*
X63079596Y11972627D01*
X63073635Y11948828D01*
X63065370Y11925729D01*
X63054880Y11903550D01*
X63042268Y11882507D01*
X63027653Y11862801D01*
X63011177Y11844623D01*
X62992999Y11828147D01*
X62973293Y11813532D01*
X62952250Y11800920D01*
X62930071Y11790430D01*
X62906972Y11782165D01*
X62883173Y11776204D01*
X62858905Y11772604D01*
X62834401Y11771400D01*
X62184399Y11771400D01*
X62159895Y11772604D01*
X62135627Y11776204D01*
X62111828Y11782165D01*
X62088729Y11790430D01*
X62066550Y11800920D01*
X62045507Y11813532D01*
X62025801Y11828147D01*
X62007623Y11844623D01*
X61991147Y11862801D01*
X61976532Y11882507D01*
X61963920Y11903550D01*
X61953430Y11925729D01*
X61945165Y11948828D01*
X61939204Y11972627D01*
X61935604Y11996895D01*
X61934400Y12021399D01*
X61934400Y12921401D01*
X61935604Y12945905D01*
X61939204Y12970173D01*
X61945165Y12993972D01*
X61953430Y13017071D01*
X61963920Y13039250D01*
X61976532Y13060293D01*
X61991147Y13079999D01*
X62007623Y13098177D01*
X62025801Y13114653D01*
X62045507Y13129268D01*
X62066550Y13141880D01*
X62088729Y13152370D01*
X62111828Y13160635D01*
X62135627Y13166596D01*
X62159895Y13170196D01*
X62184399Y13171400D01*
X62834401Y13171400D01*
X62858905Y13170196D01*
G37*
G36*
X22142705Y-926804D02*
G01*
X22166973Y-930404D01*
X22190772Y-936365D01*
X22213871Y-944630D01*
X22236050Y-955120D01*
X22257093Y-967732D01*
X22276799Y-982347D01*
X22294977Y-998823D01*
X22311453Y-1017001D01*
X22326068Y-1036707D01*
X22338680Y-1057750D01*
X22349170Y-1079929D01*
X22357435Y-1103028D01*
X22363396Y-1126827D01*
X22366996Y-1151095D01*
X22368200Y-1175599D01*
X22368200Y-2075601D01*
X22366996Y-2100105D01*
X22363396Y-2124373D01*
X22357435Y-2148172D01*
X22349170Y-2171271D01*
X22338680Y-2193450D01*
X22326068Y-2214493D01*
X22311453Y-2234199D01*
X22294977Y-2252377D01*
X22276799Y-2268853D01*
X22257093Y-2283468D01*
X22236050Y-2296080D01*
X22213871Y-2306570D01*
X22190772Y-2314835D01*
X22166973Y-2320796D01*
X22142705Y-2324396D01*
X22118201Y-2325600D01*
X21468199Y-2325600D01*
X21443695Y-2324396D01*
X21419427Y-2320796D01*
X21395628Y-2314835D01*
X21372529Y-2306570D01*
X21350350Y-2296080D01*
X21329307Y-2283468D01*
X21309601Y-2268853D01*
X21291423Y-2252377D01*
X21274947Y-2234199D01*
X21260332Y-2214493D01*
X21247720Y-2193450D01*
X21237230Y-2171271D01*
X21228965Y-2148172D01*
X21223004Y-2124373D01*
X21219404Y-2100105D01*
X21218200Y-2075601D01*
X21218200Y-1175599D01*
X21219404Y-1151095D01*
X21223004Y-1126827D01*
X21228965Y-1103028D01*
X21237230Y-1079929D01*
X21247720Y-1057750D01*
X21260332Y-1036707D01*
X21274947Y-1017001D01*
X21291423Y-998823D01*
X21309601Y-982347D01*
X21329307Y-967732D01*
X21350350Y-955120D01*
X21372529Y-944630D01*
X21395628Y-936365D01*
X21419427Y-930404D01*
X21443695Y-926804D01*
X21468199Y-925600D01*
X22118201Y-925600D01*
X22142705Y-926804D01*
G37*
G36*
X24192705Y-926804D02*
G01*
X24216973Y-930404D01*
X24240772Y-936365D01*
X24263871Y-944630D01*
X24286050Y-955120D01*
X24307093Y-967732D01*
X24326799Y-982347D01*
X24344977Y-998823D01*
X24361453Y-1017001D01*
X24376068Y-1036707D01*
X24388680Y-1057750D01*
X24399170Y-1079929D01*
X24407435Y-1103028D01*
X24413396Y-1126827D01*
X24416996Y-1151095D01*
X24418200Y-1175599D01*
X24418200Y-2075601D01*
X24416996Y-2100105D01*
X24413396Y-2124373D01*
X24407435Y-2148172D01*
X24399170Y-2171271D01*
X24388680Y-2193450D01*
X24376068Y-2214493D01*
X24361453Y-2234199D01*
X24344977Y-2252377D01*
X24326799Y-2268853D01*
X24307093Y-2283468D01*
X24286050Y-2296080D01*
X24263871Y-2306570D01*
X24240772Y-2314835D01*
X24216973Y-2320796D01*
X24192705Y-2324396D01*
X24168201Y-2325600D01*
X23518199Y-2325600D01*
X23493695Y-2324396D01*
X23469427Y-2320796D01*
X23445628Y-2314835D01*
X23422529Y-2306570D01*
X23400350Y-2296080D01*
X23379307Y-2283468D01*
X23359601Y-2268853D01*
X23341423Y-2252377D01*
X23324947Y-2234199D01*
X23310332Y-2214493D01*
X23297720Y-2193450D01*
X23287230Y-2171271D01*
X23278965Y-2148172D01*
X23273004Y-2124373D01*
X23269404Y-2100105D01*
X23268200Y-2075601D01*
X23268200Y-1175599D01*
X23269404Y-1151095D01*
X23273004Y-1126827D01*
X23278965Y-1103028D01*
X23287230Y-1079929D01*
X23297720Y-1057750D01*
X23310332Y-1036707D01*
X23324947Y-1017001D01*
X23341423Y-998823D01*
X23359601Y-982347D01*
X23379307Y-967732D01*
X23400350Y-955120D01*
X23422529Y-944630D01*
X23445628Y-936365D01*
X23469427Y-930404D01*
X23493695Y-926804D01*
X23518199Y-925600D01*
X24168201Y-925600D01*
X24192705Y-926804D01*
G37*
G36*
X31335505Y-22718004D02*
G01*
X31359773Y-22721604D01*
X31383572Y-22727565D01*
X31406671Y-22735830D01*
X31428850Y-22746320D01*
X31449893Y-22758932D01*
X31469599Y-22773547D01*
X31487777Y-22790023D01*
X31504253Y-22808201D01*
X31518868Y-22827907D01*
X31531480Y-22848950D01*
X31541970Y-22871129D01*
X31550235Y-22894228D01*
X31556196Y-22918027D01*
X31559796Y-22942295D01*
X31561000Y-22966799D01*
X31561000Y-23616801D01*
X31559796Y-23641305D01*
X31556196Y-23665573D01*
X31550235Y-23689372D01*
X31541970Y-23712471D01*
X31531480Y-23734650D01*
X31518868Y-23755693D01*
X31504253Y-23775399D01*
X31487777Y-23793577D01*
X31469599Y-23810053D01*
X31449893Y-23824668D01*
X31428850Y-23837280D01*
X31406671Y-23847770D01*
X31383572Y-23856035D01*
X31359773Y-23861996D01*
X31335505Y-23865596D01*
X31311001Y-23866800D01*
X30410999Y-23866800D01*
X30386495Y-23865596D01*
X30362227Y-23861996D01*
X30338428Y-23856035D01*
X30315329Y-23847770D01*
X30293150Y-23837280D01*
X30272107Y-23824668D01*
X30252401Y-23810053D01*
X30234223Y-23793577D01*
X30217747Y-23775399D01*
X30203132Y-23755693D01*
X30190520Y-23734650D01*
X30180030Y-23712471D01*
X30171765Y-23689372D01*
X30165804Y-23665573D01*
X30162204Y-23641305D01*
X30161000Y-23616801D01*
X30161000Y-22966799D01*
X30162204Y-22942295D01*
X30165804Y-22918027D01*
X30171765Y-22894228D01*
X30180030Y-22871129D01*
X30190520Y-22848950D01*
X30203132Y-22827907D01*
X30217747Y-22808201D01*
X30234223Y-22790023D01*
X30252401Y-22773547D01*
X30272107Y-22758932D01*
X30293150Y-22746320D01*
X30315329Y-22735830D01*
X30338428Y-22727565D01*
X30362227Y-22721604D01*
X30386495Y-22718004D01*
X30410999Y-22716800D01*
X31311001Y-22716800D01*
X31335505Y-22718004D01*
G37*
G36*
X31335505Y-20668004D02*
G01*
X31359773Y-20671604D01*
X31383572Y-20677565D01*
X31406671Y-20685830D01*
X31428850Y-20696320D01*
X31449893Y-20708932D01*
X31469599Y-20723547D01*
X31487777Y-20740023D01*
X31504253Y-20758201D01*
X31518868Y-20777907D01*
X31531480Y-20798950D01*
X31541970Y-20821129D01*
X31550235Y-20844228D01*
X31556196Y-20868027D01*
X31559796Y-20892295D01*
X31561000Y-20916799D01*
X31561000Y-21566801D01*
X31559796Y-21591305D01*
X31556196Y-21615573D01*
X31550235Y-21639372D01*
X31541970Y-21662471D01*
X31531480Y-21684650D01*
X31518868Y-21705693D01*
X31504253Y-21725399D01*
X31487777Y-21743577D01*
X31469599Y-21760053D01*
X31449893Y-21774668D01*
X31428850Y-21787280D01*
X31406671Y-21797770D01*
X31383572Y-21806035D01*
X31359773Y-21811996D01*
X31335505Y-21815596D01*
X31311001Y-21816800D01*
X30410999Y-21816800D01*
X30386495Y-21815596D01*
X30362227Y-21811996D01*
X30338428Y-21806035D01*
X30315329Y-21797770D01*
X30293150Y-21787280D01*
X30272107Y-21774668D01*
X30252401Y-21760053D01*
X30234223Y-21743577D01*
X30217747Y-21725399D01*
X30203132Y-21705693D01*
X30190520Y-21684650D01*
X30180030Y-21662471D01*
X30171765Y-21639372D01*
X30165804Y-21615573D01*
X30162204Y-21591305D01*
X30161000Y-21566801D01*
X30161000Y-20916799D01*
X30162204Y-20892295D01*
X30165804Y-20868027D01*
X30171765Y-20844228D01*
X30180030Y-20821129D01*
X30190520Y-20798950D01*
X30203132Y-20777907D01*
X30217747Y-20758201D01*
X30234223Y-20740023D01*
X30252401Y-20723547D01*
X30272107Y-20708932D01*
X30293150Y-20696320D01*
X30315329Y-20685830D01*
X30338428Y-20677565D01*
X30362227Y-20671604D01*
X30386495Y-20668004D01*
X30410999Y-20666800D01*
X31311001Y-20666800D01*
X31335505Y-20668004D01*
G37*
G36*
X-1201895Y-30846004D02*
G01*
X-1177627Y-30849604D01*
X-1153828Y-30855565D01*
X-1130729Y-30863830D01*
X-1108550Y-30874320D01*
X-1087507Y-30886932D01*
X-1067801Y-30901547D01*
X-1049623Y-30918023D01*
X-1033147Y-30936201D01*
X-1018532Y-30955907D01*
X-1005920Y-30976950D01*
X-995430Y-30999129D01*
X-987165Y-31022228D01*
X-981204Y-31046027D01*
X-977604Y-31070295D01*
X-976400Y-31094799D01*
X-976400Y-31744801D01*
X-977604Y-31769305D01*
X-981204Y-31793573D01*
X-987165Y-31817372D01*
X-995430Y-31840471D01*
X-1005920Y-31862650D01*
X-1018532Y-31883693D01*
X-1033147Y-31903399D01*
X-1049623Y-31921577D01*
X-1067801Y-31938053D01*
X-1087507Y-31952668D01*
X-1108550Y-31965280D01*
X-1130729Y-31975770D01*
X-1153828Y-31984035D01*
X-1177627Y-31989996D01*
X-1201895Y-31993596D01*
X-1226399Y-31994800D01*
X-2126401Y-31994800D01*
X-2150905Y-31993596D01*
X-2175173Y-31989996D01*
X-2198972Y-31984035D01*
X-2222071Y-31975770D01*
X-2244250Y-31965280D01*
X-2265293Y-31952668D01*
X-2284999Y-31938053D01*
X-2303177Y-31921577D01*
X-2319653Y-31903399D01*
X-2334268Y-31883693D01*
X-2346880Y-31862650D01*
X-2357370Y-31840471D01*
X-2365635Y-31817372D01*
X-2371596Y-31793573D01*
X-2375196Y-31769305D01*
X-2376400Y-31744801D01*
X-2376400Y-31094799D01*
X-2375196Y-31070295D01*
X-2371596Y-31046027D01*
X-2365635Y-31022228D01*
X-2357370Y-30999129D01*
X-2346880Y-30976950D01*
X-2334268Y-30955907D01*
X-2319653Y-30936201D01*
X-2303177Y-30918023D01*
X-2284999Y-30901547D01*
X-2265293Y-30886932D01*
X-2244250Y-30874320D01*
X-2222071Y-30863830D01*
X-2198972Y-30855565D01*
X-2175173Y-30849604D01*
X-2150905Y-30846004D01*
X-2126401Y-30844800D01*
X-1226399Y-30844800D01*
X-1201895Y-30846004D01*
G37*
G36*
X-1201895Y-32896004D02*
G01*
X-1177627Y-32899604D01*
X-1153828Y-32905565D01*
X-1130729Y-32913830D01*
X-1108550Y-32924320D01*
X-1087507Y-32936932D01*
X-1067801Y-32951547D01*
X-1049623Y-32968023D01*
X-1033147Y-32986201D01*
X-1018532Y-33005907D01*
X-1005920Y-33026950D01*
X-995430Y-33049129D01*
X-987165Y-33072228D01*
X-981204Y-33096027D01*
X-977604Y-33120295D01*
X-976400Y-33144799D01*
X-976400Y-33794801D01*
X-977604Y-33819305D01*
X-981204Y-33843573D01*
X-987165Y-33867372D01*
X-995430Y-33890471D01*
X-1005920Y-33912650D01*
X-1018532Y-33933693D01*
X-1033147Y-33953399D01*
X-1049623Y-33971577D01*
X-1067801Y-33988053D01*
X-1087507Y-34002668D01*
X-1108550Y-34015280D01*
X-1130729Y-34025770D01*
X-1153828Y-34034035D01*
X-1177627Y-34039996D01*
X-1201895Y-34043596D01*
X-1226399Y-34044800D01*
X-2126401Y-34044800D01*
X-2150905Y-34043596D01*
X-2175173Y-34039996D01*
X-2198972Y-34034035D01*
X-2222071Y-34025770D01*
X-2244250Y-34015280D01*
X-2265293Y-34002668D01*
X-2284999Y-33988053D01*
X-2303177Y-33971577D01*
X-2319653Y-33953399D01*
X-2334268Y-33933693D01*
X-2346880Y-33912650D01*
X-2357370Y-33890471D01*
X-2365635Y-33867372D01*
X-2371596Y-33843573D01*
X-2375196Y-33819305D01*
X-2376400Y-33794801D01*
X-2376400Y-33144799D01*
X-2375196Y-33120295D01*
X-2371596Y-33096027D01*
X-2365635Y-33072228D01*
X-2357370Y-33049129D01*
X-2346880Y-33026950D01*
X-2334268Y-33005907D01*
X-2319653Y-32986201D01*
X-2303177Y-32968023D01*
X-2284999Y-32951547D01*
X-2265293Y-32936932D01*
X-2244250Y-32924320D01*
X-2222071Y-32913830D01*
X-2198972Y-32905565D01*
X-2175173Y-32899604D01*
X-2150905Y-32896004D01*
X-2126401Y-32894800D01*
X-1226399Y-32894800D01*
X-1201895Y-32896004D01*
G37*
G36*
X-21369495Y-24479604D02*
G01*
X-21345227Y-24483204D01*
X-21321428Y-24489165D01*
X-21298329Y-24497430D01*
X-21276150Y-24507920D01*
X-21255107Y-24520532D01*
X-21235401Y-24535147D01*
X-21217223Y-24551623D01*
X-21200747Y-24569801D01*
X-21186132Y-24589507D01*
X-21173520Y-24610550D01*
X-21163030Y-24632729D01*
X-21154765Y-24655828D01*
X-21148804Y-24679627D01*
X-21145204Y-24703895D01*
X-21144000Y-24728399D01*
X-21144000Y-25378401D01*
X-21145204Y-25402905D01*
X-21148804Y-25427173D01*
X-21154765Y-25450972D01*
X-21163030Y-25474071D01*
X-21173520Y-25496250D01*
X-21186132Y-25517293D01*
X-21200747Y-25536999D01*
X-21217223Y-25555177D01*
X-21235401Y-25571653D01*
X-21255107Y-25586268D01*
X-21276150Y-25598880D01*
X-21298329Y-25609370D01*
X-21321428Y-25617635D01*
X-21345227Y-25623596D01*
X-21369495Y-25627196D01*
X-21393999Y-25628400D01*
X-22294001Y-25628400D01*
X-22318505Y-25627196D01*
X-22342773Y-25623596D01*
X-22366572Y-25617635D01*
X-22389671Y-25609370D01*
X-22411850Y-25598880D01*
X-22432893Y-25586268D01*
X-22452599Y-25571653D01*
X-22470777Y-25555177D01*
X-22487253Y-25536999D01*
X-22501868Y-25517293D01*
X-22514480Y-25496250D01*
X-22524970Y-25474071D01*
X-22533235Y-25450972D01*
X-22539196Y-25427173D01*
X-22542796Y-25402905D01*
X-22544000Y-25378401D01*
X-22544000Y-24728399D01*
X-22542796Y-24703895D01*
X-22539196Y-24679627D01*
X-22533235Y-24655828D01*
X-22524970Y-24632729D01*
X-22514480Y-24610550D01*
X-22501868Y-24589507D01*
X-22487253Y-24569801D01*
X-22470777Y-24551623D01*
X-22452599Y-24535147D01*
X-22432893Y-24520532D01*
X-22411850Y-24507920D01*
X-22389671Y-24497430D01*
X-22366572Y-24489165D01*
X-22342773Y-24483204D01*
X-22318505Y-24479604D01*
X-22294001Y-24478400D01*
X-21393999Y-24478400D01*
X-21369495Y-24479604D01*
G37*
G36*
X-21369495Y-22429604D02*
G01*
X-21345227Y-22433204D01*
X-21321428Y-22439165D01*
X-21298329Y-22447430D01*
X-21276150Y-22457920D01*
X-21255107Y-22470532D01*
X-21235401Y-22485147D01*
X-21217223Y-22501623D01*
X-21200747Y-22519801D01*
X-21186132Y-22539507D01*
X-21173520Y-22560550D01*
X-21163030Y-22582729D01*
X-21154765Y-22605828D01*
X-21148804Y-22629627D01*
X-21145204Y-22653895D01*
X-21144000Y-22678399D01*
X-21144000Y-23328401D01*
X-21145204Y-23352905D01*
X-21148804Y-23377173D01*
X-21154765Y-23400972D01*
X-21163030Y-23424071D01*
X-21173520Y-23446250D01*
X-21186132Y-23467293D01*
X-21200747Y-23486999D01*
X-21217223Y-23505177D01*
X-21235401Y-23521653D01*
X-21255107Y-23536268D01*
X-21276150Y-23548880D01*
X-21298329Y-23559370D01*
X-21321428Y-23567635D01*
X-21345227Y-23573596D01*
X-21369495Y-23577196D01*
X-21393999Y-23578400D01*
X-22294001Y-23578400D01*
X-22318505Y-23577196D01*
X-22342773Y-23573596D01*
X-22366572Y-23567635D01*
X-22389671Y-23559370D01*
X-22411850Y-23548880D01*
X-22432893Y-23536268D01*
X-22452599Y-23521653D01*
X-22470777Y-23505177D01*
X-22487253Y-23486999D01*
X-22501868Y-23467293D01*
X-22514480Y-23446250D01*
X-22524970Y-23424071D01*
X-22533235Y-23400972D01*
X-22539196Y-23377173D01*
X-22542796Y-23352905D01*
X-22544000Y-23328401D01*
X-22544000Y-22678399D01*
X-22542796Y-22653895D01*
X-22539196Y-22629627D01*
X-22533235Y-22605828D01*
X-22524970Y-22582729D01*
X-22514480Y-22560550D01*
X-22501868Y-22539507D01*
X-22487253Y-22519801D01*
X-22470777Y-22501623D01*
X-22452599Y-22485147D01*
X-22432893Y-22470532D01*
X-22411850Y-22457920D01*
X-22389671Y-22447430D01*
X-22366572Y-22439165D01*
X-22342773Y-22433204D01*
X-22318505Y-22429604D01*
X-22294001Y-22428400D01*
X-21393999Y-22428400D01*
X-21369495Y-22429604D01*
G37*
G36*
X31506305Y7607596D02*
G01*
X31530573Y7603996D01*
X31554372Y7598035D01*
X31577471Y7589770D01*
X31599650Y7579280D01*
X31620693Y7566668D01*
X31640399Y7552053D01*
X31658577Y7535577D01*
X31675053Y7517399D01*
X31689668Y7497693D01*
X31702280Y7476650D01*
X31712770Y7454471D01*
X31721035Y7431372D01*
X31726996Y7407573D01*
X31730596Y7383305D01*
X31731800Y7358801D01*
X31731800Y6458799D01*
X31730596Y6434295D01*
X31726996Y6410027D01*
X31721035Y6386228D01*
X31712770Y6363129D01*
X31702280Y6340950D01*
X31689668Y6319907D01*
X31675053Y6300201D01*
X31658577Y6282023D01*
X31640399Y6265547D01*
X31620693Y6250932D01*
X31599650Y6238320D01*
X31577471Y6227830D01*
X31554372Y6219565D01*
X31530573Y6213604D01*
X31506305Y6210004D01*
X31481801Y6208800D01*
X30831799Y6208800D01*
X30807295Y6210004D01*
X30783027Y6213604D01*
X30759228Y6219565D01*
X30736129Y6227830D01*
X30713950Y6238320D01*
X30692907Y6250932D01*
X30673201Y6265547D01*
X30655023Y6282023D01*
X30638547Y6300201D01*
X30623932Y6319907D01*
X30611320Y6340950D01*
X30600830Y6363129D01*
X30592565Y6386228D01*
X30586604Y6410027D01*
X30583004Y6434295D01*
X30581800Y6458799D01*
X30581800Y7358801D01*
X30583004Y7383305D01*
X30586604Y7407573D01*
X30592565Y7431372D01*
X30600830Y7454471D01*
X30611320Y7476650D01*
X30623932Y7497693D01*
X30638547Y7517399D01*
X30655023Y7535577D01*
X30673201Y7552053D01*
X30692907Y7566668D01*
X30713950Y7579280D01*
X30736129Y7589770D01*
X30759228Y7598035D01*
X30783027Y7603996D01*
X30807295Y7607596D01*
X30831799Y7608800D01*
X31481801Y7608800D01*
X31506305Y7607596D01*
G37*
G36*
X33556305Y7607596D02*
G01*
X33580573Y7603996D01*
X33604372Y7598035D01*
X33627471Y7589770D01*
X33649650Y7579280D01*
X33670693Y7566668D01*
X33690399Y7552053D01*
X33708577Y7535577D01*
X33725053Y7517399D01*
X33739668Y7497693D01*
X33752280Y7476650D01*
X33762770Y7454471D01*
X33771035Y7431372D01*
X33776996Y7407573D01*
X33780596Y7383305D01*
X33781800Y7358801D01*
X33781800Y6458799D01*
X33780596Y6434295D01*
X33776996Y6410027D01*
X33771035Y6386228D01*
X33762770Y6363129D01*
X33752280Y6340950D01*
X33739668Y6319907D01*
X33725053Y6300201D01*
X33708577Y6282023D01*
X33690399Y6265547D01*
X33670693Y6250932D01*
X33649650Y6238320D01*
X33627471Y6227830D01*
X33604372Y6219565D01*
X33580573Y6213604D01*
X33556305Y6210004D01*
X33531801Y6208800D01*
X32881799Y6208800D01*
X32857295Y6210004D01*
X32833027Y6213604D01*
X32809228Y6219565D01*
X32786129Y6227830D01*
X32763950Y6238320D01*
X32742907Y6250932D01*
X32723201Y6265547D01*
X32705023Y6282023D01*
X32688547Y6300201D01*
X32673932Y6319907D01*
X32661320Y6340950D01*
X32650830Y6363129D01*
X32642565Y6386228D01*
X32636604Y6410027D01*
X32633004Y6434295D01*
X32631800Y6458799D01*
X32631800Y7358801D01*
X32633004Y7383305D01*
X32636604Y7407573D01*
X32642565Y7431372D01*
X32650830Y7454471D01*
X32661320Y7476650D01*
X32673932Y7497693D01*
X32688547Y7517399D01*
X32705023Y7535577D01*
X32723201Y7552053D01*
X32742907Y7566668D01*
X32763950Y7579280D01*
X32786129Y7589770D01*
X32809228Y7598035D01*
X32833027Y7603996D01*
X32857295Y7607596D01*
X32881799Y7608800D01*
X33531801Y7608800D01*
X33556305Y7607596D01*
G37*
G36*
X15485905Y-25595604D02*
G01*
X15510173Y-25599204D01*
X15533972Y-25605165D01*
X15557071Y-25613430D01*
X15579250Y-25623920D01*
X15600293Y-25636532D01*
X15619999Y-25651147D01*
X15638177Y-25667623D01*
X15654653Y-25685801D01*
X15669268Y-25705507D01*
X15681880Y-25726550D01*
X15692370Y-25748729D01*
X15700635Y-25771828D01*
X15706596Y-25795627D01*
X15710196Y-25819895D01*
X15711400Y-25844399D01*
X15711400Y-26494401D01*
X15710196Y-26518905D01*
X15706596Y-26543173D01*
X15700635Y-26566972D01*
X15692370Y-26590071D01*
X15681880Y-26612250D01*
X15669268Y-26633293D01*
X15654653Y-26652999D01*
X15638177Y-26671177D01*
X15619999Y-26687653D01*
X15600293Y-26702268D01*
X15579250Y-26714880D01*
X15557071Y-26725370D01*
X15533972Y-26733635D01*
X15510173Y-26739596D01*
X15485905Y-26743196D01*
X15461401Y-26744400D01*
X14561399Y-26744400D01*
X14536895Y-26743196D01*
X14512627Y-26739596D01*
X14488828Y-26733635D01*
X14465729Y-26725370D01*
X14443550Y-26714880D01*
X14422507Y-26702268D01*
X14402801Y-26687653D01*
X14384623Y-26671177D01*
X14368147Y-26652999D01*
X14353532Y-26633293D01*
X14340920Y-26612250D01*
X14330430Y-26590071D01*
X14322165Y-26566972D01*
X14316204Y-26543173D01*
X14312604Y-26518905D01*
X14311400Y-26494401D01*
X14311400Y-25844399D01*
X14312604Y-25819895D01*
X14316204Y-25795627D01*
X14322165Y-25771828D01*
X14330430Y-25748729D01*
X14340920Y-25726550D01*
X14353532Y-25705507D01*
X14368147Y-25685801D01*
X14384623Y-25667623D01*
X14402801Y-25651147D01*
X14422507Y-25636532D01*
X14443550Y-25623920D01*
X14465729Y-25613430D01*
X14488828Y-25605165D01*
X14512627Y-25599204D01*
X14536895Y-25595604D01*
X14561399Y-25594400D01*
X15461401Y-25594400D01*
X15485905Y-25595604D01*
G37*
G36*
X15485905Y-27645604D02*
G01*
X15510173Y-27649204D01*
X15533972Y-27655165D01*
X15557071Y-27663430D01*
X15579250Y-27673920D01*
X15600293Y-27686532D01*
X15619999Y-27701147D01*
X15638177Y-27717623D01*
X15654653Y-27735801D01*
X15669268Y-27755507D01*
X15681880Y-27776550D01*
X15692370Y-27798729D01*
X15700635Y-27821828D01*
X15706596Y-27845627D01*
X15710196Y-27869895D01*
X15711400Y-27894399D01*
X15711400Y-28544401D01*
X15710196Y-28568905D01*
X15706596Y-28593173D01*
X15700635Y-28616972D01*
X15692370Y-28640071D01*
X15681880Y-28662250D01*
X15669268Y-28683293D01*
X15654653Y-28702999D01*
X15638177Y-28721177D01*
X15619999Y-28737653D01*
X15600293Y-28752268D01*
X15579250Y-28764880D01*
X15557071Y-28775370D01*
X15533972Y-28783635D01*
X15510173Y-28789596D01*
X15485905Y-28793196D01*
X15461401Y-28794400D01*
X14561399Y-28794400D01*
X14536895Y-28793196D01*
X14512627Y-28789596D01*
X14488828Y-28783635D01*
X14465729Y-28775370D01*
X14443550Y-28764880D01*
X14422507Y-28752268D01*
X14402801Y-28737653D01*
X14384623Y-28721177D01*
X14368147Y-28702999D01*
X14353532Y-28683293D01*
X14340920Y-28662250D01*
X14330430Y-28640071D01*
X14322165Y-28616972D01*
X14316204Y-28593173D01*
X14312604Y-28568905D01*
X14311400Y-28544401D01*
X14311400Y-27894399D01*
X14312604Y-27869895D01*
X14316204Y-27845627D01*
X14322165Y-27821828D01*
X14330430Y-27798729D01*
X14340920Y-27776550D01*
X14353532Y-27755507D01*
X14368147Y-27735801D01*
X14384623Y-27717623D01*
X14402801Y-27701147D01*
X14422507Y-27686532D01*
X14443550Y-27673920D01*
X14465729Y-27663430D01*
X14488828Y-27655165D01*
X14512627Y-27649204D01*
X14536895Y-27645604D01*
X14561399Y-27644400D01*
X15461401Y-27644400D01*
X15485905Y-27645604D01*
G37*
G36*
X33265905Y10029996D02*
G01*
X33290173Y10026396D01*
X33313972Y10020435D01*
X33337071Y10012170D01*
X33359250Y10001680D01*
X33380293Y9989068D01*
X33399999Y9974453D01*
X33418177Y9957977D01*
X33434653Y9939799D01*
X33449268Y9920093D01*
X33461880Y9899050D01*
X33472370Y9876871D01*
X33480635Y9853772D01*
X33486596Y9829973D01*
X33490196Y9805705D01*
X33491400Y9781201D01*
X33491400Y9131199D01*
X33490196Y9106695D01*
X33486596Y9082427D01*
X33480635Y9058628D01*
X33472370Y9035529D01*
X33461880Y9013350D01*
X33449268Y8992307D01*
X33434653Y8972601D01*
X33418177Y8954423D01*
X33399999Y8937947D01*
X33380293Y8923332D01*
X33359250Y8910720D01*
X33337071Y8900230D01*
X33313972Y8891965D01*
X33290173Y8886004D01*
X33265905Y8882404D01*
X33241401Y8881200D01*
X32341399Y8881200D01*
X32316895Y8882404D01*
X32292627Y8886004D01*
X32268828Y8891965D01*
X32245729Y8900230D01*
X32223550Y8910720D01*
X32202507Y8923332D01*
X32182801Y8937947D01*
X32164623Y8954423D01*
X32148147Y8972601D01*
X32133532Y8992307D01*
X32120920Y9013350D01*
X32110430Y9035529D01*
X32102165Y9058628D01*
X32096204Y9082427D01*
X32092604Y9106695D01*
X32091400Y9131199D01*
X32091400Y9781201D01*
X32092604Y9805705D01*
X32096204Y9829973D01*
X32102165Y9853772D01*
X32110430Y9876871D01*
X32120920Y9899050D01*
X32133532Y9920093D01*
X32148147Y9939799D01*
X32164623Y9957977D01*
X32182801Y9974453D01*
X32202507Y9989068D01*
X32223550Y10001680D01*
X32245729Y10012170D01*
X32268828Y10020435D01*
X32292627Y10026396D01*
X32316895Y10029996D01*
X32341399Y10031200D01*
X33241401Y10031200D01*
X33265905Y10029996D01*
G37*
G36*
X33265905Y12079996D02*
G01*
X33290173Y12076396D01*
X33313972Y12070435D01*
X33337071Y12062170D01*
X33359250Y12051680D01*
X33380293Y12039068D01*
X33399999Y12024453D01*
X33418177Y12007977D01*
X33434653Y11989799D01*
X33449268Y11970093D01*
X33461880Y11949050D01*
X33472370Y11926871D01*
X33480635Y11903772D01*
X33486596Y11879973D01*
X33490196Y11855705D01*
X33491400Y11831201D01*
X33491400Y11181199D01*
X33490196Y11156695D01*
X33486596Y11132427D01*
X33480635Y11108628D01*
X33472370Y11085529D01*
X33461880Y11063350D01*
X33449268Y11042307D01*
X33434653Y11022601D01*
X33418177Y11004423D01*
X33399999Y10987947D01*
X33380293Y10973332D01*
X33359250Y10960720D01*
X33337071Y10950230D01*
X33313972Y10941965D01*
X33290173Y10936004D01*
X33265905Y10932404D01*
X33241401Y10931200D01*
X32341399Y10931200D01*
X32316895Y10932404D01*
X32292627Y10936004D01*
X32268828Y10941965D01*
X32245729Y10950230D01*
X32223550Y10960720D01*
X32202507Y10973332D01*
X32182801Y10987947D01*
X32164623Y11004423D01*
X32148147Y11022601D01*
X32133532Y11042307D01*
X32120920Y11063350D01*
X32110430Y11085529D01*
X32102165Y11108628D01*
X32096204Y11132427D01*
X32092604Y11156695D01*
X32091400Y11181199D01*
X32091400Y11831201D01*
X32092604Y11855705D01*
X32096204Y11879973D01*
X32102165Y11903772D01*
X32110430Y11926871D01*
X32120920Y11949050D01*
X32133532Y11970093D01*
X32148147Y11989799D01*
X32164623Y12007977D01*
X32182801Y12024453D01*
X32202507Y12039068D01*
X32223550Y12051680D01*
X32245729Y12062170D01*
X32268828Y12070435D01*
X32292627Y12076396D01*
X32316895Y12079996D01*
X32341399Y12081200D01*
X33241401Y12081200D01*
X33265905Y12079996D01*
G37*
G36*
X24858505Y-24419804D02*
G01*
X24882773Y-24423404D01*
X24906572Y-24429365D01*
X24929671Y-24437630D01*
X24951850Y-24448120D01*
X24972893Y-24460732D01*
X24992599Y-24475347D01*
X25010777Y-24491823D01*
X25027253Y-24510001D01*
X25041868Y-24529707D01*
X25054480Y-24550750D01*
X25064970Y-24572929D01*
X25073235Y-24596028D01*
X25079196Y-24619827D01*
X25082796Y-24644095D01*
X25084000Y-24668599D01*
X25084000Y-25318601D01*
X25082796Y-25343105D01*
X25079196Y-25367373D01*
X25073235Y-25391172D01*
X25064970Y-25414271D01*
X25054480Y-25436450D01*
X25041868Y-25457493D01*
X25027253Y-25477199D01*
X25010777Y-25495377D01*
X24992599Y-25511853D01*
X24972893Y-25526468D01*
X24951850Y-25539080D01*
X24929671Y-25549570D01*
X24906572Y-25557835D01*
X24882773Y-25563796D01*
X24858505Y-25567396D01*
X24834001Y-25568600D01*
X23933999Y-25568600D01*
X23909495Y-25567396D01*
X23885227Y-25563796D01*
X23861428Y-25557835D01*
X23838329Y-25549570D01*
X23816150Y-25539080D01*
X23795107Y-25526468D01*
X23775401Y-25511853D01*
X23757223Y-25495377D01*
X23740747Y-25477199D01*
X23726132Y-25457493D01*
X23713520Y-25436450D01*
X23703030Y-25414271D01*
X23694765Y-25391172D01*
X23688804Y-25367373D01*
X23685204Y-25343105D01*
X23684000Y-25318601D01*
X23684000Y-24668599D01*
X23685204Y-24644095D01*
X23688804Y-24619827D01*
X23694765Y-24596028D01*
X23703030Y-24572929D01*
X23713520Y-24550750D01*
X23726132Y-24529707D01*
X23740747Y-24510001D01*
X23757223Y-24491823D01*
X23775401Y-24475347D01*
X23795107Y-24460732D01*
X23816150Y-24448120D01*
X23838329Y-24437630D01*
X23861428Y-24429365D01*
X23885227Y-24423404D01*
X23909495Y-24419804D01*
X23933999Y-24418600D01*
X24834001Y-24418600D01*
X24858505Y-24419804D01*
G37*
G36*
X24858505Y-26469804D02*
G01*
X24882773Y-26473404D01*
X24906572Y-26479365D01*
X24929671Y-26487630D01*
X24951850Y-26498120D01*
X24972893Y-26510732D01*
X24992599Y-26525347D01*
X25010777Y-26541823D01*
X25027253Y-26560001D01*
X25041868Y-26579707D01*
X25054480Y-26600750D01*
X25064970Y-26622929D01*
X25073235Y-26646028D01*
X25079196Y-26669827D01*
X25082796Y-26694095D01*
X25084000Y-26718599D01*
X25084000Y-27368601D01*
X25082796Y-27393105D01*
X25079196Y-27417373D01*
X25073235Y-27441172D01*
X25064970Y-27464271D01*
X25054480Y-27486450D01*
X25041868Y-27507493D01*
X25027253Y-27527199D01*
X25010777Y-27545377D01*
X24992599Y-27561853D01*
X24972893Y-27576468D01*
X24951850Y-27589080D01*
X24929671Y-27599570D01*
X24906572Y-27607835D01*
X24882773Y-27613796D01*
X24858505Y-27617396D01*
X24834001Y-27618600D01*
X23933999Y-27618600D01*
X23909495Y-27617396D01*
X23885227Y-27613796D01*
X23861428Y-27607835D01*
X23838329Y-27599570D01*
X23816150Y-27589080D01*
X23795107Y-27576468D01*
X23775401Y-27561853D01*
X23757223Y-27545377D01*
X23740747Y-27527199D01*
X23726132Y-27507493D01*
X23713520Y-27486450D01*
X23703030Y-27464271D01*
X23694765Y-27441172D01*
X23688804Y-27417373D01*
X23685204Y-27393105D01*
X23684000Y-27368601D01*
X23684000Y-26718599D01*
X23685204Y-26694095D01*
X23688804Y-26669827D01*
X23694765Y-26646028D01*
X23703030Y-26622929D01*
X23713520Y-26600750D01*
X23726132Y-26579707D01*
X23740747Y-26560001D01*
X23757223Y-26541823D01*
X23775401Y-26525347D01*
X23795107Y-26510732D01*
X23816150Y-26498120D01*
X23838329Y-26487630D01*
X23861428Y-26479365D01*
X23885227Y-26473404D01*
X23909495Y-26469804D01*
X23933999Y-26468600D01*
X24834001Y-26468600D01*
X24858505Y-26469804D01*
G37*
G36*
X26839705Y-26469804D02*
G01*
X26863973Y-26473404D01*
X26887772Y-26479365D01*
X26910871Y-26487630D01*
X26933050Y-26498120D01*
X26954093Y-26510732D01*
X26973799Y-26525347D01*
X26991977Y-26541823D01*
X27008453Y-26560001D01*
X27023068Y-26579707D01*
X27035680Y-26600750D01*
X27046170Y-26622929D01*
X27054435Y-26646028D01*
X27060396Y-26669827D01*
X27063996Y-26694095D01*
X27065200Y-26718599D01*
X27065200Y-27368601D01*
X27063996Y-27393105D01*
X27060396Y-27417373D01*
X27054435Y-27441172D01*
X27046170Y-27464271D01*
X27035680Y-27486450D01*
X27023068Y-27507493D01*
X27008453Y-27527199D01*
X26991977Y-27545377D01*
X26973799Y-27561853D01*
X26954093Y-27576468D01*
X26933050Y-27589080D01*
X26910871Y-27599570D01*
X26887772Y-27607835D01*
X26863973Y-27613796D01*
X26839705Y-27617396D01*
X26815201Y-27618600D01*
X25915199Y-27618600D01*
X25890695Y-27617396D01*
X25866427Y-27613796D01*
X25842628Y-27607835D01*
X25819529Y-27599570D01*
X25797350Y-27589080D01*
X25776307Y-27576468D01*
X25756601Y-27561853D01*
X25738423Y-27545377D01*
X25721947Y-27527199D01*
X25707332Y-27507493D01*
X25694720Y-27486450D01*
X25684230Y-27464271D01*
X25675965Y-27441172D01*
X25670004Y-27417373D01*
X25666404Y-27393105D01*
X25665200Y-27368601D01*
X25665200Y-26718599D01*
X25666404Y-26694095D01*
X25670004Y-26669827D01*
X25675965Y-26646028D01*
X25684230Y-26622929D01*
X25694720Y-26600750D01*
X25707332Y-26579707D01*
X25721947Y-26560001D01*
X25738423Y-26541823D01*
X25756601Y-26525347D01*
X25776307Y-26510732D01*
X25797350Y-26498120D01*
X25819529Y-26487630D01*
X25842628Y-26479365D01*
X25866427Y-26473404D01*
X25890695Y-26469804D01*
X25915199Y-26468600D01*
X26815201Y-26468600D01*
X26839705Y-26469804D01*
G37*
G36*
X26839705Y-24419804D02*
G01*
X26863973Y-24423404D01*
X26887772Y-24429365D01*
X26910871Y-24437630D01*
X26933050Y-24448120D01*
X26954093Y-24460732D01*
X26973799Y-24475347D01*
X26991977Y-24491823D01*
X27008453Y-24510001D01*
X27023068Y-24529707D01*
X27035680Y-24550750D01*
X27046170Y-24572929D01*
X27054435Y-24596028D01*
X27060396Y-24619827D01*
X27063996Y-24644095D01*
X27065200Y-24668599D01*
X27065200Y-25318601D01*
X27063996Y-25343105D01*
X27060396Y-25367373D01*
X27054435Y-25391172D01*
X27046170Y-25414271D01*
X27035680Y-25436450D01*
X27023068Y-25457493D01*
X27008453Y-25477199D01*
X26991977Y-25495377D01*
X26973799Y-25511853D01*
X26954093Y-25526468D01*
X26933050Y-25539080D01*
X26910871Y-25549570D01*
X26887772Y-25557835D01*
X26863973Y-25563796D01*
X26839705Y-25567396D01*
X26815201Y-25568600D01*
X25915199Y-25568600D01*
X25890695Y-25567396D01*
X25866427Y-25563796D01*
X25842628Y-25557835D01*
X25819529Y-25549570D01*
X25797350Y-25539080D01*
X25776307Y-25526468D01*
X25756601Y-25511853D01*
X25738423Y-25495377D01*
X25721947Y-25477199D01*
X25707332Y-25457493D01*
X25694720Y-25436450D01*
X25684230Y-25414271D01*
X25675965Y-25391172D01*
X25670004Y-25367373D01*
X25666404Y-25343105D01*
X25665200Y-25318601D01*
X25665200Y-24668599D01*
X25666404Y-24644095D01*
X25670004Y-24619827D01*
X25675965Y-24596028D01*
X25684230Y-24572929D01*
X25694720Y-24550750D01*
X25707332Y-24529707D01*
X25721947Y-24510001D01*
X25738423Y-24491823D01*
X25756601Y-24475347D01*
X25776307Y-24460732D01*
X25797350Y-24448120D01*
X25819529Y-24437630D01*
X25842628Y-24429365D01*
X25866427Y-24423404D01*
X25890695Y-24419804D01*
X25915199Y-24418600D01*
X26815201Y-24418600D01*
X26839705Y-24419804D01*
G37*
G36*
X-22588695Y-18672004D02*
G01*
X-22564427Y-18675604D01*
X-22540628Y-18681565D01*
X-22517529Y-18689830D01*
X-22495350Y-18700320D01*
X-22474307Y-18712932D01*
X-22454601Y-18727547D01*
X-22436423Y-18744023D01*
X-22419947Y-18762201D01*
X-22405332Y-18781907D01*
X-22392720Y-18802950D01*
X-22382230Y-18825129D01*
X-22373965Y-18848228D01*
X-22368004Y-18872027D01*
X-22364404Y-18896295D01*
X-22363200Y-18920799D01*
X-22363200Y-19570801D01*
X-22364404Y-19595305D01*
X-22368004Y-19619573D01*
X-22373965Y-19643372D01*
X-22382230Y-19666471D01*
X-22392720Y-19688650D01*
X-22405332Y-19709693D01*
X-22419947Y-19729399D01*
X-22436423Y-19747577D01*
X-22454601Y-19764053D01*
X-22474307Y-19778668D01*
X-22495350Y-19791280D01*
X-22517529Y-19801770D01*
X-22540628Y-19810035D01*
X-22564427Y-19815996D01*
X-22588695Y-19819596D01*
X-22613199Y-19820800D01*
X-23513201Y-19820800D01*
X-23537705Y-19819596D01*
X-23561973Y-19815996D01*
X-23585772Y-19810035D01*
X-23608871Y-19801770D01*
X-23631050Y-19791280D01*
X-23652093Y-19778668D01*
X-23671799Y-19764053D01*
X-23689977Y-19747577D01*
X-23706453Y-19729399D01*
X-23721068Y-19709693D01*
X-23733680Y-19688650D01*
X-23744170Y-19666471D01*
X-23752435Y-19643372D01*
X-23758396Y-19619573D01*
X-23761996Y-19595305D01*
X-23763200Y-19570801D01*
X-23763200Y-18920799D01*
X-23761996Y-18896295D01*
X-23758396Y-18872027D01*
X-23752435Y-18848228D01*
X-23744170Y-18825129D01*
X-23733680Y-18802950D01*
X-23721068Y-18781907D01*
X-23706453Y-18762201D01*
X-23689977Y-18744023D01*
X-23671799Y-18727547D01*
X-23652093Y-18712932D01*
X-23631050Y-18700320D01*
X-23608871Y-18689830D01*
X-23585772Y-18681565D01*
X-23561973Y-18675604D01*
X-23537705Y-18672004D01*
X-23513201Y-18670800D01*
X-22613199Y-18670800D01*
X-22588695Y-18672004D01*
G37*
G36*
X-22588695Y-16622004D02*
G01*
X-22564427Y-16625604D01*
X-22540628Y-16631565D01*
X-22517529Y-16639830D01*
X-22495350Y-16650320D01*
X-22474307Y-16662932D01*
X-22454601Y-16677547D01*
X-22436423Y-16694023D01*
X-22419947Y-16712201D01*
X-22405332Y-16731907D01*
X-22392720Y-16752950D01*
X-22382230Y-16775129D01*
X-22373965Y-16798228D01*
X-22368004Y-16822027D01*
X-22364404Y-16846295D01*
X-22363200Y-16870799D01*
X-22363200Y-17520801D01*
X-22364404Y-17545305D01*
X-22368004Y-17569573D01*
X-22373965Y-17593372D01*
X-22382230Y-17616471D01*
X-22392720Y-17638650D01*
X-22405332Y-17659693D01*
X-22419947Y-17679399D01*
X-22436423Y-17697577D01*
X-22454601Y-17714053D01*
X-22474307Y-17728668D01*
X-22495350Y-17741280D01*
X-22517529Y-17751770D01*
X-22540628Y-17760035D01*
X-22564427Y-17765996D01*
X-22588695Y-17769596D01*
X-22613199Y-17770800D01*
X-23513201Y-17770800D01*
X-23537705Y-17769596D01*
X-23561973Y-17765996D01*
X-23585772Y-17760035D01*
X-23608871Y-17751770D01*
X-23631050Y-17741280D01*
X-23652093Y-17728668D01*
X-23671799Y-17714053D01*
X-23689977Y-17697577D01*
X-23706453Y-17679399D01*
X-23721068Y-17659693D01*
X-23733680Y-17638650D01*
X-23744170Y-17616471D01*
X-23752435Y-17593372D01*
X-23758396Y-17569573D01*
X-23761996Y-17545305D01*
X-23763200Y-17520801D01*
X-23763200Y-16870799D01*
X-23761996Y-16846295D01*
X-23758396Y-16822027D01*
X-23752435Y-16798228D01*
X-23744170Y-16775129D01*
X-23733680Y-16752950D01*
X-23721068Y-16731907D01*
X-23706453Y-16712201D01*
X-23689977Y-16694023D01*
X-23671799Y-16677547D01*
X-23652093Y-16662932D01*
X-23631050Y-16650320D01*
X-23608871Y-16639830D01*
X-23585772Y-16631565D01*
X-23561973Y-16625604D01*
X-23537705Y-16622004D01*
X-23513201Y-16620800D01*
X-22613199Y-16620800D01*
X-22588695Y-16622004D01*
G37*
G36*
X5676105Y-21754804D02*
G01*
X5700373Y-21758404D01*
X5724172Y-21764365D01*
X5747271Y-21772630D01*
X5769450Y-21783120D01*
X5790493Y-21795732D01*
X5810199Y-21810347D01*
X5828377Y-21826823D01*
X5844853Y-21845001D01*
X5859468Y-21864707D01*
X5872080Y-21885750D01*
X5882570Y-21907929D01*
X5890835Y-21931028D01*
X5896796Y-21954827D01*
X5900396Y-21979095D01*
X5901600Y-22003599D01*
X5901600Y-22903601D01*
X5900396Y-22928105D01*
X5896796Y-22952373D01*
X5890835Y-22976172D01*
X5882570Y-22999271D01*
X5872080Y-23021450D01*
X5859468Y-23042493D01*
X5844853Y-23062199D01*
X5828377Y-23080377D01*
X5810199Y-23096853D01*
X5790493Y-23111468D01*
X5769450Y-23124080D01*
X5747271Y-23134570D01*
X5724172Y-23142835D01*
X5700373Y-23148796D01*
X5676105Y-23152396D01*
X5651601Y-23153600D01*
X5001599Y-23153600D01*
X4977095Y-23152396D01*
X4952827Y-23148796D01*
X4929028Y-23142835D01*
X4905929Y-23134570D01*
X4883750Y-23124080D01*
X4862707Y-23111468D01*
X4843001Y-23096853D01*
X4824823Y-23080377D01*
X4808347Y-23062199D01*
X4793732Y-23042493D01*
X4781120Y-23021450D01*
X4770630Y-22999271D01*
X4762365Y-22976172D01*
X4756404Y-22952373D01*
X4752804Y-22928105D01*
X4751600Y-22903601D01*
X4751600Y-22003599D01*
X4752804Y-21979095D01*
X4756404Y-21954827D01*
X4762365Y-21931028D01*
X4770630Y-21907929D01*
X4781120Y-21885750D01*
X4793732Y-21864707D01*
X4808347Y-21845001D01*
X4824823Y-21826823D01*
X4843001Y-21810347D01*
X4862707Y-21795732D01*
X4883750Y-21783120D01*
X4905929Y-21772630D01*
X4929028Y-21764365D01*
X4952827Y-21758404D01*
X4977095Y-21754804D01*
X5001599Y-21753600D01*
X5651601Y-21753600D01*
X5676105Y-21754804D01*
G37*
G36*
X3626105Y-21754804D02*
G01*
X3650373Y-21758404D01*
X3674172Y-21764365D01*
X3697271Y-21772630D01*
X3719450Y-21783120D01*
X3740493Y-21795732D01*
X3760199Y-21810347D01*
X3778377Y-21826823D01*
X3794853Y-21845001D01*
X3809468Y-21864707D01*
X3822080Y-21885750D01*
X3832570Y-21907929D01*
X3840835Y-21931028D01*
X3846796Y-21954827D01*
X3850396Y-21979095D01*
X3851600Y-22003599D01*
X3851600Y-22903601D01*
X3850396Y-22928105D01*
X3846796Y-22952373D01*
X3840835Y-22976172D01*
X3832570Y-22999271D01*
X3822080Y-23021450D01*
X3809468Y-23042493D01*
X3794853Y-23062199D01*
X3778377Y-23080377D01*
X3760199Y-23096853D01*
X3740493Y-23111468D01*
X3719450Y-23124080D01*
X3697271Y-23134570D01*
X3674172Y-23142835D01*
X3650373Y-23148796D01*
X3626105Y-23152396D01*
X3601601Y-23153600D01*
X2951599Y-23153600D01*
X2927095Y-23152396D01*
X2902827Y-23148796D01*
X2879028Y-23142835D01*
X2855929Y-23134570D01*
X2833750Y-23124080D01*
X2812707Y-23111468D01*
X2793001Y-23096853D01*
X2774823Y-23080377D01*
X2758347Y-23062199D01*
X2743732Y-23042493D01*
X2731120Y-23021450D01*
X2720630Y-22999271D01*
X2712365Y-22976172D01*
X2706404Y-22952373D01*
X2702804Y-22928105D01*
X2701600Y-22903601D01*
X2701600Y-22003599D01*
X2702804Y-21979095D01*
X2706404Y-21954827D01*
X2712365Y-21931028D01*
X2720630Y-21907929D01*
X2731120Y-21885750D01*
X2743732Y-21864707D01*
X2758347Y-21845001D01*
X2774823Y-21826823D01*
X2793001Y-21810347D01*
X2812707Y-21795732D01*
X2833750Y-21783120D01*
X2855929Y-21772630D01*
X2879028Y-21764365D01*
X2902827Y-21758404D01*
X2927095Y-21754804D01*
X2951599Y-21753600D01*
X3601601Y-21753600D01*
X3626105Y-21754804D01*
G37*
G36*
X35129505Y-13398204D02*
G01*
X35153773Y-13401804D01*
X35177572Y-13407765D01*
X35200671Y-13416030D01*
X35222850Y-13426520D01*
X35243893Y-13439132D01*
X35263599Y-13453747D01*
X35281777Y-13470223D01*
X35298253Y-13488401D01*
X35312868Y-13508107D01*
X35325480Y-13529150D01*
X35335970Y-13551329D01*
X35344235Y-13574428D01*
X35350196Y-13598227D01*
X35353796Y-13622495D01*
X35355000Y-13646999D01*
X35355000Y-14547001D01*
X35353796Y-14571505D01*
X35350196Y-14595773D01*
X35344235Y-14619572D01*
X35335970Y-14642671D01*
X35325480Y-14664850D01*
X35312868Y-14685893D01*
X35298253Y-14705599D01*
X35281777Y-14723777D01*
X35263599Y-14740253D01*
X35243893Y-14754868D01*
X35222850Y-14767480D01*
X35200671Y-14777970D01*
X35177572Y-14786235D01*
X35153773Y-14792196D01*
X35129505Y-14795796D01*
X35105001Y-14797000D01*
X34454999Y-14797000D01*
X34430495Y-14795796D01*
X34406227Y-14792196D01*
X34382428Y-14786235D01*
X34359329Y-14777970D01*
X34337150Y-14767480D01*
X34316107Y-14754868D01*
X34296401Y-14740253D01*
X34278223Y-14723777D01*
X34261747Y-14705599D01*
X34247132Y-14685893D01*
X34234520Y-14664850D01*
X34224030Y-14642671D01*
X34215765Y-14619572D01*
X34209804Y-14595773D01*
X34206204Y-14571505D01*
X34205000Y-14547001D01*
X34205000Y-13646999D01*
X34206204Y-13622495D01*
X34209804Y-13598227D01*
X34215765Y-13574428D01*
X34224030Y-13551329D01*
X34234520Y-13529150D01*
X34247132Y-13508107D01*
X34261747Y-13488401D01*
X34278223Y-13470223D01*
X34296401Y-13453747D01*
X34316107Y-13439132D01*
X34337150Y-13426520D01*
X34359329Y-13416030D01*
X34382428Y-13407765D01*
X34406227Y-13401804D01*
X34430495Y-13398204D01*
X34454999Y-13397000D01*
X35105001Y-13397000D01*
X35129505Y-13398204D01*
G37*
G36*
X37179505Y-13398204D02*
G01*
X37203773Y-13401804D01*
X37227572Y-13407765D01*
X37250671Y-13416030D01*
X37272850Y-13426520D01*
X37293893Y-13439132D01*
X37313599Y-13453747D01*
X37331777Y-13470223D01*
X37348253Y-13488401D01*
X37362868Y-13508107D01*
X37375480Y-13529150D01*
X37385970Y-13551329D01*
X37394235Y-13574428D01*
X37400196Y-13598227D01*
X37403796Y-13622495D01*
X37405000Y-13646999D01*
X37405000Y-14547001D01*
X37403796Y-14571505D01*
X37400196Y-14595773D01*
X37394235Y-14619572D01*
X37385970Y-14642671D01*
X37375480Y-14664850D01*
X37362868Y-14685893D01*
X37348253Y-14705599D01*
X37331777Y-14723777D01*
X37313599Y-14740253D01*
X37293893Y-14754868D01*
X37272850Y-14767480D01*
X37250671Y-14777970D01*
X37227572Y-14786235D01*
X37203773Y-14792196D01*
X37179505Y-14795796D01*
X37155001Y-14797000D01*
X36504999Y-14797000D01*
X36480495Y-14795796D01*
X36456227Y-14792196D01*
X36432428Y-14786235D01*
X36409329Y-14777970D01*
X36387150Y-14767480D01*
X36366107Y-14754868D01*
X36346401Y-14740253D01*
X36328223Y-14723777D01*
X36311747Y-14705599D01*
X36297132Y-14685893D01*
X36284520Y-14664850D01*
X36274030Y-14642671D01*
X36265765Y-14619572D01*
X36259804Y-14595773D01*
X36256204Y-14571505D01*
X36255000Y-14547001D01*
X36255000Y-13646999D01*
X36256204Y-13622495D01*
X36259804Y-13598227D01*
X36265765Y-13574428D01*
X36274030Y-13551329D01*
X36284520Y-13529150D01*
X36297132Y-13508107D01*
X36311747Y-13488401D01*
X36328223Y-13470223D01*
X36346401Y-13453747D01*
X36366107Y-13439132D01*
X36387150Y-13426520D01*
X36409329Y-13416030D01*
X36432428Y-13407765D01*
X36456227Y-13401804D01*
X36480495Y-13398204D01*
X36504999Y-13397000D01*
X37155001Y-13397000D01*
X37179505Y-13398204D01*
G37*
G36*
X26128505Y-10391604D02*
G01*
X26152773Y-10395204D01*
X26176572Y-10401165D01*
X26199671Y-10409430D01*
X26221850Y-10419920D01*
X26242893Y-10432532D01*
X26262599Y-10447147D01*
X26280777Y-10463623D01*
X26297253Y-10481801D01*
X26311868Y-10501507D01*
X26324480Y-10522550D01*
X26334970Y-10544729D01*
X26343235Y-10567828D01*
X26349196Y-10591627D01*
X26352796Y-10615895D01*
X26354000Y-10640399D01*
X26354000Y-11290401D01*
X26352796Y-11314905D01*
X26349196Y-11339173D01*
X26343235Y-11362972D01*
X26334970Y-11386071D01*
X26324480Y-11408250D01*
X26311868Y-11429293D01*
X26297253Y-11448999D01*
X26280777Y-11467177D01*
X26262599Y-11483653D01*
X26242893Y-11498268D01*
X26221850Y-11510880D01*
X26199671Y-11521370D01*
X26176572Y-11529635D01*
X26152773Y-11535596D01*
X26128505Y-11539196D01*
X26104001Y-11540400D01*
X25203999Y-11540400D01*
X25179495Y-11539196D01*
X25155227Y-11535596D01*
X25131428Y-11529635D01*
X25108329Y-11521370D01*
X25086150Y-11510880D01*
X25065107Y-11498268D01*
X25045401Y-11483653D01*
X25027223Y-11467177D01*
X25010747Y-11448999D01*
X24996132Y-11429293D01*
X24983520Y-11408250D01*
X24973030Y-11386071D01*
X24964765Y-11362972D01*
X24958804Y-11339173D01*
X24955204Y-11314905D01*
X24954000Y-11290401D01*
X24954000Y-10640399D01*
X24955204Y-10615895D01*
X24958804Y-10591627D01*
X24964765Y-10567828D01*
X24973030Y-10544729D01*
X24983520Y-10522550D01*
X24996132Y-10501507D01*
X25010747Y-10481801D01*
X25027223Y-10463623D01*
X25045401Y-10447147D01*
X25065107Y-10432532D01*
X25086150Y-10419920D01*
X25108329Y-10409430D01*
X25131428Y-10401165D01*
X25155227Y-10395204D01*
X25179495Y-10391604D01*
X25203999Y-10390400D01*
X26104001Y-10390400D01*
X26128505Y-10391604D01*
G37*
G36*
X26128505Y-8341604D02*
G01*
X26152773Y-8345204D01*
X26176572Y-8351165D01*
X26199671Y-8359430D01*
X26221850Y-8369920D01*
X26242893Y-8382532D01*
X26262599Y-8397147D01*
X26280777Y-8413623D01*
X26297253Y-8431801D01*
X26311868Y-8451507D01*
X26324480Y-8472550D01*
X26334970Y-8494729D01*
X26343235Y-8517828D01*
X26349196Y-8541627D01*
X26352796Y-8565895D01*
X26354000Y-8590399D01*
X26354000Y-9240401D01*
X26352796Y-9264905D01*
X26349196Y-9289173D01*
X26343235Y-9312972D01*
X26334970Y-9336071D01*
X26324480Y-9358250D01*
X26311868Y-9379293D01*
X26297253Y-9398999D01*
X26280777Y-9417177D01*
X26262599Y-9433653D01*
X26242893Y-9448268D01*
X26221850Y-9460880D01*
X26199671Y-9471370D01*
X26176572Y-9479635D01*
X26152773Y-9485596D01*
X26128505Y-9489196D01*
X26104001Y-9490400D01*
X25203999Y-9490400D01*
X25179495Y-9489196D01*
X25155227Y-9485596D01*
X25131428Y-9479635D01*
X25108329Y-9471370D01*
X25086150Y-9460880D01*
X25065107Y-9448268D01*
X25045401Y-9433653D01*
X25027223Y-9417177D01*
X25010747Y-9398999D01*
X24996132Y-9379293D01*
X24983520Y-9358250D01*
X24973030Y-9336071D01*
X24964765Y-9312972D01*
X24958804Y-9289173D01*
X24955204Y-9264905D01*
X24954000Y-9240401D01*
X24954000Y-8590399D01*
X24955204Y-8565895D01*
X24958804Y-8541627D01*
X24964765Y-8517828D01*
X24973030Y-8494729D01*
X24983520Y-8472550D01*
X24996132Y-8451507D01*
X25010747Y-8431801D01*
X25027223Y-8413623D01*
X25045401Y-8397147D01*
X25065107Y-8382532D01*
X25086150Y-8369920D01*
X25108329Y-8359430D01*
X25131428Y-8351165D01*
X25155227Y-8345204D01*
X25179495Y-8341604D01*
X25203999Y-8340400D01*
X26104001Y-8340400D01*
X26128505Y-8341604D01*
G37*
D21*
X23733800Y-6353800D03*
X21833800Y-6353800D03*
X21833800Y-3653800D03*
X22783800Y-3653800D03*
X23733800Y-3653800D03*
D12*
X7670800Y-5191800D03*
X7670800Y-4241800D03*
X7670800Y-3291800D03*
X4970800Y-3291800D03*
X4970800Y-5191800D03*
D22*
X-15494000Y-19100800D03*
X-15494000Y-17200800D03*
X-17494000Y-18150800D03*
D11*
G36*
X-13241495Y-16469604D02*
G01*
X-13217227Y-16473204D01*
X-13193428Y-16479165D01*
X-13170329Y-16487430D01*
X-13148150Y-16497920D01*
X-13127107Y-16510532D01*
X-13107401Y-16525147D01*
X-13089223Y-16541623D01*
X-13072747Y-16559801D01*
X-13058132Y-16579507D01*
X-13045520Y-16600550D01*
X-13035030Y-16622729D01*
X-13026765Y-16645828D01*
X-13020804Y-16669627D01*
X-13017204Y-16693895D01*
X-13016000Y-16718399D01*
X-13016000Y-17368401D01*
X-13017204Y-17392905D01*
X-13020804Y-17417173D01*
X-13026765Y-17440972D01*
X-13035030Y-17464071D01*
X-13045520Y-17486250D01*
X-13058132Y-17507293D01*
X-13072747Y-17526999D01*
X-13089223Y-17545177D01*
X-13107401Y-17561653D01*
X-13127107Y-17576268D01*
X-13148150Y-17588880D01*
X-13170329Y-17599370D01*
X-13193428Y-17607635D01*
X-13217227Y-17613596D01*
X-13241495Y-17617196D01*
X-13265999Y-17618400D01*
X-14166001Y-17618400D01*
X-14190505Y-17617196D01*
X-14214773Y-17613596D01*
X-14238572Y-17607635D01*
X-14261671Y-17599370D01*
X-14283850Y-17588880D01*
X-14304893Y-17576268D01*
X-14324599Y-17561653D01*
X-14342777Y-17545177D01*
X-14359253Y-17526999D01*
X-14373868Y-17507293D01*
X-14386480Y-17486250D01*
X-14396970Y-17464071D01*
X-14405235Y-17440972D01*
X-14411196Y-17417173D01*
X-14414796Y-17392905D01*
X-14416000Y-17368401D01*
X-14416000Y-16718399D01*
X-14414796Y-16693895D01*
X-14411196Y-16669627D01*
X-14405235Y-16645828D01*
X-14396970Y-16622729D01*
X-14386480Y-16600550D01*
X-14373868Y-16579507D01*
X-14359253Y-16559801D01*
X-14342777Y-16541623D01*
X-14324599Y-16525147D01*
X-14304893Y-16510532D01*
X-14283850Y-16497920D01*
X-14261671Y-16487430D01*
X-14238572Y-16479165D01*
X-14214773Y-16473204D01*
X-14190505Y-16469604D01*
X-14166001Y-16468400D01*
X-13265999Y-16468400D01*
X-13241495Y-16469604D01*
G37*
G36*
X-13241495Y-18519604D02*
G01*
X-13217227Y-18523204D01*
X-13193428Y-18529165D01*
X-13170329Y-18537430D01*
X-13148150Y-18547920D01*
X-13127107Y-18560532D01*
X-13107401Y-18575147D01*
X-13089223Y-18591623D01*
X-13072747Y-18609801D01*
X-13058132Y-18629507D01*
X-13045520Y-18650550D01*
X-13035030Y-18672729D01*
X-13026765Y-18695828D01*
X-13020804Y-18719627D01*
X-13017204Y-18743895D01*
X-13016000Y-18768399D01*
X-13016000Y-19418401D01*
X-13017204Y-19442905D01*
X-13020804Y-19467173D01*
X-13026765Y-19490972D01*
X-13035030Y-19514071D01*
X-13045520Y-19536250D01*
X-13058132Y-19557293D01*
X-13072747Y-19576999D01*
X-13089223Y-19595177D01*
X-13107401Y-19611653D01*
X-13127107Y-19626268D01*
X-13148150Y-19638880D01*
X-13170329Y-19649370D01*
X-13193428Y-19657635D01*
X-13217227Y-19663596D01*
X-13241495Y-19667196D01*
X-13265999Y-19668400D01*
X-14166001Y-19668400D01*
X-14190505Y-19667196D01*
X-14214773Y-19663596D01*
X-14238572Y-19657635D01*
X-14261671Y-19649370D01*
X-14283850Y-19638880D01*
X-14304893Y-19626268D01*
X-14324599Y-19611653D01*
X-14342777Y-19595177D01*
X-14359253Y-19576999D01*
X-14373868Y-19557293D01*
X-14386480Y-19536250D01*
X-14396970Y-19514071D01*
X-14405235Y-19490972D01*
X-14411196Y-19467173D01*
X-14414796Y-19442905D01*
X-14416000Y-19418401D01*
X-14416000Y-18768399D01*
X-14414796Y-18743895D01*
X-14411196Y-18719627D01*
X-14405235Y-18695828D01*
X-14396970Y-18672729D01*
X-14386480Y-18650550D01*
X-14373868Y-18629507D01*
X-14359253Y-18609801D01*
X-14342777Y-18591623D01*
X-14324599Y-18575147D01*
X-14304893Y-18560532D01*
X-14283850Y-18547920D01*
X-14261671Y-18537430D01*
X-14238572Y-18529165D01*
X-14214773Y-18523204D01*
X-14190505Y-18519604D01*
X-14166001Y-18518400D01*
X-13265999Y-18518400D01*
X-13241495Y-18519604D01*
G37*
G36*
X18399905Y-2755604D02*
G01*
X18424173Y-2759204D01*
X18447972Y-2765165D01*
X18471071Y-2773430D01*
X18493250Y-2783920D01*
X18514293Y-2796532D01*
X18533999Y-2811147D01*
X18552177Y-2827623D01*
X18568653Y-2845801D01*
X18583268Y-2865507D01*
X18595880Y-2886550D01*
X18606370Y-2908729D01*
X18614635Y-2931828D01*
X18620596Y-2955627D01*
X18624196Y-2979895D01*
X18625400Y-3004399D01*
X18625400Y-3904401D01*
X18624196Y-3928905D01*
X18620596Y-3953173D01*
X18614635Y-3976972D01*
X18606370Y-4000071D01*
X18595880Y-4022250D01*
X18583268Y-4043293D01*
X18568653Y-4062999D01*
X18552177Y-4081177D01*
X18533999Y-4097653D01*
X18514293Y-4112268D01*
X18493250Y-4124880D01*
X18471071Y-4135370D01*
X18447972Y-4143635D01*
X18424173Y-4149596D01*
X18399905Y-4153196D01*
X18375401Y-4154400D01*
X17725399Y-4154400D01*
X17700895Y-4153196D01*
X17676627Y-4149596D01*
X17652828Y-4143635D01*
X17629729Y-4135370D01*
X17607550Y-4124880D01*
X17586507Y-4112268D01*
X17566801Y-4097653D01*
X17548623Y-4081177D01*
X17532147Y-4062999D01*
X17517532Y-4043293D01*
X17504920Y-4022250D01*
X17494430Y-4000071D01*
X17486165Y-3976972D01*
X17480204Y-3953173D01*
X17476604Y-3928905D01*
X17475400Y-3904401D01*
X17475400Y-3004399D01*
X17476604Y-2979895D01*
X17480204Y-2955627D01*
X17486165Y-2931828D01*
X17494430Y-2908729D01*
X17504920Y-2886550D01*
X17517532Y-2865507D01*
X17532147Y-2845801D01*
X17548623Y-2827623D01*
X17566801Y-2811147D01*
X17586507Y-2796532D01*
X17607550Y-2783920D01*
X17629729Y-2773430D01*
X17652828Y-2765165D01*
X17676627Y-2759204D01*
X17700895Y-2755604D01*
X17725399Y-2754400D01*
X18375401Y-2754400D01*
X18399905Y-2755604D01*
G37*
G36*
X20449905Y-2755604D02*
G01*
X20474173Y-2759204D01*
X20497972Y-2765165D01*
X20521071Y-2773430D01*
X20543250Y-2783920D01*
X20564293Y-2796532D01*
X20583999Y-2811147D01*
X20602177Y-2827623D01*
X20618653Y-2845801D01*
X20633268Y-2865507D01*
X20645880Y-2886550D01*
X20656370Y-2908729D01*
X20664635Y-2931828D01*
X20670596Y-2955627D01*
X20674196Y-2979895D01*
X20675400Y-3004399D01*
X20675400Y-3904401D01*
X20674196Y-3928905D01*
X20670596Y-3953173D01*
X20664635Y-3976972D01*
X20656370Y-4000071D01*
X20645880Y-4022250D01*
X20633268Y-4043293D01*
X20618653Y-4062999D01*
X20602177Y-4081177D01*
X20583999Y-4097653D01*
X20564293Y-4112268D01*
X20543250Y-4124880D01*
X20521071Y-4135370D01*
X20497972Y-4143635D01*
X20474173Y-4149596D01*
X20449905Y-4153196D01*
X20425401Y-4154400D01*
X19775399Y-4154400D01*
X19750895Y-4153196D01*
X19726627Y-4149596D01*
X19702828Y-4143635D01*
X19679729Y-4135370D01*
X19657550Y-4124880D01*
X19636507Y-4112268D01*
X19616801Y-4097653D01*
X19598623Y-4081177D01*
X19582147Y-4062999D01*
X19567532Y-4043293D01*
X19554920Y-4022250D01*
X19544430Y-4000071D01*
X19536165Y-3976972D01*
X19530204Y-3953173D01*
X19526604Y-3928905D01*
X19525400Y-3904401D01*
X19525400Y-3004399D01*
X19526604Y-2979895D01*
X19530204Y-2955627D01*
X19536165Y-2931828D01*
X19544430Y-2908729D01*
X19554920Y-2886550D01*
X19567532Y-2865507D01*
X19582147Y-2845801D01*
X19598623Y-2827623D01*
X19616801Y-2811147D01*
X19636507Y-2796532D01*
X19657550Y-2783920D01*
X19679729Y-2773430D01*
X19702828Y-2765165D01*
X19726627Y-2759204D01*
X19750895Y-2755604D01*
X19775399Y-2754400D01*
X20425401Y-2754400D01*
X20449905Y-2755604D01*
G37*
G36*
X18408905Y-698204D02*
G01*
X18433173Y-701804D01*
X18456972Y-707765D01*
X18480071Y-716030D01*
X18502250Y-726520D01*
X18523293Y-739132D01*
X18542999Y-753747D01*
X18561177Y-770223D01*
X18577653Y-788401D01*
X18592268Y-808107D01*
X18604880Y-829150D01*
X18615370Y-851329D01*
X18623635Y-874428D01*
X18629596Y-898227D01*
X18633196Y-922495D01*
X18634400Y-946999D01*
X18634400Y-1847001D01*
X18633196Y-1871505D01*
X18629596Y-1895773D01*
X18623635Y-1919572D01*
X18615370Y-1942671D01*
X18604880Y-1964850D01*
X18592268Y-1985893D01*
X18577653Y-2005599D01*
X18561177Y-2023777D01*
X18542999Y-2040253D01*
X18523293Y-2054868D01*
X18502250Y-2067480D01*
X18480071Y-2077970D01*
X18456972Y-2086235D01*
X18433173Y-2092196D01*
X18408905Y-2095796D01*
X18384401Y-2097000D01*
X17734399Y-2097000D01*
X17709895Y-2095796D01*
X17685627Y-2092196D01*
X17661828Y-2086235D01*
X17638729Y-2077970D01*
X17616550Y-2067480D01*
X17595507Y-2054868D01*
X17575801Y-2040253D01*
X17557623Y-2023777D01*
X17541147Y-2005599D01*
X17526532Y-1985893D01*
X17513920Y-1964850D01*
X17503430Y-1942671D01*
X17495165Y-1919572D01*
X17489204Y-1895773D01*
X17485604Y-1871505D01*
X17484400Y-1847001D01*
X17484400Y-946999D01*
X17485604Y-922495D01*
X17489204Y-898227D01*
X17495165Y-874428D01*
X17503430Y-851329D01*
X17513920Y-829150D01*
X17526532Y-808107D01*
X17541147Y-788401D01*
X17557623Y-770223D01*
X17575801Y-753747D01*
X17595507Y-739132D01*
X17616550Y-726520D01*
X17638729Y-716030D01*
X17661828Y-707765D01*
X17685627Y-701804D01*
X17709895Y-698204D01*
X17734399Y-697000D01*
X18384401Y-697000D01*
X18408905Y-698204D01*
G37*
G36*
X20458905Y-698204D02*
G01*
X20483173Y-701804D01*
X20506972Y-707765D01*
X20530071Y-716030D01*
X20552250Y-726520D01*
X20573293Y-739132D01*
X20592999Y-753747D01*
X20611177Y-770223D01*
X20627653Y-788401D01*
X20642268Y-808107D01*
X20654880Y-829150D01*
X20665370Y-851329D01*
X20673635Y-874428D01*
X20679596Y-898227D01*
X20683196Y-922495D01*
X20684400Y-946999D01*
X20684400Y-1847001D01*
X20683196Y-1871505D01*
X20679596Y-1895773D01*
X20673635Y-1919572D01*
X20665370Y-1942671D01*
X20654880Y-1964850D01*
X20642268Y-1985893D01*
X20627653Y-2005599D01*
X20611177Y-2023777D01*
X20592999Y-2040253D01*
X20573293Y-2054868D01*
X20552250Y-2067480D01*
X20530071Y-2077970D01*
X20506972Y-2086235D01*
X20483173Y-2092196D01*
X20458905Y-2095796D01*
X20434401Y-2097000D01*
X19784399Y-2097000D01*
X19759895Y-2095796D01*
X19735627Y-2092196D01*
X19711828Y-2086235D01*
X19688729Y-2077970D01*
X19666550Y-2067480D01*
X19645507Y-2054868D01*
X19625801Y-2040253D01*
X19607623Y-2023777D01*
X19591147Y-2005599D01*
X19576532Y-1985893D01*
X19563920Y-1964850D01*
X19553430Y-1942671D01*
X19545165Y-1919572D01*
X19539204Y-1895773D01*
X19535604Y-1871505D01*
X19534400Y-1847001D01*
X19534400Y-946999D01*
X19535604Y-922495D01*
X19539204Y-898227D01*
X19545165Y-874428D01*
X19553430Y-851329D01*
X19563920Y-829150D01*
X19576532Y-808107D01*
X19591147Y-788401D01*
X19607623Y-770223D01*
X19625801Y-753747D01*
X19645507Y-739132D01*
X19666550Y-726520D01*
X19688729Y-716030D01*
X19711828Y-707765D01*
X19735627Y-701804D01*
X19759895Y-698204D01*
X19784399Y-697000D01*
X20434401Y-697000D01*
X20458905Y-698204D01*
G37*
G36*
X-1606295Y-2222204D02*
G01*
X-1582027Y-2225804D01*
X-1558228Y-2231765D01*
X-1535129Y-2240030D01*
X-1512950Y-2250520D01*
X-1491907Y-2263132D01*
X-1472201Y-2277747D01*
X-1454023Y-2294223D01*
X-1437547Y-2312401D01*
X-1422932Y-2332107D01*
X-1410320Y-2353150D01*
X-1399830Y-2375329D01*
X-1391565Y-2398428D01*
X-1385604Y-2422227D01*
X-1382004Y-2446495D01*
X-1380800Y-2470999D01*
X-1380800Y-3371001D01*
X-1382004Y-3395505D01*
X-1385604Y-3419773D01*
X-1391565Y-3443572D01*
X-1399830Y-3466671D01*
X-1410320Y-3488850D01*
X-1422932Y-3509893D01*
X-1437547Y-3529599D01*
X-1454023Y-3547777D01*
X-1472201Y-3564253D01*
X-1491907Y-3578868D01*
X-1512950Y-3591480D01*
X-1535129Y-3601970D01*
X-1558228Y-3610235D01*
X-1582027Y-3616196D01*
X-1606295Y-3619796D01*
X-1630799Y-3621000D01*
X-2280801Y-3621000D01*
X-2305305Y-3619796D01*
X-2329573Y-3616196D01*
X-2353372Y-3610235D01*
X-2376471Y-3601970D01*
X-2398650Y-3591480D01*
X-2419693Y-3578868D01*
X-2439399Y-3564253D01*
X-2457577Y-3547777D01*
X-2474053Y-3529599D01*
X-2488668Y-3509893D01*
X-2501280Y-3488850D01*
X-2511770Y-3466671D01*
X-2520035Y-3443572D01*
X-2525996Y-3419773D01*
X-2529596Y-3395505D01*
X-2530800Y-3371001D01*
X-2530800Y-2470999D01*
X-2529596Y-2446495D01*
X-2525996Y-2422227D01*
X-2520035Y-2398428D01*
X-2511770Y-2375329D01*
X-2501280Y-2353150D01*
X-2488668Y-2332107D01*
X-2474053Y-2312401D01*
X-2457577Y-2294223D01*
X-2439399Y-2277747D01*
X-2419693Y-2263132D01*
X-2398650Y-2250520D01*
X-2376471Y-2240030D01*
X-2353372Y-2231765D01*
X-2329573Y-2225804D01*
X-2305305Y-2222204D01*
X-2280801Y-2221000D01*
X-1630799Y-2221000D01*
X-1606295Y-2222204D01*
G37*
G36*
X-3656295Y-2222204D02*
G01*
X-3632027Y-2225804D01*
X-3608228Y-2231765D01*
X-3585129Y-2240030D01*
X-3562950Y-2250520D01*
X-3541907Y-2263132D01*
X-3522201Y-2277747D01*
X-3504023Y-2294223D01*
X-3487547Y-2312401D01*
X-3472932Y-2332107D01*
X-3460320Y-2353150D01*
X-3449830Y-2375329D01*
X-3441565Y-2398428D01*
X-3435604Y-2422227D01*
X-3432004Y-2446495D01*
X-3430800Y-2470999D01*
X-3430800Y-3371001D01*
X-3432004Y-3395505D01*
X-3435604Y-3419773D01*
X-3441565Y-3443572D01*
X-3449830Y-3466671D01*
X-3460320Y-3488850D01*
X-3472932Y-3509893D01*
X-3487547Y-3529599D01*
X-3504023Y-3547777D01*
X-3522201Y-3564253D01*
X-3541907Y-3578868D01*
X-3562950Y-3591480D01*
X-3585129Y-3601970D01*
X-3608228Y-3610235D01*
X-3632027Y-3616196D01*
X-3656295Y-3619796D01*
X-3680799Y-3621000D01*
X-4330801Y-3621000D01*
X-4355305Y-3619796D01*
X-4379573Y-3616196D01*
X-4403372Y-3610235D01*
X-4426471Y-3601970D01*
X-4448650Y-3591480D01*
X-4469693Y-3578868D01*
X-4489399Y-3564253D01*
X-4507577Y-3547777D01*
X-4524053Y-3529599D01*
X-4538668Y-3509893D01*
X-4551280Y-3488850D01*
X-4561770Y-3466671D01*
X-4570035Y-3443572D01*
X-4575996Y-3419773D01*
X-4579596Y-3395505D01*
X-4580800Y-3371001D01*
X-4580800Y-2470999D01*
X-4579596Y-2446495D01*
X-4575996Y-2422227D01*
X-4570035Y-2398428D01*
X-4561770Y-2375329D01*
X-4551280Y-2353150D01*
X-4538668Y-2332107D01*
X-4524053Y-2312401D01*
X-4507577Y-2294223D01*
X-4489399Y-2277747D01*
X-4469693Y-2263132D01*
X-4448650Y-2250520D01*
X-4426471Y-2240030D01*
X-4403372Y-2231765D01*
X-4379573Y-2225804D01*
X-4355305Y-2222204D01*
X-4330801Y-2221000D01*
X-3680799Y-2221000D01*
X-3656295Y-2222204D01*
G37*
G36*
X1322105Y-2704804D02*
G01*
X1346373Y-2708404D01*
X1370172Y-2714365D01*
X1393271Y-2722630D01*
X1415450Y-2733120D01*
X1436493Y-2745732D01*
X1456199Y-2760347D01*
X1474377Y-2776823D01*
X1490853Y-2795001D01*
X1505468Y-2814707D01*
X1518080Y-2835750D01*
X1528570Y-2857929D01*
X1536835Y-2881028D01*
X1542796Y-2904827D01*
X1546396Y-2929095D01*
X1547600Y-2953599D01*
X1547600Y-3853601D01*
X1546396Y-3878105D01*
X1542796Y-3902373D01*
X1536835Y-3926172D01*
X1528570Y-3949271D01*
X1518080Y-3971450D01*
X1505468Y-3992493D01*
X1490853Y-4012199D01*
X1474377Y-4030377D01*
X1456199Y-4046853D01*
X1436493Y-4061468D01*
X1415450Y-4074080D01*
X1393271Y-4084570D01*
X1370172Y-4092835D01*
X1346373Y-4098796D01*
X1322105Y-4102396D01*
X1297601Y-4103600D01*
X647599Y-4103600D01*
X623095Y-4102396D01*
X598827Y-4098796D01*
X575028Y-4092835D01*
X551929Y-4084570D01*
X529750Y-4074080D01*
X508707Y-4061468D01*
X489001Y-4046853D01*
X470823Y-4030377D01*
X454347Y-4012199D01*
X439732Y-3992493D01*
X427120Y-3971450D01*
X416630Y-3949271D01*
X408365Y-3926172D01*
X402404Y-3902373D01*
X398804Y-3878105D01*
X397600Y-3853601D01*
X397600Y-2953599D01*
X398804Y-2929095D01*
X402404Y-2904827D01*
X408365Y-2881028D01*
X416630Y-2857929D01*
X427120Y-2835750D01*
X439732Y-2814707D01*
X454347Y-2795001D01*
X470823Y-2776823D01*
X489001Y-2760347D01*
X508707Y-2745732D01*
X529750Y-2733120D01*
X551929Y-2722630D01*
X575028Y-2714365D01*
X598827Y-2708404D01*
X623095Y-2704804D01*
X647599Y-2703600D01*
X1297601Y-2703600D01*
X1322105Y-2704804D01*
G37*
G36*
X3372105Y-2704804D02*
G01*
X3396373Y-2708404D01*
X3420172Y-2714365D01*
X3443271Y-2722630D01*
X3465450Y-2733120D01*
X3486493Y-2745732D01*
X3506199Y-2760347D01*
X3524377Y-2776823D01*
X3540853Y-2795001D01*
X3555468Y-2814707D01*
X3568080Y-2835750D01*
X3578570Y-2857929D01*
X3586835Y-2881028D01*
X3592796Y-2904827D01*
X3596396Y-2929095D01*
X3597600Y-2953599D01*
X3597600Y-3853601D01*
X3596396Y-3878105D01*
X3592796Y-3902373D01*
X3586835Y-3926172D01*
X3578570Y-3949271D01*
X3568080Y-3971450D01*
X3555468Y-3992493D01*
X3540853Y-4012199D01*
X3524377Y-4030377D01*
X3506199Y-4046853D01*
X3486493Y-4061468D01*
X3465450Y-4074080D01*
X3443271Y-4084570D01*
X3420172Y-4092835D01*
X3396373Y-4098796D01*
X3372105Y-4102396D01*
X3347601Y-4103600D01*
X2697599Y-4103600D01*
X2673095Y-4102396D01*
X2648827Y-4098796D01*
X2625028Y-4092835D01*
X2601929Y-4084570D01*
X2579750Y-4074080D01*
X2558707Y-4061468D01*
X2539001Y-4046853D01*
X2520823Y-4030377D01*
X2504347Y-4012199D01*
X2489732Y-3992493D01*
X2477120Y-3971450D01*
X2466630Y-3949271D01*
X2458365Y-3926172D01*
X2452404Y-3902373D01*
X2448804Y-3878105D01*
X2447600Y-3853601D01*
X2447600Y-2953599D01*
X2448804Y-2929095D01*
X2452404Y-2904827D01*
X2458365Y-2881028D01*
X2466630Y-2857929D01*
X2477120Y-2835750D01*
X2489732Y-2814707D01*
X2504347Y-2795001D01*
X2520823Y-2776823D01*
X2539001Y-2760347D01*
X2558707Y-2745732D01*
X2579750Y-2733120D01*
X2601929Y-2722630D01*
X2625028Y-2714365D01*
X2648827Y-2708404D01*
X2673095Y-2704804D01*
X2697599Y-2703600D01*
X3347601Y-2703600D01*
X3372105Y-2704804D01*
G37*
G36*
X41987505Y-14541204D02*
G01*
X42011773Y-14544804D01*
X42035572Y-14550765D01*
X42058671Y-14559030D01*
X42080850Y-14569520D01*
X42101893Y-14582132D01*
X42121599Y-14596747D01*
X42139777Y-14613223D01*
X42156253Y-14631401D01*
X42170868Y-14651107D01*
X42183480Y-14672150D01*
X42193970Y-14694329D01*
X42202235Y-14717428D01*
X42208196Y-14741227D01*
X42211796Y-14765495D01*
X42213000Y-14789999D01*
X42213000Y-15690001D01*
X42211796Y-15714505D01*
X42208196Y-15738773D01*
X42202235Y-15762572D01*
X42193970Y-15785671D01*
X42183480Y-15807850D01*
X42170868Y-15828893D01*
X42156253Y-15848599D01*
X42139777Y-15866777D01*
X42121599Y-15883253D01*
X42101893Y-15897868D01*
X42080850Y-15910480D01*
X42058671Y-15920970D01*
X42035572Y-15929235D01*
X42011773Y-15935196D01*
X41987505Y-15938796D01*
X41963001Y-15940000D01*
X41312999Y-15940000D01*
X41288495Y-15938796D01*
X41264227Y-15935196D01*
X41240428Y-15929235D01*
X41217329Y-15920970D01*
X41195150Y-15910480D01*
X41174107Y-15897868D01*
X41154401Y-15883253D01*
X41136223Y-15866777D01*
X41119747Y-15848599D01*
X41105132Y-15828893D01*
X41092520Y-15807850D01*
X41082030Y-15785671D01*
X41073765Y-15762572D01*
X41067804Y-15738773D01*
X41064204Y-15714505D01*
X41063000Y-15690001D01*
X41063000Y-14789999D01*
X41064204Y-14765495D01*
X41067804Y-14741227D01*
X41073765Y-14717428D01*
X41082030Y-14694329D01*
X41092520Y-14672150D01*
X41105132Y-14651107D01*
X41119747Y-14631401D01*
X41136223Y-14613223D01*
X41154401Y-14596747D01*
X41174107Y-14582132D01*
X41195150Y-14569520D01*
X41217329Y-14559030D01*
X41240428Y-14550765D01*
X41264227Y-14544804D01*
X41288495Y-14541204D01*
X41312999Y-14540000D01*
X41963001Y-14540000D01*
X41987505Y-14541204D01*
G37*
G36*
X44037505Y-14541204D02*
G01*
X44061773Y-14544804D01*
X44085572Y-14550765D01*
X44108671Y-14559030D01*
X44130850Y-14569520D01*
X44151893Y-14582132D01*
X44171599Y-14596747D01*
X44189777Y-14613223D01*
X44206253Y-14631401D01*
X44220868Y-14651107D01*
X44233480Y-14672150D01*
X44243970Y-14694329D01*
X44252235Y-14717428D01*
X44258196Y-14741227D01*
X44261796Y-14765495D01*
X44263000Y-14789999D01*
X44263000Y-15690001D01*
X44261796Y-15714505D01*
X44258196Y-15738773D01*
X44252235Y-15762572D01*
X44243970Y-15785671D01*
X44233480Y-15807850D01*
X44220868Y-15828893D01*
X44206253Y-15848599D01*
X44189777Y-15866777D01*
X44171599Y-15883253D01*
X44151893Y-15897868D01*
X44130850Y-15910480D01*
X44108671Y-15920970D01*
X44085572Y-15929235D01*
X44061773Y-15935196D01*
X44037505Y-15938796D01*
X44013001Y-15940000D01*
X43362999Y-15940000D01*
X43338495Y-15938796D01*
X43314227Y-15935196D01*
X43290428Y-15929235D01*
X43267329Y-15920970D01*
X43245150Y-15910480D01*
X43224107Y-15897868D01*
X43204401Y-15883253D01*
X43186223Y-15866777D01*
X43169747Y-15848599D01*
X43155132Y-15828893D01*
X43142520Y-15807850D01*
X43132030Y-15785671D01*
X43123765Y-15762572D01*
X43117804Y-15738773D01*
X43114204Y-15714505D01*
X43113000Y-15690001D01*
X43113000Y-14789999D01*
X43114204Y-14765495D01*
X43117804Y-14741227D01*
X43123765Y-14717428D01*
X43132030Y-14694329D01*
X43142520Y-14672150D01*
X43155132Y-14651107D01*
X43169747Y-14631401D01*
X43186223Y-14613223D01*
X43204401Y-14596747D01*
X43224107Y-14582132D01*
X43245150Y-14569520D01*
X43267329Y-14559030D01*
X43290428Y-14550765D01*
X43314227Y-14544804D01*
X43338495Y-14541204D01*
X43362999Y-14540000D01*
X44013001Y-14540000D01*
X44037505Y-14541204D01*
G37*
G36*
X44037505Y-18605204D02*
G01*
X44061773Y-18608804D01*
X44085572Y-18614765D01*
X44108671Y-18623030D01*
X44130850Y-18633520D01*
X44151893Y-18646132D01*
X44171599Y-18660747D01*
X44189777Y-18677223D01*
X44206253Y-18695401D01*
X44220868Y-18715107D01*
X44233480Y-18736150D01*
X44243970Y-18758329D01*
X44252235Y-18781428D01*
X44258196Y-18805227D01*
X44261796Y-18829495D01*
X44263000Y-18853999D01*
X44263000Y-19754001D01*
X44261796Y-19778505D01*
X44258196Y-19802773D01*
X44252235Y-19826572D01*
X44243970Y-19849671D01*
X44233480Y-19871850D01*
X44220868Y-19892893D01*
X44206253Y-19912599D01*
X44189777Y-19930777D01*
X44171599Y-19947253D01*
X44151893Y-19961868D01*
X44130850Y-19974480D01*
X44108671Y-19984970D01*
X44085572Y-19993235D01*
X44061773Y-19999196D01*
X44037505Y-20002796D01*
X44013001Y-20004000D01*
X43362999Y-20004000D01*
X43338495Y-20002796D01*
X43314227Y-19999196D01*
X43290428Y-19993235D01*
X43267329Y-19984970D01*
X43245150Y-19974480D01*
X43224107Y-19961868D01*
X43204401Y-19947253D01*
X43186223Y-19930777D01*
X43169747Y-19912599D01*
X43155132Y-19892893D01*
X43142520Y-19871850D01*
X43132030Y-19849671D01*
X43123765Y-19826572D01*
X43117804Y-19802773D01*
X43114204Y-19778505D01*
X43113000Y-19754001D01*
X43113000Y-18853999D01*
X43114204Y-18829495D01*
X43117804Y-18805227D01*
X43123765Y-18781428D01*
X43132030Y-18758329D01*
X43142520Y-18736150D01*
X43155132Y-18715107D01*
X43169747Y-18695401D01*
X43186223Y-18677223D01*
X43204401Y-18660747D01*
X43224107Y-18646132D01*
X43245150Y-18633520D01*
X43267329Y-18623030D01*
X43290428Y-18614765D01*
X43314227Y-18608804D01*
X43338495Y-18605204D01*
X43362999Y-18604000D01*
X44013001Y-18604000D01*
X44037505Y-18605204D01*
G37*
G36*
X41987505Y-18605204D02*
G01*
X42011773Y-18608804D01*
X42035572Y-18614765D01*
X42058671Y-18623030D01*
X42080850Y-18633520D01*
X42101893Y-18646132D01*
X42121599Y-18660747D01*
X42139777Y-18677223D01*
X42156253Y-18695401D01*
X42170868Y-18715107D01*
X42183480Y-18736150D01*
X42193970Y-18758329D01*
X42202235Y-18781428D01*
X42208196Y-18805227D01*
X42211796Y-18829495D01*
X42213000Y-18853999D01*
X42213000Y-19754001D01*
X42211796Y-19778505D01*
X42208196Y-19802773D01*
X42202235Y-19826572D01*
X42193970Y-19849671D01*
X42183480Y-19871850D01*
X42170868Y-19892893D01*
X42156253Y-19912599D01*
X42139777Y-19930777D01*
X42121599Y-19947253D01*
X42101893Y-19961868D01*
X42080850Y-19974480D01*
X42058671Y-19984970D01*
X42035572Y-19993235D01*
X42011773Y-19999196D01*
X41987505Y-20002796D01*
X41963001Y-20004000D01*
X41312999Y-20004000D01*
X41288495Y-20002796D01*
X41264227Y-19999196D01*
X41240428Y-19993235D01*
X41217329Y-19984970D01*
X41195150Y-19974480D01*
X41174107Y-19961868D01*
X41154401Y-19947253D01*
X41136223Y-19930777D01*
X41119747Y-19912599D01*
X41105132Y-19892893D01*
X41092520Y-19871850D01*
X41082030Y-19849671D01*
X41073765Y-19826572D01*
X41067804Y-19802773D01*
X41064204Y-19778505D01*
X41063000Y-19754001D01*
X41063000Y-18853999D01*
X41064204Y-18829495D01*
X41067804Y-18805227D01*
X41073765Y-18781428D01*
X41082030Y-18758329D01*
X41092520Y-18736150D01*
X41105132Y-18715107D01*
X41119747Y-18695401D01*
X41136223Y-18677223D01*
X41154401Y-18660747D01*
X41174107Y-18646132D01*
X41195150Y-18633520D01*
X41217329Y-18623030D01*
X41240428Y-18614765D01*
X41264227Y-18608804D01*
X41288495Y-18605204D01*
X41312999Y-18604000D01*
X41963001Y-18604000D01*
X41987505Y-18605204D01*
G37*
G36*
X44037505Y-16573204D02*
G01*
X44061773Y-16576804D01*
X44085572Y-16582765D01*
X44108671Y-16591030D01*
X44130850Y-16601520D01*
X44151893Y-16614132D01*
X44171599Y-16628747D01*
X44189777Y-16645223D01*
X44206253Y-16663401D01*
X44220868Y-16683107D01*
X44233480Y-16704150D01*
X44243970Y-16726329D01*
X44252235Y-16749428D01*
X44258196Y-16773227D01*
X44261796Y-16797495D01*
X44263000Y-16821999D01*
X44263000Y-17722001D01*
X44261796Y-17746505D01*
X44258196Y-17770773D01*
X44252235Y-17794572D01*
X44243970Y-17817671D01*
X44233480Y-17839850D01*
X44220868Y-17860893D01*
X44206253Y-17880599D01*
X44189777Y-17898777D01*
X44171599Y-17915253D01*
X44151893Y-17929868D01*
X44130850Y-17942480D01*
X44108671Y-17952970D01*
X44085572Y-17961235D01*
X44061773Y-17967196D01*
X44037505Y-17970796D01*
X44013001Y-17972000D01*
X43362999Y-17972000D01*
X43338495Y-17970796D01*
X43314227Y-17967196D01*
X43290428Y-17961235D01*
X43267329Y-17952970D01*
X43245150Y-17942480D01*
X43224107Y-17929868D01*
X43204401Y-17915253D01*
X43186223Y-17898777D01*
X43169747Y-17880599D01*
X43155132Y-17860893D01*
X43142520Y-17839850D01*
X43132030Y-17817671D01*
X43123765Y-17794572D01*
X43117804Y-17770773D01*
X43114204Y-17746505D01*
X43113000Y-17722001D01*
X43113000Y-16821999D01*
X43114204Y-16797495D01*
X43117804Y-16773227D01*
X43123765Y-16749428D01*
X43132030Y-16726329D01*
X43142520Y-16704150D01*
X43155132Y-16683107D01*
X43169747Y-16663401D01*
X43186223Y-16645223D01*
X43204401Y-16628747D01*
X43224107Y-16614132D01*
X43245150Y-16601520D01*
X43267329Y-16591030D01*
X43290428Y-16582765D01*
X43314227Y-16576804D01*
X43338495Y-16573204D01*
X43362999Y-16572000D01*
X44013001Y-16572000D01*
X44037505Y-16573204D01*
G37*
G36*
X41987505Y-16573204D02*
G01*
X42011773Y-16576804D01*
X42035572Y-16582765D01*
X42058671Y-16591030D01*
X42080850Y-16601520D01*
X42101893Y-16614132D01*
X42121599Y-16628747D01*
X42139777Y-16645223D01*
X42156253Y-16663401D01*
X42170868Y-16683107D01*
X42183480Y-16704150D01*
X42193970Y-16726329D01*
X42202235Y-16749428D01*
X42208196Y-16773227D01*
X42211796Y-16797495D01*
X42213000Y-16821999D01*
X42213000Y-17722001D01*
X42211796Y-17746505D01*
X42208196Y-17770773D01*
X42202235Y-17794572D01*
X42193970Y-17817671D01*
X42183480Y-17839850D01*
X42170868Y-17860893D01*
X42156253Y-17880599D01*
X42139777Y-17898777D01*
X42121599Y-17915253D01*
X42101893Y-17929868D01*
X42080850Y-17942480D01*
X42058671Y-17952970D01*
X42035572Y-17961235D01*
X42011773Y-17967196D01*
X41987505Y-17970796D01*
X41963001Y-17972000D01*
X41312999Y-17972000D01*
X41288495Y-17970796D01*
X41264227Y-17967196D01*
X41240428Y-17961235D01*
X41217329Y-17952970D01*
X41195150Y-17942480D01*
X41174107Y-17929868D01*
X41154401Y-17915253D01*
X41136223Y-17898777D01*
X41119747Y-17880599D01*
X41105132Y-17860893D01*
X41092520Y-17839850D01*
X41082030Y-17817671D01*
X41073765Y-17794572D01*
X41067804Y-17770773D01*
X41064204Y-17746505D01*
X41063000Y-17722001D01*
X41063000Y-16821999D01*
X41064204Y-16797495D01*
X41067804Y-16773227D01*
X41073765Y-16749428D01*
X41082030Y-16726329D01*
X41092520Y-16704150D01*
X41105132Y-16683107D01*
X41119747Y-16663401D01*
X41136223Y-16645223D01*
X41154401Y-16628747D01*
X41174107Y-16614132D01*
X41195150Y-16601520D01*
X41217329Y-16591030D01*
X41240428Y-16582765D01*
X41264227Y-16576804D01*
X41288495Y-16573204D01*
X41312999Y-16572000D01*
X41963001Y-16572000D01*
X41987505Y-16573204D01*
G37*
G36*
X59656505Y-25316204D02*
G01*
X59680773Y-25319804D01*
X59704572Y-25325765D01*
X59727671Y-25334030D01*
X59749850Y-25344520D01*
X59770893Y-25357132D01*
X59790599Y-25371747D01*
X59808777Y-25388223D01*
X59825253Y-25406401D01*
X59839868Y-25426107D01*
X59852480Y-25447150D01*
X59862970Y-25469329D01*
X59871235Y-25492428D01*
X59877196Y-25516227D01*
X59880796Y-25540495D01*
X59882000Y-25564999D01*
X59882000Y-26215001D01*
X59880796Y-26239505D01*
X59877196Y-26263773D01*
X59871235Y-26287572D01*
X59862970Y-26310671D01*
X59852480Y-26332850D01*
X59839868Y-26353893D01*
X59825253Y-26373599D01*
X59808777Y-26391777D01*
X59790599Y-26408253D01*
X59770893Y-26422868D01*
X59749850Y-26435480D01*
X59727671Y-26445970D01*
X59704572Y-26454235D01*
X59680773Y-26460196D01*
X59656505Y-26463796D01*
X59632001Y-26465000D01*
X58731999Y-26465000D01*
X58707495Y-26463796D01*
X58683227Y-26460196D01*
X58659428Y-26454235D01*
X58636329Y-26445970D01*
X58614150Y-26435480D01*
X58593107Y-26422868D01*
X58573401Y-26408253D01*
X58555223Y-26391777D01*
X58538747Y-26373599D01*
X58524132Y-26353893D01*
X58511520Y-26332850D01*
X58501030Y-26310671D01*
X58492765Y-26287572D01*
X58486804Y-26263773D01*
X58483204Y-26239505D01*
X58482000Y-26215001D01*
X58482000Y-25564999D01*
X58483204Y-25540495D01*
X58486804Y-25516227D01*
X58492765Y-25492428D01*
X58501030Y-25469329D01*
X58511520Y-25447150D01*
X58524132Y-25426107D01*
X58538747Y-25406401D01*
X58555223Y-25388223D01*
X58573401Y-25371747D01*
X58593107Y-25357132D01*
X58614150Y-25344520D01*
X58636329Y-25334030D01*
X58659428Y-25325765D01*
X58683227Y-25319804D01*
X58707495Y-25316204D01*
X58731999Y-25315000D01*
X59632001Y-25315000D01*
X59656505Y-25316204D01*
G37*
G36*
X59656505Y-27366204D02*
G01*
X59680773Y-27369804D01*
X59704572Y-27375765D01*
X59727671Y-27384030D01*
X59749850Y-27394520D01*
X59770893Y-27407132D01*
X59790599Y-27421747D01*
X59808777Y-27438223D01*
X59825253Y-27456401D01*
X59839868Y-27476107D01*
X59852480Y-27497150D01*
X59862970Y-27519329D01*
X59871235Y-27542428D01*
X59877196Y-27566227D01*
X59880796Y-27590495D01*
X59882000Y-27614999D01*
X59882000Y-28265001D01*
X59880796Y-28289505D01*
X59877196Y-28313773D01*
X59871235Y-28337572D01*
X59862970Y-28360671D01*
X59852480Y-28382850D01*
X59839868Y-28403893D01*
X59825253Y-28423599D01*
X59808777Y-28441777D01*
X59790599Y-28458253D01*
X59770893Y-28472868D01*
X59749850Y-28485480D01*
X59727671Y-28495970D01*
X59704572Y-28504235D01*
X59680773Y-28510196D01*
X59656505Y-28513796D01*
X59632001Y-28515000D01*
X58731999Y-28515000D01*
X58707495Y-28513796D01*
X58683227Y-28510196D01*
X58659428Y-28504235D01*
X58636329Y-28495970D01*
X58614150Y-28485480D01*
X58593107Y-28472868D01*
X58573401Y-28458253D01*
X58555223Y-28441777D01*
X58538747Y-28423599D01*
X58524132Y-28403893D01*
X58511520Y-28382850D01*
X58501030Y-28360671D01*
X58492765Y-28337572D01*
X58486804Y-28313773D01*
X58483204Y-28289505D01*
X58482000Y-28265001D01*
X58482000Y-27614999D01*
X58483204Y-27590495D01*
X58486804Y-27566227D01*
X58492765Y-27542428D01*
X58501030Y-27519329D01*
X58511520Y-27497150D01*
X58524132Y-27476107D01*
X58538747Y-27456401D01*
X58555223Y-27438223D01*
X58573401Y-27421747D01*
X58593107Y-27407132D01*
X58614150Y-27394520D01*
X58636329Y-27384030D01*
X58659428Y-27375765D01*
X58683227Y-27369804D01*
X58707495Y-27366204D01*
X58731999Y-27365000D01*
X59632001Y-27365000D01*
X59656505Y-27366204D01*
G37*
G36*
X57624505Y-27384204D02*
G01*
X57648773Y-27387804D01*
X57672572Y-27393765D01*
X57695671Y-27402030D01*
X57717850Y-27412520D01*
X57738893Y-27425132D01*
X57758599Y-27439747D01*
X57776777Y-27456223D01*
X57793253Y-27474401D01*
X57807868Y-27494107D01*
X57820480Y-27515150D01*
X57830970Y-27537329D01*
X57839235Y-27560428D01*
X57845196Y-27584227D01*
X57848796Y-27608495D01*
X57850000Y-27632999D01*
X57850000Y-28283001D01*
X57848796Y-28307505D01*
X57845196Y-28331773D01*
X57839235Y-28355572D01*
X57830970Y-28378671D01*
X57820480Y-28400850D01*
X57807868Y-28421893D01*
X57793253Y-28441599D01*
X57776777Y-28459777D01*
X57758599Y-28476253D01*
X57738893Y-28490868D01*
X57717850Y-28503480D01*
X57695671Y-28513970D01*
X57672572Y-28522235D01*
X57648773Y-28528196D01*
X57624505Y-28531796D01*
X57600001Y-28533000D01*
X56699999Y-28533000D01*
X56675495Y-28531796D01*
X56651227Y-28528196D01*
X56627428Y-28522235D01*
X56604329Y-28513970D01*
X56582150Y-28503480D01*
X56561107Y-28490868D01*
X56541401Y-28476253D01*
X56523223Y-28459777D01*
X56506747Y-28441599D01*
X56492132Y-28421893D01*
X56479520Y-28400850D01*
X56469030Y-28378671D01*
X56460765Y-28355572D01*
X56454804Y-28331773D01*
X56451204Y-28307505D01*
X56450000Y-28283001D01*
X56450000Y-27632999D01*
X56451204Y-27608495D01*
X56454804Y-27584227D01*
X56460765Y-27560428D01*
X56469030Y-27537329D01*
X56479520Y-27515150D01*
X56492132Y-27494107D01*
X56506747Y-27474401D01*
X56523223Y-27456223D01*
X56541401Y-27439747D01*
X56561107Y-27425132D01*
X56582150Y-27412520D01*
X56604329Y-27402030D01*
X56627428Y-27393765D01*
X56651227Y-27387804D01*
X56675495Y-27384204D01*
X56699999Y-27383000D01*
X57600001Y-27383000D01*
X57624505Y-27384204D01*
G37*
G36*
X57624505Y-25334204D02*
G01*
X57648773Y-25337804D01*
X57672572Y-25343765D01*
X57695671Y-25352030D01*
X57717850Y-25362520D01*
X57738893Y-25375132D01*
X57758599Y-25389747D01*
X57776777Y-25406223D01*
X57793253Y-25424401D01*
X57807868Y-25444107D01*
X57820480Y-25465150D01*
X57830970Y-25487329D01*
X57839235Y-25510428D01*
X57845196Y-25534227D01*
X57848796Y-25558495D01*
X57850000Y-25582999D01*
X57850000Y-26233001D01*
X57848796Y-26257505D01*
X57845196Y-26281773D01*
X57839235Y-26305572D01*
X57830970Y-26328671D01*
X57820480Y-26350850D01*
X57807868Y-26371893D01*
X57793253Y-26391599D01*
X57776777Y-26409777D01*
X57758599Y-26426253D01*
X57738893Y-26440868D01*
X57717850Y-26453480D01*
X57695671Y-26463970D01*
X57672572Y-26472235D01*
X57648773Y-26478196D01*
X57624505Y-26481796D01*
X57600001Y-26483000D01*
X56699999Y-26483000D01*
X56675495Y-26481796D01*
X56651227Y-26478196D01*
X56627428Y-26472235D01*
X56604329Y-26463970D01*
X56582150Y-26453480D01*
X56561107Y-26440868D01*
X56541401Y-26426253D01*
X56523223Y-26409777D01*
X56506747Y-26391599D01*
X56492132Y-26371893D01*
X56479520Y-26350850D01*
X56469030Y-26328671D01*
X56460765Y-26305572D01*
X56454804Y-26281773D01*
X56451204Y-26257505D01*
X56450000Y-26233001D01*
X56450000Y-25582999D01*
X56451204Y-25558495D01*
X56454804Y-25534227D01*
X56460765Y-25510428D01*
X56469030Y-25487329D01*
X56479520Y-25465150D01*
X56492132Y-25444107D01*
X56506747Y-25424401D01*
X56523223Y-25406223D01*
X56541401Y-25389747D01*
X56561107Y-25375132D01*
X56582150Y-25362520D01*
X56604329Y-25352030D01*
X56627428Y-25343765D01*
X56651227Y-25337804D01*
X56675495Y-25334204D01*
X56699999Y-25333000D01*
X57600001Y-25333000D01*
X57624505Y-25334204D01*
G37*
G36*
X59656505Y-20762204D02*
G01*
X59680773Y-20765804D01*
X59704572Y-20771765D01*
X59727671Y-20780030D01*
X59749850Y-20790520D01*
X59770893Y-20803132D01*
X59790599Y-20817747D01*
X59808777Y-20834223D01*
X59825253Y-20852401D01*
X59839868Y-20872107D01*
X59852480Y-20893150D01*
X59862970Y-20915329D01*
X59871235Y-20938428D01*
X59877196Y-20962227D01*
X59880796Y-20986495D01*
X59882000Y-21010999D01*
X59882000Y-21661001D01*
X59880796Y-21685505D01*
X59877196Y-21709773D01*
X59871235Y-21733572D01*
X59862970Y-21756671D01*
X59852480Y-21778850D01*
X59839868Y-21799893D01*
X59825253Y-21819599D01*
X59808777Y-21837777D01*
X59790599Y-21854253D01*
X59770893Y-21868868D01*
X59749850Y-21881480D01*
X59727671Y-21891970D01*
X59704572Y-21900235D01*
X59680773Y-21906196D01*
X59656505Y-21909796D01*
X59632001Y-21911000D01*
X58731999Y-21911000D01*
X58707495Y-21909796D01*
X58683227Y-21906196D01*
X58659428Y-21900235D01*
X58636329Y-21891970D01*
X58614150Y-21881480D01*
X58593107Y-21868868D01*
X58573401Y-21854253D01*
X58555223Y-21837777D01*
X58538747Y-21819599D01*
X58524132Y-21799893D01*
X58511520Y-21778850D01*
X58501030Y-21756671D01*
X58492765Y-21733572D01*
X58486804Y-21709773D01*
X58483204Y-21685505D01*
X58482000Y-21661001D01*
X58482000Y-21010999D01*
X58483204Y-20986495D01*
X58486804Y-20962227D01*
X58492765Y-20938428D01*
X58501030Y-20915329D01*
X58511520Y-20893150D01*
X58524132Y-20872107D01*
X58538747Y-20852401D01*
X58555223Y-20834223D01*
X58573401Y-20817747D01*
X58593107Y-20803132D01*
X58614150Y-20790520D01*
X58636329Y-20780030D01*
X58659428Y-20771765D01*
X58683227Y-20765804D01*
X58707495Y-20762204D01*
X58731999Y-20761000D01*
X59632001Y-20761000D01*
X59656505Y-20762204D01*
G37*
G36*
X59656505Y-22812204D02*
G01*
X59680773Y-22815804D01*
X59704572Y-22821765D01*
X59727671Y-22830030D01*
X59749850Y-22840520D01*
X59770893Y-22853132D01*
X59790599Y-22867747D01*
X59808777Y-22884223D01*
X59825253Y-22902401D01*
X59839868Y-22922107D01*
X59852480Y-22943150D01*
X59862970Y-22965329D01*
X59871235Y-22988428D01*
X59877196Y-23012227D01*
X59880796Y-23036495D01*
X59882000Y-23060999D01*
X59882000Y-23711001D01*
X59880796Y-23735505D01*
X59877196Y-23759773D01*
X59871235Y-23783572D01*
X59862970Y-23806671D01*
X59852480Y-23828850D01*
X59839868Y-23849893D01*
X59825253Y-23869599D01*
X59808777Y-23887777D01*
X59790599Y-23904253D01*
X59770893Y-23918868D01*
X59749850Y-23931480D01*
X59727671Y-23941970D01*
X59704572Y-23950235D01*
X59680773Y-23956196D01*
X59656505Y-23959796D01*
X59632001Y-23961000D01*
X58731999Y-23961000D01*
X58707495Y-23959796D01*
X58683227Y-23956196D01*
X58659428Y-23950235D01*
X58636329Y-23941970D01*
X58614150Y-23931480D01*
X58593107Y-23918868D01*
X58573401Y-23904253D01*
X58555223Y-23887777D01*
X58538747Y-23869599D01*
X58524132Y-23849893D01*
X58511520Y-23828850D01*
X58501030Y-23806671D01*
X58492765Y-23783572D01*
X58486804Y-23759773D01*
X58483204Y-23735505D01*
X58482000Y-23711001D01*
X58482000Y-23060999D01*
X58483204Y-23036495D01*
X58486804Y-23012227D01*
X58492765Y-22988428D01*
X58501030Y-22965329D01*
X58511520Y-22943150D01*
X58524132Y-22922107D01*
X58538747Y-22902401D01*
X58555223Y-22884223D01*
X58573401Y-22867747D01*
X58593107Y-22853132D01*
X58614150Y-22840520D01*
X58636329Y-22830030D01*
X58659428Y-22821765D01*
X58683227Y-22815804D01*
X58707495Y-22812204D01*
X58731999Y-22811000D01*
X59632001Y-22811000D01*
X59656505Y-22812204D01*
G37*
G36*
X57624505Y-22812204D02*
G01*
X57648773Y-22815804D01*
X57672572Y-22821765D01*
X57695671Y-22830030D01*
X57717850Y-22840520D01*
X57738893Y-22853132D01*
X57758599Y-22867747D01*
X57776777Y-22884223D01*
X57793253Y-22902401D01*
X57807868Y-22922107D01*
X57820480Y-22943150D01*
X57830970Y-22965329D01*
X57839235Y-22988428D01*
X57845196Y-23012227D01*
X57848796Y-23036495D01*
X57850000Y-23060999D01*
X57850000Y-23711001D01*
X57848796Y-23735505D01*
X57845196Y-23759773D01*
X57839235Y-23783572D01*
X57830970Y-23806671D01*
X57820480Y-23828850D01*
X57807868Y-23849893D01*
X57793253Y-23869599D01*
X57776777Y-23887777D01*
X57758599Y-23904253D01*
X57738893Y-23918868D01*
X57717850Y-23931480D01*
X57695671Y-23941970D01*
X57672572Y-23950235D01*
X57648773Y-23956196D01*
X57624505Y-23959796D01*
X57600001Y-23961000D01*
X56699999Y-23961000D01*
X56675495Y-23959796D01*
X56651227Y-23956196D01*
X56627428Y-23950235D01*
X56604329Y-23941970D01*
X56582150Y-23931480D01*
X56561107Y-23918868D01*
X56541401Y-23904253D01*
X56523223Y-23887777D01*
X56506747Y-23869599D01*
X56492132Y-23849893D01*
X56479520Y-23828850D01*
X56469030Y-23806671D01*
X56460765Y-23783572D01*
X56454804Y-23759773D01*
X56451204Y-23735505D01*
X56450000Y-23711001D01*
X56450000Y-23060999D01*
X56451204Y-23036495D01*
X56454804Y-23012227D01*
X56460765Y-22988428D01*
X56469030Y-22965329D01*
X56479520Y-22943150D01*
X56492132Y-22922107D01*
X56506747Y-22902401D01*
X56523223Y-22884223D01*
X56541401Y-22867747D01*
X56561107Y-22853132D01*
X56582150Y-22840520D01*
X56604329Y-22830030D01*
X56627428Y-22821765D01*
X56651227Y-22815804D01*
X56675495Y-22812204D01*
X56699999Y-22811000D01*
X57600001Y-22811000D01*
X57624505Y-22812204D01*
G37*
G36*
X57624505Y-20762204D02*
G01*
X57648773Y-20765804D01*
X57672572Y-20771765D01*
X57695671Y-20780030D01*
X57717850Y-20790520D01*
X57738893Y-20803132D01*
X57758599Y-20817747D01*
X57776777Y-20834223D01*
X57793253Y-20852401D01*
X57807868Y-20872107D01*
X57820480Y-20893150D01*
X57830970Y-20915329D01*
X57839235Y-20938428D01*
X57845196Y-20962227D01*
X57848796Y-20986495D01*
X57850000Y-21010999D01*
X57850000Y-21661001D01*
X57848796Y-21685505D01*
X57845196Y-21709773D01*
X57839235Y-21733572D01*
X57830970Y-21756671D01*
X57820480Y-21778850D01*
X57807868Y-21799893D01*
X57793253Y-21819599D01*
X57776777Y-21837777D01*
X57758599Y-21854253D01*
X57738893Y-21868868D01*
X57717850Y-21881480D01*
X57695671Y-21891970D01*
X57672572Y-21900235D01*
X57648773Y-21906196D01*
X57624505Y-21909796D01*
X57600001Y-21911000D01*
X56699999Y-21911000D01*
X56675495Y-21909796D01*
X56651227Y-21906196D01*
X56627428Y-21900235D01*
X56604329Y-21891970D01*
X56582150Y-21881480D01*
X56561107Y-21868868D01*
X56541401Y-21854253D01*
X56523223Y-21837777D01*
X56506747Y-21819599D01*
X56492132Y-21799893D01*
X56479520Y-21778850D01*
X56469030Y-21756671D01*
X56460765Y-21733572D01*
X56454804Y-21709773D01*
X56451204Y-21685505D01*
X56450000Y-21661001D01*
X56450000Y-21010999D01*
X56451204Y-20986495D01*
X56454804Y-20962227D01*
X56460765Y-20938428D01*
X56469030Y-20915329D01*
X56479520Y-20893150D01*
X56492132Y-20872107D01*
X56506747Y-20852401D01*
X56523223Y-20834223D01*
X56541401Y-20817747D01*
X56561107Y-20803132D01*
X56582150Y-20790520D01*
X56604329Y-20780030D01*
X56627428Y-20771765D01*
X56651227Y-20765804D01*
X56675495Y-20762204D01*
X56699999Y-20761000D01*
X57600001Y-20761000D01*
X57624505Y-20762204D01*
G37*
G36*
X24675305Y-28181004D02*
G01*
X24699573Y-28184604D01*
X24723372Y-28190565D01*
X24746471Y-28198830D01*
X24768650Y-28209320D01*
X24789693Y-28221932D01*
X24809399Y-28236547D01*
X24827577Y-28253023D01*
X24844053Y-28271201D01*
X24858668Y-28290907D01*
X24871280Y-28311950D01*
X24881770Y-28334129D01*
X24890035Y-28357228D01*
X24895996Y-28381027D01*
X24899596Y-28405295D01*
X24900800Y-28429799D01*
X24900800Y-29329801D01*
X24899596Y-29354305D01*
X24895996Y-29378573D01*
X24890035Y-29402372D01*
X24881770Y-29425471D01*
X24871280Y-29447650D01*
X24858668Y-29468693D01*
X24844053Y-29488399D01*
X24827577Y-29506577D01*
X24809399Y-29523053D01*
X24789693Y-29537668D01*
X24768650Y-29550280D01*
X24746471Y-29560770D01*
X24723372Y-29569035D01*
X24699573Y-29574996D01*
X24675305Y-29578596D01*
X24650801Y-29579800D01*
X24000799Y-29579800D01*
X23976295Y-29578596D01*
X23952027Y-29574996D01*
X23928228Y-29569035D01*
X23905129Y-29560770D01*
X23882950Y-29550280D01*
X23861907Y-29537668D01*
X23842201Y-29523053D01*
X23824023Y-29506577D01*
X23807547Y-29488399D01*
X23792932Y-29468693D01*
X23780320Y-29447650D01*
X23769830Y-29425471D01*
X23761565Y-29402372D01*
X23755604Y-29378573D01*
X23752004Y-29354305D01*
X23750800Y-29329801D01*
X23750800Y-28429799D01*
X23752004Y-28405295D01*
X23755604Y-28381027D01*
X23761565Y-28357228D01*
X23769830Y-28334129D01*
X23780320Y-28311950D01*
X23792932Y-28290907D01*
X23807547Y-28271201D01*
X23824023Y-28253023D01*
X23842201Y-28236547D01*
X23861907Y-28221932D01*
X23882950Y-28209320D01*
X23905129Y-28198830D01*
X23928228Y-28190565D01*
X23952027Y-28184604D01*
X23976295Y-28181004D01*
X24000799Y-28179800D01*
X24650801Y-28179800D01*
X24675305Y-28181004D01*
G37*
G36*
X22625305Y-28181004D02*
G01*
X22649573Y-28184604D01*
X22673372Y-28190565D01*
X22696471Y-28198830D01*
X22718650Y-28209320D01*
X22739693Y-28221932D01*
X22759399Y-28236547D01*
X22777577Y-28253023D01*
X22794053Y-28271201D01*
X22808668Y-28290907D01*
X22821280Y-28311950D01*
X22831770Y-28334129D01*
X22840035Y-28357228D01*
X22845996Y-28381027D01*
X22849596Y-28405295D01*
X22850800Y-28429799D01*
X22850800Y-29329801D01*
X22849596Y-29354305D01*
X22845996Y-29378573D01*
X22840035Y-29402372D01*
X22831770Y-29425471D01*
X22821280Y-29447650D01*
X22808668Y-29468693D01*
X22794053Y-29488399D01*
X22777577Y-29506577D01*
X22759399Y-29523053D01*
X22739693Y-29537668D01*
X22718650Y-29550280D01*
X22696471Y-29560770D01*
X22673372Y-29569035D01*
X22649573Y-29574996D01*
X22625305Y-29578596D01*
X22600801Y-29579800D01*
X21950799Y-29579800D01*
X21926295Y-29578596D01*
X21902027Y-29574996D01*
X21878228Y-29569035D01*
X21855129Y-29560770D01*
X21832950Y-29550280D01*
X21811907Y-29537668D01*
X21792201Y-29523053D01*
X21774023Y-29506577D01*
X21757547Y-29488399D01*
X21742932Y-29468693D01*
X21730320Y-29447650D01*
X21719830Y-29425471D01*
X21711565Y-29402372D01*
X21705604Y-29378573D01*
X21702004Y-29354305D01*
X21700800Y-29329801D01*
X21700800Y-28429799D01*
X21702004Y-28405295D01*
X21705604Y-28381027D01*
X21711565Y-28357228D01*
X21719830Y-28334129D01*
X21730320Y-28311950D01*
X21742932Y-28290907D01*
X21757547Y-28271201D01*
X21774023Y-28253023D01*
X21792201Y-28236547D01*
X21811907Y-28221932D01*
X21832950Y-28209320D01*
X21855129Y-28198830D01*
X21878228Y-28190565D01*
X21902027Y-28184604D01*
X21926295Y-28181004D01*
X21950799Y-28179800D01*
X22600801Y-28179800D01*
X22625305Y-28181004D01*
G37*
G36*
X22877305Y-24410804D02*
G01*
X22901573Y-24414404D01*
X22925372Y-24420365D01*
X22948471Y-24428630D01*
X22970650Y-24439120D01*
X22991693Y-24451732D01*
X23011399Y-24466347D01*
X23029577Y-24482823D01*
X23046053Y-24501001D01*
X23060668Y-24520707D01*
X23073280Y-24541750D01*
X23083770Y-24563929D01*
X23092035Y-24587028D01*
X23097996Y-24610827D01*
X23101596Y-24635095D01*
X23102800Y-24659599D01*
X23102800Y-25309601D01*
X23101596Y-25334105D01*
X23097996Y-25358373D01*
X23092035Y-25382172D01*
X23083770Y-25405271D01*
X23073280Y-25427450D01*
X23060668Y-25448493D01*
X23046053Y-25468199D01*
X23029577Y-25486377D01*
X23011399Y-25502853D01*
X22991693Y-25517468D01*
X22970650Y-25530080D01*
X22948471Y-25540570D01*
X22925372Y-25548835D01*
X22901573Y-25554796D01*
X22877305Y-25558396D01*
X22852801Y-25559600D01*
X21952799Y-25559600D01*
X21928295Y-25558396D01*
X21904027Y-25554796D01*
X21880228Y-25548835D01*
X21857129Y-25540570D01*
X21834950Y-25530080D01*
X21813907Y-25517468D01*
X21794201Y-25502853D01*
X21776023Y-25486377D01*
X21759547Y-25468199D01*
X21744932Y-25448493D01*
X21732320Y-25427450D01*
X21721830Y-25405271D01*
X21713565Y-25382172D01*
X21707604Y-25358373D01*
X21704004Y-25334105D01*
X21702800Y-25309601D01*
X21702800Y-24659599D01*
X21704004Y-24635095D01*
X21707604Y-24610827D01*
X21713565Y-24587028D01*
X21721830Y-24563929D01*
X21732320Y-24541750D01*
X21744932Y-24520707D01*
X21759547Y-24501001D01*
X21776023Y-24482823D01*
X21794201Y-24466347D01*
X21813907Y-24451732D01*
X21834950Y-24439120D01*
X21857129Y-24428630D01*
X21880228Y-24420365D01*
X21904027Y-24414404D01*
X21928295Y-24410804D01*
X21952799Y-24409600D01*
X22852801Y-24409600D01*
X22877305Y-24410804D01*
G37*
G36*
X22877305Y-26460804D02*
G01*
X22901573Y-26464404D01*
X22925372Y-26470365D01*
X22948471Y-26478630D01*
X22970650Y-26489120D01*
X22991693Y-26501732D01*
X23011399Y-26516347D01*
X23029577Y-26532823D01*
X23046053Y-26551001D01*
X23060668Y-26570707D01*
X23073280Y-26591750D01*
X23083770Y-26613929D01*
X23092035Y-26637028D01*
X23097996Y-26660827D01*
X23101596Y-26685095D01*
X23102800Y-26709599D01*
X23102800Y-27359601D01*
X23101596Y-27384105D01*
X23097996Y-27408373D01*
X23092035Y-27432172D01*
X23083770Y-27455271D01*
X23073280Y-27477450D01*
X23060668Y-27498493D01*
X23046053Y-27518199D01*
X23029577Y-27536377D01*
X23011399Y-27552853D01*
X22991693Y-27567468D01*
X22970650Y-27580080D01*
X22948471Y-27590570D01*
X22925372Y-27598835D01*
X22901573Y-27604796D01*
X22877305Y-27608396D01*
X22852801Y-27609600D01*
X21952799Y-27609600D01*
X21928295Y-27608396D01*
X21904027Y-27604796D01*
X21880228Y-27598835D01*
X21857129Y-27590570D01*
X21834950Y-27580080D01*
X21813907Y-27567468D01*
X21794201Y-27552853D01*
X21776023Y-27536377D01*
X21759547Y-27518199D01*
X21744932Y-27498493D01*
X21732320Y-27477450D01*
X21721830Y-27455271D01*
X21713565Y-27432172D01*
X21707604Y-27408373D01*
X21704004Y-27384105D01*
X21702800Y-27359601D01*
X21702800Y-26709599D01*
X21704004Y-26685095D01*
X21707604Y-26660827D01*
X21713565Y-26637028D01*
X21721830Y-26613929D01*
X21732320Y-26591750D01*
X21744932Y-26570707D01*
X21759547Y-26551001D01*
X21776023Y-26532823D01*
X21794201Y-26516347D01*
X21813907Y-26501732D01*
X21834950Y-26489120D01*
X21857129Y-26478630D01*
X21880228Y-26470365D01*
X21904027Y-26464404D01*
X21928295Y-26460804D01*
X21952799Y-26459600D01*
X22852801Y-26459600D01*
X22877305Y-26460804D01*
G37*
G36*
X14657105Y-2831804D02*
G01*
X14681373Y-2835404D01*
X14705172Y-2841365D01*
X14728271Y-2849630D01*
X14750450Y-2860120D01*
X14771493Y-2872732D01*
X14791199Y-2887347D01*
X14809377Y-2903823D01*
X14825853Y-2922001D01*
X14840468Y-2941707D01*
X14853080Y-2962750D01*
X14863570Y-2984929D01*
X14871835Y-3008028D01*
X14877796Y-3031827D01*
X14881396Y-3056095D01*
X14882600Y-3080599D01*
X14882600Y-3980601D01*
X14881396Y-4005105D01*
X14877796Y-4029373D01*
X14871835Y-4053172D01*
X14863570Y-4076271D01*
X14853080Y-4098450D01*
X14840468Y-4119493D01*
X14825853Y-4139199D01*
X14809377Y-4157377D01*
X14791199Y-4173853D01*
X14771493Y-4188468D01*
X14750450Y-4201080D01*
X14728271Y-4211570D01*
X14705172Y-4219835D01*
X14681373Y-4225796D01*
X14657105Y-4229396D01*
X14632601Y-4230600D01*
X13982599Y-4230600D01*
X13958095Y-4229396D01*
X13933827Y-4225796D01*
X13910028Y-4219835D01*
X13886929Y-4211570D01*
X13864750Y-4201080D01*
X13843707Y-4188468D01*
X13824001Y-4173853D01*
X13805823Y-4157377D01*
X13789347Y-4139199D01*
X13774732Y-4119493D01*
X13762120Y-4098450D01*
X13751630Y-4076271D01*
X13743365Y-4053172D01*
X13737404Y-4029373D01*
X13733804Y-4005105D01*
X13732600Y-3980601D01*
X13732600Y-3080599D01*
X13733804Y-3056095D01*
X13737404Y-3031827D01*
X13743365Y-3008028D01*
X13751630Y-2984929D01*
X13762120Y-2962750D01*
X13774732Y-2941707D01*
X13789347Y-2922001D01*
X13805823Y-2903823D01*
X13824001Y-2887347D01*
X13843707Y-2872732D01*
X13864750Y-2860120D01*
X13886929Y-2849630D01*
X13910028Y-2841365D01*
X13933827Y-2835404D01*
X13958095Y-2831804D01*
X13982599Y-2830600D01*
X14632601Y-2830600D01*
X14657105Y-2831804D01*
G37*
G36*
X16707105Y-2831804D02*
G01*
X16731373Y-2835404D01*
X16755172Y-2841365D01*
X16778271Y-2849630D01*
X16800450Y-2860120D01*
X16821493Y-2872732D01*
X16841199Y-2887347D01*
X16859377Y-2903823D01*
X16875853Y-2922001D01*
X16890468Y-2941707D01*
X16903080Y-2962750D01*
X16913570Y-2984929D01*
X16921835Y-3008028D01*
X16927796Y-3031827D01*
X16931396Y-3056095D01*
X16932600Y-3080599D01*
X16932600Y-3980601D01*
X16931396Y-4005105D01*
X16927796Y-4029373D01*
X16921835Y-4053172D01*
X16913570Y-4076271D01*
X16903080Y-4098450D01*
X16890468Y-4119493D01*
X16875853Y-4139199D01*
X16859377Y-4157377D01*
X16841199Y-4173853D01*
X16821493Y-4188468D01*
X16800450Y-4201080D01*
X16778271Y-4211570D01*
X16755172Y-4219835D01*
X16731373Y-4225796D01*
X16707105Y-4229396D01*
X16682601Y-4230600D01*
X16032599Y-4230600D01*
X16008095Y-4229396D01*
X15983827Y-4225796D01*
X15960028Y-4219835D01*
X15936929Y-4211570D01*
X15914750Y-4201080D01*
X15893707Y-4188468D01*
X15874001Y-4173853D01*
X15855823Y-4157377D01*
X15839347Y-4139199D01*
X15824732Y-4119493D01*
X15812120Y-4098450D01*
X15801630Y-4076271D01*
X15793365Y-4053172D01*
X15787404Y-4029373D01*
X15783804Y-4005105D01*
X15782600Y-3980601D01*
X15782600Y-3080599D01*
X15783804Y-3056095D01*
X15787404Y-3031827D01*
X15793365Y-3008028D01*
X15801630Y-2984929D01*
X15812120Y-2962750D01*
X15824732Y-2941707D01*
X15839347Y-2922001D01*
X15855823Y-2903823D01*
X15874001Y-2887347D01*
X15893707Y-2872732D01*
X15914750Y-2860120D01*
X15936929Y-2849630D01*
X15960028Y-2841365D01*
X15983827Y-2835404D01*
X16008095Y-2831804D01*
X16032599Y-2830600D01*
X16682601Y-2830600D01*
X16707105Y-2831804D01*
G37*
G36*
X14657105Y-4787604D02*
G01*
X14681373Y-4791204D01*
X14705172Y-4797165D01*
X14728271Y-4805430D01*
X14750450Y-4815920D01*
X14771493Y-4828532D01*
X14791199Y-4843147D01*
X14809377Y-4859623D01*
X14825853Y-4877801D01*
X14840468Y-4897507D01*
X14853080Y-4918550D01*
X14863570Y-4940729D01*
X14871835Y-4963828D01*
X14877796Y-4987627D01*
X14881396Y-5011895D01*
X14882600Y-5036399D01*
X14882600Y-5936401D01*
X14881396Y-5960905D01*
X14877796Y-5985173D01*
X14871835Y-6008972D01*
X14863570Y-6032071D01*
X14853080Y-6054250D01*
X14840468Y-6075293D01*
X14825853Y-6094999D01*
X14809377Y-6113177D01*
X14791199Y-6129653D01*
X14771493Y-6144268D01*
X14750450Y-6156880D01*
X14728271Y-6167370D01*
X14705172Y-6175635D01*
X14681373Y-6181596D01*
X14657105Y-6185196D01*
X14632601Y-6186400D01*
X13982599Y-6186400D01*
X13958095Y-6185196D01*
X13933827Y-6181596D01*
X13910028Y-6175635D01*
X13886929Y-6167370D01*
X13864750Y-6156880D01*
X13843707Y-6144268D01*
X13824001Y-6129653D01*
X13805823Y-6113177D01*
X13789347Y-6094999D01*
X13774732Y-6075293D01*
X13762120Y-6054250D01*
X13751630Y-6032071D01*
X13743365Y-6008972D01*
X13737404Y-5985173D01*
X13733804Y-5960905D01*
X13732600Y-5936401D01*
X13732600Y-5036399D01*
X13733804Y-5011895D01*
X13737404Y-4987627D01*
X13743365Y-4963828D01*
X13751630Y-4940729D01*
X13762120Y-4918550D01*
X13774732Y-4897507D01*
X13789347Y-4877801D01*
X13805823Y-4859623D01*
X13824001Y-4843147D01*
X13843707Y-4828532D01*
X13864750Y-4815920D01*
X13886929Y-4805430D01*
X13910028Y-4797165D01*
X13933827Y-4791204D01*
X13958095Y-4787604D01*
X13982599Y-4786400D01*
X14632601Y-4786400D01*
X14657105Y-4787604D01*
G37*
G36*
X16707105Y-4787604D02*
G01*
X16731373Y-4791204D01*
X16755172Y-4797165D01*
X16778271Y-4805430D01*
X16800450Y-4815920D01*
X16821493Y-4828532D01*
X16841199Y-4843147D01*
X16859377Y-4859623D01*
X16875853Y-4877801D01*
X16890468Y-4897507D01*
X16903080Y-4918550D01*
X16913570Y-4940729D01*
X16921835Y-4963828D01*
X16927796Y-4987627D01*
X16931396Y-5011895D01*
X16932600Y-5036399D01*
X16932600Y-5936401D01*
X16931396Y-5960905D01*
X16927796Y-5985173D01*
X16921835Y-6008972D01*
X16913570Y-6032071D01*
X16903080Y-6054250D01*
X16890468Y-6075293D01*
X16875853Y-6094999D01*
X16859377Y-6113177D01*
X16841199Y-6129653D01*
X16821493Y-6144268D01*
X16800450Y-6156880D01*
X16778271Y-6167370D01*
X16755172Y-6175635D01*
X16731373Y-6181596D01*
X16707105Y-6185196D01*
X16682601Y-6186400D01*
X16032599Y-6186400D01*
X16008095Y-6185196D01*
X15983827Y-6181596D01*
X15960028Y-6175635D01*
X15936929Y-6167370D01*
X15914750Y-6156880D01*
X15893707Y-6144268D01*
X15874001Y-6129653D01*
X15855823Y-6113177D01*
X15839347Y-6094999D01*
X15824732Y-6075293D01*
X15812120Y-6054250D01*
X15801630Y-6032071D01*
X15793365Y-6008972D01*
X15787404Y-5985173D01*
X15783804Y-5960905D01*
X15782600Y-5936401D01*
X15782600Y-5036399D01*
X15783804Y-5011895D01*
X15787404Y-4987627D01*
X15793365Y-4963828D01*
X15801630Y-4940729D01*
X15812120Y-4918550D01*
X15824732Y-4897507D01*
X15839347Y-4877801D01*
X15855823Y-4859623D01*
X15874001Y-4843147D01*
X15893707Y-4828532D01*
X15914750Y-4815920D01*
X15936929Y-4805430D01*
X15960028Y-4797165D01*
X15983827Y-4791204D01*
X16008095Y-4787604D01*
X16032599Y-4786400D01*
X16682601Y-4786400D01*
X16707105Y-4787604D01*
G37*
G36*
X16707105Y-6768804D02*
G01*
X16731373Y-6772404D01*
X16755172Y-6778365D01*
X16778271Y-6786630D01*
X16800450Y-6797120D01*
X16821493Y-6809732D01*
X16841199Y-6824347D01*
X16859377Y-6840823D01*
X16875853Y-6859001D01*
X16890468Y-6878707D01*
X16903080Y-6899750D01*
X16913570Y-6921929D01*
X16921835Y-6945028D01*
X16927796Y-6968827D01*
X16931396Y-6993095D01*
X16932600Y-7017599D01*
X16932600Y-7917601D01*
X16931396Y-7942105D01*
X16927796Y-7966373D01*
X16921835Y-7990172D01*
X16913570Y-8013271D01*
X16903080Y-8035450D01*
X16890468Y-8056493D01*
X16875853Y-8076199D01*
X16859377Y-8094377D01*
X16841199Y-8110853D01*
X16821493Y-8125468D01*
X16800450Y-8138080D01*
X16778271Y-8148570D01*
X16755172Y-8156835D01*
X16731373Y-8162796D01*
X16707105Y-8166396D01*
X16682601Y-8167600D01*
X16032599Y-8167600D01*
X16008095Y-8166396D01*
X15983827Y-8162796D01*
X15960028Y-8156835D01*
X15936929Y-8148570D01*
X15914750Y-8138080D01*
X15893707Y-8125468D01*
X15874001Y-8110853D01*
X15855823Y-8094377D01*
X15839347Y-8076199D01*
X15824732Y-8056493D01*
X15812120Y-8035450D01*
X15801630Y-8013271D01*
X15793365Y-7990172D01*
X15787404Y-7966373D01*
X15783804Y-7942105D01*
X15782600Y-7917601D01*
X15782600Y-7017599D01*
X15783804Y-6993095D01*
X15787404Y-6968827D01*
X15793365Y-6945028D01*
X15801630Y-6921929D01*
X15812120Y-6899750D01*
X15824732Y-6878707D01*
X15839347Y-6859001D01*
X15855823Y-6840823D01*
X15874001Y-6824347D01*
X15893707Y-6809732D01*
X15914750Y-6797120D01*
X15936929Y-6786630D01*
X15960028Y-6778365D01*
X15983827Y-6772404D01*
X16008095Y-6768804D01*
X16032599Y-6767600D01*
X16682601Y-6767600D01*
X16707105Y-6768804D01*
G37*
G36*
X14657105Y-6768804D02*
G01*
X14681373Y-6772404D01*
X14705172Y-6778365D01*
X14728271Y-6786630D01*
X14750450Y-6797120D01*
X14771493Y-6809732D01*
X14791199Y-6824347D01*
X14809377Y-6840823D01*
X14825853Y-6859001D01*
X14840468Y-6878707D01*
X14853080Y-6899750D01*
X14863570Y-6921929D01*
X14871835Y-6945028D01*
X14877796Y-6968827D01*
X14881396Y-6993095D01*
X14882600Y-7017599D01*
X14882600Y-7917601D01*
X14881396Y-7942105D01*
X14877796Y-7966373D01*
X14871835Y-7990172D01*
X14863570Y-8013271D01*
X14853080Y-8035450D01*
X14840468Y-8056493D01*
X14825853Y-8076199D01*
X14809377Y-8094377D01*
X14791199Y-8110853D01*
X14771493Y-8125468D01*
X14750450Y-8138080D01*
X14728271Y-8148570D01*
X14705172Y-8156835D01*
X14681373Y-8162796D01*
X14657105Y-8166396D01*
X14632601Y-8167600D01*
X13982599Y-8167600D01*
X13958095Y-8166396D01*
X13933827Y-8162796D01*
X13910028Y-8156835D01*
X13886929Y-8148570D01*
X13864750Y-8138080D01*
X13843707Y-8125468D01*
X13824001Y-8110853D01*
X13805823Y-8094377D01*
X13789347Y-8076199D01*
X13774732Y-8056493D01*
X13762120Y-8035450D01*
X13751630Y-8013271D01*
X13743365Y-7990172D01*
X13737404Y-7966373D01*
X13733804Y-7942105D01*
X13732600Y-7917601D01*
X13732600Y-7017599D01*
X13733804Y-6993095D01*
X13737404Y-6968827D01*
X13743365Y-6945028D01*
X13751630Y-6921929D01*
X13762120Y-6899750D01*
X13774732Y-6878707D01*
X13789347Y-6859001D01*
X13805823Y-6840823D01*
X13824001Y-6824347D01*
X13843707Y-6809732D01*
X13864750Y-6797120D01*
X13886929Y-6786630D01*
X13910028Y-6778365D01*
X13933827Y-6772404D01*
X13958095Y-6768804D01*
X13982599Y-6767600D01*
X14632601Y-6767600D01*
X14657105Y-6768804D01*
G37*
G36*
X14675105Y-8724604D02*
G01*
X14699373Y-8728204D01*
X14723172Y-8734165D01*
X14746271Y-8742430D01*
X14768450Y-8752920D01*
X14789493Y-8765532D01*
X14809199Y-8780147D01*
X14827377Y-8796623D01*
X14843853Y-8814801D01*
X14858468Y-8834507D01*
X14871080Y-8855550D01*
X14881570Y-8877729D01*
X14889835Y-8900828D01*
X14895796Y-8924627D01*
X14899396Y-8948895D01*
X14900600Y-8973399D01*
X14900600Y-9873401D01*
X14899396Y-9897905D01*
X14895796Y-9922173D01*
X14889835Y-9945972D01*
X14881570Y-9969071D01*
X14871080Y-9991250D01*
X14858468Y-10012293D01*
X14843853Y-10031999D01*
X14827377Y-10050177D01*
X14809199Y-10066653D01*
X14789493Y-10081268D01*
X14768450Y-10093880D01*
X14746271Y-10104370D01*
X14723172Y-10112635D01*
X14699373Y-10118596D01*
X14675105Y-10122196D01*
X14650601Y-10123400D01*
X14000599Y-10123400D01*
X13976095Y-10122196D01*
X13951827Y-10118596D01*
X13928028Y-10112635D01*
X13904929Y-10104370D01*
X13882750Y-10093880D01*
X13861707Y-10081268D01*
X13842001Y-10066653D01*
X13823823Y-10050177D01*
X13807347Y-10031999D01*
X13792732Y-10012293D01*
X13780120Y-9991250D01*
X13769630Y-9969071D01*
X13761365Y-9945972D01*
X13755404Y-9922173D01*
X13751804Y-9897905D01*
X13750600Y-9873401D01*
X13750600Y-8973399D01*
X13751804Y-8948895D01*
X13755404Y-8924627D01*
X13761365Y-8900828D01*
X13769630Y-8877729D01*
X13780120Y-8855550D01*
X13792732Y-8834507D01*
X13807347Y-8814801D01*
X13823823Y-8796623D01*
X13842001Y-8780147D01*
X13861707Y-8765532D01*
X13882750Y-8752920D01*
X13904929Y-8742430D01*
X13928028Y-8734165D01*
X13951827Y-8728204D01*
X13976095Y-8724604D01*
X14000599Y-8723400D01*
X14650601Y-8723400D01*
X14675105Y-8724604D01*
G37*
G36*
X16725105Y-8724604D02*
G01*
X16749373Y-8728204D01*
X16773172Y-8734165D01*
X16796271Y-8742430D01*
X16818450Y-8752920D01*
X16839493Y-8765532D01*
X16859199Y-8780147D01*
X16877377Y-8796623D01*
X16893853Y-8814801D01*
X16908468Y-8834507D01*
X16921080Y-8855550D01*
X16931570Y-8877729D01*
X16939835Y-8900828D01*
X16945796Y-8924627D01*
X16949396Y-8948895D01*
X16950600Y-8973399D01*
X16950600Y-9873401D01*
X16949396Y-9897905D01*
X16945796Y-9922173D01*
X16939835Y-9945972D01*
X16931570Y-9969071D01*
X16921080Y-9991250D01*
X16908468Y-10012293D01*
X16893853Y-10031999D01*
X16877377Y-10050177D01*
X16859199Y-10066653D01*
X16839493Y-10081268D01*
X16818450Y-10093880D01*
X16796271Y-10104370D01*
X16773172Y-10112635D01*
X16749373Y-10118596D01*
X16725105Y-10122196D01*
X16700601Y-10123400D01*
X16050599Y-10123400D01*
X16026095Y-10122196D01*
X16001827Y-10118596D01*
X15978028Y-10112635D01*
X15954929Y-10104370D01*
X15932750Y-10093880D01*
X15911707Y-10081268D01*
X15892001Y-10066653D01*
X15873823Y-10050177D01*
X15857347Y-10031999D01*
X15842732Y-10012293D01*
X15830120Y-9991250D01*
X15819630Y-9969071D01*
X15811365Y-9945972D01*
X15805404Y-9922173D01*
X15801804Y-9897905D01*
X15800600Y-9873401D01*
X15800600Y-8973399D01*
X15801804Y-8948895D01*
X15805404Y-8924627D01*
X15811365Y-8900828D01*
X15819630Y-8877729D01*
X15830120Y-8855550D01*
X15842732Y-8834507D01*
X15857347Y-8814801D01*
X15873823Y-8796623D01*
X15892001Y-8780147D01*
X15911707Y-8765532D01*
X15932750Y-8752920D01*
X15954929Y-8742430D01*
X15978028Y-8734165D01*
X16001827Y-8728204D01*
X16026095Y-8724604D01*
X16050599Y-8723400D01*
X16700601Y-8723400D01*
X16725105Y-8724604D01*
G37*
G36*
X28287505Y-8443204D02*
G01*
X28311773Y-8446804D01*
X28335572Y-8452765D01*
X28358671Y-8461030D01*
X28380850Y-8471520D01*
X28401893Y-8484132D01*
X28421599Y-8498747D01*
X28439777Y-8515223D01*
X28456253Y-8533401D01*
X28470868Y-8553107D01*
X28483480Y-8574150D01*
X28493970Y-8596329D01*
X28502235Y-8619428D01*
X28508196Y-8643227D01*
X28511796Y-8667495D01*
X28513000Y-8691999D01*
X28513000Y-9342001D01*
X28511796Y-9366505D01*
X28508196Y-9390773D01*
X28502235Y-9414572D01*
X28493970Y-9437671D01*
X28483480Y-9459850D01*
X28470868Y-9480893D01*
X28456253Y-9500599D01*
X28439777Y-9518777D01*
X28421599Y-9535253D01*
X28401893Y-9549868D01*
X28380850Y-9562480D01*
X28358671Y-9572970D01*
X28335572Y-9581235D01*
X28311773Y-9587196D01*
X28287505Y-9590796D01*
X28263001Y-9592000D01*
X27362999Y-9592000D01*
X27338495Y-9590796D01*
X27314227Y-9587196D01*
X27290428Y-9581235D01*
X27267329Y-9572970D01*
X27245150Y-9562480D01*
X27224107Y-9549868D01*
X27204401Y-9535253D01*
X27186223Y-9518777D01*
X27169747Y-9500599D01*
X27155132Y-9480893D01*
X27142520Y-9459850D01*
X27132030Y-9437671D01*
X27123765Y-9414572D01*
X27117804Y-9390773D01*
X27114204Y-9366505D01*
X27113000Y-9342001D01*
X27113000Y-8691999D01*
X27114204Y-8667495D01*
X27117804Y-8643227D01*
X27123765Y-8619428D01*
X27132030Y-8596329D01*
X27142520Y-8574150D01*
X27155132Y-8553107D01*
X27169747Y-8533401D01*
X27186223Y-8515223D01*
X27204401Y-8498747D01*
X27224107Y-8484132D01*
X27245150Y-8471520D01*
X27267329Y-8461030D01*
X27290428Y-8452765D01*
X27314227Y-8446804D01*
X27338495Y-8443204D01*
X27362999Y-8442000D01*
X28263001Y-8442000D01*
X28287505Y-8443204D01*
G37*
G36*
X28287505Y-10493204D02*
G01*
X28311773Y-10496804D01*
X28335572Y-10502765D01*
X28358671Y-10511030D01*
X28380850Y-10521520D01*
X28401893Y-10534132D01*
X28421599Y-10548747D01*
X28439777Y-10565223D01*
X28456253Y-10583401D01*
X28470868Y-10603107D01*
X28483480Y-10624150D01*
X28493970Y-10646329D01*
X28502235Y-10669428D01*
X28508196Y-10693227D01*
X28511796Y-10717495D01*
X28513000Y-10741999D01*
X28513000Y-11392001D01*
X28511796Y-11416505D01*
X28508196Y-11440773D01*
X28502235Y-11464572D01*
X28493970Y-11487671D01*
X28483480Y-11509850D01*
X28470868Y-11530893D01*
X28456253Y-11550599D01*
X28439777Y-11568777D01*
X28421599Y-11585253D01*
X28401893Y-11599868D01*
X28380850Y-11612480D01*
X28358671Y-11622970D01*
X28335572Y-11631235D01*
X28311773Y-11637196D01*
X28287505Y-11640796D01*
X28263001Y-11642000D01*
X27362999Y-11642000D01*
X27338495Y-11640796D01*
X27314227Y-11637196D01*
X27290428Y-11631235D01*
X27267329Y-11622970D01*
X27245150Y-11612480D01*
X27224107Y-11599868D01*
X27204401Y-11585253D01*
X27186223Y-11568777D01*
X27169747Y-11550599D01*
X27155132Y-11530893D01*
X27142520Y-11509850D01*
X27132030Y-11487671D01*
X27123765Y-11464572D01*
X27117804Y-11440773D01*
X27114204Y-11416505D01*
X27113000Y-11392001D01*
X27113000Y-10741999D01*
X27114204Y-10717495D01*
X27117804Y-10693227D01*
X27123765Y-10669428D01*
X27132030Y-10646329D01*
X27142520Y-10624150D01*
X27155132Y-10603107D01*
X27169747Y-10583401D01*
X27186223Y-10565223D01*
X27204401Y-10548747D01*
X27224107Y-10534132D01*
X27245150Y-10521520D01*
X27267329Y-10511030D01*
X27290428Y-10502765D01*
X27314227Y-10496804D01*
X27338495Y-10493204D01*
X27362999Y-10492000D01*
X28263001Y-10492000D01*
X28287505Y-10493204D01*
G37*
G36*
X30319505Y-10493204D02*
G01*
X30343773Y-10496804D01*
X30367572Y-10502765D01*
X30390671Y-10511030D01*
X30412850Y-10521520D01*
X30433893Y-10534132D01*
X30453599Y-10548747D01*
X30471777Y-10565223D01*
X30488253Y-10583401D01*
X30502868Y-10603107D01*
X30515480Y-10624150D01*
X30525970Y-10646329D01*
X30534235Y-10669428D01*
X30540196Y-10693227D01*
X30543796Y-10717495D01*
X30545000Y-10741999D01*
X30545000Y-11392001D01*
X30543796Y-11416505D01*
X30540196Y-11440773D01*
X30534235Y-11464572D01*
X30525970Y-11487671D01*
X30515480Y-11509850D01*
X30502868Y-11530893D01*
X30488253Y-11550599D01*
X30471777Y-11568777D01*
X30453599Y-11585253D01*
X30433893Y-11599868D01*
X30412850Y-11612480D01*
X30390671Y-11622970D01*
X30367572Y-11631235D01*
X30343773Y-11637196D01*
X30319505Y-11640796D01*
X30295001Y-11642000D01*
X29394999Y-11642000D01*
X29370495Y-11640796D01*
X29346227Y-11637196D01*
X29322428Y-11631235D01*
X29299329Y-11622970D01*
X29277150Y-11612480D01*
X29256107Y-11599868D01*
X29236401Y-11585253D01*
X29218223Y-11568777D01*
X29201747Y-11550599D01*
X29187132Y-11530893D01*
X29174520Y-11509850D01*
X29164030Y-11487671D01*
X29155765Y-11464572D01*
X29149804Y-11440773D01*
X29146204Y-11416505D01*
X29145000Y-11392001D01*
X29145000Y-10741999D01*
X29146204Y-10717495D01*
X29149804Y-10693227D01*
X29155765Y-10669428D01*
X29164030Y-10646329D01*
X29174520Y-10624150D01*
X29187132Y-10603107D01*
X29201747Y-10583401D01*
X29218223Y-10565223D01*
X29236401Y-10548747D01*
X29256107Y-10534132D01*
X29277150Y-10521520D01*
X29299329Y-10511030D01*
X29322428Y-10502765D01*
X29346227Y-10496804D01*
X29370495Y-10493204D01*
X29394999Y-10492000D01*
X30295001Y-10492000D01*
X30319505Y-10493204D01*
G37*
G36*
X30319505Y-8443204D02*
G01*
X30343773Y-8446804D01*
X30367572Y-8452765D01*
X30390671Y-8461030D01*
X30412850Y-8471520D01*
X30433893Y-8484132D01*
X30453599Y-8498747D01*
X30471777Y-8515223D01*
X30488253Y-8533401D01*
X30502868Y-8553107D01*
X30515480Y-8574150D01*
X30525970Y-8596329D01*
X30534235Y-8619428D01*
X30540196Y-8643227D01*
X30543796Y-8667495D01*
X30545000Y-8691999D01*
X30545000Y-9342001D01*
X30543796Y-9366505D01*
X30540196Y-9390773D01*
X30534235Y-9414572D01*
X30525970Y-9437671D01*
X30515480Y-9459850D01*
X30502868Y-9480893D01*
X30488253Y-9500599D01*
X30471777Y-9518777D01*
X30453599Y-9535253D01*
X30433893Y-9549868D01*
X30412850Y-9562480D01*
X30390671Y-9572970D01*
X30367572Y-9581235D01*
X30343773Y-9587196D01*
X30319505Y-9590796D01*
X30295001Y-9592000D01*
X29394999Y-9592000D01*
X29370495Y-9590796D01*
X29346227Y-9587196D01*
X29322428Y-9581235D01*
X29299329Y-9572970D01*
X29277150Y-9562480D01*
X29256107Y-9549868D01*
X29236401Y-9535253D01*
X29218223Y-9518777D01*
X29201747Y-9500599D01*
X29187132Y-9480893D01*
X29174520Y-9459850D01*
X29164030Y-9437671D01*
X29155765Y-9414572D01*
X29149804Y-9390773D01*
X29146204Y-9366505D01*
X29145000Y-9342001D01*
X29145000Y-8691999D01*
X29146204Y-8667495D01*
X29149804Y-8643227D01*
X29155765Y-8619428D01*
X29164030Y-8596329D01*
X29174520Y-8574150D01*
X29187132Y-8553107D01*
X29201747Y-8533401D01*
X29218223Y-8515223D01*
X29236401Y-8498747D01*
X29256107Y-8484132D01*
X29277150Y-8471520D01*
X29299329Y-8461030D01*
X29322428Y-8452765D01*
X29346227Y-8446804D01*
X29370495Y-8443204D01*
X29394999Y-8442000D01*
X30295001Y-8442000D01*
X30319505Y-8443204D01*
G37*
D23*
X-11751000Y12700000D03*
X-11751000Y15240000D03*
X-11751000Y17780000D03*
D24*
X-23326000Y18015000D03*
X-18476000Y12465000D03*
X-23326000Y12465000D03*
X-18476000Y18015000D03*
D25*
X-30480000Y13438000D03*
X-36030000Y18288000D03*
X-36030000Y13438000D03*
X-30480000Y18288000D03*
D26*
X-30715000Y6713000D03*
X-33255000Y6713000D03*
X-35795000Y6713000D03*
D27*
X18150800Y-5242200D03*
X20050800Y-5242200D03*
X20050800Y-7442200D03*
X19100800Y-7442200D03*
X18150800Y-7442200D03*
M02*
